<?xml version="1.0" standalone="no"?>
<!DOCTYPE svg PUBLIC "-//W3C//DTD SVG 1.1//EN" "http://www.w3.org/Graphics/SVG/1.1/DTD/svg11.dtd" >
<svg xmlns="http://www.w3.org/2000/svg" xmlns:xlink="http://www.w3.org/1999/xlink" version="1.1">
<metadata>
Created by FontForge 20170924 at Wed Jul 29 17:38:48 2020
 By www-data
Copyright \(c\) 2013 by Dieter Hofrichter. All rights reserved.
</metadata>
<defs>
<font id="EquipExtended-Regular" horiz-adv-x="448" >
  <font-face 
    font-family="Equip Extended"
    font-weight="400"
    font-stretch="normal"
    units-per-em="1000"
    panose-1="2 0 5 3 3 0 0 2 0 4"
    ascent="750"
    descent="-250"
    x-height="495"
    cap-height="689"
    bbox="-177 -290 1408 982"
    underline-thickness="50"
    underline-position="-100"
    stemh="95"
    stemv="101"
    unicode-range="U+000D-FB04"
  />
<missing-glyph horiz-adv-x="251" 
 />
    <glyph glyph-name="f_b" unicode="fb" horiz-adv-x="1085" 
d="M210 0h-97v411h-90v84h90v49c0 79 20 120 50 146c35 32 84 50 150 50c34 0 69 -6 85 -16v-91h-4c-25 14 -54 18 -81 18c-32 0 -64 -9 -81 -30c-14 -17 -22 -44 -22 -87v-39h154v-84h-154v-411zM545 0h-92v728h97v-318c36 51 123 99 215 99c178 0 272 -108 272 -260
c0 -150 -111 -262 -282 -262c-92 0 -169 37 -210 87v-74zM552 180c28 -57 102 -104 195 -104c130 0 191 81 191 173c0 99 -65 170 -192 170c-87 0 -166 -48 -194 -109v-130z" />
    <glyph glyph-name="f_f" unicode="ff" horiz-adv-x="742" 
d="M210 0h-97v411h-90v84h90v29c0 79 23 119 51 146c34 33 83 50 154 50c37 0 78 -11 94 -22v-91h-4c-25 15 -60 24 -87 24c-38 0 -71 -10 -88 -30c-14 -16 -23 -44 -23 -88v-18h143v-84h-143v-411zM581 0h-97v411h-86v84h86v49c0 79 23 119 51 146c34 33 83 50 154 50
c37 0 78 -11 94 -22v-91h-4c-25 15 -60 24 -87 24c-38 0 -71 -10 -88 -30c-14 -16 -23 -44 -23 -88v-38h147v-84h-147v-411z" />
    <glyph glyph-name="f_f_b" unicode="ffb" horiz-adv-x="1456" 
d="M210 0h-97v411h-90v84h90v29c0 79 23 119 51 146c34 33 83 50 154 50c37 0 78 -11 94 -22v-91h-4c-25 15 -60 24 -87 24c-38 0 -71 -10 -88 -30c-14 -16 -23 -44 -23 -88v-18h143v-84h-143v-411zM581 0h-97v411h-85v84h85v49c0 79 20 120 50 146c35 32 84 50 150 50
c34 0 69 -6 85 -16v-91h-4c-25 14 -54 18 -81 18c-32 0 -64 -9 -81 -30c-14 -17 -22 -44 -22 -87v-39h154v-84h-154v-411zM916 0h-92v728h97v-318c36 51 123 99 215 99c178 0 272 -108 272 -260c0 -150 -111 -262 -282 -262c-92 0 -169 37 -210 87v-74zM923 180
c28 -57 102 -104 195 -104c130 0 191 81 191 173c0 99 -65 170 -192 170c-87 0 -166 -48 -194 -109v-130z" />
    <glyph glyph-name="f_f_h" unicode="ffh" horiz-adv-x="1397" 
d="M210 0h-97v411h-90v84h90v29c0 79 23 119 51 146c34 33 83 50 154 50c37 0 78 -11 94 -22v-91h-4c-25 15 -60 24 -87 24c-38 0 -71 -10 -88 -30c-14 -16 -23 -44 -23 -88v-18h143v-84h-143v-411zM581 0h-97v411h-85v84h85v49c0 79 20 120 50 146c35 32 84 50 150 50
c34 0 69 -6 85 -16v-91h-4c-25 14 -54 18 -81 18c-32 0 -64 -9 -81 -30c-14 -17 -22 -44 -22 -87v-39h154v-84h-154v-411zM921 0h-97v728h97v-313c32 50 106 92 203 92c104 0 164 -41 183 -106c9 -29 12 -60 12 -108v-293h-97v271c0 44 -7 78 -15 93c-17 32 -56 51 -113 51
c-65 0 -141 -34 -173 -85v-330z" />
    <glyph glyph-name="f_f_i" unicode="ffi" horiz-adv-x="1005" 
d="M210 0h-97v411h-90v84h90v29c0 79 23 119 51 146c34 33 83 50 154 50c37 0 78 -11 94 -22v-91h-4c-25 15 -60 24 -87 24c-38 0 -71 -10 -88 -30c-14 -16 -23 -44 -23 -88v-18h141v-84h-141v-411zM581 0h-97v411h-86v84h86v49c0 79 20 120 50 146c35 32 84 50 150 50
c34 0 69 -6 85 -16v-91h-4c-25 14 -54 18 -81 18c-32 0 -64 -9 -81 -30c-14 -17 -22 -44 -22 -87v-39h154v-84h-154v-411zM922 0h-98v495h98v-495zM933 655c0 -34 -23 -59 -59 -59c-33 0 -60 20 -60 59c0 43 31 61 61 61s58 -18 58 -61z" />
    <glyph glyph-name="f_f_j" unicode="ffj" horiz-adv-x="1005" 
d="M210 0h-97v411h-90v84h90v29c0 79 23 119 51 146c34 33 83 50 154 50c37 0 78 -11 94 -22v-91h-4c-25 15 -60 24 -87 24c-38 0 -71 -10 -88 -30c-14 -16 -23 -44 -23 -88v-18h141v-84h-141v-411zM581 0h-97v411h-86v84h86v49c0 79 20 120 50 146c35 32 84 50 150 50
c34 0 69 -6 85 -16v-91h-4c-25 15 -54 18 -81 18c-32 0 -64 -9 -81 -30c-14 -17 -22 -44 -22 -87v-39h154v-84h-154v-411zM658 -193v93h4c21 -13 51 -20 78 -20c28 0 50 7 63 20c18 19 21 52 21 105v490h98v-498c0 -83 -10 -128 -33 -154c-28 -31 -69 -53 -134 -53
c-36 0 -71 5 -97 17zM933 655c0 -34 -23 -59 -59 -59c-33 0 -60 20 -60 59c0 43 31 61 61 61s58 -18 58 -61z" />
    <glyph glyph-name="f_f_k" unicode="ffk" horiz-adv-x="1329" 
d="M921 0h-97v728h97v-447l248 214h144l-220 -180l236 -315h-122l-186 256l-100 -82v-174zM581 0h-97v411h-85v84h85v49c0 79 20 120 50 146c35 32 84 50 150 50c34 0 68 -7 85 -16v-91h-4c-25 15 -54 18 -81 18c-32 0 -63 -9 -81 -30c-15 -17 -22 -44 -22 -87v-39h154v-84
h-154v-411zM210 0h-97v411h-90v84h90v29c0 79 23 119 51 146c34 33 83 50 154 50c37 0 78 -11 94 -22v-91h-4c-25 15 -60 24 -87 24c-38 0 -71 -10 -88 -30c-14 -16 -23 -44 -23 -88v-18h143v-84h-143v-411z" />
    <glyph glyph-name="f_f_l" unicode="ffl" horiz-adv-x="1003" 
d="M210 0h-97v411h-90v84h90v29c0 79 23 119 51 146c34 33 83 50 154 50c37 0 78 -11 94 -22v-91h-4c-25 15 -60 24 -87 24c-38 0 -71 -10 -88 -30c-14 -16 -23 -44 -23 -88v-18h143v-84h-143v-411zM581 0h-97v411h-86v84h86v49c0 79 20 120 50 146c35 32 84 50 150 50
c34 0 69 -5 85 -16v-91h-4c-25 15 -54 18 -81 18c-32 0 -64 -9 -81 -30c-14 -17 -22 -44 -22 -87v-39h154v-84h-154v-411zM921 0h-97v728h97v-728z" />
    <glyph glyph-name="f_h" unicode="fh" horiz-adv-x="1026" 
d="M210 0h-97v411h-90v84h90v49c0 79 20 120 50 146c35 32 84 50 150 50c34 0 69 -6 85 -16v-91h-4c-24 14 -54 18 -81 18c-32 0 -64 -9 -81 -30c-14 -17 -22 -44 -22 -87v-39h154v-84h-154v-411zM550 0h-97v728h97v-313c32 50 106 92 203 92c104 0 164 -41 183 -106
c9 -29 12 -60 12 -108v-293h-97v271c0 44 -7 78 -15 93c-17 32 -56 51 -113 51c-65 0 -141 -34 -173 -85v-330z" />
    <glyph glyph-name="f_j" unicode="fj" horiz-adv-x="634" 
d="M210 0h-97v411h-90v84h90v49c0 79 20 120 50 146c35 32 84 50 150 50c34 0 69 -6 85 -16v-91h-4c-25 15 -54 18 -81 18c-32 0 -64 -9 -81 -30c-14 -17 -22 -44 -22 -87v-39h154v-84h-154v-411zM287 -193v93h4c21 -13 51 -20 78 -20c28 0 50 7 63 20c18 19 21 52 21 105
v490h98v-498c0 -83 -10 -128 -33 -154c-28 -31 -69 -53 -134 -53c-36 0 -71 5 -97 17zM562 655c0 -34 -23 -59 -59 -59c-33 0 -60 20 -60 59c0 43 31 61 61 61s58 -18 58 -61z" />
    <glyph glyph-name="f_k" unicode="fk" horiz-adv-x="958" 
d="M550 0h-97v728h97v-447l248 214h144l-220 -180l236 -315h-122l-186 256l-100 -82v-174zM210 0h-97v411h-90v84h90v49c0 79 20 120 50 146c35 32 84 50 150 50c34 0 69 -6 85 -16v-91h-4c-25 14 -54 18 -81 18c-32 0 -64 -9 -81 -30c-14 -17 -22 -44 -22 -87v-39h154v-84
h-154v-411z" />
    <glyph glyph-name="fi" unicode="fi" horiz-adv-x="634" 
d="M210 0h-97v411h-90v84h90v49c0 79 20 120 50 146c35 32 84 50 150 50c34 0 69 -6 85 -16v-91h-4c-25 14 -54 18 -81 18c-32 0 -64 -9 -81 -30c-14 -17 -22 -44 -22 -87v-39h154v-84h-154v-411zM551 0h-98v495h98v-495zM562 655c0 -34 -23 -59 -59 -59
c-33 0 -60 20 -60 59c0 43 31 61 61 61s58 -18 58 -61z" />
    <glyph glyph-name="fl" unicode="fl" horiz-adv-x="632" 
d="M210 0h-97v411h-90v84h90v49c0 79 20 120 50 146c35 32 84 50 150 50c34 0 69 -6 85 -16v-91h-4c-25 14 -54 18 -81 18c-32 0 -64 -9 -81 -30c-14 -17 -22 -44 -22 -87v-39h154v-84h-154v-411zM550 0h-97v728h97v-728z" />
    <glyph glyph-name=".notdef" horiz-adv-x="251" 
 />
    <glyph glyph-name="A" unicode="A" horiz-adv-x="746" 
d="M117 0h-112l318 689h102l316 -689h-117l-90 199h-326zM244 281h254c-92 207 -104 240 -125 292c-22 -50 -36 -84 -129 -292z" />
    <glyph glyph-name="AE" unicode="&#xc6;" horiz-adv-x="1112" 
d="M125 0h-125l521 689h536v-99h-382v-182h360v-98h-360v-211h399v-99h-500v200h-298zM345 297h229v314c-40 -57 -65 -92 -229 -314z" />
    <glyph glyph-name="AEacute" unicode="&#x1fc;" horiz-adv-x="1112" 
d="M125 0h-125l521 689h536v-99h-382v-182h360v-98h-360v-211h399v-99h-500v200h-298zM345 297h229v314c-40 -57 -65 -92 -229 -314zM791 750h-108v4l161 130h157v-4z" />
    <glyph glyph-name="Aacute" unicode="&#xc1;" horiz-adv-x="746" 
d="M117 0h-112l318 689h102l316 -689h-117l-90 199h-326zM244 281h254c-92 207 -104 240 -125 292c-22 -50 -36 -84 -129 -292zM379 750h-108v4l161 130h157v-4z" />
    <glyph glyph-name="Abreve" unicode="&#x102;" horiz-adv-x="746" 
d="M117 0h-112l318 689h102l316 -689h-117l-90 199h-326zM244 281h254c-92 207 -104 240 -125 292c-22 -50 -36 -84 -129 -292zM207 884h74c4 -54 39 -73 88 -73c53 0 87 20 91 73h76c-1 -81 -61 -145 -168 -145c-102 0 -161 59 -161 145z" />
    <glyph glyph-name="Acircumflex" unicode="&#xc2;" horiz-adv-x="746" 
d="M117 0h-112l318 689h102l316 -689h-117l-90 199h-326zM244 281h254c-92 207 -104 240 -125 292c-22 -50 -36 -84 -129 -292zM283 750h-100v4l159 130h64l157 -130v-4h-97l-95 60z" />
    <glyph glyph-name="Adieresis" unicode="&#xc4;" horiz-adv-x="746" 
d="M117 0h-112l318 689h102l316 -689h-117l-90 199h-326zM244 281h254c-92 207 -104 240 -125 292c-22 -50 -36 -84 -129 -292zM328 809c0 -31 -22 -54 -55 -54c-30 0 -57 18 -57 54c0 39 30 57 58 57c27 0 54 -18 54 -57zM528 809c0 -31 -22 -54 -55 -54
c-30 0 -57 18 -57 54c0 39 30 57 58 57c27 0 54 -18 54 -57z" />
    <glyph glyph-name="Agrave" unicode="&#xc0;" horiz-adv-x="746" 
d="M117 0h-112l318 689h102l316 -689h-117l-90 199h-326zM244 281h254c-92 207 -104 240 -125 292c-22 -50 -36 -84 -129 -292zM479 750h-109l-209 130v4h156l162 -130v-4z" />
    <glyph glyph-name="Amacron" unicode="&#x100;" horiz-adv-x="746" 
d="M117 0h-112l318 689h102l316 -689h-117l-90 199h-326zM244 281h254c-92 207 -104 240 -125 292c-22 -50 -36 -84 -129 -292zM546 765h-345v78h345v-78z" />
    <glyph glyph-name="Aogonek" unicode="&#x104;" horiz-adv-x="746" 
d="M117 0h-112l318 689h102l316 -689h-37c-84 -49 -110 -78 -110 -123c0 -36 27 -56 71 -56c21 0 44 3 66 14h4v-64c-26 -15 -63 -21 -95 -21c-69 0 -130 38 -130 111c0 56 34 102 114 139l-90 199h-326zM244 281h254c-92 207 -104 240 -125 292c-22 -50 -36 -84 -129 -292z
" />
    <glyph glyph-name="Aring" unicode="&#xc5;" horiz-adv-x="746" 
d="M117 0h-112l318 689h102l316 -689h-117l-90 199h-326zM244 281h254c-92 207 -104 240 -125 292c-22 -50 -36 -84 -129 -292zM478 817c0 -55 -45 -98 -102 -98s-100 42 -100 98c0 58 44 98 102 98c59 0 100 -40 100 -98zM435 818c0 34 -26 59 -59 59
c-34 0 -58 -27 -58 -60c0 -31 22 -60 60 -60c34 0 57 29 57 61z" />
    <glyph glyph-name="Aringacute" unicode="&#x1fa;" horiz-adv-x="746" 
d="M117 0h-112l309 670c-22 16 -35 42 -35 71c0 53 42 91 97 91c58 0 96 -38 96 -91c0 -30 -15 -55 -38 -72l307 -669h-117l-90 199h-326zM244 281h254c-92 207 -104 240 -125 292c-22 -50 -36 -84 -129 -292zM396 860h-83v4l144 118h136v-4zM427 742c0 31 -22 50 -52 50
s-51 -20 -51 -51c0 -29 19 -51 52 -51c32 0 51 22 51 52z" />
    <glyph glyph-name="Atilde" unicode="&#xc3;" horiz-adv-x="746" 
d="M117 0h-112l318 689h102l316 -689h-117l-90 199h-326zM244 281h254c-92 207 -104 240 -125 292c-22 -50 -36 -84 -129 -292zM263 750h-71c6 87 53 127 112 127c25 0 46 -8 80 -28c29 -16 50 -22 64 -22c23 0 34 12 38 53h70c-7 -90 -56 -130 -106 -130
c-30 0 -44 4 -84 24c-32 16 -54 26 -67 26c-20 0 -31 -13 -36 -50z" />
    <glyph glyph-name="B" unicode="B" horiz-adv-x="699" 
d="M85 0v689h202c38 0 94 -2 126 -4c116 -8 187 -63 187 -164c0 -79 -45 -134 -118 -158c100 -14 164 -63 164 -164c0 -82 -46 -153 -136 -179c-46 -14 -121 -20 -206 -20h-219zM186 96h134c68 0 120 5 150 15c43 14 69 42 69 98c0 38 -16 72 -64 89c-29 10 -74 13 -138 13
h-151v-215zM186 403h123c54 0 108 3 133 13c36 14 55 42 55 83c0 46 -20 76 -76 88c-28 6 -60 8 -120 8h-115v-192z" />
    <glyph glyph-name="C" unicode="C" horiz-adv-x="767" 
d="M715 54c-47 -37 -153 -68 -250 -68c-250 0 -412 147 -412 359c0 232 197 359 425 359c87 0 188 -23 234 -61v-110h-4c-54 49 -150 76 -233 76c-170 0 -311 -87 -311 -260c0 -182 139 -268 307 -268c99 0 180 34 240 81h4v-108z" />
    <glyph glyph-name="Cacute" unicode="&#x106;" horiz-adv-x="767" 
d="M715 54c-47 -37 -153 -68 -250 -68c-250 0 -412 147 -412 359c0 232 197 359 425 359c87 0 188 -23 234 -61v-110h-4c-54 49 -150 76 -233 76c-170 0 -311 -87 -311 -260c0 -182 139 -268 307 -268c99 0 180 34 240 81h4v-108zM474 750h-108v4l161 130h157v-4z" />
    <glyph glyph-name="Ccaron" unicode="&#x10c;" horiz-adv-x="767" 
d="M715 54c-47 -37 -153 -68 -250 -68c-250 0 -412 147 -412 359c0 232 197 359 425 359c87 0 188 -23 234 -61v-110h-4c-54 49 -150 76 -233 76c-170 0 -311 -87 -311 -260c0 -182 139 -268 307 -268c99 0 180 34 240 81h4v-108zM537 884h97v-4l-157 -130h-63l-156 130v4
h96l95 -60z" />
    <glyph glyph-name="Ccedilla" unicode="&#xc7;" horiz-adv-x="767" 
d="M332 -239v63h4c23 -13 59 -19 75 -19c46 0 60 19 60 42c0 20 -14 40 -61 40c-11 0 -31 -2 -43 -7l-3 2l34 108c-212 24 -345 162 -345 355c0 232 197 359 425 359c87 0 188 -23 234 -61v-110h-4c-54 49 -150 76 -233 76c-170 0 -311 -87 -311 -260
c0 -182 139 -268 307 -268c99 0 180 34 240 81h4v-108c-47 -37 -153 -68 -250 -68h-4l-16 -46h4c60 0 106 -32 106 -89c0 -64 -43 -108 -140 -108c-28 0 -65 8 -83 18z" />
    <glyph glyph-name="Ccircumflex" unicode="&#x108;" horiz-adv-x="767" 
d="M715 54c-47 -37 -153 -68 -250 -68c-250 0 -412 147 -412 359c0 232 197 359 425 359c87 0 188 -23 234 -61v-110h-4c-54 49 -150 76 -233 76c-170 0 -311 -87 -311 -260c0 -182 139 -268 307 -268c99 0 180 34 240 81h4v-108zM361 750h-100v4l159 130h64l157 -130v-4
h-97l-95 60z" />
    <glyph glyph-name="Cdotaccent" unicode="&#x10a;" horiz-adv-x="767" 
d="M715 54c-47 -37 -153 -68 -250 -68c-250 0 -412 147 -412 359c0 232 197 359 425 359c87 0 188 -23 234 -61v-110h-4c-54 49 -150 76 -233 76c-170 0 -311 -87 -311 -260c0 -182 139 -268 307 -268c99 0 180 34 240 81h4v-108zM507 809c0 -31 -22 -54 -55 -54
c-30 0 -57 18 -57 54c0 39 30 57 58 57c27 0 54 -18 54 -57z" />
    <glyph glyph-name="D" unicode="D" horiz-adv-x="819" 
d="M85 0v689h220c98 0 169 -10 221 -23c145 -36 240 -132 240 -311c0 -162 -78 -271 -241 -324c-63 -20 -141 -31 -252 -31h-188zM186 98h99c107 0 198 19 244 41c77 37 130 102 130 213c0 97 -52 182 -155 215c-42 14 -99 24 -201 24h-117v-493z" />
    <glyph glyph-name="Dcaron" unicode="&#x10e;" horiz-adv-x="819" 
d="M85 0v689h220c98 0 169 -10 221 -23c145 -36 240 -132 240 -311c0 -162 -78 -271 -241 -324c-63 -20 -141 -31 -252 -31h-188zM186 98h99c107 0 198 19 244 41c77 37 130 102 130 213c0 97 -52 182 -155 215c-42 14 -99 24 -201 24h-117v-493zM474 884h97v-4l-157 -130
h-63l-156 130v4h96l95 -60z" />
    <glyph glyph-name="Dcroat" unicode="&#x110;" horiz-adv-x="819" 
d="M85 0v313h-72v90h72v286h220c98 0 169 -10 221 -23c145 -36 240 -132 240 -311c0 -162 -78 -271 -241 -324c-63 -20 -141 -31 -252 -31h-188zM186 98h99c107 0 198 19 244 41c77 37 130 102 130 213c0 97 -52 182 -155 215c-42 14 -99 24 -201 24h-117v-188h259v-90h-259
v-215z" />
    <glyph glyph-name="Delta" unicode="&#x2206;" horiz-adv-x="754" 
d="M748 0h-742l330 689h91zM378 586c-27 -62 -56 -126 -226 -498h448c-169 370 -194 434 -222 498z" />
    <glyph glyph-name="Dotlessi" horiz-adv-x="271" 
d="M186 0h-101v689h101v-689z" />
    <glyph glyph-name="E" unicode="E" horiz-adv-x="623" 
d="M585 0h-500v689h483v-99h-382v-182h360v-99h-360v-210h399v-99z" />
    <glyph glyph-name="Eacute" unicode="&#xc9;" horiz-adv-x="623" 
d="M585 0h-500v689h483v-99h-382v-182h360v-99h-360v-210h399v-99zM366 750h-108v4l161 130h157v-4z" />
    <glyph glyph-name="Ebreve" unicode="&#x114;" horiz-adv-x="623" 
d="M585 0h-500v689h483v-99h-382v-182h360v-99h-360v-210h399v-99zM161 884h74c4 -54 39 -73 88 -73c53 0 87 20 91 73h76c-1 -81 -61 -145 -168 -145c-102 0 -161 59 -161 145z" />
    <glyph glyph-name="Ecaron" unicode="&#x11a;" horiz-adv-x="623" 
d="M585 0h-500v689h483v-99h-382v-182h360v-99h-360v-210h399v-99zM423 884h97v-4l-157 -130h-63l-156 130v4h96l95 -60z" />
    <glyph glyph-name="Ecircumflex" unicode="&#xca;" horiz-adv-x="623" 
d="M585 0h-500v689h483v-99h-382v-182h360v-99h-360v-210h399v-99zM248 750h-100v4l159 130h64l157 -130v-4h-97l-95 60z" />
    <glyph glyph-name="Edieresis" unicode="&#xcb;" horiz-adv-x="623" 
d="M585 0h-500v689h483v-99h-382v-182h360v-99h-360v-210h399v-99zM294 809c0 -31 -22 -54 -55 -54c-30 0 -57 18 -57 54c0 39 30 57 58 57c27 0 54 -18 54 -57zM494 809c0 -31 -22 -54 -55 -54c-30 0 -57 18 -57 54c0 39 30 57 58 57c27 0 54 -18 54 -57z" />
    <glyph glyph-name="Edotaccent" unicode="&#x116;" horiz-adv-x="623" 
d="M585 0h-500v689h483v-99h-382v-182h360v-99h-360v-210h399v-99zM392 809c0 -31 -22 -54 -55 -54c-30 0 -57 18 -57 54c0 39 30 57 58 57c27 0 54 -18 54 -57z" />
    <glyph glyph-name="Egrave" unicode="&#xc8;" horiz-adv-x="623" 
d="M585 0h-500v689h483v-99h-382v-182h360v-99h-360v-210h399v-99zM439 750h-109l-209 130v4h156l162 -130v-4z" />
    <glyph glyph-name="Emacron" unicode="&#x112;" horiz-adv-x="623" 
d="M585 0h-500v689h483v-99h-382v-182h360v-99h-360v-210h399v-99zM504 765h-345v78h345v-78z" />
    <glyph glyph-name="Eng" unicode="&#x14a;" horiz-adv-x="807" 
d="M186 0h-101v689h114c310 -369 365 -431 426 -509c-3 123 -4 220 -4 509h101v-712c0 -83 -12 -126 -35 -152c-28 -31 -75 -55 -140 -55c-37 0 -71 5 -98 17v97h4c21 -12 53 -19 79 -19c28 0 58 7 70 20c19 19 22 42 22 95v41c-299 367 -361 436 -441 535
c3 -162 3 -253 3 -556z" />
    <glyph glyph-name="Eogonek" unicode="&#x118;" horiz-adv-x="623" 
d="M585 0h-39c-84 -49 -110 -78 -110 -123c0 -36 27 -56 71 -56c21 0 44 3 66 14h4v-64c-26 -15 -63 -21 -95 -21c-69 0 -130 38 -130 111c0 56 34 102 114 139h-381v689h483v-99h-382v-182h360v-99h-360v-210h399v-99z" />
    <glyph glyph-name="Eth" unicode="&#xd0;" horiz-adv-x="819" 
d="M85 0v313h-72v90h72v286h220c98 0 169 -10 221 -23c145 -36 240 -132 240 -311c0 -162 -78 -271 -241 -324c-63 -20 -141 -31 -252 -31h-188zM186 98h99c107 0 198 19 244 41c77 37 130 102 130 213c0 97 -52 182 -155 215c-42 14 -99 24 -201 24h-117v-188h259v-90h-259
v-215z" />
    <glyph glyph-name="Euro" unicode="&#x20ac;" horiz-adv-x="742" 
d="M559 226h-299c33 -102 118 -148 240 -148c82 0 144 20 203 64h4v-97c-49 -35 -129 -59 -219 -59c-185 0 -300 85 -334 240h-95v58h86c-2 16 -2 32 -2 50c0 12 0 24 1 36h-85v58h93c36 165 170 251 347 251c81 0 161 -18 206 -54v-103h-5c-46 41 -130 66 -202 66
c-126 0 -215 -48 -244 -160h305v-58h-314c-1 -11 -1 -22 -1 -33c0 -19 1 -37 3 -53h312v-58z" />
    <glyph glyph-name="Euro.denominator" horiz-adv-x="498" 
d="M370 139h-182c22 -55 76 -77 149 -77c53 0 90 13 130 40h4v-73c-32 -22 -87 -38 -147 -38c-119 0 -196 52 -219 148h-58v40h52c-1 9 -1 18 -1 28v21h-51v40h58c24 101 112 153 225 153c56 0 111 -12 140 -34v-78h-5c-29 25 -82 41 -130 41c-74 0 -130 -23 -150 -82h185
v-40h-193c-1 -6 -1 -13 -1 -19c0 -11 0 -21 2 -30h192v-40z" />
    <glyph glyph-name="Euro.inferior" horiz-adv-x="498" 
d="M370 12h-182c22 -55 76 -77 149 -77c53 0 90 13 130 40h4v-73c-32 -22 -87 -38 -147 -38c-119 0 -196 52 -219 148h-58v40h52c-1 9 -1 18 -1 28v21h-51v40h58c24 101 112 153 225 153c56 0 111 -12 140 -34v-78h-5c-29 25 -82 41 -130 41c-74 0 -130 -23 -150 -82h185
v-40h-193c-1 -6 -1 -13 -1 -19c0 -11 0 -21 2 -30h192v-40z" />
    <glyph glyph-name="Euro.numerator" horiz-adv-x="497" 
d="M370 392h-182c22 -55 76 -77 149 -77c53 0 90 13 130 40h4v-73c-32 -22 -87 -38 -147 -38c-119 0 -196 52 -219 148h-58v40h52c-1 9 -1 18 -1 28v21h-51v40h58c24 101 112 153 225 153c56 0 111 -12 140 -34v-78h-5c-29 25 -82 41 -130 41c-74 0 -130 -23 -150 -82h185
v-40h-193c-1 -6 -1 -13 -1 -19c0 -11 0 -21 2 -30h192v-40z" />
    <glyph glyph-name="Euro.oldstyle" horiz-adv-x="714" 
d="M530 203h-268c32 -89 110 -127 219 -127c76 0 136 19 190 61h4v-96c-46 -32 -122 -55 -204 -55c-169 0 -280 76 -315 217h-87v58h78c-2 14 -2 29 -2 44c0 11 0 21 1 32h-77v58h86c36 149 165 226 326 226c76 0 151 -17 192 -50v-102h-4c-42 38 -122 61 -189 61
c-114 0 -195 -38 -223 -135h273v-58h-283c-1 -10 -1 -19 -1 -29c0 -17 0 -33 2 -47h282v-58z" />
    <glyph glyph-name="Euro.superior" horiz-adv-x="498" 
d="M370 539h-182c22 -55 76 -77 149 -77c53 0 90 13 130 40h4v-73c-32 -22 -87 -38 -147 -38c-119 0 -196 52 -219 148h-58v40h52c-1 9 -1 18 -1 28v21h-51v40h58c24 101 112 153 225 153c56 0 111 -12 140 -34v-78h-5c-29 25 -82 41 -130 41c-74 0 -130 -23 -150 -82h185
v-40h-193c-1 -6 -1 -13 -1 -19c0 -11 0 -21 2 -30h192v-40z" />
    <glyph glyph-name="F" unicode="F" horiz-adv-x="582" 
d="M186 0h-101v689h464v-99h-363v-203h334v-99h-334v-288z" />
    <glyph glyph-name="G" unicode="G" horiz-adv-x="829" 
d="M754 53c-60 -34 -167 -67 -288 -67c-233 0 -413 128 -413 359c0 237 203 359 428 359c94 0 192 -23 242 -61v-109h-4c-50 46 -140 75 -238 75c-167 0 -317 -79 -317 -258c0 -186 137 -270 315 -270c68 0 124 11 166 28v163h-197v98h306v-317z" />
    <glyph glyph-name="Gbreve" unicode="&#x11e;" horiz-adv-x="829" 
d="M754 53c-60 -34 -167 -67 -288 -67c-233 0 -413 128 -413 359c0 237 203 359 428 359c94 0 192 -23 242 -61v-109h-4c-50 46 -140 75 -238 75c-167 0 -317 -79 -317 -258c0 -186 137 -270 315 -270c68 0 124 11 166 28v163h-197v98h306v-317zM274 884h74
c4 -54 39 -73 88 -73c53 0 87 20 91 73h76c-1 -81 -61 -145 -168 -145c-102 0 -161 59 -161 145z" />
    <glyph glyph-name="Gcircumflex" unicode="&#x11c;" horiz-adv-x="829" 
d="M754 53c-60 -34 -167 -67 -288 -67c-233 0 -413 128 -413 359c0 237 203 359 428 359c94 0 192 -23 242 -61v-109h-4c-50 46 -140 75 -238 75c-167 0 -317 -79 -317 -258c0 -186 137 -270 315 -270c68 0 124 11 166 28v163h-197v98h306v-317zM349 750h-100v4l159 130h64
l157 -130v-4h-97l-95 60z" />
    <glyph glyph-name="Gcommaaccent" unicode="&#x122;" horiz-adv-x="829" 
d="M754 53c-60 -34 -167 -67 -288 -67c-233 0 -413 128 -413 359c0 237 203 359 428 359c94 0 192 -23 242 -61v-109h-4c-50 46 -140 75 -238 75c-167 0 -317 -79 -317 -258c0 -186 137 -270 315 -270c68 0 124 11 166 28v163h-197v98h306v-317zM421 -290h-86v4
c43 31 86 88 86 153c0 23 -4 47 -15 69h96c11 -17 13 -43 13 -63c0 -69 -47 -130 -94 -163z" />
    <glyph glyph-name="Gdotaccent" unicode="&#x120;" horiz-adv-x="829" 
d="M754 53c-60 -34 -167 -67 -288 -67c-233 0 -413 128 -413 359c0 237 203 359 428 359c94 0 192 -23 242 -61v-109h-4c-50 46 -140 75 -238 75c-167 0 -317 -79 -317 -258c0 -186 137 -270 315 -270c68 0 124 11 166 28v163h-197v98h306v-317zM491 809
c0 -31 -22 -54 -55 -54c-30 0 -57 18 -57 54c0 39 30 57 58 57c27 0 54 -18 54 -57z" />
    <glyph glyph-name="H" unicode="H" horiz-adv-x="802" 
d="M186 0h-101v689h101v-281h430v281h101v-689h-101v310h-430v-310z" />
    <glyph glyph-name="Hbar" unicode="&#x126;" horiz-adv-x="802" 
d="M186 0h-101v465h-72v92h72v132h101v-132h430v132h101v-132h72v-92h-72v-465h-101v310h-430v-310zM186 408h430v57h-430v-57z" />
    <glyph glyph-name="Hcircumflex" unicode="&#x124;" horiz-adv-x="802" 
d="M186 0h-101v689h101v-281h430v281h101v-689h-101v310h-430v-310zM310 750h-100v4l159 130h64l157 -130v-4h-97l-95 60z" />
    <glyph glyph-name="I" unicode="I" horiz-adv-x="271" 
d="M186 0h-101v689h101v-689z" />
    <glyph glyph-name="IJ" unicode="&#x132;" horiz-adv-x="711" 
d="M186 0h-101v689h101v-689zM288 9v98h4c33 -17 76 -26 111 -26c49 0 83 11 104 42c19 27 20 71 20 135v431h101v-451c0 -75 -3 -128 -25 -166c-31 -54 -94 -86 -188 -86c-54 0 -96 10 -127 23z" />
    <glyph glyph-name="Iacute" unicode="&#xcd;" horiz-adv-x="271" 
d="M186 0h-101v689h101v-689zM163 750h-108v4l161 130h157v-4z" />
    <glyph glyph-name="Ibreve" unicode="&#x12c;" horiz-adv-x="271" 
d="M186 0h-101v689h101v-689zM-29 884h74c4 -54 39 -73 88 -73c53 0 87 20 91 73h76c-1 -81 -61 -145 -168 -145c-102 0 -161 59 -161 145z" />
    <glyph glyph-name="Icircumflex" unicode="&#xce;" horiz-adv-x="271" 
d="M186 0h-101v689h101v-689zM46 750h-100v4l159 130h64l157 -130v-4h-97l-95 60z" />
    <glyph glyph-name="Idieresis" unicode="&#xcf;" horiz-adv-x="271" 
d="M186 0h-101v689h101v-689zM93 809c0 -31 -22 -54 -55 -54c-30 0 -57 18 -57 54c0 39 30 57 58 57c27 0 54 -18 54 -57zM293 809c0 -31 -22 -54 -55 -54c-30 0 -57 18 -57 54c0 39 30 57 58 57c27 0 54 -18 54 -57z" />
    <glyph glyph-name="Idotaccent" unicode="&#x130;" horiz-adv-x="271" 
d="M186 0h-101v689h101v-689zM190 809c0 -31 -22 -54 -55 -54c-30 0 -57 18 -57 54c0 39 30 57 58 57c27 0 54 -18 54 -57z" />
    <glyph glyph-name="Igrave" unicode="&#xcc;" horiz-adv-x="271" 
d="M186 0h-101v689h101v-689zM242 750h-109l-209 130v4h156l162 -130v-4z" />
    <glyph glyph-name="Imacron" unicode="&#x12a;" horiz-adv-x="271" 
d="M186 0h-101v689h101v-689zM288 765h-305v78h305v-78z" />
    <glyph glyph-name="Iogonek" unicode="&#x12e;" horiz-adv-x="271" 
d="M186 0h-21c-84 -49 -110 -78 -110 -123c0 -36 27 -56 71 -56c21 0 44 3 66 14h4v-64c-26 -15 -63 -21 -95 -21c-69 0 -130 38 -130 111c0 56 34 102 114 139v689h101v-689z" />
    <glyph glyph-name="Itilde" unicode="&#x128;" horiz-adv-x="271" 
d="M186 0h-101v689h101v-689zM25 750h-71c6 87 53 127 112 127c25 0 46 -8 80 -28c29 -16 50 -22 64 -22c23 0 34 12 38 53h70c-7 -90 -56 -130 -106 -130c-30 0 -44 4 -84 24c-32 16 -54 26 -67 26c-20 0 -31 -13 -36 -50z" />
    <glyph glyph-name="J" unicode="J" horiz-adv-x="440" 
d="M17 9v98h4c33 -17 76 -26 111 -26c49 0 83 11 104 42c19 27 20 71 20 135v431h101v-451c0 -75 -3 -128 -25 -166c-31 -54 -94 -86 -188 -86c-54 0 -96 10 -127 23z" />
    <glyph glyph-name="Jcircumflex" unicode="&#x134;" horiz-adv-x="440" 
d="M17 9v98h4c33 -17 76 -26 111 -26c49 0 83 11 104 42c19 27 20 71 20 135v431h101v-451c0 -75 -3 -128 -25 -166c-31 -54 -94 -86 -188 -86c-54 0 -96 10 -127 23zM214 750h-100v4l159 130h64l157 -130v-4h-97l-95 60z" />
    <glyph glyph-name="K" unicode="K" horiz-adv-x="710" 
d="M577 0l-271 356l-120 -111v-245h-101v689h101v-327l339 327h142l-286 -264l328 -425h-132z" />
    <glyph glyph-name="Kcommaaccent" unicode="&#x136;" horiz-adv-x="710" 
d="M577 0l-271 356l-120 -111v-245h-101v689h101v-327l339 327h142l-286 -264l328 -425h-132zM345 -290h-86v4c43 31 86 88 86 153c0 23 -4 47 -15 69h96c11 -17 13 -43 13 -63c0 -69 -47 -130 -94 -163z" />
    <glyph glyph-name="Kgreenlandic" horiz-adv-x="710" 
d="M577 0l-271 356l-120 -111v-245h-101v689h101v-327l339 327h142l-286 -264l328 -425h-132zM770 719h82v-4c-46 -37 -87 -101 -87 -178c0 -27 3 -57 15 -83h-105c-9 20 -12 49 -12 73c0 84 56 156 107 192z" />
    <glyph glyph-name="L" unicode="L" horiz-adv-x="595" 
d="M559 0h-474v689h101v-590h373v-99z" />
    <glyph glyph-name="Lacute" unicode="&#x139;" horiz-adv-x="595" 
d="M559 0h-474v689h101v-590h373v-99zM177 750h-108v4l161 130h157v-4z" />
    <glyph glyph-name="Lcaron" unicode="&#x13d;" horiz-adv-x="595" 
d="M559 0h-474v689h101v-590h373v-99zM347 501h-86v4c43 31 86 88 86 153c0 23 -4 47 -15 69h96c11 -17 13 -43 13 -63c0 -69 -47 -130 -94 -163z" />
    <glyph glyph-name="Lcommaaccent" unicode="&#x13b;" horiz-adv-x="595" 
d="M559 0h-474v689h101v-590h373v-99zM309 -290h-86v4c43 31 86 88 86 153c0 23 -4 47 -15 69h96c11 -17 13 -43 13 -63c0 -69 -47 -130 -94 -163z" />
    <glyph glyph-name="Ldot" unicode="&#x13f;" horiz-adv-x="595" 
d="M559 0h-474v689h101v-590h373v-99zM508 324c0 -40 -31 -67 -72 -67c-39 0 -70 25 -70 67c0 49 37 70 70 70c34 0 72 -21 72 -70z" />
    <glyph glyph-name="Lslash" unicode="&#x141;" horiz-adv-x="595" 
d="M559 0h-474v231l-72 -39v100l72 39v358h101v-304l180 97v-100l-180 -97v-186h373v-99z" />
    <glyph glyph-name="M" unicode="M" horiz-adv-x="927" 
d="M186 0h-101v689h113c192 -298 221 -344 268 -423c50 83 77 126 269 423h107v-689h-102c0 392 0 460 3 538c-43 -71 -90 -142 -245 -386h-73c-155 242 -194 308 -242 387c3 -100 3 -159 3 -539z" />
    <glyph glyph-name="N" unicode="N" horiz-adv-x="807" 
d="M186 0h-101v689h114c312 -367 365 -427 426 -509c-3 123 -4 220 -4 509h101v-689h-82c-362 437 -404 487 -457 550c3 -162 3 -247 3 -550z" />
    <glyph glyph-name="Nacute" unicode="&#x143;" horiz-adv-x="807" 
d="M186 0h-101v689h114c312 -367 365 -427 426 -509c-3 123 -4 220 -4 509h101v-689h-82c-362 437 -404 487 -457 550c3 -162 3 -247 3 -550zM418 750h-108v4l161 130h157v-4z" />
    <glyph glyph-name="Ncaron" unicode="&#x147;" horiz-adv-x="807" 
d="M186 0h-101v689h114c312 -367 365 -427 426 -509c-3 123 -4 220 -4 509h101v-689h-82c-362 437 -404 487 -457 550c3 -162 3 -247 3 -550zM415 750h-108v4l161 130h157v-4z" />
    <glyph glyph-name="Ncommaaccent" unicode="&#x145;" horiz-adv-x="807" 
d="M186 0h-101v689h114c312 -367 365 -427 426 -509c-3 123 -4 220 -4 509h101v-689h-82c-362 437 -404 487 -457 550c3 -162 3 -247 3 -550zM384 -290h-86v4c43 31 86 88 86 153c0 23 -4 47 -15 69h96c11 -17 13 -43 13 -63c0 -69 -47 -130 -94 -163z" />
    <glyph glyph-name="Ntilde" unicode="&#xd1;" horiz-adv-x="807" 
d="M186 0h-101v689h114c312 -367 365 -427 426 -509c-3 123 -4 220 -4 509h101v-689h-82c-362 437 -404 487 -457 550c3 -162 3 -247 3 -550zM305 750h-71c6 87 53 127 112 127c25 0 46 -8 80 -28c29 -16 50 -22 64 -22c23 0 34 12 38 53h70c-7 -90 -56 -130 -106 -130
c-30 0 -44 4 -84 24c-32 16 -54 26 -67 26c-20 0 -31 -13 -36 -50z" />
    <glyph glyph-name="O" unicode="O" horiz-adv-x="917" 
d="M864 345c0 -208 -169 -359 -408 -359c-236 0 -403 149 -403 359c0 208 175 359 408 359c243 0 403 -144 403 -359zM757 344c0 155 -111 265 -297 265c-174 0 -300 -106 -300 -265c0 -165 129 -263 301 -263c180 0 296 109 296 263z" />
    <glyph glyph-name="OE" unicode="&#x152;" horiz-adv-x="1260" 
d="M1222 0h-500v84c-65 -66 -161 -98 -265 -98c-236 0 -404 150 -404 355c0 220 182 363 412 363c104 0 198 -29 257 -94v79h483v-99h-382v-182h360v-99h-360v-210h399v-99zM722 207v275c-44 75 -129 127 -262 127c-184 0 -300 -115 -300 -262c0 -163 121 -266 300 -266
c124 0 211 50 262 126z" />
    <glyph glyph-name="Oacute" unicode="&#xd3;" horiz-adv-x="917" 
d="M864 345c0 -208 -169 -359 -408 -359c-236 0 -403 149 -403 359c0 208 175 359 408 359c243 0 403 -144 403 -359zM757 344c0 155 -111 265 -297 265c-174 0 -300 -106 -300 -265c0 -165 129 -263 301 -263c180 0 296 109 296 263zM452 750h-108v4l161 130h157v-4z" />
    <glyph glyph-name="Obreve" unicode="&#x14e;" horiz-adv-x="917" 
d="M864 345c0 -208 -169 -359 -408 -359c-236 0 -403 149 -403 359c0 208 175 359 408 359c243 0 403 -144 403 -359zM757 344c0 155 -111 265 -297 265c-174 0 -300 -106 -300 -265c0 -165 129 -263 301 -263c180 0 296 109 296 263zM297 884h74c4 -54 39 -73 88 -73
c53 0 87 20 91 73h76c-1 -81 -61 -145 -168 -145c-102 0 -161 59 -161 145z" />
    <glyph glyph-name="Ocircumflex" unicode="&#xd4;" horiz-adv-x="917" 
d="M864 345c0 -208 -169 -359 -408 -359c-236 0 -403 149 -403 359c0 208 175 359 408 359c243 0 403 -144 403 -359zM757 344c0 155 -111 265 -297 265c-174 0 -300 -106 -300 -265c0 -165 129 -263 301 -263c180 0 296 109 296 263zM365 750h-100v4l159 130h64l157 -130
v-4h-97l-95 60z" />
    <glyph glyph-name="Odieresis" unicode="&#xd6;" horiz-adv-x="917" 
d="M864 345c0 -208 -169 -359 -408 -359c-236 0 -403 149 -403 359c0 208 175 359 408 359c243 0 403 -144 403 -359zM757 344c0 155 -111 265 -297 265c-174 0 -300 -106 -300 -265c0 -165 129 -263 301 -263c180 0 296 109 296 263zM425 809c0 -31 -22 -54 -55 -54
c-30 0 -57 18 -57 54c0 39 30 57 58 57c27 0 54 -18 54 -57zM625 809c0 -31 -22 -54 -55 -54c-30 0 -57 18 -57 54c0 39 30 57 58 57c27 0 54 -18 54 -57z" />
    <glyph glyph-name="Ograve" unicode="&#xd2;" horiz-adv-x="917" 
d="M864 345c0 -208 -169 -359 -408 -359c-236 0 -403 149 -403 359c0 208 175 359 408 359c243 0 403 -144 403 -359zM757 344c0 155 -111 265 -297 265c-174 0 -300 -106 -300 -265c0 -165 129 -263 301 -263c180 0 296 109 296 263zM580 750h-109l-209 130v4h156l162 -130
v-4z" />
    <glyph glyph-name="Ohungarumlaut" unicode="&#x150;" horiz-adv-x="917" 
d="M864 345c0 -208 -169 -359 -408 -359c-236 0 -403 149 -403 359c0 208 175 359 408 359c243 0 403 -144 403 -359zM757 344c0 155 -111 265 -297 265c-174 0 -300 -106 -300 -265c0 -165 129 -263 301 -263c180 0 296 109 296 263zM375 750h-84v4l145 131h124v-4z
M564 750h-84v4l145 131h124v-4z" />
    <glyph glyph-name="Omacron" unicode="&#x14c;" horiz-adv-x="917" 
d="M864 345c0 -208 -169 -359 -408 -359c-236 0 -403 149 -403 359c0 208 175 359 408 359c243 0 403 -144 403 -359zM757 344c0 155 -111 265 -297 265c-174 0 -300 -106 -300 -265c0 -165 129 -263 301 -263c180 0 296 109 296 263zM632 765h-345v78h345v-78z" />
    <glyph glyph-name="Omega" unicode="&#x2126;" horiz-adv-x="824" 
d="M354 0h-291v90h214c-135 50 -212 145 -212 290c0 199 156 319 351 319c199 0 341 -119 341 -311c0 -145 -75 -241 -213 -298h217v-90h-291v135c115 42 183 123 183 237c0 154 -115 233 -240 233c-130 0 -240 -82 -240 -237c0 -112 61 -194 181 -233v-135z" />
    <glyph glyph-name="Oslash" unicode="&#xd8;" horiz-adv-x="917" 
d="M217 -40h-85l72 97c-94 64 -151 165 -151 288c0 207 176 359 408 359c73 0 138 -13 194 -37l53 71h87l-78 -105c93 -62 147 -163 147 -288c0 -208 -169 -359 -408 -359c-71 0 -136 14 -192 38zM160 344c0 -91 39 -162 103 -207l332 448c-39 15 -84 24 -135 24
c-172 0 -300 -108 -300 -265zM757 344c0 87 -36 161 -100 208l-332 -447c40 -16 86 -24 136 -24c180 0 296 109 296 263z" />
    <glyph glyph-name="Oslashacute" unicode="&#x1fe;" horiz-adv-x="917" 
d="M217 -40h-85l72 97c-94 64 -151 165 -151 288c0 207 176 359 408 359c73 0 138 -13 194 -37l53 71h87l-78 -105c93 -62 147 -163 147 -288c0 -208 -169 -359 -408 -359c-71 0 -136 14 -192 38zM160 344c0 -91 39 -162 103 -207l332 448c-39 15 -84 24 -135 24
c-172 0 -300 -108 -300 -265zM757 344c0 87 -36 161 -100 208l-332 -447c40 -16 86 -24 136 -24c180 0 296 109 296 263zM502 750h-108v4l161 130h157v-4z" />
    <glyph glyph-name="Otilde" unicode="&#xd5;" horiz-adv-x="917" 
d="M864 345c0 -208 -169 -359 -408 -359c-236 0 -403 149 -403 359c0 208 175 359 408 359c243 0 403 -144 403 -359zM757 344c0 155 -111 265 -297 265c-174 0 -300 -106 -300 -265c0 -165 129 -263 301 -263c180 0 296 109 296 263zM351 750h-71c6 87 53 127 112 127
c25 0 46 -8 80 -28c29 -16 50 -22 64 -22c23 0 34 12 38 53h70c-7 -90 -56 -130 -106 -130c-30 0 -44 4 -84 24c-32 16 -54 26 -67 26c-20 0 -31 -13 -36 -50z" />
    <glyph glyph-name="P" unicode="P" horiz-adv-x="700" 
d="M186 0h-101v689h247c81 0 142 -10 187 -24c79 -25 131 -91 131 -182c0 -109 -50 -182 -152 -212c-45 -13 -106 -20 -162 -20h-150v-251zM186 346h155c65 0 110 9 139 21c44 19 63 57 63 112c0 46 -27 82 -70 97c-38 13 -80 16 -132 16h-155v-246z" />
    <glyph glyph-name="Q" unicode="Q" horiz-adv-x="917" 
d="M864 345c0 -133 -69 -242 -181 -304l177 -105l-53 -83l-242 145c-35 -8 -71 -12 -109 -12c-236 0 -403 149 -403 359c0 208 175 359 408 359c243 0 403 -144 403 -359zM757 344c0 155 -111 265 -297 265c-174 0 -300 -106 -300 -265c0 -165 129 -263 301 -263
c180 0 296 109 296 263z" />
    <glyph glyph-name="R" unicode="R" horiz-adv-x="700" 
d="M682 0h-120l-190 285c-22 -2 -45 -2 -70 -2h-116v-283h-101v689h235c82 0 141 -6 186 -20c80 -24 124 -84 124 -174c0 -102 -60 -164 -156 -192zM186 375h128c73 0 118 8 148 19c43 16 61 53 61 97c0 43 -23 76 -69 90c-32 10 -81 14 -134 14h-134v-220z" />
    <glyph glyph-name="Racute" unicode="&#x154;" horiz-adv-x="700" 
d="M682 0h-120l-190 285c-22 -2 -45 -2 -70 -2h-116v-283h-101v689h235c82 0 141 -6 186 -20c80 -24 124 -84 124 -174c0 -102 -60 -164 -156 -192zM186 375h128c73 0 118 8 148 19c43 16 61 53 61 97c0 43 -23 76 -69 90c-32 10 -81 14 -134 14h-134v-220zM360 750h-108v4
l161 130h157v-4z" />
    <glyph glyph-name="Rcaron" unicode="&#x158;" horiz-adv-x="700" 
d="M682 0h-120l-190 285c-22 -2 -45 -2 -70 -2h-116v-283h-101v689h235c82 0 141 -6 186 -20c80 -24 124 -84 124 -174c0 -102 -60 -164 -156 -192zM186 375h128c73 0 118 8 148 19c43 16 61 53 61 97c0 43 -23 76 -69 90c-32 10 -81 14 -134 14h-134v-220zM404 884h97v-4
l-157 -130h-63l-156 130v4h96l95 -60z" />
    <glyph glyph-name="Rcommaaccent" unicode="&#x156;" horiz-adv-x="700" 
d="M682 0h-120l-190 285c-22 -2 -45 -2 -70 -2h-116v-283h-101v689h235c82 0 141 -6 186 -20c80 -24 124 -84 124 -174c0 -102 -60 -164 -156 -192zM186 375h128c73 0 118 8 148 19c43 16 61 53 61 97c0 43 -23 76 -69 90c-32 10 -81 14 -134 14h-134v-220zM336 -290h-86v4
c43 31 86 88 86 153c0 23 -4 47 -15 69h96c11 -17 13 -43 13 -63c0 -69 -47 -130 -94 -163z" />
    <glyph glyph-name="S" unicode="S" horiz-adv-x="633" 
d="M39 57v113h4c79 -66 192 -89 273 -89c108 0 175 21 175 97c0 57 -51 81 -174 113l-91 24c-128 34 -176 104 -176 186c0 114 107 203 294 203c71 0 180 -23 218 -54v-112h-4c-60 49 -151 71 -236 71c-132 0 -165 -50 -165 -97s22 -75 136 -106l106 -29
c143 -39 199 -95 199 -185c0 -108 -81 -206 -292 -206c-87 0 -202 21 -267 71z" />
    <glyph glyph-name="S_S" horiz-adv-x="1309" 
d="M39 57v113h4c79 -66 192 -89 273 -89c108 0 175 21 175 97c0 57 -51 81 -174 113l-91 24c-128 34 -176 104 -176 186c0 114 107 203 294 203c71 0 180 -23 218 -54v-112h-4c-60 49 -151 71 -236 71c-132 0 -165 -50 -165 -97s22 -75 136 -106l106 -29
c143 -39 199 -95 199 -185c0 -108 -81 -206 -292 -206c-87 0 -202 21 -267 71zM693 57v113h4c79 -66 192 -89 273 -89c108 0 175 21 175 97c0 57 -51 81 -174 113l-91 24c-128 34 -176 104 -176 186c0 114 107 203 294 203c71 0 180 -23 218 -54v-112h-4
c-60 49 -151 71 -236 71c-132 0 -165 -50 -165 -97s22 -75 136 -106l106 -29c143 -39 199 -95 199 -185c0 -108 -81 -206 -292 -206c-87 0 -202 21 -267 71z" />
    <glyph glyph-name="Sacute" unicode="&#x15a;" horiz-adv-x="633" 
d="M39 57v113h4c79 -66 192 -89 273 -89c108 0 175 21 175 97c0 57 -51 81 -174 113l-91 24c-128 34 -176 104 -176 186c0 114 107 203 294 203c71 0 180 -23 218 -54v-112h-4c-60 49 -151 71 -236 71c-132 0 -165 -50 -165 -97s22 -75 136 -106l106 -29
c143 -39 199 -95 199 -185c0 -108 -81 -206 -292 -206c-87 0 -202 21 -267 71zM348 750h-108v4l161 130h157v-4z" />
    <glyph glyph-name="Scaron" unicode="&#x160;" horiz-adv-x="633" 
d="M39 57v113h4c79 -66 192 -89 273 -89c108 0 175 21 175 97c0 57 -51 81 -174 113l-91 24c-128 34 -176 104 -176 186c0 114 107 203 294 203c71 0 180 -23 218 -54v-112h-4c-60 49 -151 71 -236 71c-132 0 -165 -50 -165 -97s22 -75 136 -106l106 -29
c143 -39 199 -95 199 -185c0 -108 -81 -206 -292 -206c-87 0 -202 21 -267 71zM415 884h97v-4l-157 -130h-63l-156 130v4h96l95 -60z" />
    <glyph glyph-name="Scedilla" unicode="&#x15e;" horiz-adv-x="633" 
d="M200 -239v63h4c23 -13 59 -19 75 -19c46 0 60 19 60 42c0 20 -14 40 -61 40c-11 0 -31 -2 -43 -7l-3 2l34 106c-80 5 -172 26 -227 69v113h4c79 -66 192 -89 273 -89c108 0 175 21 175 97c0 57 -51 81 -174 113l-91 24c-128 34 -176 104 -176 186c0 114 107 203 294 203
c71 0 180 -23 218 -54v-112h-4c-60 49 -151 71 -236 71c-132 0 -165 -50 -165 -97s22 -75 136 -106l106 -29c143 -39 199 -95 199 -185c0 -104 -75 -199 -269 -206l-16 -46h4c60 0 106 -32 106 -89c0 -64 -43 -108 -140 -108c-28 0 -65 8 -83 18z" />
    <glyph glyph-name="Scircumflex" unicode="&#x15c;" horiz-adv-x="633" 
d="M39 57v113h4c79 -66 192 -89 273 -89c108 0 175 21 175 97c0 57 -51 81 -174 113l-91 24c-128 34 -176 104 -176 186c0 114 107 203 294 203c71 0 180 -23 218 -54v-112h-4c-60 49 -151 71 -236 71c-132 0 -165 -50 -165 -97s22 -75 136 -106l106 -29
c143 -39 199 -95 199 -185c0 -108 -81 -206 -292 -206c-87 0 -202 21 -267 71zM234 750h-100v4l159 130h64l157 -130v-4h-97l-95 60z" />
    <glyph glyph-name="T" unicode="T" horiz-adv-x="641" 
d="M367 0h-101v591h-253v98h615v-98h-261v-591z" />
    <glyph glyph-name="Tbar" unicode="&#x166;" horiz-adv-x="641" 
d="M367 0h-101v325h-162v92h162v174h-253v98h615v-98h-261v-174h162v-92h-162v-325z" />
    <glyph glyph-name="Tcaron" unicode="&#x164;" horiz-adv-x="641" 
d="M367 0h-101v591h-253v98h615v-98h-261v-591zM408 884h97v-4l-157 -130h-63l-156 130v4h96l95 -60z" />
    <glyph glyph-name="Thorn" unicode="&#xde;" horiz-adv-x="700" 
d="M186 0h-101v689h101v-116h146c81 0 142 -10 187 -24c79 -25 130 -91 130 -182c0 -109 -49 -182 -151 -212c-45 -13 -106 -20 -162 -20h-150v-135zM186 230h155c65 0 110 9 139 21c44 19 62 57 62 112c0 46 -26 82 -69 97c-38 13 -80 16 -132 16h-155v-246z" />
    <glyph glyph-name="U" unicode="U" horiz-adv-x="836" 
d="M731 689v-388c0 -101 -14 -151 -44 -195c-45 -66 -146 -120 -282 -120c-130 0 -241 43 -289 125c-25 44 -35 108 -35 188v390h102v-366c0 -69 1 -122 32 -170c29 -44 109 -72 192 -72c77 0 153 24 190 71c27 33 39 87 39 165v372h95z" />
    <glyph glyph-name="Uacute" unicode="&#xda;" horiz-adv-x="836" 
d="M731 689v-388c0 -101 -14 -151 -44 -195c-45 -66 -146 -120 -282 -120c-130 0 -241 43 -289 125c-25 44 -35 108 -35 188v390h102v-366c0 -69 1 -122 32 -170c29 -44 109 -72 192 -72c77 0 153 24 190 71c27 33 39 87 39 165v372h95zM428 750h-108v4l161 130h157v-4z" />
    <glyph glyph-name="Ubreve" unicode="&#x16c;" horiz-adv-x="836" 
d="M731 689v-388c0 -101 -14 -151 -44 -195c-45 -66 -146 -120 -282 -120c-130 0 -241 43 -289 125c-25 44 -35 108 -35 188v390h102v-366c0 -69 1 -122 32 -170c29 -44 109 -72 192 -72c77 0 153 24 190 71c27 33 39 87 39 165v372h95zM237 884h74c4 -54 39 -73 88 -73
c53 0 87 20 91 73h76c-1 -81 -61 -145 -168 -145c-102 0 -161 59 -161 145z" />
    <glyph glyph-name="Ucircumflex" unicode="&#xdb;" horiz-adv-x="836" 
d="M731 689v-388c0 -101 -14 -151 -44 -195c-45 -66 -146 -120 -282 -120c-130 0 -241 43 -289 125c-25 44 -35 108 -35 188v390h102v-366c0 -69 1 -122 32 -170c29 -44 109 -72 192 -72c77 0 153 24 190 71c27 33 39 87 39 165v372h95zM318 750h-100v4l159 130h64l157 -130
v-4h-97l-95 60z" />
    <glyph glyph-name="Udieresis" unicode="&#xdc;" horiz-adv-x="836" 
d="M731 689v-388c0 -101 -14 -151 -44 -195c-45 -66 -146 -120 -282 -120c-130 0 -241 43 -289 125c-25 44 -35 108 -35 188v390h102v-366c0 -69 1 -122 32 -170c29 -44 109 -72 192 -72c77 0 153 24 190 71c27 33 39 87 39 165v372h95zM365 809c0 -31 -22 -54 -55 -54
c-30 0 -57 18 -57 54c0 39 30 57 58 57c27 0 54 -18 54 -57zM565 809c0 -31 -22 -54 -55 -54c-30 0 -57 18 -57 54c0 39 30 57 58 57c27 0 54 -18 54 -57z" />
    <glyph glyph-name="Ugrave" unicode="&#xd9;" horiz-adv-x="836" 
d="M731 689v-388c0 -101 -14 -151 -44 -195c-45 -66 -146 -120 -282 -120c-130 0 -241 43 -289 125c-25 44 -35 108 -35 188v390h102v-366c0 -69 1 -122 32 -170c29 -44 109 -72 192 -72c77 0 153 24 190 71c27 33 39 87 39 165v372h95zM529 750h-109l-209 130v4h156
l162 -130v-4z" />
    <glyph glyph-name="Uhungarumlaut" unicode="&#x170;" horiz-adv-x="836" 
d="M731 689v-388c0 -101 -14 -151 -44 -195c-45 -66 -146 -120 -282 -120c-130 0 -241 43 -289 125c-25 44 -35 108 -35 188v390h102v-366c0 -69 1 -122 32 -170c29 -44 109 -72 192 -72c77 0 153 24 190 71c27 33 39 87 39 165v372h95zM318 750h-84v4l145 131h124v-4z
M507 750h-84v4l145 131h124v-4z" />
    <glyph glyph-name="Umacron" unicode="&#x16a;" horiz-adv-x="836" 
d="M731 689v-388c0 -101 -14 -151 -44 -195c-45 -66 -146 -120 -282 -120c-130 0 -241 43 -289 125c-25 44 -35 108 -35 188v390h102v-366c0 -69 1 -122 32 -170c29 -44 109 -72 192 -72c77 0 153 24 190 71c27 33 39 87 39 165v372h95zM580 765h-345v78h345v-78z" />
    <glyph glyph-name="Uogonek" unicode="&#x172;" horiz-adv-x="836" 
d="M731 689v-388c0 -101 -14 -151 -44 -195c-39 -56 -117 -104 -223 -116c-70 -43 -93 -71 -93 -113c0 -36 27 -56 71 -56c21 0 44 3 66 14h4v-64c-26 -15 -63 -21 -95 -21c-69 0 -130 38 -130 111c0 50 26 91 87 126c-116 6 -214 48 -258 124c-25 44 -35 108 -35 188v390
h102v-366c0 -69 1 -122 32 -170c29 -44 109 -72 192 -72c77 0 153 24 190 71c27 33 39 87 39 165v372h95z" />
    <glyph glyph-name="Uring" unicode="&#x16e;" horiz-adv-x="836" 
d="M731 689v-388c0 -101 -14 -151 -44 -195c-45 -66 -146 -120 -282 -120c-130 0 -241 43 -289 125c-25 44 -35 108 -35 188v390h102v-366c0 -69 1 -122 32 -170c29 -44 109 -72 192 -72c77 0 153 24 190 71c27 33 39 87 39 165v372h95zM505 817c0 -55 -45 -98 -102 -98
s-100 42 -100 98c0 58 44 98 102 98c59 0 100 -40 100 -98zM462 818c0 34 -26 59 -59 59c-34 0 -58 -27 -58 -60c0 -31 22 -60 60 -60c34 0 57 29 57 61z" />
    <glyph glyph-name="Utilde" unicode="&#x168;" horiz-adv-x="836" 
d="M731 689v-388c0 -101 -14 -151 -44 -195c-45 -66 -146 -120 -282 -120c-130 0 -241 43 -289 125c-25 44 -35 108 -35 188v390h102v-366c0 -69 1 -122 32 -170c29 -44 109 -72 192 -72c77 0 153 24 190 71c27 33 39 87 39 165v372h95zM299 750h-71c6 87 53 127 112 127
c25 0 46 -8 80 -28c29 -16 50 -22 64 -22c23 0 34 12 38 53h70c-7 -90 -56 -130 -106 -130c-30 0 -44 4 -84 24c-32 16 -54 26 -67 26c-20 0 -31 -13 -36 -50z" />
    <glyph glyph-name="V" unicode="V" horiz-adv-x="727" 
d="M412 0h-101l-308 689h119c168 -380 200 -451 243 -559c43 105 78 181 244 559h114z" />
    <glyph glyph-name="W" unicode="W" horiz-adv-x="1099" 
d="M348 0h-101l-230 689h117c117 -366 144 -452 172 -546c29 91 56 171 196 546h97c142 -377 171 -456 199 -546c25 87 51 169 169 546h114l-232 -689h-101c-150 410 -172 472 -202 558c-27 -84 -49 -147 -198 -558z" />
    <glyph glyph-name="Wacute" unicode="&#x1e82;" horiz-adv-x="1099" 
d="M348 0h-101l-230 689h117c117 -366 144 -452 172 -546c29 91 56 171 196 546h97c142 -377 171 -456 199 -546c25 87 51 169 169 546h114l-232 -689h-101c-150 410 -172 472 -202 558c-27 -84 -49 -147 -198 -558zM573 750h-108v4l161 130h157v-4z" />
    <glyph glyph-name="Wcircumflex" unicode="&#x174;" horiz-adv-x="1099" 
d="M348 0h-101l-230 689h117c117 -366 144 -452 172 -546c29 91 56 171 196 546h97c142 -377 171 -456 199 -546c25 87 51 169 169 546h114l-232 -689h-101c-150 410 -172 472 -202 558c-27 -84 -49 -147 -198 -558zM457 750h-100v4l159 130h64l157 -130v-4h-97l-95 60z" />
    <glyph glyph-name="Wdieresis" unicode="&#x1e84;" horiz-adv-x="1099" 
d="M348 0h-101l-230 689h117c117 -366 144 -452 172 -546c29 91 56 171 196 546h97c142 -377 171 -456 199 -546c25 87 51 169 169 546h114l-232 -689h-101c-150 410 -172 472 -202 558c-27 -84 -49 -147 -198 -558zM504 809c0 -31 -22 -54 -55 -54c-30 0 -57 18 -57 54
c0 39 30 57 58 57c27 0 54 -18 54 -57zM704 809c0 -31 -22 -54 -55 -54c-30 0 -57 18 -57 54c0 39 30 57 58 57c27 0 54 -18 54 -57z" />
    <glyph glyph-name="Wgrave" unicode="&#x1e80;" horiz-adv-x="1099" 
d="M348 0h-101l-230 689h117c117 -366 144 -452 172 -546c29 91 56 171 196 546h97c142 -377 171 -456 199 -546c25 87 51 169 169 546h114l-232 -689h-101c-150 410 -172 472 -202 558c-27 -84 -49 -147 -198 -558zM642 750h-109l-209 130v4h156l162 -130v-4z" />
    <glyph glyph-name="X" unicode="X" horiz-adv-x="781" 
d="M154 0h-139l303 363l-267 326h138c136 -170 171 -215 204 -257c31 41 64 83 201 257h137l-269 -326l304 -363h-135c-157 189 -208 250 -241 291c-38 -45 -84 -103 -236 -291z" />
    <glyph glyph-name="Y" unicode="Y" horiz-adv-x="723" 
d="M408 0h-101v278l-304 411h129c152 -211 191 -262 228 -318c39 55 77 107 235 318h125l-312 -411v-278z" />
    <glyph glyph-name="Yacute" unicode="&#xdd;" horiz-adv-x="723" 
d="M408 0h-101v278l-304 411h129c152 -211 191 -262 228 -318c39 55 77 107 235 318h125l-312 -411v-278zM387 750h-108v4l161 130h157v-4z" />
    <glyph glyph-name="Ycircumflex" unicode="&#x176;" horiz-adv-x="723" 
d="M408 0h-101v278l-304 411h129c152 -211 191 -262 228 -318c39 55 77 107 235 318h125l-312 -411v-278zM270 750h-100v4l159 130h64l157 -130v-4h-97l-95 60z" />
    <glyph glyph-name="Ydieresis" unicode="&#x178;" horiz-adv-x="723" 
d="M408 0h-101v278l-304 411h129c152 -211 191 -262 228 -318c39 55 77 107 235 318h125l-312 -411v-278zM319 809c0 -31 -22 -54 -55 -54c-30 0 -57 18 -57 54c0 39 30 57 58 57c27 0 54 -18 54 -57zM519 809c0 -31 -22 -54 -55 -54c-30 0 -57 18 -57 54c0 39 30 57 58 57
c27 0 54 -18 54 -57z" />
    <glyph glyph-name="Ygrave" unicode="&#x1ef2;" horiz-adv-x="723" 
d="M408 0h-101v278l-304 411h129c152 -211 191 -262 228 -318c39 55 77 107 235 318h125l-312 -411v-278zM451 750h-109l-209 130v4h156l162 -130v-4z" />
    <glyph glyph-name="Z" unicode="Z" horiz-adv-x="697" 
d="M668 0h-654v67c377 403 438 468 493 524h-454v98h615v-73c-365 -389 -423 -447 -491 -518h491v-98z" />
    <glyph glyph-name="Zacute" unicode="&#x179;" horiz-adv-x="697" 
d="M668 0h-654v67c377 403 438 468 493 524h-454v98h615v-73c-365 -389 -423 -447 -491 -518h491v-98zM386 750h-108v4l161 130h157v-4z" />
    <glyph glyph-name="Zcaron" unicode="&#x17d;" horiz-adv-x="697" 
d="M668 0h-654v67c377 403 438 468 493 524h-454v98h615v-73c-365 -389 -423 -447 -491 -518h491v-98zM459 884h97v-4l-157 -130h-63l-156 130v4h96l95 -60z" />
    <glyph glyph-name="Zdotaccent" unicode="&#x17b;" horiz-adv-x="697" 
d="M668 0h-654v67c377 403 438 468 493 524h-454v98h615v-73c-365 -389 -423 -447 -491 -518h491v-98zM427 809c0 -31 -22 -54 -55 -54c-30 0 -57 18 -57 54c0 39 30 57 58 57c27 0 54 -18 54 -57z" />
    <glyph glyph-name="a" unicode="a" horiz-adv-x="609" 
d="M602 5c-17 -9 -42 -12 -64 -12c-64 0 -95 26 -105 66c-38 -48 -102 -72 -187 -72c-134 0 -199 68 -199 152c0 78 49 119 110 138c60 19 111 22 188 22c19 0 53 -2 73 -5v17c0 28 -5 52 -22 72c-21 24 -62 32 -112 32c-47 0 -136 -13 -194 -60h-4v95c66 44 151 59 219 59
c65 0 120 -15 152 -39c41 -30 57 -73 57 -154c0 -37 -1 -100 -1 -142c0 -30 1 -59 5 -70c6 -14 21 -22 42 -22c8 0 28 1 42 6v-83zM419 134c-1 17 -1 25 -1 82c-23 3 -60 6 -82 6c-45 0 -85 -3 -120 -11c-40 -9 -67 -28 -67 -70c0 -41 32 -71 111 -71c64 0 125 23 159 64z
" />
    <glyph glyph-name="aacute" unicode="&#xe1;" horiz-adv-x="609" 
d="M604 5c-17 -9 -42 -12 -64 -12c-64 0 -95 26 -105 66c-38 -48 -102 -72 -187 -72c-134 0 -199 68 -199 152c0 78 49 119 110 138c60 19 111 22 188 22c19 0 53 -2 73 -5v17c0 28 -5 52 -22 72c-21 24 -62 32 -112 32c-47 0 -136 -13 -194 -60h-4v95c66 44 151 59 219 59
c65 0 120 -15 152 -39c41 -30 57 -73 57 -154c0 -37 -1 -100 -1 -142c0 -30 1 -59 5 -70c6 -14 21 -22 42 -22c8 0 28 1 42 6v-83zM421 134c-1 17 -1 25 -1 82c-23 3 -60 6 -82 6c-45 0 -85 -3 -120 -11c-40 -9 -67 -28 -67 -70c0 -41 32 -71 111 -71c64 0 125 23 159 64z
M318 575h-93v4l140 161h135v-4z" />
    <glyph glyph-name="abreve" unicode="&#x103;" horiz-adv-x="609" 
d="M604 5c-17 -9 -42 -12 -64 -12c-64 0 -95 26 -105 66c-38 -48 -102 -72 -187 -72c-134 0 -199 68 -199 152c0 78 49 119 110 138c60 19 111 22 188 22c19 0 53 -2 73 -5v17c0 28 -5 52 -22 72c-21 24 -62 32 -112 32c-47 0 -136 -13 -194 -60h-4v95c66 44 151 59 219 59
c65 0 120 -15 152 -39c41 -30 57 -73 57 -154c0 -37 -1 -100 -1 -142c0 -30 1 -59 5 -70c6 -14 21 -22 42 -22c8 0 28 1 42 6v-83zM421 134c-1 17 -1 25 -1 82c-23 3 -60 6 -82 6c-45 0 -85 -3 -120 -11c-40 -9 -67 -28 -67 -70c0 -41 32 -71 111 -71c64 0 125 23 159 64z
M151 714h75c3 -49 32 -72 84 -72c56 0 83 24 86 72h78c-2 -81 -53 -151 -165 -151c-107 0 -158 65 -158 151z" />
    <glyph glyph-name="acircumflex" unicode="&#xe2;" horiz-adv-x="609" 
d="M604 5c-17 -9 -42 -12 -64 -12c-64 0 -95 26 -105 66c-38 -48 -102 -72 -187 -72c-134 0 -199 68 -199 152c0 78 49 119 110 138c60 19 111 22 188 22c19 0 53 -2 73 -5v17c0 28 -5 52 -22 72c-21 24 -62 32 -112 32c-47 0 -136 -13 -194 -60h-4v95c66 44 151 59 219 59
c65 0 120 -15 152 -39c41 -30 57 -73 57 -154c0 -37 -1 -100 -1 -142c0 -30 1 -59 5 -70c6 -14 21 -22 42 -22c8 0 28 1 42 6v-83zM421 134c-1 17 -1 25 -1 82c-23 3 -60 6 -82 6c-45 0 -85 -3 -120 -11c-40 -9 -67 -28 -67 -70c0 -41 32 -71 111 -71c64 0 125 23 159 64z
M200 575h-88v4l153 157h60l154 -157v-4h-92l-96 82z" />
    <glyph glyph-name="acute" unicode="&#xb4;" horiz-adv-x="241" 
d="M76 575h-93v4l140 161h135v-4z" />
    <glyph glyph-name="acute.cap" horiz-adv-x="241" 
d="M74 750h-108v4l161 130h157v-4z" />
    <glyph glyph-name="adieresis" unicode="&#xe4;" horiz-adv-x="609" 
d="M604 5c-17 -9 -42 -12 -64 -12c-64 0 -95 26 -105 66c-38 -48 -102 -72 -187 -72c-134 0 -199 68 -199 152c0 78 49 119 110 138c60 19 111 22 188 22c19 0 53 -2 73 -5v17c0 28 -5 52 -22 72c-21 24 -62 32 -112 32c-47 0 -136 -13 -194 -60h-4v95c66 44 151 59 219 59
c65 0 120 -15 152 -39c41 -30 57 -73 57 -154c0 -37 -1 -100 -1 -142c0 -30 1 -59 5 -70c6 -14 21 -22 42 -22c8 0 28 1 42 6v-83zM421 134c-1 17 -1 25 -1 82c-23 3 -60 6 -82 6c-45 0 -85 -3 -120 -11c-40 -9 -67 -28 -67 -70c0 -41 32 -71 111 -71c64 0 125 23 159 64z
M267 655c0 -31 -22 -54 -55 -54c-30 0 -57 18 -57 54c0 39 30 57 58 57c27 0 54 -18 54 -57zM457 655c0 -31 -22 -54 -55 -54c-30 0 -57 18 -57 54c0 39 30 57 58 57c27 0 54 -18 54 -57z" />
    <glyph glyph-name="ae" unicode="&#xe6;" horiz-adv-x="1000" 
d="M936 45c-51 -38 -143 -58 -219 -58c-105 0 -187 33 -236 87c-46 -45 -122 -88 -234 -88c-126 0 -200 64 -200 152c0 80 46 119 106 138s117 23 194 23c20 0 54 -3 74 -5v20c0 29 -8 53 -22 69c-18 21 -56 32 -109 32c-55 0 -137 -15 -199 -59h-5v94c66 41 151 59 223 59
c76 0 152 -20 187 -80c46 50 127 79 201 79c173 0 254 -93 256 -234c0 -18 0 -41 -3 -61h-428c6 -87 97 -136 206 -136c75 0 144 19 203 64h5v-96zM522 296h325v6c0 84 -61 122 -156 122c-69 0 -155 -35 -169 -128zM441 137c-9 20 -18 52 -19 80c-22 4 -60 5 -81 5
c-50 0 -102 -3 -139 -15c-35 -11 -53 -31 -53 -64c0 -51 44 -73 111 -73c62 0 147 28 181 67z" />
    <glyph glyph-name="aeacute" unicode="&#x1fd;" horiz-adv-x="1000" 
d="M936 45c-51 -38 -143 -58 -219 -58c-105 0 -187 33 -236 87c-46 -45 -122 -88 -234 -88c-126 0 -200 64 -200 152c0 80 46 119 106 138s117 23 194 23c20 0 54 -3 74 -5v20c0 29 -8 53 -22 69c-18 21 -56 32 -109 32c-55 0 -137 -15 -199 -59h-5v94c66 41 151 59 223 59
c76 0 152 -20 187 -80c46 50 127 79 201 79c173 0 254 -93 256 -234c0 -18 0 -41 -3 -61h-428c6 -87 97 -136 206 -136c75 0 144 19 203 64h5v-96zM522 296h325v6c0 84 -61 122 -156 122c-69 0 -155 -35 -169 -128zM441 137c-9 20 -18 52 -19 80c-22 4 -60 5 -81 5
c-50 0 -102 -3 -139 -15c-35 -11 -53 -31 -53 -64c0 -51 44 -73 111 -73c62 0 147 28 181 67zM526 575h-93v4l140 161h135v-4z" />
    <glyph glyph-name="afii61289" unicode="&#x2113;" horiz-adv-x="528" 
d="M506 122v-87c-41 -35 -90 -49 -143 -49c-116 0 -182 54 -205 174c-33 -21 -51 -32 -83 -51v87c26 15 48 27 71 42c-5 46 -6 85 -6 111c0 90 6 150 27 204c32 81 104 125 184 125c97 0 148 -56 148 -149c0 -133 -134 -237 -254 -315c8 -100 44 -144 130 -144
c41 0 77 13 126 52h5zM237 298c103 73 174 163 174 232c0 49 -26 70 -66 70c-37 0 -69 -22 -86 -61c-17 -38 -26 -99 -26 -171c0 -18 0 -37 4 -70z" />
    <glyph glyph-name="agrave" unicode="&#xe0;" horiz-adv-x="609" 
d="M604 5c-17 -9 -42 -12 -64 -12c-64 0 -95 26 -105 66c-38 -48 -102 -72 -187 -72c-134 0 -199 68 -199 152c0 78 49 119 110 138c60 19 111 22 188 22c19 0 53 -2 73 -5v17c0 28 -5 52 -22 72c-21 24 -62 32 -112 32c-47 0 -136 -13 -194 -60h-4v95c66 44 151 59 219 59
c65 0 120 -15 152 -39c41 -30 57 -73 57 -154c0 -37 -1 -100 -1 -142c0 -30 1 -59 5 -70c6 -14 21 -22 42 -22c8 0 28 1 42 6v-83zM421 134c-1 17 -1 25 -1 82c-23 3 -60 6 -82 6c-45 0 -85 -3 -120 -11c-40 -9 -67 -28 -67 -70c0 -41 32 -71 111 -71c64 0 125 23 159 64z
M394 575h-93l-182 161v4h135l140 -161v-4z" />
    <glyph glyph-name="amacron" unicode="&#x101;" horiz-adv-x="609" 
d="M604 5c-17 -9 -42 -12 -64 -12c-64 0 -95 26 -105 66c-38 -48 -102 -72 -187 -72c-134 0 -199 68 -199 152c0 78 49 119 110 138c60 19 111 22 188 22c19 0 53 -2 73 -5v17c0 28 -5 52 -22 72c-21 24 -62 32 -112 32c-47 0 -136 -13 -194 -60h-4v95c66 44 151 59 219 59
c65 0 120 -15 152 -39c41 -30 57 -73 57 -154c0 -37 -1 -100 -1 -142c0 -30 1 -59 5 -70c6 -14 21 -22 42 -22c8 0 28 1 42 6v-83zM421 134c-1 17 -1 25 -1 82c-23 3 -60 6 -82 6c-45 0 -85 -3 -120 -11c-40 -9 -67 -28 -67 -70c0 -41 32 -71 111 -71c64 0 125 23 159 64z
M472 580h-323v80h323v-80z" />
    <glyph glyph-name="ampersand" unicode="&#x26;" horiz-adv-x="795" 
d="M797 0h-154c-24 15 -52 34 -73 51c-56 -38 -121 -65 -228 -65c-184 0 -289 90 -289 209c0 77 33 143 143 186c-28 38 -38 75 -38 123c0 88 75 172 234 172c52 0 105 -11 140 -35v-103h-4c-33 30 -90 46 -145 46c-85 0 -120 -37 -120 -87c0 -26 11 -53 46 -91
c51 -54 181 -160 253 -216c18 23 36 68 36 116c0 17 -1 52 -10 77h107c5 -20 7 -58 7 -75c0 -81 -29 -140 -66 -181c48 -39 103 -82 161 -123v-4zM485 115c-81 63 -177 139 -234 195c-63 -16 -97 -57 -97 -110c0 -66 71 -122 192 -122c65 0 104 14 139 37z" />
    <glyph glyph-name="ampersand.alt" horiz-adv-x="781" 
d="M782 0h-153c-21 15 -50 38 -73 56c-57 -41 -118 -69 -229 -69c-176 0 -274 92 -274 198c0 77 32 147 153 191c-42 47 -58 92 -58 142c0 81 65 158 204 158c105 0 184 -46 184 -142c0 -87 -62 -139 -169 -181c57 -54 123 -113 190 -166c22 24 46 73 46 144
c0 8 -3 31 -5 38h99c2 -11 5 -36 5 -47c0 -84 -33 -156 -73 -196c49 -41 100 -81 153 -122v-4zM486 118c-81 65 -146 124 -215 189c-90 -25 -115 -69 -115 -115c0 -64 65 -116 180 -116c60 0 114 12 150 42zM300 417c90 35 138 59 138 114c0 41 -37 65 -87 65
c-71 0 -103 -36 -103 -72c0 -33 15 -69 52 -107z" />
    <glyph glyph-name="aogonek" unicode="&#x105;" horiz-adv-x="609" 
d="M604 5c-17 -9 -42 -12 -64 -12c-73 -43 -97 -71 -97 -112c0 -35 27 -55 71 -55c21 0 44 3 66 14h4v-62c-26 -15 -63 -21 -95 -21c-69 0 -129 37 -129 108c0 56 36 102 120 138c-25 11 -39 31 -45 56c-38 -48 -102 -72 -187 -72c-134 0 -199 68 -199 152
c0 78 49 119 110 138c60 19 111 22 188 22c19 0 53 -2 73 -5v17c0 28 -5 52 -22 72c-21 24 -62 32 -112 32c-47 0 -136 -13 -194 -60h-4v95c66 44 151 59 219 59c65 0 120 -15 152 -39c41 -30 57 -73 57 -154c0 -37 -1 -100 -1 -142c0 -30 1 -59 5 -70c6 -14 21 -22 42 -22
c8 0 28 1 42 6v-83zM421 134c-1 17 -1 25 -1 82c-23 3 -60 6 -82 6c-45 0 -85 -3 -120 -11c-40 -9 -67 -28 -67 -70c0 -41 32 -71 111 -71c64 0 125 23 159 64z" />
    <glyph glyph-name="approxequal" unicode="&#x2248;" horiz-adv-x="711" 
d="M133 129l-46 40c57 78 106 106 161 106c31 0 59 -9 121 -44c42 -25 74 -35 98 -35c41 0 70 21 109 80l48 -39c-46 -70 -88 -110 -158 -110c-34 0 -70 11 -120 39c-57 32 -80 39 -100 39c-39 0 -74 -21 -113 -76zM133 323l-46 40c57 78 106 106 161 106
c31 0 59 -8 121 -44c42 -24 74 -34 98 -34c41 0 70 20 109 80l48 -39c-46 -71 -88 -111 -158 -111c-34 0 -70 12 -120 40c-57 32 -80 38 -100 38c-39 0 -74 -21 -113 -76z" />
    <glyph glyph-name="aring" unicode="&#xe5;" horiz-adv-x="609" 
d="M604 5c-17 -9 -42 -12 -64 -12c-64 0 -95 26 -105 66c-38 -48 -102 -72 -187 -72c-134 0 -199 68 -199 152c0 78 49 119 110 138c60 19 111 22 188 22c19 0 53 -2 73 -5v17c0 28 -5 52 -22 72c-21 24 -62 32 -112 32c-47 0 -136 -13 -194 -60h-4v95c66 44 151 59 219 59
c65 0 120 -15 152 -39c41 -30 57 -73 57 -154c0 -37 -1 -100 -1 -142c0 -30 1 -59 5 -70c6 -14 21 -22 42 -22c8 0 28 1 42 6v-83zM421 134c-1 17 -1 25 -1 82c-23 3 -60 6 -82 6c-45 0 -85 -3 -120 -11c-40 -9 -67 -28 -67 -70c0 -41 32 -71 111 -71c64 0 125 23 159 64z
M408 669c0 -56 -46 -100 -104 -100s-103 43 -103 100c0 59 46 100 105 100c60 0 102 -41 102 -100zM365 670c0 36 -26 61 -61 61c-36 0 -60 -27 -60 -62c0 -33 22 -62 62 -62c36 0 59 29 59 63z" />
    <glyph glyph-name="aringacute" unicode="&#x1fb;" horiz-adv-x="609" 
d="M602 5c-17 -9 -42 -12 -64 -12c-64 0 -95 26 -105 66c-38 -48 -102 -72 -187 -72c-134 0 -199 68 -199 152c0 80 47 119 110 138c61 18 111 22 188 22c19 0 53 -2 73 -5v17c0 28 -5 52 -22 72c-21 24 -62 32 -112 32c-47 0 -136 -13 -194 -60h-4v95c66 44 151 59 219 59
c65 0 120 -15 152 -39c41 -30 57 -73 57 -154c0 -37 -1 -100 -1 -142c0 -30 1 -59 5 -70c6 -14 21 -22 42 -22c8 0 28 1 42 6v-83zM419 134c-1 17 -1 25 -1 82c-23 3 -60 6 -82 6c-45 0 -85 -3 -120 -11c-39 -9 -67 -27 -67 -70c0 -42 33 -71 111 -71c64 0 125 23 159 64z
M324 805h-88v4l142 151h133v-4zM404 669c0 -56 -46 -100 -104 -100s-103 43 -103 100c0 59 46 100 105 100c60 0 102 -41 102 -100zM361 670c0 36 -26 61 -61 61c-36 0 -60 -27 -60 -62c0 -33 22 -62 62 -62c36 0 59 29 59 63z" />
    <glyph glyph-name="asciicircum" unicode="^" horiz-adv-x="711" 
d="M583 281h-77l-152 314l-150 -314h-76l189 394h77z" />
    <glyph glyph-name="asciitilde" unicode="~" horiz-adv-x="805" 
d="M151 225l-56 42c65 77 122 105 184 105c36 0 67 -9 137 -44c49 -24 84 -33 111 -33c47 0 80 20 124 79l59 -38c-52 -69 -103 -111 -183 -111c-37 0 -79 9 -135 37c-65 33 -94 42 -116 42c-44 0 -81 -24 -125 -79z" />
    <glyph glyph-name="asterisk" unicode="*" horiz-adv-x="436" 
d="M135 350l-65 43c32 43 69 80 103 114c-50 12 -104 22 -150 37l23 70c53 -16 96 -34 143 -54c-4 49 -9 97 -9 148h76c0 -51 -7 -100 -12 -151c46 19 100 42 147 57l22 -71c-47 -14 -102 -25 -152 -37c33 -35 72 -73 101 -112l-63 -45c-31 43 -58 86 -83 127
c-27 -43 -52 -87 -81 -126z" />
    <glyph glyph-name="at" unicode="@" horiz-adv-x="874" 
d="M722 -63c-73 -43 -171 -73 -283 -73c-229 0 -378 142 -378 354c0 234 184 420 430 420c202 0 328 -121 328 -303c0 -147 -100 -281 -216 -281c-33 0 -55 9 -67 31c-6 9 -8 21 -10 35c-33 -39 -83 -68 -145 -68c-80 0 -150 48 -150 149c0 73 35 147 92 197
c45 40 99 59 150 59c50 0 93 -21 110 -60l13 53h59l-51 -242c-4 -19 -9 -54 -9 -68c0 -26 12 -35 31 -35c61 0 134 109 134 227c0 153 -105 254 -270 254c-203 0 -368 -158 -368 -368c0 -177 127 -301 323 -301c122 0 216 38 282 85h4zM537 205l27 125c-11 50 -51 73 -95 73
c-30 0 -77 -18 -107 -49c-35 -35 -62 -95 -62 -146c0 -68 39 -94 99 -94c43 0 105 31 138 91z" />
    <glyph glyph-name="atilde" unicode="&#xe3;" horiz-adv-x="609" 
d="M604 5c-17 -9 -42 -12 -64 -12c-64 0 -95 26 -105 66c-38 -48 -102 -72 -187 -72c-134 0 -199 68 -199 152c0 78 49 119 110 138c60 19 111 22 188 22c19 0 53 -2 73 -5v17c0 28 -5 52 -22 72c-21 24 -62 32 -112 32c-47 0 -136 -13 -194 -60h-4v95c66 44 151 59 219 59
c65 0 120 -15 152 -39c41 -30 57 -73 57 -154c0 -37 -1 -100 -1 -142c0 -30 1 -59 5 -70c6 -14 21 -22 42 -22c8 0 28 1 42 6v-83zM421 134c-1 17 -1 25 -1 82c-23 3 -60 6 -82 6c-45 0 -85 -3 -120 -11c-40 -9 -67 -28 -67 -70c0 -41 32 -71 111 -71c64 0 125 23 159 64z
M192 589h-69c7 87 49 129 109 129c27 0 49 -7 83 -27c29 -16 48 -23 62 -23c23 0 35 12 40 53h68c-8 -90 -52 -133 -104 -133c-30 0 -45 5 -85 24c-34 15 -52 26 -66 26c-20 0 -34 -12 -38 -49z" />
    <glyph glyph-name="b" unicode="b" horiz-adv-x="714" 
d="M174 0h-92v728h97v-318c36 51 123 99 215 99c178 0 272 -108 272 -260c0 -150 -111 -262 -282 -262c-92 0 -169 37 -210 87v-74zM181 180c28 -57 102 -104 195 -104c130 0 191 81 191 173c0 99 -65 170 -192 170c-87 0 -166 -48 -194 -109v-130z" />
    <glyph glyph-name="backslash" unicode="\" horiz-adv-x="426" 
d="M437 -57h-80l-372 788h80z" />
    <glyph glyph-name="bar" unicode="|" horiz-adv-x="256" 
d="M172 -184h-87v949h87v-949z" />
    <glyph glyph-name="braceleft" unicode="{" horiz-adv-x="393" 
d="M367 -169h-48c-106 0 -183 25 -183 165v110c0 124 -34 144 -109 153v54c84 12 109 38 109 152v111c0 138 78 166 183 166h48v-58h-44c-54 0 -100 -14 -100 -108v-108c0 -142 -31 -157 -100 -181c69 -15 100 -53 100 -185v-105c0 -92 46 -108 100 -108h44v-58z" />
    <glyph glyph-name="braceleft.cap" horiz-adv-x="381" 
d="M369 -90h-40c-109 0 -189 25 -189 165v73c0 124 -29 144 -109 153v54c89 12 109 38 109 152v74c0 138 80 166 189 166h40v-58h-36c-56 0 -103 -14 -103 -108v-71c0 -142 -32 -157 -103 -181c71 -15 103 -53 103 -185v-68c0 -92 47 -108 103 -108h36v-58z" />
    <glyph glyph-name="braceright" unicode="}" horiz-adv-x="393" 
d="M27 742h48c106 0 183 -25 183 -165v-110c0 -124 34 -144 109 -153v-54c-84 -12 -109 -38 -109 -152v-111c0 -138 -78 -166 -183 -166h-48v58h44c54 0 100 14 100 108v108c0 142 31 157 100 181c-69 15 -100 53 -100 185v105c0 92 -46 108 -100 108h-44v58z" />
    <glyph glyph-name="braceright.cap" horiz-adv-x="381" 
d="M10 747h40c110 0 189 -25 189 -165v-73c0 -124 30 -144 109 -153v-54c-87 -12 -109 -38 -109 -152v-74c0 -138 -80 -166 -189 -166h-40v58h35c57 0 105 14 105 108v71c0 142 31 157 103 181c-72 15 -103 53 -103 185v68c0 92 -48 108 -105 108h-35v58z" />
    <glyph glyph-name="bracketleft" unicode="[" horiz-adv-x="344" 
d="M314 -163h-229v899h229v-59h-142v-781h142v-59z" />
    <glyph glyph-name="bracketleft.cap" horiz-adv-x="344" 
d="M318 -82h-232v819h232v-59h-145v-701h145v-59z" />
    <glyph glyph-name="bracketright" unicode="]" horiz-adv-x="344" 
d="M30 737h230v-899h-230v60h143v780h-143v59z" />
    <glyph glyph-name="bracketright.cap" horiz-adv-x="344" 
d="M26 737h232v-819h-232v59h145v701h-145v59z" />
    <glyph glyph-name="breve" unicode="&#x2d8;" horiz-adv-x="241" 
d="M-41 714h75c3 -49 32 -72 84 -72c56 0 83 24 86 72h78c-2 -81 -53 -151 -165 -151c-107 0 -158 65 -158 151z" />
    <glyph glyph-name="breve.cap" horiz-adv-x="229" 
d="M-50 884h74c4 -54 39 -73 88 -73c53 0 87 20 91 73h76c-1 -81 -61 -145 -168 -145c-102 0 -161 59 -161 145z" />
    <glyph glyph-name="brokenbar" unicode="&#xa6;" horiz-adv-x="256" 
d="M172 386h-87v329h87v-329zM172 -94h-87v329h87v-329z" />
    <glyph glyph-name="bullet" unicode="&#x2022;" horiz-adv-x="381" 
d="M330 254c0 -82 -61 -137 -139 -137c-77 0 -140 51 -140 137c0 99 75 141 140 141s139 -42 139 -141z" />
    <glyph glyph-name="bullet.cap" horiz-adv-x="381" 
d="M330 329c0 -82 -61 -137 -139 -137c-77 0 -140 51 -140 137c0 99 75 141 140 141s139 -42 139 -141z" />
    <glyph glyph-name="c" unicode="c" horiz-adv-x="568" 
d="M530 36c-44 -28 -95 -49 -188 -49c-164 0 -294 94 -294 258c0 156 123 264 304 264c70 0 141 -15 176 -48v-103h-4c-40 41 -111 60 -176 60c-109 0 -201 -58 -201 -170c0 -116 99 -171 203 -171c74 0 131 18 175 58h5v-99z" />
    <glyph glyph-name="cacute" unicode="&#x107;" horiz-adv-x="568" 
d="M530 36c-44 -28 -95 -49 -188 -49c-164 0 -294 94 -294 258c0 156 123 264 304 264c70 0 141 -15 176 -48v-103h-4c-40 41 -111 60 -176 60c-109 0 -201 -58 -201 -170c0 -116 99 -171 203 -171c74 0 131 18 175 58h5v-99zM349 575h-93v4l140 161h135v-4z" />
    <glyph glyph-name="caron" unicode="&#x2c7;" horiz-adv-x="241" 
d="M217 736h88v-4l-153 -157h-60l-154 157v4h90l97 -82z" />
    <glyph glyph-name="caron.alt" horiz-adv-x="230" 
d="M109 551h-86v4c43 31 86 88 86 153c0 23 -4 47 -15 69h96c11 -17 13 -43 13 -63c0 -69 -47 -130 -94 -163z" />
    <glyph glyph-name="caron.cap" horiz-adv-x="229" 
d="M206 884h97v-4l-157 -130h-63l-156 130v4h96l95 -60z" />
    <glyph glyph-name="ccaron" unicode="&#x10d;" horiz-adv-x="568" 
d="M530 36c-44 -28 -95 -49 -188 -49c-164 0 -294 94 -294 258c0 156 123 264 304 264c70 0 141 -15 176 -48v-103h-4c-40 41 -111 60 -176 60c-109 0 -201 -58 -201 -170c0 -116 99 -171 203 -171c74 0 131 18 175 58h5v-99zM429 736h88v-4l-153 -157h-60l-154 157v4h90
l97 -82z" />
    <glyph glyph-name="ccedilla" unicode="&#xe7;" horiz-adv-x="568" 
d="M224 -232v61h4c22 -13 57 -18 73 -18c44 0 58 18 58 40c0 20 -14 39 -59 39c-11 0 -30 -2 -42 -6l-3 1l34 106c-138 18 -241 108 -241 254c0 156 123 264 304 264c70 0 141 -15 176 -48v-103h-4c-40 41 -111 60 -176 60c-109 0 -201 -58 -201 -170
c0 -116 99 -171 203 -171c74 0 131 18 175 58h5v-99c-43 -28 -93 -48 -181 -49l-15 -45h4c58 0 103 -31 103 -87c0 -62 -42 -105 -136 -105c-28 0 -64 8 -81 18z" />
    <glyph glyph-name="ccircumflex" unicode="&#x109;" horiz-adv-x="568" 
d="M530 36c-44 -28 -95 -49 -188 -49c-164 0 -294 94 -294 258c0 156 123 264 304 264c70 0 141 -15 176 -48v-103h-4c-40 41 -111 60 -176 60c-109 0 -201 -58 -201 -170c0 -116 99 -171 203 -171c74 0 131 18 175 58h5v-99zM236 575h-88v4l153 157h60l154 -157v-4h-92
l-96 82z" />
    <glyph glyph-name="cdotaccent" unicode="&#x10b;" horiz-adv-x="568" 
d="M530 36c-44 -28 -95 -49 -188 -49c-164 0 -294 94 -294 258c0 156 123 264 304 264c70 0 141 -15 176 -48v-103h-4c-40 41 -111 60 -176 60c-109 0 -201 -58 -201 -170c0 -116 99 -171 203 -171c74 0 131 18 175 58h5v-99zM388 655c0 -31 -22 -54 -55 -54
c-30 0 -57 18 -57 54c0 39 30 57 58 57c27 0 54 -18 54 -57z" />
    <glyph glyph-name="cedilla" unicode="&#xb8;" horiz-adv-x="241" 
d="M11 -232v61h4c22 -13 57 -18 73 -18c44 0 58 18 58 40c0 20 -14 39 -59 39c-11 0 -30 -2 -42 -6l-3 1l40 125h62l-23 -68h4c58 0 103 -31 103 -87c0 -62 -42 -105 -136 -105c-28 0 -64 8 -81 18z" />
    <glyph glyph-name="cedilla.cap" horiz-adv-x="229" 
d="M4 -239v63h4c23 -13 59 -19 75 -19c46 0 60 19 60 42c0 20 -14 40 -61 40c-11 0 -31 -2 -43 -7l-3 2l41 128h64l-24 -70h4c60 0 106 -32 106 -89c0 -64 -43 -108 -140 -108c-28 0 -65 8 -83 18z" />
    <glyph glyph-name="cent" unicode="&#xa2;" horiz-adv-x="623" 
d="M389 -110h-57v107c-140 13 -245 102 -245 247c0 136 97 234 245 251v107h57v-104c64 -2 131 -19 164 -49v-102h-4c-36 36 -101 59 -160 62v-324c66 2 121 22 161 59h5v-99c-39 -25 -88 -47 -166 -50v-105zM186 247c0 -95 65 -145 146 -159v317
c-84 -13 -146 -66 -146 -158z" />
    <glyph glyph-name="cent.denominator" horiz-adv-x="400" 
d="M251 -68h-37v65c-93 7 -165 63 -165 155c0 84 66 147 165 156v64h37v-62c41 -2 82 -14 103 -30v-75h-4c-23 20 -63 33 -99 35v-173c40 1 75 14 101 36h4v-76c-25 -15 -58 -28 -105 -30v-65zM126 154c0 -54 37 -79 88 -86v170c-53 -6 -88 -30 -88 -84z" />
    <glyph glyph-name="cent.inferior" horiz-adv-x="400" 
d="M251 -195h-37v65c-93 7 -165 63 -165 155c0 84 66 147 165 156v64h37v-62c41 -2 82 -14 103 -30v-75h-4c-23 20 -63 33 -99 35v-173c40 1 75 14 101 36h4v-76c-25 -15 -58 -28 -105 -30v-65zM126 27c0 -54 37 -79 88 -86v170c-53 -6 -88 -30 -88 -84z" />
    <glyph glyph-name="cent.numerator" horiz-adv-x="400" 
d="M251 185h-37v65c-93 7 -165 63 -165 155c0 84 66 147 165 156v64h37v-62c41 -2 82 -14 103 -30v-75h-4c-23 20 -63 33 -99 35v-173c40 1 75 14 101 36h4v-76c-25 -15 -58 -28 -105 -31v-64zM126 407c0 -54 37 -79 88 -86v170c-53 -6 -88 -30 -88 -84z" />
    <glyph glyph-name="cent.oldstyle" horiz-adv-x="580" 
d="M368 -112h-57v108c-128 13 -228 99 -228 227c0 121 92 212 228 229v102h57v-99c59 -2 122 -19 151 -46v-99h-4c-34 30 -93 51 -147 54v-280c60 2 111 18 149 50h5v-93c-37 -23 -82 -43 -154 -46v-107zM179 226c0 -87 57 -128 132 -139v274c-77 -10 -132 -51 -132 -135z
" />
    <glyph glyph-name="cent.superior" horiz-adv-x="400" 
d="M251 332h-37v65c-93 7 -165 63 -165 155c0 84 66 147 165 156v64h37v-62c41 -2 82 -14 103 -30v-75h-4c-23 20 -63 33 -99 35v-173c40 1 75 14 101 36h4v-76c-25 -15 -58 -28 -105 -30v-65zM126 554c0 -54 37 -79 88 -86v170c-53 -6 -88 -30 -88 -84z" />
    <glyph glyph-name="circumflex" unicode="&#x2c6;" horiz-adv-x="241" 
d="M26 575h-88v4l153 157h60l154 -157v-4h-92l-96 82z" />
    <glyph glyph-name="circumflex.cap" horiz-adv-x="229" 
d="M25 750h-100v4l159 130h64l157 -130v-4h-97l-95 60z" />
    <glyph glyph-name="colon" unicode=":" horiz-adv-x="255" 
d="M209 55c0 -40 -31 -67 -72 -67c-39 0 -70 25 -70 67c0 49 37 70 70 70c34 0 72 -21 72 -70zM209 428c0 -40 -31 -67 -72 -67c-39 0 -70 25 -70 67c0 49 37 70 70 70c34 0 72 -21 72 -70z" />
    <glyph glyph-name="comma" unicode="," horiz-adv-x="248" 
d="M88 -160h-89v4c54 44 89 115 89 191c0 28 -4 59 -17 86h113c11 -22 13 -54 13 -79c0 -87 -52 -161 -109 -202z" />
    <glyph glyph-name="comma.denominator" horiz-adv-x="172" 
d="M67 -101h-65v4c36 26 65 70 65 122c0 18 -2 38 -12 55h82c7 -14 8 -35 8 -51c0 -56 -40 -106 -78 -130z" />
    <glyph glyph-name="comma.inferior" horiz-adv-x="172" 
d="M67 -228h-65v4c36 26 65 70 65 122c0 18 -2 38 -12 55h82c7 -14 8 -35 8 -51c0 -56 -40 -106 -78 -130z" />
    <glyph glyph-name="comma.numerator" horiz-adv-x="172" 
d="M67 152h-65v4c36 26 65 70 65 122c0 18 -2 38 -12 55h82c7 -14 8 -35 8 -51c0 -56 -40 -106 -78 -130z" />
    <glyph glyph-name="comma.superior" horiz-adv-x="172" 
d="M67 299h-65v4c36 26 65 70 65 122c0 18 -2 38 -12 55h82c7 -14 8 -35 8 -51c0 -56 -40 -106 -78 -130z" />
    <glyph glyph-name="commaaccent" horiz-adv-x="227" 
d="M109 -290h-86v4c43 31 86 88 86 153c0 23 -4 47 -15 69h96c11 -17 13 -43 13 -63c0 -69 -47 -130 -94 -163z" />
    <glyph glyph-name="copyright" unicode="&#xa9;" horiz-adv-x="836" 
d="M781 345c0 -204 -155 -359 -363 -359s-363 156 -363 359c0 204 156 360 362 360c214 0 364 -155 364 -360zM741 345c0 184 -136 324 -324 324c-185 0 -321 -141 -321 -324s135 -323 322 -323s323 139 323 323zM594 169c-35 -24 -80 -43 -155 -43c-131 0 -237 83 -237 220
c0 129 99 224 245 224c56 0 117 -15 145 -43v-83h-4c-33 35 -90 54 -143 54c-84 0 -164 -51 -164 -150c0 -102 82 -152 166 -152c61 0 105 16 143 50h4v-77z" />
    <glyph glyph-name="currency" unicode="&#xa4;" horiz-adv-x="621" 
d="M122 73l-51 52l67 67c-31 36 -42 79 -42 123c0 47 12 86 41 124l-67 66l53 51l66 -66c35 26 79 38 123 38c42 0 85 -10 121 -36l65 65l52 -51l-64 -67c29 -38 39 -78 39 -123c0 -43 -11 -86 -39 -123l66 -68l-55 -51l-64 68c-36 -26 -83 -38 -125 -38
c-39 0 -80 5 -119 33zM172 318c0 -86 56 -142 140 -142c79 0 137 58 137 140c0 83 -57 140 -137 140c-81 0 -140 -58 -140 -138z" />
    <glyph glyph-name="d" unicode="d" horiz-adv-x="714" 
d="M632 0h-93v82c-31 -46 -97 -95 -207 -95c-145 0 -284 83 -284 257c0 185 150 265 293 265c82 0 152 -26 199 -78v297h92v-728zM535 183v136c-29 65 -113 102 -184 102c-102 0 -204 -52 -204 -176c0 -115 100 -168 194 -168c73 0 159 39 194 106z" />
    <glyph glyph-name="dagger" unicode="&#x2020;" horiz-adv-x="536" 
d="M311 -89h-87v518h-197v88h197v201h87v-202h197v-87h-197v-518z" />
    <glyph glyph-name="daggerdbl" unicode="&#x2021;" horiz-adv-x="536" 
d="M508 126h-197v-215h-87v215h-197v88h197v221h-197v88h197v195h87v-195h197v-88h-197v-221h197v-88z" />
    <glyph glyph-name="dcaron" unicode="&#x10f;" horiz-adv-x="714" 
d="M632 0h-93v82c-31 -46 -97 -95 -207 -95c-145 0 -284 83 -284 257c0 185 150 265 293 265c82 0 152 -26 199 -78v297h92v-728zM535 183v136c-29 65 -113 102 -184 102c-102 0 -204 -52 -204 -176c0 -115 100 -168 194 -168c73 0 159 39 194 106zM757 501h-86v4
c43 31 86 88 86 153c0 23 -4 47 -15 69h96c11 -17 13 -43 13 -63c0 -69 -47 -130 -94 -163z" />
    <glyph glyph-name="dcroat" unicode="&#x111;" horiz-adv-x="714" 
d="M632 0h-93v82c-31 -46 -97 -95 -207 -95c-145 0 -284 83 -284 257c0 185 150 265 293 265c82 0 152 -26 199 -78v114h-160v80h160v103h92v-103h77v-80h-77v-545zM535 183v136c-29 65 -113 102 -184 102c-102 0 -204 -52 -204 -176c0 -115 100 -168 194 -168
c73 0 159 39 194 106z" />
    <glyph glyph-name="degree" unicode="&#xb0;" horiz-adv-x="321" 
d="M301 575c0 -77 -62 -138 -142 -138c-79 0 -140 59 -140 137c0 82 61 138 143 138c81 0 139 -55 139 -137zM248 576c0 52 -36 88 -89 88c-55 0 -88 -38 -88 -90c0 -47 30 -90 89 -90c56 0 88 43 88 92z" />
    <glyph glyph-name="dieresis" unicode="&#xa8;" horiz-adv-x="241" 
d="M82 655c0 -31 -22 -54 -55 -54c-30 0 -57 18 -57 54c0 39 30 57 58 57c27 0 54 -18 54 -57zM272 655c0 -31 -22 -54 -55 -54c-30 0 -57 18 -57 54c0 39 30 57 58 57c27 0 54 -18 54 -57z" />
    <glyph glyph-name="dieresis.cap" horiz-adv-x="241" 
d="M77 809c0 -31 -22 -54 -55 -54c-30 0 -57 18 -57 54c0 39 30 57 58 57c27 0 54 -18 54 -57zM277 809c0 -31 -22 -54 -55 -54c-30 0 -57 18 -57 54c0 39 30 57 58 57c27 0 54 -18 54 -57z" />
    <glyph glyph-name="divide" unicode="&#xf7;" horiz-adv-x="700" 
d="M399 459c0 -32 -26 -47 -50 -47c-21 0 -48 12 -48 47s26 49 50 49c22 0 48 -12 48 -49zM610 262h-520v67h520v-67zM399 125c0 -33 -26 -47 -50 -47c-21 0 -48 12 -48 47s26 49 50 49c22 0 48 -11 48 -49z" />
    <glyph glyph-name="dollar" unicode="$" horiz-adv-x="639" 
d="M356 -112h-57v104c-80 3 -178 23 -235 67v111h4c66 -57 158 -80 231 -85v198l-60 16c-120 32 -164 102 -164 179c0 100 77 174 224 188v102h57v-99c67 -1 166 -23 201 -51v-108h-4c-51 41 -125 61 -197 65v-200l47 -13c135 -37 186 -90 186 -175
c0 -95 -65 -182 -233 -193v-106zM488 173c0 49 -37 67 -132 94v-182c85 4 132 27 132 88zM176 488c0 -45 18 -69 123 -97v184c-99 -7 -123 -47 -123 -87z" />
    <glyph glyph-name="dollar.denominator" horiz-adv-x="427" 
d="M238 -69h-37v64c-57 1 -123 18 -162 45v81h5c42 -34 106 -50 157 -54v102l-42 10c-81 20 -112 63 -112 115c0 63 49 111 154 119v63h37v-61c47 -1 110 -19 132 -36v-79h-4c-32 26 -84 41 -128 45v-108l32 -7c97 -21 126 -60 126 -113c0 -60 -42 -114 -158 -121v-65z
M127 299c0 -18 4 -37 65 -51l9 -2v100c-61 -3 -74 -27 -74 -47zM312 110c0 25 -20 36 -74 50v-93c49 1 74 10 74 43z" />
    <glyph glyph-name="dollar.inferior" horiz-adv-x="427" 
d="M238 -196h-37v64c-57 1 -123 18 -162 45v81h5c42 -34 106 -50 157 -54v102l-42 10c-81 20 -112 63 -112 115c0 63 49 111 154 119v63h37v-61c47 -1 110 -19 132 -36v-79h-4c-32 26 -84 41 -128 45v-108l32 -7c97 -21 126 -60 126 -113c0 -60 -42 -114 -158 -121v-65z
M127 172c0 -18 4 -37 65 -51l9 -2v100c-61 -3 -74 -27 -74 -47zM312 -17c0 25 -20 36 -74 50v-93c49 1 74 10 74 43z" />
    <glyph glyph-name="dollar.numerator" horiz-adv-x="427" 
d="M238 184h-37v64c-57 1 -123 18 -162 45v81h5c42 -34 106 -50 157 -54v102l-42 10c-81 20 -112 63 -112 115c0 63 49 111 154 119v63h37v-61c47 -1 110 -19 132 -36v-79h-4c-32 26 -84 41 -128 45v-108l32 -7c97 -21 126 -60 126 -113c0 -60 -42 -114 -158 -121v-65z
M127 552c0 -18 4 -37 65 -51l9 -2v100c-61 -3 -74 -27 -74 -47zM312 363c0 25 -20 36 -74 50v-93c49 1 74 10 74 43z" />
    <glyph glyph-name="dollar.oldstyle" horiz-adv-x="633" 
d="M347 -112h-57v104c-79 3 -172 26 -229 67v102h4c64 -51 152 -75 225 -79v171l-61 15c-116 29 -158 97 -158 166c0 89 69 160 219 173v105h57v-103c66 -2 156 -27 189 -53v-104h-4c-46 38 -123 59 -185 65v-176l47 -12c135 -35 177 -84 177 -162c0 -86 -57 -163 -224 -173
v-106zM169 442c0 -37 16 -60 121 -87v163c-97 -4 -121 -37 -121 -76zM473 156c0 42 -38 59 -126 82v-156c80 3 126 19 126 74z" />
    <glyph glyph-name="dollar.superior" horiz-adv-x="427" 
d="M238 331h-37v64c-57 1 -123 18 -162 45v81h5c42 -34 106 -50 157 -54v102l-42 10c-81 20 -112 63 -112 115c0 63 49 111 154 119v63h37v-61c47 -1 110 -19 132 -36v-79h-4c-32 26 -84 41 -128 45v-108l32 -7c97 -21 126 -60 126 -113c0 -60 -42 -114 -158 -121v-65z
M127 699c0 -18 4 -37 65 -51l9 -2v100c-61 -3 -74 -27 -74 -47zM312 510c0 25 -20 36 -74 50v-93c49 1 74 10 74 43z" />
    <glyph glyph-name="dotaccent" unicode="&#x2d9;" horiz-adv-x="241" 
d="M177 655c0 -31 -22 -54 -55 -54c-30 0 -57 18 -57 54c0 39 30 57 58 57c27 0 54 -18 54 -57z" />
    <glyph glyph-name="dotaccent.cap" horiz-adv-x="241" 
d="M177 809c0 -31 -22 -54 -55 -54c-30 0 -57 18 -57 54c0 39 30 57 58 57c27 0 54 -18 54 -57z" />
    <glyph glyph-name="dotlessi" unicode="&#x131;" horiz-adv-x="263" 
d="M180 0h-98v495h98v-495z" />
    <glyph glyph-name="e" unicode="e" horiz-adv-x="629" 
d="M564 45c-47 -37 -138 -58 -214 -58c-186 0 -302 102 -302 258c0 169 129 264 281 264c167 0 250 -93 253 -234c0 -18 -1 -43 -4 -62h-427c11 -82 84 -136 207 -136c76 0 145 19 202 65h4v-97zM479 296v9c0 81 -64 119 -156 119c-65 0 -154 -25 -170 -128h326z" />
    <glyph glyph-name="eacute" unicode="&#xe9;" horiz-adv-x="629" 
d="M564 45c-47 -37 -138 -58 -214 -58c-186 0 -302 102 -302 258c0 169 129 264 281 264c167 0 250 -93 253 -234c0 -18 -1 -43 -4 -62h-427c11 -82 84 -136 207 -136c76 0 145 19 202 65h4v-97zM479 296v9c0 81 -64 119 -156 119c-65 0 -154 -25 -170 -128h326zM335 575
h-93v4l140 161h135v-4z" />
    <glyph glyph-name="ebreve" unicode="&#x115;" horiz-adv-x="629" 
d="M564 45c-47 -37 -138 -58 -214 -58c-186 0 -302 102 -302 258c0 169 129 264 281 264c167 0 250 -93 253 -234c0 -18 -1 -43 -4 -62h-427c11 -82 84 -136 207 -136c76 0 145 19 202 65h4v-97zM479 296v9c0 81 -64 119 -156 119c-65 0 -154 -25 -170 -128h326zM167 714h75
c3 -49 32 -72 84 -72c56 0 83 24 86 72h78c-2 -81 -53 -151 -165 -151c-107 0 -158 65 -158 151z" />
    <glyph glyph-name="ecaron" unicode="&#x11b;" horiz-adv-x="629" 
d="M564 45c-47 -37 -138 -58 -214 -58c-186 0 -302 102 -302 258c0 169 129 264 281 264c167 0 250 -93 253 -234c0 -18 -1 -43 -4 -62h-427c11 -82 84 -136 207 -136c76 0 145 19 202 65h4v-97zM479 296v9c0 81 -64 119 -156 119c-65 0 -154 -25 -170 -128h326zM419 721h88
v-4l-153 -157h-60l-154 157v4h90l97 -82z" />
    <glyph glyph-name="ecircumflex" unicode="&#xea;" horiz-adv-x="629" 
d="M564 45c-47 -37 -138 -58 -214 -58c-186 0 -302 102 -302 258c0 169 129 264 281 264c167 0 250 -93 253 -234c0 -18 -1 -43 -4 -62h-427c11 -82 84 -136 207 -136c76 0 145 19 202 65h4v-97zM479 296v9c0 81 -64 119 -156 119c-65 0 -154 -25 -170 -128h326zM248 575
h-88v4l153 157h60l154 -157v-4h-92l-96 82z" />
    <glyph glyph-name="edieresis" unicode="&#xeb;" horiz-adv-x="629" 
d="M564 45c-47 -37 -138 -58 -214 -58c-186 0 -302 102 -302 258c0 169 129 264 281 264c167 0 250 -93 253 -234c0 -18 -1 -43 -4 -62h-427c11 -82 84 -136 207 -136c76 0 145 19 202 65h4v-97zM479 296v9c0 81 -64 119 -156 119c-65 0 -154 -25 -170 -128h326zM302 655
c0 -31 -22 -54 -55 -54c-30 0 -57 18 -57 54c0 39 30 57 58 57c27 0 54 -18 54 -57zM492 655c0 -31 -22 -54 -55 -54c-30 0 -57 18 -57 54c0 39 30 57 58 57c27 0 54 -18 54 -57z" />
    <glyph glyph-name="edotaccent" unicode="&#x117;" horiz-adv-x="629" 
d="M564 45c-47 -37 -138 -58 -214 -58c-186 0 -302 102 -302 258c0 169 129 264 281 264c167 0 250 -93 253 -234c0 -18 -1 -43 -4 -62h-427c11 -82 84 -136 207 -136c76 0 145 19 202 65h4v-97zM479 296v9c0 81 -64 119 -156 119c-65 0 -154 -25 -170 -128h326zM389 655
c0 -31 -22 -54 -55 -54c-30 0 -57 18 -57 54c0 39 30 57 58 57c27 0 54 -18 54 -57z" />
    <glyph glyph-name="egrave" unicode="&#xe8;" horiz-adv-x="629" 
d="M564 45c-47 -37 -138 -58 -214 -58c-186 0 -302 102 -302 258c0 169 129 264 281 264c167 0 250 -93 253 -234c0 -18 -1 -43 -4 -62h-427c11 -82 84 -136 207 -136c76 0 145 19 202 65h4v-97zM479 296v9c0 81 -64 119 -156 119c-65 0 -154 -25 -170 -128h326zM420 575
h-93l-182 161v4h135l140 -161v-4z" />
    <glyph glyph-name="eight" unicode="8" horiz-adv-x="648" 
d="M444 352c94 -21 146 -82 146 -170c0 -114 -101 -196 -268 -196c-158 0 -265 69 -265 190c0 77 50 135 148 161c-79 26 -119 82 -119 159c0 105 100 183 241 183c147 0 238 -69 238 -182c0 -69 -43 -124 -121 -145zM331 385c81 13 133 43 133 107c0 59 -53 99 -140 99
c-80 0 -140 -42 -140 -98c0 -73 63 -99 147 -108zM317 299c-88 -7 -159 -45 -159 -111c0 -73 79 -111 166 -111c95 0 164 42 164 111c0 74 -70 105 -171 111z" />
    <glyph glyph-name="eight.denominator" 
d="M309 217c62 -13 93 -50 93 -101c0 -73 -69 -125 -180 -125c-102 0 -178 41 -178 119c0 50 31 80 91 98c-47 16 -72 53 -72 98c0 69 71 115 163 115c96 0 160 -40 160 -113c0 -44 -28 -76 -77 -91zM226 242c56 4 85 23 85 58c0 32 -35 53 -88 53c-55 0 -87 -23 -87 -54
c0 -37 37 -53 90 -57zM218 182c-59 -5 -96 -25 -96 -62c0 -38 43 -61 101 -61c64 0 101 24 101 62c0 46 -47 58 -106 61z" />
    <glyph glyph-name="eight.fitted" horiz-adv-x="649" 
d="M445 352c94 -21 146 -82 146 -170c0 -114 -101 -196 -268 -196c-158 0 -265 69 -265 190c0 77 50 135 148 161c-79 26 -119 82 -119 159c0 105 100 183 241 183c147 0 238 -69 238 -182c0 -69 -43 -124 -121 -145zM332 385c81 13 133 43 133 107c0 59 -53 99 -140 99
c-80 0 -140 -42 -140 -98c0 -73 63 -99 147 -108zM318 299c-88 -7 -159 -45 -159 -111c0 -73 79 -111 166 -111c95 0 164 42 164 111c0 74 -70 105 -171 111z" />
    <glyph glyph-name="eight.inferior" unicode="&#x2088;" 
d="M309 90c62 -13 93 -50 93 -101c0 -73 -69 -125 -180 -125c-102 0 -178 41 -178 119c0 50 31 80 91 98c-47 16 -72 53 -72 98c0 69 71 115 163 115c96 0 160 -40 160 -113c0 -44 -28 -76 -77 -91zM226 115c56 4 85 23 85 58c0 32 -35 53 -88 53c-55 0 -87 -23 -87 -54
c0 -37 37 -53 90 -57zM218 55c-59 -5 -96 -25 -96 -62c0 -38 43 -61 101 -61c64 0 101 24 101 62c0 46 -47 58 -106 61z" />
    <glyph glyph-name="eight.numerator" 
d="M309 470c62 -13 93 -50 93 -101c0 -73 -69 -125 -180 -125c-102 0 -178 41 -178 119c0 50 31 80 91 98c-47 16 -72 53 -72 98c0 69 71 115 163 115c96 0 160 -40 160 -113c0 -44 -28 -76 -77 -91zM226 495c56 4 85 23 85 58c0 32 -35 53 -88 53c-55 0 -87 -23 -87 -54
c0 -37 37 -53 90 -57zM218 435c-59 -5 -96 -25 -96 -62c0 -38 43 -61 101 -61c64 0 101 24 101 62c0 46 -47 58 -106 61z" />
    <glyph glyph-name="eight.oldstyle" horiz-adv-x="645" 
d="M440 345c93 -24 142 -78 142 -167c0 -112 -101 -192 -260 -192c-150 0 -259 68 -259 186c0 76 46 135 144 158c-72 25 -115 80 -115 156c0 106 104 177 236 177c142 0 233 -60 233 -175c0 -66 -49 -123 -121 -143zM331 374c76 13 130 44 130 111c0 60 -57 90 -137 90
c-75 0 -137 -32 -137 -93c0 -76 65 -99 144 -108zM317 295c-86 -8 -156 -42 -156 -112c0 -79 84 -109 163 -109c88 0 160 35 160 106c0 73 -72 108 -167 115z" />
    <glyph glyph-name="eight.superior" unicode="&#x2078;" 
d="M309 617c62 -13 93 -50 93 -101c0 -73 -69 -125 -180 -125c-102 0 -178 41 -178 119c0 50 31 80 91 98c-47 16 -72 53 -72 98c0 69 71 115 163 115c96 0 160 -40 160 -113c0 -44 -28 -76 -77 -91zM226 642c56 4 85 23 85 58c0 32 -35 53 -88 53c-55 0 -87 -23 -87 -54
c0 -37 37 -53 90 -57zM218 582c-59 -5 -96 -25 -96 -62c0 -38 43 -61 101 -61c64 0 101 24 101 62c0 46 -47 58 -106 61z" />
    <glyph glyph-name="eight.taboldstyle" horiz-adv-x="629" 
d="M432 345c93 -22 142 -78 142 -167c0 -112 -101 -192 -260 -192c-150 0 -259 68 -259 186c0 76 46 133 144 158c-72 25 -115 80 -115 156c0 106 104 177 236 177c142 0 233 -60 233 -175c0 -66 -49 -123 -121 -143zM323 374c76 13 130 44 130 111c0 60 -57 90 -137 90
c-75 0 -137 -32 -137 -93c0 -76 65 -99 144 -108zM309 295c-86 -8 -156 -42 -156 -112c0 -79 84 -109 163 -109c88 0 160 35 160 106c0 73 -72 108 -167 115z" />
    <glyph glyph-name="ellipsis" unicode="&#x2026;" horiz-adv-x="962" 
d="M247 55c0 -40 -31 -67 -72 -67c-39 0 -70 25 -70 67c0 49 37 70 70 70c34 0 72 -21 72 -70zM552 55c0 -40 -31 -67 -72 -67c-39 0 -70 25 -70 67c0 49 37 70 70 70c34 0 72 -21 72 -70zM857 55c0 -40 -31 -67 -72 -67c-39 0 -70 25 -70 67c0 49 37 70 70 70
c34 0 72 -21 72 -70z" />
    <glyph glyph-name="emacron" unicode="&#x113;" horiz-adv-x="629" 
d="M564 45c-47 -37 -138 -58 -214 -58c-186 0 -302 102 -302 258c0 169 129 264 281 264c167 0 250 -93 253 -234c0 -18 -1 -43 -4 -62h-427c11 -82 84 -136 207 -136c76 0 145 19 202 65h4v-97zM479 296v9c0 81 -64 119 -156 119c-65 0 -154 -25 -170 -128h326zM496 580
h-323v80h323v-80z" />
    <glyph glyph-name="emdash" unicode="&#x2014;" horiz-adv-x="937" 
d="M897 228h-857v91h857v-91z" />
    <glyph glyph-name="emdash.cap" horiz-adv-x="937" 
d="M897 285h-857v91h857v-91z" />
    <glyph glyph-name="endash" unicode="&#x2013;" horiz-adv-x="596" 
d="M556 228h-516v91h516v-91z" />
    <glyph glyph-name="endash.cap" horiz-adv-x="596" 
d="M556 285h-516v91h516v-91z" />
    <glyph glyph-name="eng" unicode="&#x14b;" horiz-adv-x="655" 
d="M179 0h-97v495h95v-80c32 50 109 92 209 92c102 0 158 -41 179 -106c9 -29 12 -60 12 -108v-296c0 -83 -12 -128 -35 -154c-27 -31 -68 -53 -132 -53c-37 0 -71 5 -98 17v93h4c20 -13 51 -20 79 -20s49 7 62 20c18 19 23 52 23 105v266c0 44 -7 79 -15 93
c-18 31 -52 51 -113 51c-65 0 -141 -35 -173 -85v-330z" />
    <glyph glyph-name="eogonek" unicode="&#x119;" horiz-adv-x="629" 
d="M564 45c-33 -26 -88 -45 -145 -53c-72 -43 -96 -70 -96 -111c0 -35 27 -55 71 -55c21 0 44 3 66 14h4v-62c-26 -15 -63 -21 -95 -21c-69 0 -129 37 -129 108c0 48 26 89 87 123c-173 8 -279 107 -279 257c0 169 129 264 281 264c167 0 250 -93 253 -234
c0 -18 -1 -43 -4 -62h-427c11 -82 84 -136 207 -136c76 0 145 19 202 65h4v-97zM479 296v9c0 81 -64 119 -156 119c-65 0 -154 -25 -170 -128h326z" />
    <glyph glyph-name="equal" unicode="=" horiz-adv-x="700" 
d="M610 164h-520v65h520v-65zM610 356h-520v66h520v-66z" />
    <glyph glyph-name="estimated" unicode="&#x212e;" horiz-adv-x="899" 
d="M854 336h-655c-4 0 -6 -2 -6 -4v-195c0 -9 5 -16 10 -22c62 -65 151 -106 248 -106c104 0 197 46 260 118h60c-74 -84 -191 -139 -321 -139c-223 0 -405 160 -405 358s182 357 405 357s404 -159 404 -357v-10zM707 362v195c0 10 -5 18 -11 24c-63 61 -149 101 -245 101
c-97 0 -184 -41 -247 -105c-6 -5 -11 -14 -11 -24v-191c0 -3 2 -5 6 -5h502c3 0 6 2 6 5z" />
    <glyph glyph-name="estimated.alt" horiz-adv-x="859" 
d="M781 67c-67 -49 -193 -80 -309 -80c-282 0 -413 144 -413 341c0 220 164 351 386 351c242 0 356 -120 357 -308c0 -21 -1 -53 -4 -73h-637c8 -122 103 -216 320 -216c110 0 215 27 295 88h5v-103zM696 384v12c0 118 -82 192 -261 192c-132 0 -251 -61 -270 -204h531z" />
    <glyph glyph-name="eth" unicode="&#xf0;" horiz-adv-x="689" 
d="M564 651l-56 -28c75 -73 132 -183 132 -349c0 -198 -143 -287 -294 -287c-144 0 -298 84 -298 262c0 166 145 252 285 252c54 0 144 -19 185 -65c-9 34 -36 91 -97 144l-125 -62v83l56 27c-33 19 -72 35 -117 48l26 71c54 -11 121 -33 183 -74l120 60v-82zM538 249
c0 117 -98 165 -196 165c-97 0 -193 -56 -193 -168c0 -115 100 -170 197 -170c98 0 192 62 192 173z" />
    <glyph glyph-name="exclam" unicode="!" horiz-adv-x="321" 
d="M215 217h-76c-17 348 -21 466 -21 472h116c0 -6 -3 -124 -19 -472zM248 55c0 -40 -31 -67 -72 -67c-39 0 -70 25 -70 67c0 49 37 70 70 70c34 0 72 -21 72 -70z" />
    <glyph glyph-name="exclamdown" unicode="&#xa1;" horiz-adv-x="321" 
d="M106 285h76c17 -348 21 -466 21 -472h-116c0 6 3 124 19 472zM73 447c0 40 31 67 72 67c39 0 70 -25 70 -67c0 -49 -37 -70 -70 -70c-34 0 -72 21 -72 70z" />
    <glyph glyph-name="f" unicode="f" horiz-adv-x="371" 
d="M210 0h-97v411h-90v84h90v49c0 79 23 119 51 146c34 33 83 50 154 50c37 0 78 -11 94 -22v-91h-4c-25 15 -60 24 -87 24c-38 0 -71 -10 -88 -30c-14 -16 -23 -44 -23 -88v-38h147v-84h-147v-411z" />
    <glyph glyph-name="five" unicode="5" horiz-adv-x="648" 
d="M79 42v108h4c69 -52 154 -71 217 -71c111 0 184 43 184 134c0 100 -87 125 -180 125c-76 0 -141 -23 -190 -51h-5l46 378h394v-95h-315l-22 -166c31 17 94 26 136 26c146 0 236 -69 236 -211c0 -159 -134 -233 -291 -233c-63 0 -146 12 -214 56z" />
    <glyph glyph-name="five.denominator" 
d="M52 23v81h4c45 -30 102 -42 143 -42c69 0 112 22 112 71c0 54 -49 66 -110 66c-48 0 -92 -13 -126 -31h-4l29 244h265v-70h-208l-12 -91c20 11 60 18 90 18c97 0 155 -45 155 -131c0 -99 -89 -148 -196 -148c-43 0 -96 7 -142 33z" />
    <glyph glyph-name="five.fitted" horiz-adv-x="617" 
d="M54 42v108h4c69 -52 154 -71 217 -71c111 0 184 43 184 134c0 100 -87 125 -180 125c-76 0 -141 -23 -190 -51h-5l46 378h394v-95h-315l-22 -166c31 17 94 26 136 26c146 0 236 -69 236 -211c0 -159 -134 -233 -291 -233c-63 0 -146 12 -214 56z" />
    <glyph glyph-name="five.inferior" unicode="&#x2085;" 
d="M52 -104v81h4c45 -30 102 -42 143 -42c69 0 112 22 112 71c0 54 -49 66 -110 66c-48 0 -92 -13 -126 -31h-4l29 244h265v-70h-208l-12 -91c20 11 60 18 90 18c97 0 155 -45 155 -131c0 -99 -89 -148 -196 -148c-43 0 -96 7 -142 33z" />
    <glyph glyph-name="five.numerator" 
d="M52 276v81h4c45 -30 102 -42 143 -42c69 0 112 22 112 71c0 54 -49 66 -110 66c-48 0 -92 -13 -126 -31h-4l29 244h265v-70h-208l-12 -91c20 11 60 18 90 18c97 0 155 -45 155 -131c0 -99 -89 -148 -196 -148c-43 0 -96 7 -142 33z" />
    <glyph glyph-name="five.oldstyle" horiz-adv-x="611" 
d="M60 -70v105h4c68 -50 151 -69 212 -69c110 0 183 42 183 130c0 97 -83 122 -176 122c-75 0 -142 -22 -190 -51h-4l45 369h388v-93h-311l-20 -159c31 17 90 23 133 23c143 0 233 -67 233 -205c0 -154 -130 -226 -283 -226c-62 0 -147 11 -214 54z" />
    <glyph glyph-name="five.superior" unicode="&#x2075;" 
d="M52 423v81h4c45 -30 102 -42 143 -42c69 0 112 22 112 71c0 54 -49 66 -110 66c-48 0 -92 -13 -126 -31h-4l29 244h265v-70h-208l-12 -91c20 11 60 18 90 18c97 0 155 -45 155 -131c0 -99 -89 -148 -196 -148c-43 0 -96 7 -142 33z" />
    <glyph glyph-name="five.taboldstyle" horiz-adv-x="629" 
d="M69 -70v105h4c68 -50 151 -69 212 -69c110 0 183 42 183 130c0 98 -87 122 -179 122c-74 0 -139 -22 -187 -51h-4l45 369h388v-93h-311l-20 -159c31 17 90 23 133 23c143 0 233 -67 233 -205c0 -154 -130 -226 -283 -226c-62 0 -147 11 -214 54z" />
    <glyph glyph-name="fiveeighths" unicode="&#x215d;" horiz-adv-x="988" 
d="M327 -12h-69l388 694h67zM44 276v81h4c45 -30 102 -42 143 -42c69 0 112 22 112 71c0 54 -49 66 -110 66c-48 0 -92 -13 -126 -31h-4l29 244h265v-70h-208l-12 -91c20 11 60 18 90 18c97 0 155 -45 155 -131c0 -99 -89 -148 -196 -148c-43 0 -96 7 -142 33zM840 217
c62 -13 93 -50 93 -101c0 -73 -69 -125 -180 -125c-102 0 -178 41 -178 119c0 50 31 80 91 98c-47 16 -72 53 -72 98c0 69 71 115 163 115c96 0 160 -40 160 -113c0 -44 -28 -76 -77 -91zM757 242c56 4 85 23 85 58c0 32 -35 53 -88 53c-55 0 -87 -23 -87 -54
c0 -37 37 -53 90 -57zM749 182c-59 -5 -96 -25 -96 -62c0 -38 43 -61 101 -61c64 0 101 24 101 62c0 46 -47 58 -106 61z" />
    <glyph glyph-name="florin" unicode="&#x192;" horiz-adv-x="542" 
d="M0 -117v92h4c16 -11 52 -19 74 -19c42 0 66 8 82 32c9 13 14 36 17 61l34 306h-105v76h110l12 85c6 43 25 90 55 117c31 29 73 46 142 46c42 0 90 -10 109 -25v-92h-4c-26 18 -65 26 -95 26c-27 0 -59 -5 -77 -19c-16 -13 -28 -36 -33 -76l-8 -62h141v-76h-148l-35 -323
c-4 -36 -13 -77 -27 -97c-30 -43 -70 -71 -157 -71c-34 0 -72 9 -91 19z" />
    <glyph glyph-name="florin.denominator" horiz-adv-x="371" 
d="M3 -73v72h4c12 -8 33 -12 48 -12c26 0 43 5 53 22c6 9 8 21 10 38l20 166h-69v53h72l7 48c4 27 17 55 35 72c22 20 54 35 100 35c29 0 62 -7 75 -16v-69h-4c-16 11 -43 15 -62 15c-18 0 -38 -3 -49 -13s-18 -23 -21 -45l-4 -27h92v-53h-96l-21 -187
c-3 -26 -9 -45 -17 -59c-22 -36 -56 -51 -110 -51c-23 0 -50 5 -63 11z" />
    <glyph glyph-name="florin.inferior" horiz-adv-x="371" 
d="M3 -200v72h4c12 -8 33 -12 48 -12c26 0 43 5 53 22c6 9 8 21 10 38l20 166h-69v53h72l7 48c4 27 17 55 35 72c22 20 54 35 100 35c29 0 62 -7 75 -16v-69h-4c-16 11 -43 15 -62 15c-18 0 -38 -3 -49 -13s-18 -23 -21 -45l-4 -27h92v-53h-96l-21 -187
c-3 -26 -9 -45 -17 -59c-22 -36 -56 -51 -110 -51c-23 0 -50 5 -63 11z" />
    <glyph glyph-name="florin.numerator" horiz-adv-x="371" 
d="M3 180v72h4c12 -8 33 -12 48 -12c26 0 43 5 53 22c6 9 8 21 10 38l20 166h-69v53h72l7 48c4 27 17 55 35 72c22 20 54 35 100 35c29 0 62 -7 75 -16v-69h-4c-16 11 -43 15 -62 15c-18 0 -38 -3 -49 -13s-18 -23 -21 -45l-4 -27h92v-53h-96l-21 -187
c-3 -26 -9 -45 -17 -59c-22 -36 -56 -51 -110 -51c-23 0 -50 5 -63 11z" />
    <glyph glyph-name="florin.oldstyle" horiz-adv-x="521" 
d="M12 -72v91h4c16 -11 51 -19 70 -19c42 0 66 8 81 32c9 13 15 33 17 57l27 250h-101v76h107l6 45c6 48 20 87 46 113c29 29 68 46 135 46c42 0 88 -9 106 -24v-92h-4c-25 17 -66 25 -95 25c-25 0 -49 -5 -65 -19c-16 -13 -26 -34 -30 -72l-2 -22h126v-76h-134l-27 -270
c-3 -30 -12 -69 -28 -91c-30 -41 -68 -68 -151 -68c-33 0 -70 9 -88 18z" />
    <glyph glyph-name="florin.superior" horiz-adv-x="371" 
d="M3 327v72h4c12 -8 33 -12 48 -12c26 0 43 5 53 22c6 9 8 21 10 38l20 166h-69v53h72l7 48c4 27 17 55 35 72c22 20 54 35 100 35c29 0 62 -7 75 -16v-69h-4c-16 11 -43 15 -62 15c-18 0 -38 -3 -49 -13s-18 -23 -21 -45l-4 -27h92v-53h-96l-21 -187
c-3 -26 -9 -45 -17 -59c-22 -36 -56 -51 -110 -51c-23 0 -50 5 -63 11z" />
    <glyph glyph-name="four" unicode="4" horiz-adv-x="648" 
d="M504 0h-99v160h-367v77l374 442h92v-426h122v-93h-122v-160zM405 253c0 135 0 195 3 297c-55 -70 -94 -119 -246 -297h243z" />
    <glyph glyph-name="four.denominator" 
d="M339 0h-77v96h-235v55l242 270h70v-258h78v-67h-78v-96zM262 163c0 93 0 112 2 169c-32 -38 -61 -71 -148 -169h146z" />
    <glyph glyph-name="four.fitted" horiz-adv-x="685" 
d="M520 0h-99v160h-373v77l380 442h92v-426h122v-93h-122v-160zM421 253c0 135 0 197 3 299c-55 -67 -97 -120 -252 -299h249z" />
    <glyph glyph-name="four.inferior" unicode="&#x2084;" 
d="M339 -127h-77v96h-235v55l242 270h70v-258h78v-67h-78v-96zM262 36c0 93 0 112 2 169c-32 -38 -61 -71 -148 -169h146z" />
    <glyph glyph-name="four.numerator" 
d="M339 253h-77v96h-235v55l242 270h70v-258h78v-67h-78v-96zM262 416c0 93 0 112 2 169c-32 -38 -61 -71 -148 -169h146z" />
    <glyph glyph-name="four.oldstyle" horiz-adv-x="655" 
d="M494 -118h-94v155h-369v75l374 436h89v-420h122v-91h-122v-155zM400 128c0 135 0 199 2 301c-54 -71 -98 -124 -249 -301h247z" />
    <glyph glyph-name="four.superior" unicode="&#x2074;" 
d="M339 400h-77v96h-235v55l242 270h70v-258h78v-67h-78v-96zM262 563c0 93 0 112 2 169c-32 -38 -61 -71 -148 -169h146z" />
    <glyph glyph-name="four.taboldstyle" horiz-adv-x="629" 
d="M495 -118h-94v155h-369v75l374 436h89v-420h122v-91h-122v-155zM401 128c0 135 0 199 2 301c-54 -71 -98 -124 -249 -301h247z" />
    <glyph glyph-name="fourfifths" horiz-adv-x="988" 
d="M359 -12h-69l388 694h67zM344 253h-77v96h-235v55l242 270h70v-258h78v-67h-78v-96zM267 416c0 93 0 112 2 169c-32 -38 -61 -71 -148 -169h146zM605 23v81h4c45 -30 102 -42 143 -42c69 0 112 22 112 71c0 54 -49 66 -110 66c-48 0 -92 -13 -126 -31h-4l29 244h265v-70
h-208l-12 -91c20 11 60 18 90 18c97 0 155 -45 155 -131c0 -99 -89 -148 -196 -148c-43 0 -96 7 -142 33z" />
    <glyph glyph-name="fraction" unicode="&#x2044;" horiz-adv-x="102" 
d="M-108 -12h-69l388 694h67z" />
    <glyph glyph-name="g" unicode="g" horiz-adv-x="694" 
d="M103 -153v101h4c54 -39 137 -64 220 -64c76 0 132 21 159 52c24 27 31 56 31 112v40c-26 -40 -99 -84 -198 -84c-154 0 -271 84 -271 241c0 192 153 264 283 264c88 0 168 -35 190 -78v64h91v-444c0 -81 -18 -127 -38 -157c-41 -62 -123 -99 -253 -99
c-96 0 -180 24 -218 52zM515 177v159c-27 55 -97 85 -175 85c-95 0 -193 -48 -193 -174c0 -107 95 -153 192 -153c77 0 147 34 176 83z" />
    <glyph glyph-name="gbreve" unicode="&#x11f;" horiz-adv-x="694" 
d="M103 -153v101h4c54 -39 137 -64 220 -64c76 0 132 21 159 52c24 27 31 56 31 112v40c-26 -40 -99 -84 -198 -84c-154 0 -271 84 -271 241c0 192 153 264 283 264c88 0 168 -35 190 -78v64h91v-444c0 -81 -18 -127 -38 -157c-41 -62 -123 -99 -253 -99
c-96 0 -180 24 -218 52zM515 177v159c-27 55 -97 85 -175 85c-95 0 -193 -48 -193 -174c0 -107 95 -153 192 -153c77 0 147 34 176 83zM181 714h75c3 -49 32 -72 84 -72c56 0 83 24 86 72h78c-2 -81 -53 -151 -165 -151c-107 0 -158 65 -158 151z" />
    <glyph glyph-name="gcircumflex" unicode="&#x11d;" horiz-adv-x="694" 
d="M103 -152v101h4c54 -39 137 -64 220 -64c76 0 132 21 159 52c24 27 31 56 31 112v40c-26 -40 -99 -84 -198 -84c-154 0 -271 84 -271 241c0 192 153 264 283 264c88 0 168 -35 190 -78v64h91v-444c0 -81 -18 -127 -38 -157c-41 -62 -123 -99 -253 -99
c-96 0 -180 24 -218 52zM515 178v159c-27 55 -97 85 -175 85c-95 0 -193 -48 -193 -174c0 -107 95 -153 192 -153c77 0 147 34 176 83zM260 575h-88v4l153 157h60l154 -157v-4h-92l-96 82z" />
    <glyph glyph-name="gcommaaccent" unicode="&#x123;" horiz-adv-x="694" 
d="M103 -153v101h4c54 -39 137 -64 220 -64c76 0 132 21 159 52c24 27 31 56 31 112v40c-26 -40 -99 -84 -198 -84c-154 0 -271 84 -271 241c0 192 153 264 283 264c88 0 168 -35 190 -78v64h91v-444c0 -81 -18 -127 -38 -157c-41 -62 -123 -99 -253 -99
c-96 0 -180 24 -218 52zM515 177v159c-27 55 -97 85 -175 85c-95 0 -193 -48 -193 -174c0 -107 95 -153 192 -153c77 0 147 34 176 83zM389 798h84v-4c-44 -31 -82 -88 -82 -153c0 -23 4 -47 15 -69h-98c-11 17 -13 43 -13 63c0 69 47 131 94 163z" />
    <glyph glyph-name="gdotaccent" unicode="&#x121;" horiz-adv-x="694" 
d="M103 -153v101h4c54 -39 137 -64 220 -64c76 0 132 21 159 52c24 27 31 56 31 112v40c-26 -40 -99 -84 -198 -84c-154 0 -271 84 -271 241c0 192 153 264 283 264c88 0 168 -35 190 -78v64h91v-444c0 -81 -18 -127 -38 -157c-41 -62 -123 -99 -253 -99
c-96 0 -180 24 -218 52zM515 177v159c-27 55 -97 85 -175 85c-95 0 -193 -48 -193 -174c0 -107 95 -153 192 -153c77 0 147 34 176 83zM407 655c0 -31 -22 -54 -55 -54c-30 0 -57 18 -57 54c0 39 30 57 58 57c27 0 54 -18 54 -57z" />
    <glyph glyph-name="germandbls" unicode="&#xdf;" horiz-adv-x="680" 
d="M179 0h-97v472c0 88 16 139 42 175c43 59 124 93 217 93c176 0 231 -102 231 -181c0 -84 -32 -146 -139 -182c127 -6 205 -70 205 -191c0 -117 -88 -199 -230 -199c-63 0 -113 11 -151 32v96h5c43 -30 96 -38 142 -38c79 0 133 35 133 110c0 99 -71 137 -224 137h-24v84
h23c96 0 158 42 158 137c0 60 -51 106 -130 106c-55 0 -100 -16 -126 -47c-23 -28 -35 -67 -35 -129v-475z" />
    <glyph glyph-name="grave" unicode="`" horiz-adv-x="241" 
d="M258 575h-93l-182 161v4h135l140 -161v-4z" />
    <glyph glyph-name="grave.cap" horiz-adv-x="241" 
d="M283 750h-109l-209 130v4h156l162 -130v-4z" />
    <glyph glyph-name="greater" unicode="&#x3e;" horiz-adv-x="700" 
d="M134 549l452 -218v-67l-452 -222v76l380 179l-380 173v79z" />
    <glyph glyph-name="greaterequal" unicode="&#x2265;" horiz-adv-x="700" 
d="M583 354l-452 -205v77l375 163l-375 163v78l452 -208v-68zM583 0h-452v65h452v-65z" />
    <glyph glyph-name="guillemotleft" unicode="&#xab;" horiz-adv-x="513" 
d="M281 68h-104l-152 184l151 184h103l-148 -184zM481 68h-104l-152 184l151 184h104l-149 -184z" />
    <glyph glyph-name="guillemotleft.cap" horiz-adv-x="513" 
d="M281 144h-104l-152 184l151 184h103l-148 -184zM481 144h-104l-152 184l151 184h104l-149 -184z" />
    <glyph glyph-name="guillemotright" unicode="&#xbb;" horiz-adv-x="513" 
d="M233 436h103l152 -184l-151 -184h-103l148 184zM32 436h105l152 -184l-151 -184h-104l148 184z" />
    <glyph glyph-name="guillemotright.cap" horiz-adv-x="513" 
d="M233 512h103l152 -184l-151 -184h-103l148 184zM32 512h105l152 -184l-151 -184h-104l148 184z" />
    <glyph glyph-name="guilsinglleft" unicode="&#x2039;" horiz-adv-x="313" 
d="M281 68h-104l-152 184l151 184h103l-148 -184z" />
    <glyph glyph-name="guilsinglleft.cap" horiz-adv-x="314" 
d="M281 145h-104l-152 184l151 184h103l-148 -184z" />
    <glyph glyph-name="guilsinglright" unicode="&#x203a;" horiz-adv-x="313" 
d="M32 436h105l152 -184l-151 -184h-104l148 184z" />
    <glyph glyph-name="guilsinglright.cap" horiz-adv-x="314" 
d="M32 512h105l152 -184l-151 -184h-104l148 184z" />
    <glyph glyph-name="h" unicode="h" horiz-adv-x="655" 
d="M179 0h-97v728h97v-313c32 50 106 92 203 92c104 0 164 -41 183 -106c9 -29 12 -60 12 -108v-293h-97v271c0 44 -7 78 -15 93c-17 32 -56 51 -113 51c-65 0 -141 -34 -173 -85v-330z" />
    <glyph glyph-name="hbar" unicode="&#x127;" horiz-adv-x="655" 
d="M179 0h-97v545h-69v80h69v103h97v-103h162v-80h-162v-130c32 50 106 92 203 92c104 0 164 -41 183 -106c9 -29 12 -60 12 -108v-293h-97v271c0 44 -7 78 -15 93c-17 32 -56 51 -113 51c-65 0 -141 -34 -173 -85v-330z" />
    <glyph glyph-name="hcircumflex" unicode="&#x125;" horiz-adv-x="655" 
d="M179 0h-97v728h97v-313c32 50 106 92 203 92c104 0 164 -41 183 -106c9 -29 12 -60 12 -108v-293h-97v271c0 44 -7 78 -15 93c-17 32 -56 51 -113 51c-65 0 -141 -34 -173 -85v-330zM62 766h-100v4l159 130h64l157 -130v-4h-97l-95 60z" />
    <glyph glyph-name="hungarumlaut" unicode="&#x2dd;" horiz-adv-x="241" 
d="M-25 575h-83v4l131 161h124v-4zM174 575h-83v4l131 161h124v-4z" />
    <glyph glyph-name="hungarumlaut.cap" horiz-adv-x="229" 
d="M-30 750h-84v4l145 131h124v-4zM159 750h-84v4l145 131h124v-4z" />
    <glyph glyph-name="hyphen" unicode="-" horiz-adv-x="349" 
d="M309 225h-269v96h269v-96z" />
    <glyph glyph-name="hyphen.cap" horiz-adv-x="349" 
d="M309 284h-269v96h269v-96z" />
    <glyph glyph-name="hyphen.denominator" horiz-adv-x="235" 
d="M209 138h-183v71h183v-71z" />
    <glyph glyph-name="hyphen.inferior" horiz-adv-x="235" 
d="M209 11h-183v71h183v-71z" />
    <glyph glyph-name="hyphen.numerator" horiz-adv-x="235" 
d="M209 391h-183v71h183v-71z" />
    <glyph glyph-name="hyphen.superior" horiz-adv-x="235" 
d="M209 538h-183v71h183v-71z" />
    <glyph glyph-name="i" unicode="i" horiz-adv-x="263" 
d="M180 0h-98v495h98v-495zM191 655c0 -34 -23 -59 -59 -59c-33 0 -60 20 -60 59c0 43 31 61 61 61s58 -18 58 -61z" />
    <glyph glyph-name="iacute" unicode="&#xed;" horiz-adv-x="263" 
d="M180 0h-98v495h98v-495zM157 575h-93v4l140 161h135v-4z" />
    <glyph glyph-name="ibreve" unicode="&#x12d;" horiz-adv-x="263" 
d="M180 0h-98v495h98v-495zM-30 714h75c3 -49 32 -72 84 -72c56 0 83 24 86 72h78c-2 -81 -53 -151 -165 -151c-107 0 -158 65 -158 151z" />
    <glyph glyph-name="icircumflex" unicode="&#xee;" horiz-adv-x="263" 
d="M180 0h-98v495h98v-495zM36 575h-88v4l153 157h60l154 -157v-4h-92l-96 82z" />
    <glyph glyph-name="idieresis" unicode="&#xef;" horiz-adv-x="263" 
d="M180 0h-98v495h98v-495zM93 655c0 -31 -22 -54 -55 -54c-30 0 -57 18 -57 54c0 39 30 57 58 57c27 0 54 -18 54 -57zM283 655c0 -31 -22 -54 -55 -54c-30 0 -57 18 -57 54c0 39 30 57 58 57c27 0 54 -18 54 -57z" />
    <glyph glyph-name="idotaccent" horiz-adv-x="263" 
d="M180 0h-98v495h98v-495zM191 655c0 -34 -23 -59 -59 -59c-33 0 -60 20 -60 59c0 43 31 61 61 61s58 -18 58 -61z" />
    <glyph glyph-name="igrave" unicode="&#xec;" horiz-adv-x="263" 
d="M180 0h-98v495h98v-495zM220 575h-93l-182 161v4h135l140 -161v-4z" />
    <glyph glyph-name="ij" unicode="&#x133;" horiz-adv-x="526" 
d="M180 0h-98v495h98v-495zM191 655c0 -34 -23 -59 -59 -59c-33 0 -60 20 -60 59c0 43 31 61 61 61s58 -18 58 -61zM179 -193v93h4c21 -13 51 -20 78 -20c28 0 50 7 63 20c18 19 21 52 21 105v490h98v-498c0 -83 -10 -128 -33 -154c-28 -31 -69 -53 -134 -53
c-36 0 -71 5 -97 17zM454 655c0 -34 -23 -59 -59 -59c-33 0 -60 20 -60 59c0 43 31 61 61 61s58 -18 58 -61z" />
    <glyph glyph-name="imacron" unicode="&#x12b;" horiz-adv-x="263" 
d="M180 0h-98v495h98v-495zM273 580h-283v80h283v-80z" />
    <glyph glyph-name="infinity" unicode="&#x221e;" horiz-adv-x="730" 
d="M365 339c56 67 106 102 174 102c83 0 136 -62 136 -147c0 -89 -56 -154 -145 -154c-66 0 -106 33 -165 103c-60 -70 -103 -102 -171 -102c-82 0 -140 54 -140 146c0 91 59 154 146 154c64 0 105 -29 165 -102zM326 290c-46 57 -74 90 -127 90c-48 0 -85 -37 -85 -89
s36 -89 83 -89c51 0 87 34 129 88zM404 292c51 -59 78 -91 128 -91c48 0 83 36 83 88c0 55 -32 90 -81 90c-42 0 -83 -26 -130 -87z" />
    <glyph glyph-name="integral" unicode="&#x222b;" horiz-adv-x="376" 
d="M34 -167v75h5c17 -10 51 -15 64 -15c40 0 60 10 60 64c0 22 -2 63 -3 87l-22 458c-1 25 -2 56 -2 76c0 80 45 131 140 131c30 0 55 -3 70 -12v-75h-4c-17 10 -37 12 -58 12c-36 0 -65 -19 -65 -74c0 -20 1 -45 2 -67l22 -457c1 -26 3 -60 3 -90c0 -91 -41 -127 -137 -127
c-23 0 -52 4 -75 14z" />
    <glyph glyph-name="iogonek" unicode="&#x12f;" horiz-adv-x="263" 
d="M180 0h-18c-83 -47 -109 -76 -109 -119c0 -35 27 -55 71 -55c21 0 44 3 66 14h4v-62c-26 -15 -63 -21 -95 -21c-69 0 -129 37 -129 108c0 54 34 99 112 135v495h98v-495zM191 655c0 -34 -23 -59 -59 -59c-33 0 -60 20 -60 59c0 43 31 61 61 61s58 -18 58 -61z" />
    <glyph glyph-name="itilde" unicode="&#x129;" horiz-adv-x="263" 
d="M19 589h-69c7 87 49 129 109 129c27 0 49 -7 83 -27c29 -16 48 -23 62 -23c23 0 35 12 40 53h68c-8 -90 -52 -133 -104 -133c-30 0 -45 5 -85 24c-34 15 -52 26 -66 26c-20 0 -34 -12 -38 -49zM180 0h-98v495h98v-495z" />
    <glyph glyph-name="j" unicode="j" horiz-adv-x="263" 
d="M-84 -193v93h4c21 -13 51 -20 78 -20c28 0 50 7 63 20c18 19 21 52 21 105v490h98v-498c0 -83 -10 -128 -33 -154c-28 -31 -69 -53 -134 -53c-36 0 -71 5 -97 17zM191 655c0 -34 -23 -59 -59 -59c-33 0 -60 20 -60 59c0 43 31 61 61 61s58 -18 58 -61z" />
    <glyph glyph-name="jcircumflex" unicode="&#x135;" horiz-adv-x="263" 
d="M-84 -193v93h4c21 -13 51 -20 78 -20c28 0 50 7 63 20c18 19 21 52 21 105v490h98v-498c0 -83 -10 -128 -33 -154c-28 -31 -69 -53 -134 -53c-36 0 -71 5 -97 17zM36 575h-88v4l153 157h60l154 -157v-4h-92l-96 82z" />
    <glyph glyph-name="k" unicode="k" horiz-adv-x="587" 
d="M179 0h-97v728h97v-449l248 216h144l-220 -180l236 -315h-122l-186 256l-100 -82v-174z" />
    <glyph glyph-name="kcommaaccent" unicode="&#x137;" horiz-adv-x="587" 
d="M179 0h-97v728h97v-449l248 216h144l-220 -180l236 -315h-122l-186 256l-100 -82v-174zM298 -290h-86v4c43 31 86 88 86 153c0 23 -4 47 -15 69h96c11 -17 13 -43 13 -63c0 -69 -47 -130 -94 -163z" />
    <glyph glyph-name="kgreenlandic" unicode="&#x138;" horiz-adv-x="587" 
d="M179 0h-97v495h97v-221l248 221h144l-221 -185l237 -310h-122l-186 250l-100 -83v-167z" />
    <glyph glyph-name="l" unicode="l" horiz-adv-x="261" 
d="M179 0h-97v728h97v-728z" />
    <glyph glyph-name="lacute" unicode="&#x13a;" horiz-adv-x="261" 
d="M179 0h-97v728h97v-728zM159 770h-108v4l161 130h157v-4z" />
    <glyph glyph-name="lcaron" unicode="&#x13e;" horiz-adv-x="261" 
d="M179 0h-97v728h97v-728zM316 501h-86v4c43 31 86 88 86 153c0 23 -4 47 -15 69h96c11 -17 13 -43 13 -63c0 -69 -47 -130 -94 -163z" />
    <glyph glyph-name="lcommaaccent" unicode="&#x13c;" horiz-adv-x="261" 
d="M179 0h-97v728h97v-728zM111 -290h-86v4c43 31 86 88 86 153c0 23 -4 47 -15 69h96c11 -17 13 -43 13 -63c0 -69 -47 -130 -94 -163z" />
    <glyph glyph-name="ldot" unicode="&#x140;" horiz-adv-x="406" 
d="M179 0h-97v728h97v-728zM405 325c0 -39 -29 -67 -69 -67c-38 0 -68 25 -68 66c0 48 36 69 68 69c33 0 69 -20 69 -68z" />
    <glyph glyph-name="less" unicode="&#x3c;" horiz-adv-x="700" 
d="M566 42l-452 216v69l452 222v-77l-379 -177l379 -175v-78z" />
    <glyph glyph-name="lessequal" unicode="&#x2264;" horiz-adv-x="700" 
d="M569 149l-452 204v68l452 209v-77l-374 -164l374 -162v-78zM569 0h-452v65h452v-65z" />
    <glyph glyph-name="logicalnot" unicode="&#xac;" horiz-adv-x="700" 
d="M602 35h-67v227h-453v66h520v-293z" />
    <glyph glyph-name="longs" unicode="&#x17f;" horiz-adv-x="309" 
d="M210 0h-97v545c0 79 22 119 52 146c35 32 80 49 150 49c36 0 68 -6 84 -16v-87h-4c-25 14 -53 18 -80 18c-33 0 -63 -9 -81 -29c-15 -16 -24 -45 -24 -89v-537z" />
    <glyph glyph-name="lozenge" unicode="&#x25ca;" horiz-adv-x="731" 
d="M326 706h83l178 -351l-178 -355h-83l-182 354zM229 354l140 -277l134 278l-136 278z" />
    <glyph glyph-name="lslash" unicode="&#x142;" horiz-adv-x="261" 
d="M179 0h-97v269l-78 -42v86l78 42v373h97v-321l86 46v-86l-86 -46v-321z" />
    <glyph glyph-name="m" unicode="m" horiz-adv-x="1022" 
d="M179 0h-97v495h95v-80c32 49 110 92 199 92c95 0 148 -31 168 -92c32 44 101 92 212 92c101 0 157 -41 177 -106c9 -29 11 -60 11 -108v-293h-97v270c0 44 -6 79 -12 93c-12 31 -52 52 -108 52c-72 0 -136 -35 -165 -83c1 -13 1 -32 1 -48v-284h-97v277
c0 44 -3 68 -12 86c-17 33 -47 52 -106 52c-69 0 -140 -40 -169 -84v-331z" />
    <glyph glyph-name="macron" unicode="&#xaf;" horiz-adv-x="241" 
d="M282 580h-323v80h323v-80z" />
    <glyph glyph-name="macron.cap" horiz-adv-x="241" 
d="M293 765h-345v78h345v-78z" />
    <glyph glyph-name="minus" unicode="&#x2212;" horiz-adv-x="700" 
d="M610 262h-520v67h520v-67z" />
    <glyph glyph-name="mu" unicode="&#xb5;" horiz-adv-x="680" 
d="M187 -211h-98v705h97v-260c0 -45 7 -81 16 -99c15 -28 62 -55 117 -55c70 0 136 29 174 79v335h98v-494h-94v73c-37 -54 -104 -85 -181 -85c-48 0 -103 15 -129 45v-244z" />
    <glyph glyph-name="multiply" unicode="&#xd7;" horiz-adv-x="731" 
d="M185 78l-47 49l179 179l-180 181l50 51l180 -181l179 180l47 -48l-179 -180l178 -178l-49 -51l-179 179z" />
    <glyph glyph-name="n" unicode="n" horiz-adv-x="655" 
d="M179 0h-97v495h95v-80c32 50 108 92 205 92c104 0 164 -41 183 -106c9 -29 12 -60 12 -108v-293h-97v271c0 44 -7 78 -15 93c-17 32 -56 51 -113 51c-65 0 -141 -34 -173 -85v-330z" />
    <glyph glyph-name="nacute" unicode="&#x144;" horiz-adv-x="655" 
d="M179 0h-97v495h95v-80c32 50 108 92 205 92c104 0 164 -41 183 -106c9 -29 12 -60 12 -108v-293h-97v271c0 44 -7 78 -15 93c-17 32 -56 51 -113 51c-65 0 -141 -34 -173 -85v-330zM350 575h-93v4l140 161h135v-4z" />
    <glyph glyph-name="napostrophe" unicode="&#x149;" horiz-adv-x="655" 
d="M179 0h-97v495h95v-80c32 50 108 92 205 92c104 0 164 -41 183 -106c9 -29 12 -60 12 -108v-293h-97v271c0 44 -7 78 -15 93c-17 32 -56 51 -113 51c-65 0 -141 -34 -173 -85v-330zM94 551h-86v4c43 31 86 88 86 153c0 23 -4 47 -15 69h96c11 -17 13 -43 13 -63
c0 -69 -47 -130 -94 -163z" />
    <glyph glyph-name="ncaron" unicode="&#x148;" horiz-adv-x="655" 
d="M179 0h-97v495h95v-80c32 50 108 92 205 92c104 0 164 -41 183 -106c9 -29 12 -60 12 -108v-293h-97v271c0 44 -7 78 -15 93c-17 32 -56 51 -113 51c-65 0 -141 -34 -173 -85v-330zM432 736h88v-4l-153 -157h-60l-154 157v4h90l97 -82z" />
    <glyph glyph-name="ncommaaccent" unicode="&#x146;" horiz-adv-x="655" 
d="M179 0h-97v495h95v-80c32 50 108 92 205 92c104 0 164 -41 183 -106c9 -29 12 -60 12 -108v-293h-97v271c0 44 -7 78 -15 93c-17 32 -56 51 -113 51c-65 0 -141 -34 -173 -85v-330zM298 -290h-86v4c43 31 86 88 86 153c0 23 -4 47 -15 69h96c11 -17 13 -43 13 -63
c0 -69 -47 -130 -94 -163z" />
    <glyph glyph-name="nine" unicode="9" horiz-adv-x="648" 
d="M67 31v104h5c51 -39 125 -56 187 -56c148 0 218 84 229 236c-36 -55 -111 -91 -194 -91c-135 0 -247 72 -247 223c0 144 124 232 263 232c209 0 281 -151 281 -333c0 -273 -159 -360 -327 -360c-73 0 -154 17 -197 45zM480 418c-1 26 -5 45 -14 72
c-21 60 -74 100 -153 100c-87 0 -166 -42 -166 -140c0 -89 73 -135 158 -135c93 0 155 48 175 103z" />
    <glyph glyph-name="nine.denominator" 
d="M327 199c-23 -38 -72 -59 -128 -59c-99 0 -157 47 -157 136c0 93 78 145 174 145c91 0 186 -46 186 -199c0 -175 -105 -231 -224 -231c-53 0 -92 9 -119 25v79h4c30 -25 80 -34 119 -34c95 0 139 42 145 138zM319 265c0 15 -5 29 -9 38c-13 28 -46 49 -92 49
c-53 0 -98 -22 -98 -74c0 -50 43 -71 97 -71c50 0 89 24 102 58z" />
    <glyph glyph-name="nine.fitted" horiz-adv-x="654" 
d="M68 31v104h5c51 -39 125 -56 187 -56c148 0 218 84 229 236c-36 -55 -111 -91 -194 -91c-135 0 -247 72 -247 223c0 144 124 232 263 232c209 0 281 -151 281 -333c0 -273 -159 -360 -327 -360c-73 0 -154 17 -197 45zM481 418c-1 26 -5 45 -14 72
c-21 60 -74 100 -153 100c-87 0 -166 -42 -166 -140c0 -89 73 -135 158 -135c93 0 155 48 175 103z" />
    <glyph glyph-name="nine.inferior" unicode="&#x2089;" 
d="M327 72c-23 -38 -72 -59 -128 -59c-99 0 -157 47 -157 136c0 93 78 145 174 145c91 0 186 -46 186 -199c0 -175 -105 -231 -224 -231c-53 0 -92 9 -119 25v79h4c30 -25 80 -34 119 -34c95 0 139 42 145 138zM319 138c0 15 -5 29 -9 38c-13 28 -46 49 -92 49
c-53 0 -98 -22 -98 -74c0 -50 43 -71 97 -71c50 0 89 24 102 58z" />
    <glyph glyph-name="nine.numerator" 
d="M327 452c-23 -38 -72 -59 -128 -59c-99 0 -157 47 -157 136c0 93 78 145 174 145c91 0 186 -46 186 -199c0 -175 -105 -231 -224 -231c-53 0 -92 9 -119 25v79h4c30 -25 80 -34 119 -34c95 0 139 42 145 138zM319 518c0 15 -5 29 -9 38c-13 28 -46 49 -92 49
c-53 0 -98 -22 -98 -74c0 -50 43 -71 97 -71c50 0 89 24 102 58z" />
    <glyph glyph-name="nine.oldstyle" horiz-adv-x="643" 
d="M73 -79v101h4c51 -38 122 -55 183 -55c153 0 233 94 234 237c-29 -54 -111 -98 -197 -98c-133 0 -243 73 -243 217s119 226 256 226c204 0 277 -146 277 -323c0 -265 -158 -349 -322 -349c-71 0 -150 16 -192 44zM477 296c0 25 -1 44 -9 68c-20 60 -85 95 -156 95
c-78 0 -160 -39 -160 -132c0 -85 75 -131 155 -131c90 0 152 49 170 100z" />
    <glyph glyph-name="nine.superior" unicode="&#x2079;" 
d="M327 599c-23 -38 -72 -59 -128 -59c-99 0 -157 47 -157 136c0 93 78 145 174 145c91 0 186 -46 186 -199c0 -175 -105 -231 -224 -231c-53 0 -92 9 -119 25v79h4c30 -25 80 -34 119 -34c95 0 139 42 145 138zM319 665c0 15 -5 29 -9 38c-13 28 -46 49 -92 49
c-53 0 -98 -22 -98 -74c0 -50 43 -71 97 -71c50 0 89 24 102 58z" />
    <glyph glyph-name="nine.taboldstyle" horiz-adv-x="629" 
d="M61 -79v101h4c51 -38 122 -55 183 -55c153 0 233 94 234 237c-29 -54 -111 -98 -197 -98c-133 0 -243 73 -243 217s119 226 256 226c204 0 277 -146 277 -323c0 -265 -158 -349 -322 -349c-71 0 -150 16 -192 44zM465 296c0 25 -1 44 -9 68c-20 60 -85 95 -156 95
c-78 0 -160 -39 -160 -132c0 -85 75 -131 155 -131c90 0 152 49 170 100z" />
    <glyph glyph-name="notequal" unicode="&#x2260;" horiz-adv-x="700" 
d="M240 6h-58l77 158h-169v65h201l63 127h-264v66h296l73 147h58l-73 -147h166v-66h-198l-63 -127h261v-65h-293z" />
    <glyph glyph-name="ntilde" unicode="&#xf1;" horiz-adv-x="655" 
d="M179 0h-97v495h95v-80c32 50 108 92 205 92c104 0 164 -41 183 -106c9 -29 12 -60 12 -108v-293h-97v271c0 44 -7 78 -15 93c-17 32 -56 51 -113 51c-65 0 -141 -34 -173 -85v-330zM228 589h-69c7 87 49 129 109 129c27 0 49 -7 83 -27c29 -16 48 -23 62 -23
c23 0 35 12 40 53h68c-8 -90 -52 -133 -104 -133c-30 0 -45 5 -85 24c-34 15 -52 26 -66 26c-20 0 -34 -12 -38 -49z" />
    <glyph glyph-name="numbersign" unicode="#" horiz-adv-x="700" 
d="M224 -14h-66l35 219h-144v82h157l17 101h-146v82h159l34 210h67l-34 -210h144l34 210h66l-34 -210h139v-82h-153l-16 -101h141v-82h-155l-35 -219h-66l35 219h-144zM289 388l-16 -101h144l16 101h-144z" />
    <glyph glyph-name="numbersign.oldstyle" horiz-adv-x="659" 
d="M213 -14h-62l32 192h-137v77h150l14 89h-138v77h151l31 184h63l-31 -184h133l31 184h61l-31 -184h134v-77h-147l-15 -89h136v-77h-149l-32 -192h-61l32 192h-133zM273 344l-15 -89h133l15 89h-133z" />
    <glyph glyph-name="o" unicode="o" horiz-adv-x="687" 
d="M639 248c0 -149 -120 -261 -297 -261c-176 0 -294 111 -294 261c0 149 122 261 297 261c181 0 294 -107 294 -261zM538 248c0 96 -74 172 -194 172c-115 0 -195 -73 -195 -172c0 -104 86 -171 196 -171c117 0 193 76 193 171z" />
    <glyph glyph-name="oacute" unicode="&#xf3;" horiz-adv-x="687" 
d="M639 248c0 -149 -120 -261 -297 -261c-176 0 -294 111 -294 261c0 149 122 261 297 261c181 0 294 -107 294 -261zM538 248c0 96 -74 172 -194 172c-115 0 -195 -73 -195 -172c0 -104 86 -171 196 -171c117 0 193 76 193 171zM357 575h-93v4l140 161h135v-4z" />
    <glyph glyph-name="obreve" unicode="&#x14f;" horiz-adv-x="687" 
d="M639 248c0 -149 -120 -261 -297 -261c-176 0 -294 111 -294 261c0 149 122 261 297 261c181 0 294 -107 294 -261zM538 248c0 96 -74 172 -194 172c-115 0 -195 -73 -195 -172c0 -104 86 -171 196 -171c117 0 193 76 193 171zM187 714h75c3 -49 32 -72 84 -72
c56 0 83 24 86 72h78c-2 -81 -53 -151 -165 -151c-107 0 -158 65 -158 151z" />
    <glyph glyph-name="ocircumflex" unicode="&#xf4;" horiz-adv-x="687" 
d="M639 248c0 -149 -120 -261 -297 -261c-176 0 -294 111 -294 261c0 149 122 261 297 261c181 0 294 -107 294 -261zM538 248c0 96 -74 172 -194 172c-115 0 -195 -73 -195 -172c0 -104 86 -171 196 -171c117 0 193 76 193 171zM254 575h-88v4l153 157h60l154 -157v-4h-92
l-96 82z" />
    <glyph glyph-name="odieresis" unicode="&#xf6;" horiz-adv-x="687" 
d="M639 248c0 -149 -120 -261 -297 -261c-176 0 -294 111 -294 261c0 149 122 261 297 261c181 0 294 -107 294 -261zM538 248c0 96 -74 172 -194 172c-115 0 -195 -73 -195 -172c0 -104 86 -171 196 -171c117 0 193 76 193 171zM307 655c0 -31 -22 -54 -55 -54
c-30 0 -57 18 -57 54c0 39 30 57 58 57c27 0 54 -18 54 -57zM497 655c0 -31 -22 -54 -55 -54c-30 0 -57 18 -57 54c0 39 30 57 58 57c27 0 54 -18 54 -57z" />
    <glyph glyph-name="oe" unicode="&#x153;" horiz-adv-x="1119" 
d="M1050 44c-54 -37 -141 -57 -217 -57c-117 0 -201 44 -252 109c-56 -74 -148 -109 -240 -109c-149 0 -293 89 -293 262c0 168 144 260 298 260c96 0 186 -33 235 -107c51 71 146 107 228 107c176 0 257 -93 259 -234c0 -18 -1 -47 -3 -62h-430c11 -84 88 -136 209 -136
c78 0 144 20 202 65h4v-98zM537 251c0 120 -101 169 -195 169c-92 0 -193 -58 -193 -170c0 -120 103 -173 195 -173c97 0 193 52 193 174zM637 296h329v8c0 84 -67 120 -162 120c-63 0 -155 -32 -167 -128z" />
    <glyph glyph-name="ogonek" unicode="&#x2db;" horiz-adv-x="241" 
d="M224 13c-102 -56 -133 -85 -133 -132c0 -35 27 -55 71 -55c21 0 44 3 66 14h4v-62c-26 -15 -63 -21 -95 -21c-69 0 -129 37 -129 108c0 61 43 110 144 148h72z" />
    <glyph glyph-name="ogonek.cap" horiz-adv-x="241" 
d="M225 13c-102 -58 -133 -87 -133 -136c0 -36 27 -56 71 -56c21 0 44 3 66 14h4v-64c-26 -15 -63 -21 -95 -21c-69 0 -130 38 -130 111c0 63 43 113 145 152h72z" />
    <glyph glyph-name="ograve" unicode="&#xf2;" horiz-adv-x="687" 
d="M639 248c0 -149 -120 -261 -297 -261c-176 0 -294 111 -294 261c0 149 122 261 297 261c181 0 294 -107 294 -261zM538 248c0 96 -74 172 -194 172c-115 0 -195 -73 -195 -172c0 -104 86 -171 196 -171c117 0 193 76 193 171zM439 575h-93l-182 161v4h135l140 -161v-4z
" />
    <glyph glyph-name="ohungarumlaut" unicode="&#x151;" horiz-adv-x="687" 
d="M639 248c0 -149 -120 -261 -297 -261c-176 0 -294 111 -294 261c0 149 122 261 297 261c181 0 294 -107 294 -261zM538 248c0 96 -74 172 -194 172c-115 0 -195 -73 -195 -172c0 -104 86 -171 196 -171c117 0 193 76 193 171zM267 575h-83v4l131 161h124v-4zM466 575h-83
v4l131 161h124v-4z" />
    <glyph glyph-name="omacron" unicode="&#x14d;" horiz-adv-x="687" 
d="M639 248c0 -149 -120 -261 -297 -261c-176 0 -294 111 -294 261c0 149 122 261 297 261c181 0 294 -107 294 -261zM538 248c0 96 -74 172 -194 172c-115 0 -195 -73 -195 -172c0 -104 86 -171 196 -171c117 0 193 76 193 171zM509 580h-323v80h323v-80z" />
    <glyph glyph-name="one" unicode="1" horiz-adv-x="648" 
d="M408 0h-99v564l-168 -73v97l191 92h76v-680z" />
    <glyph glyph-name="one.denominator" 
d="M299 0h-80v333l-104 -46v71l125 59h59v-417z" />
    <glyph glyph-name="one.fitted" horiz-adv-x="505" 
d="M343 0h-99v564l-168 -73v97l191 92h76v-680z" />
    <glyph glyph-name="one.inferior" unicode="&#x2081;" 
d="M299 -127h-80v333l-104 -46v71l125 59h59v-417z" />
    <glyph glyph-name="one.numerator" 
d="M299 253h-80v333l-104 -46v71l125 59h59v-417z" />
    <glyph glyph-name="one.oldstyle" horiz-adv-x="463" 
d="M325 0h-96v438l-170 -75v95l191 92h75v-550z" />
    <glyph glyph-name="one.taboldstyle" horiz-adv-x="629" 
d="M403 0h-96v438l-170 -75v95l191 92h75v-550z" />
    <glyph glyph-name="oneeighth" unicode="&#x215b;" horiz-adv-x="988" 
d="M284 -12h-69l388 694h67zM277 253h-80v333l-104 -46v71l125 59h59v-417zM812 217c62 -13 93 -50 93 -101c0 -73 -69 -125 -180 -125c-102 0 -178 41 -178 119c0 50 31 80 91 98c-47 16 -72 53 -72 98c0 69 71 115 163 115c96 0 160 -40 160 -113c0 -44 -28 -76 -77 -91z
M729 242c56 4 85 23 85 58c0 32 -35 53 -88 53c-55 0 -87 -23 -87 -54c0 -37 37 -53 90 -57zM721 182c-59 -5 -96 -25 -96 -62c0 -38 43 -61 101 -61c64 0 101 24 101 62c0 46 -47 58 -106 61z" />
    <glyph glyph-name="onefifth" horiz-adv-x="988" 
d="M289 -12h-69l388 694h67zM292 253h-80v333l-104 -46v71l125 59h59v-417zM544 23v81h4c45 -30 102 -42 143 -42c69 0 112 22 112 71c0 54 -49 66 -110 66c-48 0 -92 -13 -126 -31h-4l29 244h265v-70h-208l-12 -91c20 11 60 18 90 18c97 0 155 -45 155 -131
c0 -99 -89 -148 -196 -148c-43 0 -96 7 -142 33z" />
    <glyph glyph-name="onehalf" unicode="&#xbd;" horiz-adv-x="988" 
d="M282 -12h-69l388 694h67zM277 253h-80v333l-104 -46v71l125 59h59v-417zM906 0h-355v49c63 45 119 79 177 130c45 39 65 73 65 108c0 43 -30 64 -83 64s-102 -22 -143 -59h-4v74c36 32 96 55 154 55c108 0 159 -52 159 -125c0 -50 -23 -96 -65 -133
c-29 -26 -88 -70 -131 -94c71 1 135 1 226 1v-70z" />
    <glyph glyph-name="onequarter" unicode="&#xbc;" horiz-adv-x="988" 
d="M306 -12h-69l388 694h67zM294 253h-80v333l-104 -46v71l125 59h59v-417zM812 0h-77v96h-235v55l242 270h70v-258h78v-67h-78v-96zM735 163c0 93 0 112 2 169c-32 -38 -61 -71 -148 -169h146z" />
    <glyph glyph-name="onesuperior" unicode="&#xb9;" 
d="M299 400h-80v333l-104 -46v71l125 59h59v-417z" />
    <glyph glyph-name="onethird" unicode="&#x2153;" horiz-adv-x="988" 
d="M293 -12h-69l388 694h67zM296 253h-80v333l-104 -46v71l125 59h59v-417zM583 27v79h4c37 -29 95 -44 143 -44c74 0 99 23 99 57c0 25 -15 45 -52 52c-18 3 -53 6 -81 6h-21v68h23c33 0 66 3 83 10c24 10 32 24 32 46c0 31 -27 50 -82 50c-39 0 -98 -13 -135 -48h-4v73
c33 26 88 45 145 45c105 0 155 -44 155 -112c0 -42 -29 -78 -88 -94c70 -10 104 -42 104 -97c0 -79 -71 -127 -183 -127c-45 0 -104 13 -142 36z" />
    <glyph glyph-name="ordfeminine" unicode="&#xaa;" horiz-adv-x="410" 
d="M404 295c-12 -6 -32 -8 -46 -8c-43 0 -69 16 -76 42c-26 -31 -67 -46 -122 -46c-79 0 -129 43 -129 100c0 56 33 78 67 89c39 12 83 15 123 15c14 0 40 -2 52 -3v5c0 14 -2 24 -9 33c-12 16 -38 22 -70 22c-33 0 -93 -7 -131 -37h-4v75c44 27 100 36 148 36
c44 0 81 -10 103 -24c25 -17 38 -41 38 -95c0 -24 -2 -52 -2 -79c0 -20 0 -38 4 -46c3 -8 14 -14 30 -14c4 0 17 1 24 4v-69zM274 385c-1 11 -1 18 -1 37c-11 2 -39 4 -54 4c-30 -1 -69 -2 -89 -12c-14 -7 -21 -18 -21 -31c0 -25 19 -38 57 -38s87 15 108 40z" />
    <glyph glyph-name="ordmasculine" unicode="&#xba;" horiz-adv-x="452" 
d="M420 455c0 -117 -100 -170 -197 -170c-93 0 -192 51 -192 168c0 110 106 166 196 166c98 0 193 -51 193 -164zM343 454c0 70 -55 97 -119 97c-58 0 -114 -30 -114 -98c0 -71 58 -98 115 -98c60 0 118 29 118 99z" />
    <glyph glyph-name="oslash" unicode="&#xf8;" horiz-adv-x="687" 
d="M164 -48h-76l66 89c-67 47 -106 120 -106 207c0 149 122 261 297 261c51 0 97 -9 136 -25l46 63h77l-68 -92c66 -46 103 -119 103 -207c0 -149 -120 -261 -297 -261c-50 0 -95 9 -134 25zM149 248c0 -55 23 -99 62 -129l212 288c-23 8 -50 13 -79 13
c-115 0 -195 -73 -195 -172zM538 248c0 51 -22 97 -60 129l-213 -287c24 -9 51 -13 80 -13c117 0 193 76 193 171z" />
    <glyph glyph-name="oslashacute" unicode="&#x1ff;" horiz-adv-x="687" 
d="M164 -48h-76l66 89c-67 47 -106 120 -106 207c0 149 122 261 297 261c51 0 97 -9 136 -25l46 63h77l-68 -92c66 -46 103 -119 103 -207c0 -149 -120 -261 -297 -261c-50 0 -95 9 -134 25zM149 248c0 -55 23 -99 62 -129l212 288c-23 8 -50 13 -79 13
c-115 0 -195 -73 -195 -172zM538 248c0 51 -22 97 -60 129l-213 -287c24 -9 51 -13 80 -13c117 0 193 76 193 171zM369 575h-93v4l140 161h135v-4z" />
    <glyph glyph-name="otilde" unicode="&#xf5;" horiz-adv-x="687" 
d="M639 248c0 -149 -120 -261 -297 -261c-176 0 -294 111 -294 261c0 149 122 261 297 261c181 0 294 -107 294 -261zM538 248c0 96 -74 172 -194 172c-115 0 -195 -73 -195 -172c0 -104 86 -171 196 -171c117 0 193 76 193 171zM232 589h-69c7 87 49 129 109 129
c27 0 49 -7 83 -27c29 -16 48 -23 62 -23c23 0 35 12 40 53h68c-8 -90 -52 -133 -104 -133c-30 0 -45 5 -85 24c-34 15 -52 26 -66 26c-20 0 -34 -12 -38 -49z" />
    <glyph glyph-name="p" unicode="p" horiz-adv-x="714" 
d="M180 -194h-98v689h96v-85c33 51 127 99 221 99c152 0 267 -93 267 -254c0 -180 -136 -261 -289 -261c-80 0 -160 31 -197 79v-267zM181 185c43 -76 131 -104 194 -104c97 0 192 47 192 172c0 124 -102 166 -190 166c-66 0 -158 -32 -196 -105v-129z" />
    <glyph glyph-name="paragraph" unicode="&#xb6;" horiz-adv-x="639" 
d="M375 -144h-52v370c-178 0 -276 98 -276 224c0 143 89 239 330 239h179v-833h-51v792h-130v-792z" />
    <glyph glyph-name="parenleft" unicode="(" horiz-adv-x="400" 
d="M313 -169c-126 73 -265 218 -265 451c0 236 123 378 264 458h88v-4c-159 -103 -258 -246 -258 -453c0 -200 113 -341 258 -448v-4h-87z" />
    <glyph glyph-name="parenleft.cap" horiz-adv-x="400" 
d="M312 -93c-130 68 -262 213 -262 420c0 210 115 352 261 427h92v-4c-166 -96 -256 -239 -256 -422c0 -176 105 -318 256 -417v-4h-91z" />
    <glyph glyph-name="parenleft.denominator" horiz-adv-x="273" 
d="M214 -105c-85 45 -180 135 -180 280c0 146 84 235 179 284h64v-4c-105 -64 -170 -152 -170 -280c0 -121 72 -209 170 -276v-4h-63z" />
    <glyph glyph-name="parenleft.inferior" unicode="&#x208d;" horiz-adv-x="273" 
d="M214 -232c-85 45 -180 135 -180 280c0 146 84 235 179 284h64v-4c-105 -64 -170 -152 -170 -280c0 -121 72 -209 170 -276v-4h-63z" />
    <glyph glyph-name="parenleft.numerator" horiz-adv-x="274" 
d="M214 148c-85 45 -180 135 -180 280c0 146 84 235 179 284h64v-4c-105 -64 -170 -152 -170 -280c0 -121 72 -209 170 -276v-4h-63z" />
    <glyph glyph-name="parenleft.superior" unicode="&#x207d;" horiz-adv-x="273" 
d="M214 295c-85 45 -180 135 -180 280c0 146 84 235 179 284h64v-4c-105 -64 -170 -152 -170 -280c0 -121 72 -209 170 -276v-4h-63z" />
    <glyph glyph-name="parenright" unicode=")" horiz-adv-x="400" 
d="M86 740c127 -73 265 -218 265 -451c0 -236 -122 -378 -264 -458h-88v4c159 103 258 246 258 453c0 200 -113 341 -258 448v4h87z" />
    <glyph glyph-name="parenright.cap" horiz-adv-x="400" 
d="M-2 754h90c130 -68 263 -213 263 -420c0 -210 -116 -352 -262 -427h-91v4c165 96 255 229 255 422c0 186 -105 318 -255 417v4z" />
    <glyph glyph-name="parenright.denominator" horiz-adv-x="273" 
d="M62 459c83 -45 178 -135 178 -280c0 -146 -83 -235 -178 -284h-66v4c107 64 172 152 172 280c0 121 -74 209 -172 276v4h66z" />
    <glyph glyph-name="parenright.inferior" unicode="&#x208e;" horiz-adv-x="273" 
d="M62 332c83 -45 178 -135 178 -280c0 -146 -83 -235 -178 -284h-66v4c107 64 172 152 172 280c0 121 -74 209 -172 276v4h66z" />
    <glyph glyph-name="parenright.numerator" horiz-adv-x="274" 
d="M62 712c83 -45 178 -135 178 -280c0 -146 -83 -235 -178 -284h-66v4c107 64 172 152 172 280c0 121 -74 209 -172 276v4h66z" />
    <glyph glyph-name="parenright.superior" unicode="&#x207e;" horiz-adv-x="273" 
d="M62 859c83 -45 178 -135 178 -280c0 -146 -83 -235 -178 -284h-66v4c107 64 172 152 172 280c0 121 -74 209 -172 276v4h66z" />
    <glyph glyph-name="partialdiff" unicode="&#x2202;" horiz-adv-x="631" 
d="M86 546v97c54 41 137 60 198 60c190 0 277 -101 277 -391c0 -185 -77 -327 -272 -327c-138 0 -235 82 -235 223c0 147 108 230 245 230c76 0 129 -21 159 -59c-1 170 -69 229 -193 229c-64 0 -142 -27 -175 -62h-4zM462 281c-35 48 -82 72 -158 72
c-79 0 -149 -49 -149 -141c0 -93 67 -137 138 -137s127 32 151 101c12 37 18 62 18 105z" />
    <glyph glyph-name="percent" unicode="%" horiz-adv-x="988" 
d="M338 -12h-69l388 694h67zM416 460c0 -136 -77 -216 -192 -216s-192 80 -192 214c0 136 84 216 194 216c118 0 190 -80 190 -214zM337 459c0 93 -42 145 -112 145c-68 0 -114 -52 -114 -145c0 -94 46 -144 113 -144c71 0 113 50 113 144zM956 207
c0 -136 -77 -216 -192 -216s-192 80 -192 214c0 136 84 216 194 216c118 0 190 -80 190 -214zM877 206c0 93 -42 145 -112 145c-68 0 -114 -52 -114 -145c0 -94 46 -144 113 -144c71 0 113 50 113 144z" />
    <glyph glyph-name="percent.oldstyle" horiz-adv-x="975" 
d="M412 418c0 -122 -78 -199 -188 -199c-109 0 -187 77 -187 197c0 122 84 199 190 199c112 0 185 -77 185 -197zM334 417c0 83 -40 130 -109 130c-63 0 -110 -47 -110 -130c0 -84 46 -128 109 -128c69 0 110 44 110 128zM337 -12h-66l369 629h65zM938 189
c0 -122 -78 -199 -188 -199c-109 0 -187 77 -187 197c0 122 84 199 190 199c112 0 185 -77 185 -197zM860 188c0 83 -40 130 -109 130c-63 0 -110 -47 -110 -130c0 -84 46 -128 109 -128c69 0 110 44 110 128z" />
    <glyph glyph-name="period" unicode="." horiz-adv-x="255" 
d="M209 55c0 -40 -31 -67 -72 -67c-39 0 -70 25 -70 67c0 49 37 70 70 70c34 0 72 -21 72 -70z" />
    <glyph glyph-name="period.denominator" horiz-adv-x="174" 
d="M140 41c0 -29 -24 -50 -51 -50c-29 0 -52 19 -52 50c0 35 29 52 52 52c22 0 51 -17 51 -52z" />
    <glyph glyph-name="period.inferior" horiz-adv-x="174" 
d="M140 -86c0 -29 -24 -50 -51 -50c-29 0 -52 19 -52 50c0 35 29 52 52 52c22 0 51 -17 51 -52z" />
    <glyph glyph-name="period.numerator" horiz-adv-x="175" 
d="M140 294c0 -29 -24 -50 -51 -50c-29 0 -52 19 -52 50c0 35 29 52 52 52c22 0 51 -17 51 -52z" />
    <glyph glyph-name="period.superior" horiz-adv-x="174" 
d="M140 441c0 -29 -24 -50 -51 -50c-29 0 -52 19 -52 50c0 35 29 52 52 52c22 0 51 -17 51 -52z" />
    <glyph glyph-name="periodcentered" unicode="&#xb7;" horiz-adv-x="256" 
d="M199 256c0 -40 -31 -67 -72 -67c-39 0 -70 25 -70 67c0 49 37 70 70 70c34 0 72 -21 72 -70z" />
    <glyph glyph-name="periodcentered.cap" horiz-adv-x="256" 
d="M199 332c0 -40 -31 -67 -72 -67c-39 0 -70 25 -70 67c0 49 37 70 70 70c34 0 72 -21 72 -70z" />
    <glyph glyph-name="perthousand" unicode="&#x2030;" horiz-adv-x="1429" 
d="M338 -12h-69l388 694h67zM416 460c0 -136 -77 -216 -192 -216s-192 80 -192 214c0 136 84 216 194 216c118 0 190 -80 190 -214zM337 459c0 93 -42 145 -112 145c-68 0 -114 -52 -114 -145c0 -94 46 -144 113 -144c71 0 113 50 113 144zM956 207
c0 -136 -77 -216 -192 -216s-192 80 -192 214c0 136 84 216 194 216c118 0 190 -80 190 -214zM877 206c0 93 -42 145 -112 145c-68 0 -114 -52 -114 -145c0 -94 46 -144 113 -144c71 0 113 50 113 144zM1397 207c0 -136 -77 -216 -192 -216s-192 80 -192 214
c0 136 84 216 194 216c118 0 190 -80 190 -214zM1318 206c0 93 -42 145 -112 145c-68 0 -114 -52 -114 -145c0 -94 46 -144 113 -144c71 0 113 50 113 144z" />
    <glyph glyph-name="perthousand.oldstyle" horiz-adv-x="1413" 
d="M412 418c0 -122 -78 -199 -188 -199c-109 0 -187 77 -187 197c0 122 84 199 190 199c112 0 185 -77 185 -197zM334 417c0 83 -40 130 -109 130c-63 0 -110 -47 -110 -130c0 -84 46 -128 109 -128c69 0 110 44 110 128zM337 -12h-66l369 629h65zM938 189
c0 -122 -78 -199 -188 -199c-109 0 -187 77 -187 197c0 122 84 199 190 199c112 0 185 -77 185 -197zM860 188c0 83 -40 130 -109 130c-63 0 -110 -47 -110 -130c0 -84 46 -128 109 -128c69 0 110 44 110 128zM1376 189c0 -122 -78 -199 -188 -199c-109 0 -187 77 -187 197
c0 122 84 199 190 199c112 0 185 -77 185 -197zM1298 188c0 83 -40 130 -109 130c-63 0 -110 -47 -110 -130c0 -84 46 -128 109 -128c69 0 110 44 110 128z" />
    <glyph glyph-name="pi" unicode="&#x3c0;" horiz-adv-x="693" 
d="M646 407h-76v-222c0 -72 8 -134 26 -185h-98c-15 49 -22 107 -22 183v224h-242v-407h-93v407h-75v88h580v-88z" />
    <glyph glyph-name="plus" unicode="+" horiz-adv-x="700" 
d="M384 35h-66v227h-228v66h227v226h67v-226h226v-66h-226v-227z" />
    <glyph glyph-name="plusminus" unicode="&#xb1;" horiz-adv-x="700" 
d="M384 135h-66v221h-228v65h227v219h67v-219h226v-65h-226v-221zM610 0h-520v65h520v-65z" />
    <glyph glyph-name="product" unicode="&#x220f;" horiz-adv-x="785" 
d="M691 -119h-101v718h-396v-718h-100v808h597v-808z" />
    <glyph glyph-name="q" unicode="q" horiz-adv-x="714" 
d="M632 -194h-93v285c-33 -58 -119 -96 -207 -96c-142 0 -284 75 -284 250c0 189 158 265 293 265c80 0 160 -27 202 -84v69h89v-689zM535 185v136c-42 75 -126 100 -191 100c-87 0 -197 -45 -197 -175c0 -115 96 -164 192 -164c69 0 162 34 196 103z" />
    <glyph glyph-name="question" unicode="?" horiz-adv-x="506" 
d="M244 217h-79c2 65 3 120 79 172c77 52 114 89 114 138c0 62 -43 86 -132 86c-53 0 -124 -23 -176 -68h-4v95c47 39 132 64 194 64c146 0 221 -61 221 -169c0 -55 -19 -116 -139 -188c-65 -39 -77 -74 -78 -130zM277 55c0 -40 -31 -67 -72 -67c-39 0 -70 25 -70 67
c0 49 37 70 70 70c34 0 72 -21 72 -70z" />
    <glyph glyph-name="questiondown" unicode="&#xbf;" horiz-adv-x="506" 
d="M263 286h79c-2 -65 -3 -120 -79 -172c-77 -52 -114 -89 -114 -138c0 -62 43 -86 132 -86c53 0 124 23 176 68h4v-95c-47 -39 -132 -64 -194 -64c-146 0 -221 61 -221 169c0 55 19 116 139 188c65 39 77 74 78 130zM230 448c0 40 31 67 72 67c39 0 70 -25 70 -67
c0 -49 -37 -70 -70 -70c-34 0 -72 21 -72 70z" />
    <glyph glyph-name="quotedbl" unicode="&#x22;" horiz-adv-x="400" 
d="M136 427h-57l-23 279h103zM321 427h-57l-23 279h103z" />
    <glyph glyph-name="quotedblbase" unicode="&#x201e;" horiz-adv-x="401" 
d="M78 -144h-81v4c48 38 81 101 81 178c0 27 -4 57 -16 83h106c9 -20 13 -49 13 -73c0 -84 -48 -155 -103 -192zM275 -144h-81v4c48 38 81 101 81 178c0 27 -4 57 -16 83h106c9 -20 13 -49 13 -73c0 -84 -48 -155 -103 -192z" />
    <glyph glyph-name="quotedblleft" unicode="&#x201c;" horiz-adv-x="402" 
d="M324 719h81v-4c-48 -38 -81 -101 -81 -178c0 -27 4 -57 16 -83h-106c-9 20 -13 49 -13 73c0 84 48 155 103 192zM127 719h81v-4c-48 -38 -81 -101 -81 -178c0 -27 4 -57 16 -83h-106c-9 20 -13 49 -13 73c0 84 48 155 103 192z" />
    <glyph glyph-name="quotedblright" unicode="&#x201d;" horiz-adv-x="401" 
d="M78 454h-81v4c48 38 81 101 81 178c0 27 -4 57 -16 83h106c9 -20 13 -49 13 -73c0 -84 -48 -155 -103 -192zM275 454h-81v4c48 38 81 101 81 178c0 27 -4 57 -16 83h106c9 -20 13 -49 13 -73c0 -84 -48 -155 -103 -192z" />
    <glyph glyph-name="quoteleft" unicode="&#x2018;" horiz-adv-x="205" 
d="M127 719h81v-4c-48 -38 -81 -101 -81 -178c0 -27 4 -57 16 -83h-106c-9 20 -13 49 -13 73c0 84 48 155 103 192z" />
    <glyph glyph-name="quoteright" unicode="&#x2019;" horiz-adv-x="205" 
d="M78 454h-81v4c48 38 81 101 81 178c0 27 -4 57 -16 83h106c9 -20 13 -49 13 -73c0 -84 -48 -155 -103 -192z" />
    <glyph glyph-name="quotesinglbase" unicode="&#x201a;" horiz-adv-x="204" 
d="M78 -144h-81v4c48 38 81 101 81 178c0 27 -4 57 -16 83h106c9 -20 13 -49 13 -73c0 -84 -48 -155 -103 -192z" />
    <glyph glyph-name="quotesingle" unicode="'" horiz-adv-x="214" 
d="M136 427h-57l-23 279h103z" />
    <glyph glyph-name="r" unicode="r" horiz-adv-x="427" 
d="M179 0h-97v495h96v-82c16 41 76 96 167 96c29 0 50 -4 68 -15v-103h-4c-21 11 -43 15 -73 15c-84 0 -138 -33 -157 -73v-333z" />
    <glyph glyph-name="racute" unicode="&#x155;" horiz-adv-x="427" 
d="M179 0h-97v495h96v-82c16 41 76 96 167 96c29 0 50 -4 68 -15v-103h-4c-21 11 -43 15 -73 15c-84 0 -138 -33 -157 -73v-333zM275 575h-93v4l140 161h135v-4z" />
    <glyph glyph-name="radical" unicode="&#x221a;" horiz-adv-x="718" 
d="M388 -183l-72 -1l-155 276l-73 -39l-27 47l148 78l142 -265l251 776h81z" />
    <glyph glyph-name="rcaron" unicode="&#x159;" horiz-adv-x="427" 
d="M179 0h-97v495h96v-82c16 41 76 96 167 96c29 0 50 -4 68 -15v-103h-4c-21 11 -43 15 -73 15c-84 0 -138 -33 -157 -73v-333zM337 736h88v-4l-153 -157h-60l-154 157v4h90l97 -82z" />
    <glyph glyph-name="rcommaaccent" unicode="&#x157;" horiz-adv-x="427" 
d="M179 0h-97v495h96v-82c16 41 76 96 167 96c29 0 50 -4 68 -15v-103h-4c-21 11 -43 15 -73 15c-84 0 -138 -33 -157 -73v-333zM102 -290h-86v4c43 31 86 88 86 153c0 23 -4 47 -15 69h96c11 -17 13 -43 13 -63c0 -69 -47 -130 -94 -163z" />
    <glyph glyph-name="registered" unicode="&#xae;" horiz-adv-x="836" 
d="M781 345c0 -204 -155 -359 -363 -359s-363 156 -363 359c0 204 156 360 362 360c214 0 364 -155 364 -360zM741 345c0 184 -136 324 -324 324c-185 0 -321 -141 -321 -324s135 -323 322 -323s323 139 323 323zM630 123h-85l-112 180c-18 -2 -35 -2 -46 -2h-62v-178h-72
v445h157c52 0 90 -4 117 -14c49 -17 76 -57 76 -113c0 -64 -37 -105 -97 -124zM325 368h65c48 0 81 3 98 9c30 11 41 32 41 60c0 30 -14 51 -46 60c-18 5 -50 7 -82 7h-76v-136z" />
    <glyph glyph-name="ring" unicode="&#x2da;" horiz-adv-x="241" 
d="M224 669c0 -56 -46 -100 -104 -100s-103 43 -103 100c0 59 46 100 105 100c60 0 102 -41 102 -100zM181 670c0 36 -26 61 -61 61c-36 0 -60 -27 -60 -62c0 -33 22 -62 62 -62c36 0 59 29 59 63z" />
    <glyph glyph-name="ring.cap" horiz-adv-x="241" 
d="M222 817c0 -55 -45 -98 -102 -98s-100 42 -100 98c0 58 44 98 102 98c59 0 100 -40 100 -98zM179 818c0 34 -26 59 -59 59c-34 0 -58 -27 -58 -60c0 -31 22 -60 60 -60c34 0 57 29 57 61z" />
    <glyph glyph-name="s" unicode="s" horiz-adv-x="513" 
d="M46 40v99h4c58 -46 147 -66 209 -66c87 0 113 20 113 53c0 35 -17 51 -109 72l-80 18c-99 23 -132 75 -132 141c0 88 79 152 223 152c53 0 141 -16 169 -39v-97h-4c-46 36 -130 50 -182 50c-78 0 -108 -21 -108 -56c0 -27 15 -47 84 -62l90 -20c114 -25 148 -79 148 -147
c0 -80 -60 -151 -220 -151c-65 0 -160 18 -205 53z" />
    <glyph glyph-name="sacute" unicode="&#x15b;" horiz-adv-x="513" 
d="M46 40v99h4c58 -46 147 -66 209 -66c87 0 113 20 113 53c0 35 -17 51 -109 72l-80 18c-99 23 -132 75 -132 141c0 88 79 152 223 152c53 0 141 -16 169 -39v-97h-4c-46 36 -130 50 -182 50c-78 0 -108 -21 -108 -56c0 -27 15 -47 84 -62l90 -20c114 -25 148 -79 148 -147
c0 -80 -60 -151 -220 -151c-65 0 -160 18 -205 53zM270 575h-93v4l140 161h135v-4z" />
    <glyph glyph-name="scaron" unicode="&#x161;" horiz-adv-x="513" 
d="M46 40v99h4c58 -46 147 -66 209 -66c87 0 113 20 113 53c0 35 -17 51 -109 72l-80 18c-99 23 -132 75 -132 141c0 88 79 152 223 152c53 0 141 -16 169 -39v-97h-4c-46 36 -130 50 -182 50c-78 0 -108 -21 -108 -56c0 -27 15 -47 84 -62l90 -20c114 -25 148 -79 148 -147
c0 -80 -60 -151 -220 -151c-65 0 -160 18 -205 53zM368 736h88v-4l-153 -157h-60l-154 157v4h90l97 -82z" />
    <glyph glyph-name="scedilla" unicode="&#x15f;" horiz-adv-x="513" 
d="M151 -232v61h4c22 -13 57 -18 73 -18c44 0 58 18 58 40c0 20 -14 39 -59 39c-11 0 -30 -2 -42 -6l-3 1l33 104c-61 5 -132 22 -169 51v99h4c58 -46 147 -66 209 -66c87 0 113 20 113 53c0 35 -17 51 -109 72l-80 18c-99 23 -132 75 -132 141c0 88 79 152 223 152
c53 0 141 -16 169 -39v-97h-4c-46 36 -130 50 -182 50c-78 0 -108 -21 -108 -56c0 -27 15 -47 84 -62l90 -20c114 -25 148 -79 148 -147c0 -76 -54 -143 -195 -150l-15 -46h4c58 0 103 -31 103 -87c0 -62 -42 -105 -136 -105c-28 0 -64 8 -81 18z" />
    <glyph glyph-name="scircumflex" unicode="&#x15d;" horiz-adv-x="513" 
d="M46 40v99h4c58 -46 147 -66 209 -66c87 0 113 20 113 53c0 35 -17 51 -109 72l-80 18c-99 23 -132 75 -132 141c0 88 79 152 223 152c53 0 141 -16 169 -39v-97h-4c-46 36 -130 50 -182 50c-78 0 -108 -21 -108 -56c0 -27 15 -47 84 -62l90 -20c114 -25 148 -79 148 -147
c0 -80 -60 -151 -220 -151c-65 0 -160 18 -205 53zM174 575h-88v4l153 157h60l154 -157v-4h-92l-96 82z" />
    <glyph glyph-name="section" unicode="&#xa7;" horiz-adv-x="566" 
d="M345 191c31 5 79 30 79 76c0 34 -20 53 -49 71c-32 21 -123 56 -147 66c-37 0 -84 -30 -84 -73c0 -31 18 -53 57 -74c31 -17 115 -58 144 -66zM43 -64v104h4c63 -54 150 -78 213 -78c91 0 126 22 126 63c0 28 -16 44 -59 66c-64 32 -133 58 -198 96
c-58 34 -77 75 -77 125c0 60 41 109 114 129c-52 31 -75 70 -75 125c0 75 55 152 216 152c66 0 139 -19 175 -52v-102h-4c-48 43 -111 68 -173 68c-83 0 -113 -24 -113 -63c0 -23 14 -48 63 -72c66 -31 141 -57 201 -96c50 -33 60 -74 60 -117c0 -53 -34 -107 -104 -129
c66 -40 76 -81 76 -119c0 -104 -85 -163 -232 -163c-74 0 -159 21 -213 63z" />
    <glyph glyph-name="semicolon" unicode=";" horiz-adv-x="255" 
d="M209 428c0 -40 -31 -67 -72 -67c-39 0 -70 25 -70 67c0 49 37 70 70 70c34 0 72 -21 72 -70zM108 -160h-89v4c54 44 89 115 89 191c0 28 -4 59 -17 86h113c11 -22 13 -54 13 -79c0 -87 -52 -161 -109 -202z" />
    <glyph glyph-name="seven" unicode="7" horiz-adv-x="648" 
d="M278 0h-116c88 198 194 406 289 570h-398v95h513v-63c-103 -197 -201 -401 -288 -602z" />
    <glyph glyph-name="seven.denominator" 
d="M198 0h-84c54 116 127 246 184 342h-255v70h342v-53c-65 -120 -125 -234 -187 -359z" />
    <glyph glyph-name="seven.fitted" horiz-adv-x="558" 
d="M247 0h-116c88 198 184 402 279 570h-388v95h503v-63c-103 -198 -191 -401 -278 -602z" />
    <glyph glyph-name="seven.inferior" unicode="&#x2087;" 
d="M198 -127h-84c54 116 127 246 184 342h-255v70h342v-53c-65 -120 -125 -234 -187 -359z" />
    <glyph glyph-name="seven.numerator" 
d="M198 253h-84c54 116 127 246 184 342h-255v70h342v-53c-65 -120 -125 -234 -187 -359z" />
    <glyph glyph-name="seven.oldstyle" horiz-adv-x="559" 
d="M227 -114h-107c88 194 184 392 276 556h-384v94h496v-65c-105 -197 -193 -384 -281 -585z" />
    <glyph glyph-name="seven.superior" unicode="&#x2077;" 
d="M198 400h-84c54 116 127 246 184 342h-255v70h342v-53c-65 -120 -125 -234 -187 -359z" />
    <glyph glyph-name="seven.taboldstyle" horiz-adv-x="629" 
d="M274 -114h-107c88 194 190 392 282 556h-395v94h507v-65c-105 -197 -199 -384 -287 -585z" />
    <glyph glyph-name="seveneighths" unicode="&#x215e;" horiz-adv-x="988" 
d="M289 -12h-69l388 694h67zM226 253h-84c54 116 127 246 184 342h-255v70h342v-53c-65 -120 -125 -234 -187 -359zM807 217c62 -13 93 -50 93 -101c0 -73 -69 -125 -180 -125c-102 0 -178 41 -178 119c0 50 31 80 91 98c-47 16 -72 53 -72 98c0 69 71 115 163 115
c96 0 160 -40 160 -113c0 -44 -28 -76 -77 -91zM724 242c56 4 85 23 85 58c0 32 -35 53 -88 53c-55 0 -87 -23 -87 -54c0 -37 37 -53 90 -57zM716 182c-59 -5 -96 -25 -96 -62c0 -38 43 -61 101 -61c64 0 101 24 101 62c0 46 -47 58 -106 61z" />
    <glyph glyph-name="six" unicode="6" horiz-adv-x="648" 
d="M156 342c37 54 107 97 207 97c135 0 239 -74 239 -221c0 -152 -120 -232 -261 -232c-123 0 -288 61 -288 319c0 282 176 374 341 374c71 0 132 -11 174 -40v-108h-4c-46 45 -111 57 -168 57c-137 0 -227 -79 -240 -246zM162 249c0 -26 4 -60 21 -94
c22 -44 84 -78 151 -78c87 0 167 38 167 136c0 95 -69 135 -160 135c-96 0 -165 -52 -179 -99z" />
    <glyph glyph-name="six.denominator" 
d="M122 213c23 38 76 62 132 62c99 0 156 -50 156 -139c0 -93 -77 -145 -173 -145c-87 0 -190 46 -190 199c0 171 114 231 225 231c47 0 86 -7 114 -25v-79h-4c-31 25 -74 34 -109 34c-92 0 -145 -43 -151 -138zM130 147c0 -15 5 -29 9 -38c13 -28 51 -49 97 -49
c53 0 96 22 96 74c0 50 -42 73 -96 73c-50 0 -93 -26 -106 -60z" />
    <glyph glyph-name="six.fitted" horiz-adv-x="654" 
d="M160 342c37 54 107 97 207 97c135 0 239 -74 239 -221c0 -152 -120 -232 -261 -232c-123 0 -288 61 -288 319c0 282 176 374 341 374c71 0 132 -11 174 -40v-108h-4c-46 45 -111 57 -168 57c-137 0 -227 -79 -240 -246zM166 249c0 -26 4 -60 21 -94
c22 -44 84 -78 151 -78c87 0 167 38 167 136c0 95 -69 135 -160 135c-96 0 -165 -52 -179 -99z" />
    <glyph glyph-name="six.inferior" unicode="&#x2086;" 
d="M122 86c23 38 76 62 132 62c99 0 156 -50 156 -139c0 -93 -77 -145 -173 -145c-87 0 -190 46 -190 199c0 171 114 231 225 231c47 0 86 -7 114 -25v-79h-4c-31 25 -74 34 -109 34c-92 0 -145 -43 -151 -138zM130 20c0 -15 5 -29 9 -38c13 -28 51 -49 97 -49
c53 0 96 22 96 74c0 50 -42 73 -96 73c-50 0 -93 -26 -106 -60z" />
    <glyph glyph-name="six.numerator" 
d="M122 466c23 38 76 62 132 62c99 0 156 -50 156 -139c0 -93 -77 -145 -173 -145c-87 0 -190 46 -190 199c0 171 114 231 225 231c47 0 86 -7 114 -25v-79h-4c-31 25 -74 34 -109 34c-92 0 -145 -43 -151 -138zM130 400c0 -15 5 -29 9 -38c13 -28 51 -49 97 -49
c53 0 96 22 96 74c0 50 -42 73 -96 73c-50 0 -93 -26 -106 -60z" />
    <glyph glyph-name="six.oldstyle" horiz-adv-x="643" 
d="M153 347c36 54 120 91 205 91c132 0 231 -74 231 -222c0 -151 -114 -230 -253 -230c-121 0 -279 61 -279 316c0 280 170 369 331 369c70 0 130 -10 172 -39v-108h-4c-44 44 -113 56 -170 56c-134 0 -223 -71 -233 -233zM161 248c0 -25 6 -62 26 -97
c28 -49 81 -77 145 -77c91 0 159 41 159 137c0 98 -67 137 -157 137c-86 0 -155 -52 -173 -100z" />
    <glyph glyph-name="six.superior" unicode="&#x2076;" 
d="M122 613c23 38 76 62 132 62c99 0 156 -50 156 -139c0 -93 -77 -145 -173 -145c-87 0 -190 46 -190 199c0 171 114 231 225 231c47 0 86 -7 114 -25v-79h-4c-31 25 -74 34 -109 34c-92 0 -145 -43 -151 -138zM130 547c0 -15 5 -29 9 -38c13 -28 51 -49 97 -49
c53 0 96 22 96 74c0 50 -42 73 -96 73c-50 0 -93 -26 -106 -60z" />
    <glyph glyph-name="six.taboldstyle" horiz-adv-x="629" 
d="M151 347c36 54 120 91 205 91c132 0 231 -74 231 -222c0 -151 -114 -230 -253 -230c-121 0 -279 61 -279 316c0 280 170 369 331 369c70 0 130 -10 172 -39v-108h-4c-44 44 -113 56 -170 56c-134 0 -223 -71 -233 -233zM159 248c0 -25 6 -62 26 -97
c28 -49 81 -77 145 -77c91 0 159 41 159 137c0 98 -67 137 -157 137c-86 0 -155 -52 -173 -100z" />
    <glyph glyph-name="slash" unicode="/" horiz-adv-x="426" 
d="M65 -57h-80l372 788h80z" />
    <glyph glyph-name="space" unicode=" " horiz-adv-x="221" 
 />
    <glyph glyph-name="sterling" unicode="&#xa3;" horiz-adv-x="673" 
d="M630 0h-567v78c115 53 147 87 147 138c0 20 -1 35 -10 54h-117v76h91c-20 49 -32 81 -32 131c0 117 95 202 272 202c73 0 142 -16 187 -47v-106h-4c-49 42 -125 62 -186 62c-104 0 -162 -34 -162 -111c0 -41 12 -77 33 -131h239v-76h-217c5 -25 6 -37 6 -56
c0 -37 -17 -74 -86 -118h406v-96z" />
    <glyph glyph-name="sterling.denominator" horiz-adv-x="440" 
d="M421 0h-375v53c75 33 98 49 98 80c0 12 -3 23 -8 34h-75v53h56c-11 29 -16 50 -16 74c0 73 56 127 174 127c46 0 98 -10 127 -29v-79h-4c-32 25 -82 38 -121 38c-60 0 -95 -20 -95 -62c0 -20 5 -39 18 -69h150v-53h-136c4 -11 5 -23 5 -34c0 -17 -9 -41 -52 -63h254v-70z
" />
    <glyph glyph-name="sterling.inferior" horiz-adv-x="440" 
d="M421 -127h-375v53c75 33 98 49 98 80c0 12 -3 23 -8 34h-75v53h56c-11 29 -16 50 -16 74c0 73 56 127 174 127c46 0 98 -10 127 -29v-79h-4c-32 25 -82 38 -121 38c-60 0 -95 -20 -95 -62c0 -20 5 -39 18 -69h150v-53h-136c4 -11 5 -23 5 -34c0 -17 -9 -41 -52 -63h254
v-70z" />
    <glyph glyph-name="sterling.numerator" horiz-adv-x="440" 
d="M421 253h-375v53c75 33 98 49 98 80c0 12 -3 23 -8 34h-75v53h56c-11 29 -16 50 -16 74c0 73 56 127 174 127c46 0 98 -10 127 -29v-79h-4c-32 25 -82 38 -121 38c-60 0 -95 -20 -95 -62c0 -20 5 -39 18 -69h150v-53h-136c4 -11 5 -23 5 -34c0 -17 -9 -41 -52 -63h254
v-70z" />
    <glyph glyph-name="sterling.oldstyle" horiz-adv-x="649" 
d="M612 0h-531v70c108 47 141 80 141 127c0 18 -5 32 -11 47h-112v76h83c-17 46 -26 77 -26 119c0 106 86 179 251 179c69 0 136 -16 178 -45v-103h-4c-46 37 -118 57 -174 57c-97 0 -149 -25 -149 -94c0 -35 10 -64 30 -113h222v-76h-199c5 -17 8 -33 8 -49
c0 -37 -15 -66 -76 -103h369v-92z" />
    <glyph glyph-name="sterling.superior" horiz-adv-x="440" 
d="M421 400h-375v53c75 33 98 49 98 80c0 12 -3 23 -8 34h-75v53h56c-11 29 -16 50 -16 74c0 73 56 127 174 127c46 0 98 -10 127 -29v-79h-4c-32 25 -82 38 -121 38c-60 0 -95 -20 -95 -62c0 -20 5 -39 18 -69h150v-53h-136c4 -11 5 -23 5 -34c0 -17 -9 -41 -52 -63h254
v-70z" />
    <glyph glyph-name="summation" unicode="&#x2211;" horiz-adv-x="650" 
d="M621 -119h-581v87l279 336l-261 305v80h556v-90h-426l260 -293l-288 -335h461v-90z" />
    <glyph glyph-name="t" unicode="t" horiz-adv-x="385" 
d="M382 13c-31 -19 -87 -24 -123 -24c-51 0 -96 18 -120 47c-23 27 -32 67 -32 128v247h-89v84h90s0 5 5 144h91v-144h159v-84h-159v-235c0 -38 7 -59 18 -72c11 -14 33 -24 69 -24c27 0 64 8 87 22h4v-89z" />
    <glyph glyph-name="tbar" unicode="&#x167;" horiz-adv-x="385" 
d="M382 13c-31 -19 -87 -24 -123 -24c-51 0 -96 18 -120 47c-23 27 -32 67 -32 128v84h-73v81h73v82h-89v84h90s0 5 5 144h91v-144h159v-84h-159v-82h151v-81h-151v-72c0 -38 7 -59 18 -72c11 -14 33 -24 69 -24c27 0 64 8 87 22h4v-89z" />
    <glyph glyph-name="tcaron" unicode="&#x165;" horiz-adv-x="385" 
d="M382 13c-31 -19 -87 -24 -123 -24c-51 0 -96 18 -120 47c-23 27 -32 67 -32 128v247h-89v84h90s0 5 5 144h91v-144h159v-84h-159v-235c0 -38 7 -59 18 -72c11 -14 33 -24 69 -24c27 0 64 8 87 22h4v-89zM339 548h-86v4c43 31 86 88 86 153c0 23 -4 47 -15 69h96
c11 -17 13 -43 13 -63c0 -69 -47 -130 -94 -163z" />
    <glyph glyph-name="thorn" unicode="&#xfe;" horiz-adv-x="714" 
d="M180 -194h-98v921h96v-317c33 51 127 99 221 99c152 0 267 -93 267 -254c0 -180 -136 -261 -289 -261c-80 0 -160 31 -197 79v-267zM181 185c43 -76 131 -104 194 -104c97 0 192 47 192 172c0 124 -102 166 -190 166c-66 0 -158 -32 -196 -105v-129z" />
    <glyph glyph-name="three" unicode="3" horiz-adv-x="648" 
d="M80 42v108h4c56 -48 133 -72 205 -72c129 0 168 52 168 114c0 48 -29 78 -82 91c-27 7 -76 10 -118 10h-35v94h38c51 0 93 5 120 19c42 21 53 54 53 91c0 56 -45 91 -133 91c-57 0 -145 -25 -202 -84h-4v102c49 41 133 73 217 73c152 0 222 -68 222 -177
c0 -67 -38 -131 -124 -156c97 -16 149 -67 149 -156c0 -127 -103 -204 -267 -204c-67 0 -153 15 -211 56z" />
    <glyph glyph-name="three.denominator" 
d="M57 27v79h4c37 -29 95 -44 143 -44c74 0 99 23 99 57c0 25 -15 45 -52 52c-18 3 -53 6 -81 6h-21v68h23c33 0 66 3 83 10c24 10 32 24 32 46c0 31 -27 50 -82 50c-39 0 -98 -13 -135 -48h-4v73c33 26 88 45 145 45c105 0 155 -44 155 -112c0 -42 -29 -78 -88 -94
c70 -10 104 -42 104 -97c0 -79 -71 -127 -183 -127c-45 0 -104 13 -142 36z" />
    <glyph glyph-name="three.fitted" horiz-adv-x="609" 
d="M70 42v108h4c56 -48 133 -72 205 -72c129 0 168 52 168 114c0 48 -29 78 -82 91c-27 7 -76 10 -118 10h-35v94h38c51 0 93 5 120 19c42 21 53 54 53 91c0 56 -45 91 -133 91c-57 0 -145 -25 -202 -84h-4v102c49 41 133 73 217 73c152 0 222 -68 222 -177
c0 -67 -38 -131 -124 -156c97 -16 149 -67 149 -156c0 -127 -103 -204 -267 -204c-67 0 -153 15 -211 56z" />
    <glyph glyph-name="three.inferior" unicode="&#x2083;" 
d="M57 -100v79h4c37 -29 95 -44 143 -44c74 0 99 23 99 57c0 25 -15 45 -52 52c-18 3 -53 6 -81 6h-21v68h23c33 0 66 3 83 10c24 10 32 24 32 46c0 31 -27 50 -82 50c-39 0 -98 -13 -135 -48h-4v73c33 26 88 45 145 45c105 0 155 -44 155 -112c0 -42 -29 -78 -88 -94
c70 -10 104 -42 104 -97c0 -79 -71 -127 -183 -127c-45 0 -104 13 -142 36z" />
    <glyph glyph-name="three.numerator" 
d="M57 280v79h4c37 -29 95 -44 143 -44c74 0 99 23 99 57c0 25 -15 45 -52 52c-18 3 -53 6 -81 6h-21v68h23c33 0 66 3 83 10c24 10 32 24 32 46c0 31 -27 50 -82 50c-39 0 -98 -13 -135 -48h-4v73c33 26 88 45 145 45c105 0 155 -44 155 -112c0 -42 -29 -78 -88 -94
c70 -10 104 -42 104 -97c0 -79 -71 -127 -183 -127c-45 0 -104 13 -142 36z" />
    <glyph glyph-name="three.oldstyle" horiz-adv-x="584" 
d="M43 -69v102h4c54 -44 136 -66 206 -66c124 0 167 50 167 106c0 47 -25 80 -77 94c-27 7 -83 13 -125 13h-33v89h37c48 0 90 5 116 17c41 19 52 47 52 88c0 56 -49 84 -131 84c-55 0 -144 -23 -198 -75h-4v99c49 38 132 67 212 67c149 0 220 -66 220 -173
c0 -66 -41 -125 -122 -148c94 -13 151 -65 151 -151c0 -123 -108 -200 -266 -200c-66 0 -152 14 -209 54z" />
    <glyph glyph-name="three.taboldstyle" horiz-adv-x="629" 
d="M77 -69v102h4c54 -44 136 -66 206 -66c124 0 167 50 167 106c0 47 -25 80 -77 94c-27 7 -83 13 -125 13h-33v89h37c48 0 90 5 116 17c41 19 52 47 52 88c0 56 -49 84 -131 84c-55 0 -144 -23 -198 -75h-4v99c49 38 132 67 212 67c149 0 220 -66 220 -173
c0 -66 -41 -125 -122 -148c94 -13 151 -65 151 -151c0 -123 -108 -200 -266 -200c-66 0 -152 14 -209 54z" />
    <glyph glyph-name="threeeighths" unicode="&#x215c;" horiz-adv-x="988" 
d="M343 -12h-69l388 694h67zM67 280v79h4c37 -29 95 -44 143 -44c74 0 99 23 99 57c0 25 -15 45 -52 52c-18 3 -53 6 -81 6h-21v68h23c33 0 66 3 83 10c24 10 32 24 32 46c0 31 -27 50 -82 50c-39 0 -98 -13 -135 -48h-4v73c33 26 88 45 145 45c105 0 155 -44 155 -112
c0 -42 -29 -78 -88 -94c70 -10 104 -42 104 -97c0 -79 -71 -127 -183 -127c-45 0 -104 13 -142 36zM860 217c62 -13 93 -50 93 -101c0 -73 -69 -125 -180 -125c-102 0 -178 41 -178 119c0 50 31 80 91 98c-47 16 -72 53 -72 98c0 69 71 115 163 115c96 0 160 -40 160 -113
c0 -44 -28 -76 -77 -91zM777 242c56 4 85 23 85 58c0 32 -35 53 -88 53c-55 0 -87 -23 -87 -54c0 -37 37 -53 90 -57zM769 182c-59 -5 -96 -25 -96 -62c0 -38 43 -61 101 -61c64 0 101 24 101 62c0 46 -47 58 -106 61z" />
    <glyph glyph-name="threefifths" horiz-adv-x="988" 
d="M346 -12h-69l388 694h67zM72 280v79h4c37 -29 95 -44 143 -44c74 0 99 23 99 57c0 25 -15 45 -52 52c-18 3 -53 6 -81 6h-21v68h23c33 0 66 3 83 10c24 10 32 24 32 46c0 31 -27 50 -82 50c-39 0 -98 -13 -135 -48h-4v73c33 26 88 45 145 45c105 0 155 -44 155 -112
c0 -42 -29 -78 -88 -94c70 -10 104 -42 104 -97c0 -79 -71 -127 -183 -127c-45 0 -104 13 -142 36zM591 23v81h4c45 -30 102 -42 143 -42c69 0 112 22 112 71c0 54 -49 66 -110 66c-48 0 -92 -13 -126 -31h-4l29 244h265v-70h-208l-12 -91c20 11 60 18 90 18
c97 0 155 -45 155 -131c0 -99 -89 -148 -196 -148c-43 0 -96 7 -142 33z" />
    <glyph glyph-name="threequarters" unicode="&#xbe;" horiz-adv-x="988" 
d="M349 -12h-69l388 694h67zM67 280v79h4c37 -29 95 -44 143 -44c74 0 99 23 99 57c0 25 -15 45 -52 52c-18 3 -53 6 -81 6h-21v68h23c33 0 66 3 83 10c24 10 32 24 32 46c0 31 -27 50 -82 50c-39 0 -98 -13 -135 -48h-4v73c33 26 88 45 145 45c105 0 155 -44 155 -112
c0 -42 -29 -78 -88 -94c70 -10 104 -42 104 -97c0 -79 -71 -127 -183 -127c-45 0 -104 13 -142 36zM838 0h-77v96h-235v55l242 270h70v-258h78v-67h-78v-96zM761 163c0 93 0 112 2 169c-32 -38 -61 -71 -148 -169h146z" />
    <glyph glyph-name="threesuperior" unicode="&#xb3;" 
d="M57 427v79h4c37 -29 95 -44 143 -44c74 0 99 23 99 57c0 25 -15 45 -52 52c-18 3 -53 6 -81 6h-21v68h23c33 0 66 3 83 10c24 10 32 24 32 46c0 31 -27 50 -82 50c-39 0 -98 -13 -135 -48h-4v73c33 26 88 45 145 45c105 0 155 -44 155 -112c0 -42 -29 -78 -88 -94
c70 -10 104 -42 104 -97c0 -79 -71 -127 -183 -127c-45 0 -104 13 -142 36z" />
    <glyph glyph-name="tilde" unicode="&#x2dc;" horiz-adv-x="236" 
d="M6 589h-69c7 87 49 129 109 129c27 0 49 -7 83 -27c29 -16 48 -23 62 -23c23 0 35 12 40 53h68c-8 -90 -52 -133 -104 -133c-30 0 -45 5 -85 24c-34 15 -52 26 -66 26c-20 0 -34 -12 -38 -49z" />
    <glyph glyph-name="tilde.cap" horiz-adv-x="224" 
d="M1 750h-71c6 87 53 127 112 127c25 0 46 -8 80 -28c29 -16 50 -22 64 -22c23 0 34 12 38 53h70c-7 -90 -56 -130 -106 -130c-30 0 -44 4 -84 24c-32 16 -54 26 -67 26c-20 0 -31 -13 -36 -50z" />
    <glyph glyph-name="trademark" unicode="&#x2122;" horiz-adv-x="948" 
d="M245 329h-70v296h-124v64h322v-64h-128v-296zM510 329h-69v360h106c66 -142 79 -168 97 -213c17 41 28 66 97 213h102v-360h-71c0 196 0 250 1 294c-15 -40 -31 -71 -106 -231h-53c-71 154 -87 185 -108 232c2 -52 4 -107 4 -295z" />
    <glyph glyph-name="two" unicode="2" horiz-adv-x="648" 
d="M589 0h-532v67c97 72 177 132 271 212c82 69 111 131 111 191c0 72 -46 118 -134 118c-78 0 -163 -37 -223 -100h-4v101c53 54 145 90 228 90c167 0 234 -91 234 -208c0 -87 -34 -149 -98 -211c-46 -45 -127 -109 -220 -165c116 1 228 1 367 1v-96z" />
    <glyph glyph-name="two.denominator" 
d="M400 0h-355v49c63 45 119 79 177 130c45 39 65 73 65 108c0 43 -30 64 -83 64s-102 -22 -143 -59h-4v74c36 32 96 55 154 55c108 0 159 -52 159 -125c0 -50 -23 -96 -65 -133c-29 -26 -88 -70 -131 -94c71 1 135 1 226 1v-70z" />
    <glyph glyph-name="two.fitted" horiz-adv-x="624" 
d="M584 0h-530v67c97 72 173 132 267 212c82 69 111 131 111 191c0 72 -42 118 -130 118c-78 0 -163 -37 -223 -100h-4v101c53 54 145 90 228 90c167 0 230 -91 230 -208c0 -87 -34 -149 -98 -211c-46 -45 -123 -109 -216 -165c116 1 226 1 365 1v-96z" />
    <glyph glyph-name="two.inferior" unicode="&#x2082;" 
d="M400 -127h-355v49c63 45 119 79 177 130c45 39 65 73 65 108c0 43 -30 64 -83 64s-102 -22 -143 -59h-4v74c36 32 96 55 154 55c108 0 159 -52 159 -125c0 -50 -23 -96 -65 -133c-29 -26 -88 -70 -131 -94c71 1 135 1 226 1v-70z" />
    <glyph glyph-name="two.numerator" 
d="M400 253h-355v49c63 45 119 79 177 130c45 39 65 73 65 108c0 43 -30 64 -83 64s-102 -22 -143 -59h-4v74c36 32 96 55 154 55c108 0 159 -52 159 -125c0 -50 -23 -96 -65 -133c-29 -26 -88 -70 -131 -94c71 1 135 1 226 1v-70z" />
    <glyph glyph-name="two.oldstyle" horiz-adv-x="615" 
d="M575 0h-525v62c96 55 177 97 267 159c79 55 107 95 107 146c0 61 -45 91 -131 91c-78 0 -163 -39 -221 -93h-4v100c49 44 139 84 230 84c173 0 225 -80 225 -177c0 -72 -29 -126 -92 -177c-43 -35 -104 -72 -171 -104c115 1 177 1 315 1v-92z" />
    <glyph glyph-name="two.taboldstyle" horiz-adv-x="629" 
d="M585 0h-525v62c96 55 177 97 267 159c79 55 108 95 108 146c0 61 -46 91 -132 91c-78 0 -163 -39 -221 -93h-4v100c49 45 137 84 230 84c171 0 225 -79 225 -176c0 -72 -28 -126 -92 -176c-43 -34 -105 -74 -171 -106c115 1 177 1 315 1v-92z" />
    <glyph glyph-name="twofifths" horiz-adv-x="988" 
d="M366 -12h-69l388 694h67zM407 253h-355v49c63 45 119 79 177 130c45 39 65 73 65 108c0 43 -30 64 -83 64s-102 -22 -143 -59h-4v74c36 32 96 55 154 55c108 0 159 -52 159 -125c0 -50 -23 -96 -65 -133c-29 -26 -88 -70 -131 -94c71 1 135 1 226 1v-70zM612 23v81h4
c45 -30 102 -42 143 -42c69 0 112 22 112 71c0 54 -49 66 -110 66c-48 0 -92 -13 -126 -31h-4l29 244h265v-70h-208l-12 -91c20 11 60 18 90 18c97 0 155 -45 155 -131c0 -99 -89 -148 -196 -148c-43 0 -96 7 -142 33z" />
    <glyph glyph-name="twosuperior" unicode="&#xb2;" 
d="M400 400h-355v49c63 45 119 79 177 130c45 39 65 73 65 108c0 43 -30 64 -83 64s-102 -22 -143 -59h-4v74c36 32 96 55 154 55c108 0 159 -52 159 -125c0 -50 -23 -96 -65 -133c-29 -26 -88 -70 -131 -94c71 1 135 1 226 1v-70z" />
    <glyph glyph-name="twothirds" unicode="&#x2154;" horiz-adv-x="988" 
d="M367 -12h-69l388 694h67zM408 253h-355v49c63 45 119 79 177 130c45 39 65 73 65 108c0 43 -30 64 -83 64s-102 -22 -143 -59h-4v74c36 32 96 55 154 55c108 0 159 -52 159 -125c0 -50 -23 -96 -65 -133c-29 -26 -88 -70 -131 -94c71 1 135 1 226 1v-70zM637 27v79h4
c37 -29 95 -44 143 -44c74 0 99 23 99 57c0 25 -15 45 -52 52c-18 3 -53 6 -81 6h-21v68h23c33 0 66 3 83 10c24 10 32 24 32 46c0 31 -27 50 -82 50c-39 0 -98 -13 -135 -48h-4v73c33 26 88 45 145 45c105 0 155 -44 155 -112c0 -42 -29 -78 -88 -94
c70 -10 104 -42 104 -97c0 -79 -71 -127 -183 -127c-45 0 -104 13 -142 36z" />
    <glyph glyph-name="u" unicode="u" horiz-adv-x="655" 
d="M573 0h-95v80c-32 -50 -102 -92 -199 -92c-104 0 -169 41 -188 106c-9 29 -13 65 -13 113v288h97v-271c0 -44 8 -77 16 -93c16 -32 57 -51 114 -51c65 0 139 34 171 85v330h97v-495z" />
    <glyph glyph-name="uacute" unicode="&#xfa;" horiz-adv-x="655" 
d="M573 0h-95v80c-32 -50 -102 -92 -199 -92c-104 0 -169 41 -188 106c-9 29 -13 65 -13 113v288h97v-271c0 -44 8 -77 16 -93c16 -32 57 -51 114 -51c65 0 139 34 171 85v330h97v-495zM350 575h-93v4l140 161h135v-4z" />
    <glyph glyph-name="ubreve" unicode="&#x16d;" horiz-adv-x="655" 
d="M573 0h-95v80c-32 -50 -102 -92 -199 -92c-104 0 -169 41 -188 106c-9 29 -13 65 -13 113v288h97v-271c0 -44 8 -77 16 -93c16 -32 57 -51 114 -51c65 0 139 34 171 85v330h97v-495zM167 714h75c3 -49 32 -72 84 -72c56 0 83 24 86 72h78c-2 -81 -53 -151 -165 -151
c-107 0 -158 65 -158 151z" />
    <glyph glyph-name="ucircumflex" unicode="&#xfb;" horiz-adv-x="655" 
d="M573 0h-95v80c-32 -50 -102 -92 -199 -92c-104 0 -169 41 -188 106c-9 29 -13 65 -13 113v288h97v-271c0 -44 8 -77 16 -93c16 -32 57 -51 114 -51c65 0 139 34 171 85v330h97v-495zM231 575h-88v4l153 157h60l154 -157v-4h-92l-96 82z" />
    <glyph glyph-name="udieresis" unicode="&#xfc;" horiz-adv-x="655" 
d="M573 0h-95v80c-32 -50 -102 -92 -199 -92c-104 0 -169 41 -188 106c-9 29 -13 65 -13 113v288h97v-271c0 -44 8 -77 16 -93c16 -32 57 -51 114 -51c65 0 139 34 171 85v330h97v-495zM288 655c0 -31 -22 -54 -55 -54c-30 0 -57 18 -57 54c0 39 30 57 58 57
c27 0 54 -18 54 -57zM478 655c0 -31 -22 -54 -55 -54c-30 0 -57 18 -57 54c0 39 30 57 58 57c27 0 54 -18 54 -57z" />
    <glyph glyph-name="ugrave" unicode="&#xf9;" horiz-adv-x="655" 
d="M573 0h-95v80c-32 -50 -102 -92 -199 -92c-104 0 -169 41 -188 106c-9 29 -13 65 -13 113v288h97v-271c0 -44 8 -77 16 -93c16 -32 57 -51 114 -51c65 0 139 34 171 85v330h97v-495zM420 575h-93l-182 161v4h135l140 -161v-4z" />
    <glyph glyph-name="uhungarumlaut" unicode="&#x171;" horiz-adv-x="655" 
d="M573 0h-95v80c-32 -50 -102 -92 -199 -92c-104 0 -169 41 -188 106c-9 29 -13 65 -13 113v288h97v-271c0 -44 8 -77 16 -93c16 -32 57 -51 114 -51c65 0 139 34 171 85v330h97v-495zM244 575h-83v4l131 161h124v-4zM443 575h-83v4l131 161h124v-4z" />
    <glyph glyph-name="umacron" unicode="&#x16b;" horiz-adv-x="655" 
d="M573 0h-95v80c-32 -50 -102 -92 -199 -92c-104 0 -169 41 -188 106c-9 29 -13 65 -13 113v288h97v-271c0 -44 8 -77 16 -93c16 -32 57 -51 114 -51c65 0 139 34 171 85v330h97v-495zM490 580h-323v80h323v-80z" />
    <glyph glyph-name="underscore" unicode="_" horiz-adv-x="603" 
d="M0 -78h603v-55h-603v55z" />
    <glyph glyph-name="uni00AD" unicode="&#xad;" horiz-adv-x="349" 
d="M309 225h-269v96h269v-96z" />
    <glyph glyph-name="uni0162" unicode="&#x162;" horiz-adv-x="641" 
d="M214 -239v63h4c23 -13 59 -19 75 -19c46 0 60 19 60 42c0 20 -14 40 -61 40c-11 0 -31 -2 -43 -7l-3 2l38 118h-18v591h-253v98h615v-98h-261v-591h-20l-20 -60h4c60 0 106 -32 106 -89c0 -64 -43 -108 -140 -108c-28 0 -65 8 -83 18z" />
    <glyph glyph-name="uni0163" unicode="&#x163;" horiz-adv-x="385" 
d="M134 -232v61h4c22 -13 57 -18 73 -18c44 0 58 18 58 40c0 20 -14 39 -59 39c-11 0 -30 -2 -42 -6l-3 1l36 112c-26 8 -48 21 -62 39c-23 27 -32 67 -32 128v247h-89v84h90s0 5 5 144h91v-144h159v-84h-159v-235c0 -38 7 -59 18 -72c11 -14 33 -24 69 -24c27 0 64 8 87 22
h4v-89c-31 -19 -86 -24 -122 -24l-16 -47h4c58 0 103 -31 103 -87c0 -62 -42 -105 -136 -105c-28 0 -64 8 -81 18z" />
    <glyph glyph-name="uni0218" unicode="&#x218;" horiz-adv-x="633" 
d="M39 57v113h4c79 -66 192 -89 273 -89c108 0 175 21 175 97c0 57 -51 81 -174 113l-91 24c-128 34 -176 104 -176 186c0 114 107 203 294 203c71 0 180 -23 218 -54v-112h-4c-60 49 -151 71 -236 71c-132 0 -165 -50 -165 -97s22 -75 136 -106l106 -29
c143 -39 199 -95 199 -185c0 -108 -81 -206 -292 -206c-87 0 -202 21 -267 71zM280 -290h-86v4c43 31 86 88 86 153c0 23 -4 47 -15 69h96c11 -17 13 -43 13 -63c0 -69 -47 -130 -94 -163z" />
    <glyph glyph-name="uni0219" unicode="&#x219;" horiz-adv-x="513" 
d="M46 40v99h4c58 -46 147 -66 209 -66c87 0 113 20 113 53c0 35 -17 51 -109 72l-80 18c-99 23 -132 75 -132 141c0 88 79 152 223 152c53 0 141 -16 169 -39v-97h-4c-46 36 -130 50 -182 50c-78 0 -108 -21 -108 -56c0 -27 15 -47 84 -62l90 -20c114 -25 148 -79 148 -147
c0 -80 -60 -151 -220 -151c-65 0 -160 18 -205 53zM208 -290h-86v4c43 31 86 88 86 153c0 23 -4 47 -15 69h96c11 -17 13 -43 13 -63c0 -69 -47 -130 -94 -163z" />
    <glyph glyph-name="uni021A" unicode="&#x21a;" horiz-adv-x="641" 
d="M367 0h-101v591h-253v98h615v-98h-261v-591zM283 -290h-86v4c43 31 86 88 86 153c0 23 -4 47 -15 69h96c11 -17 13 -43 13 -63c0 -69 -47 -130 -94 -163z" />
    <glyph glyph-name="uni021B" unicode="&#x21b;" horiz-adv-x="385" 
d="M382 13c-31 -19 -87 -24 -123 -24c-51 0 -96 18 -120 47c-23 27 -32 67 -32 128v247h-89v84h90s0 5 5 144h91v-144h159v-84h-159v-235c0 -38 7 -59 18 -72c11 -14 33 -24 69 -24c27 0 64 8 87 22h4v-89zM196 -290h-86v4c43 31 86 88 86 153c0 23 -4 47 -15 69h96
c11 -17 13 -43 13 -63c0 -69 -47 -130 -94 -163z" />
    <glyph glyph-name="uni0394" unicode="&#x394;" horiz-adv-x="754" 
d="M748 0h-742l330 689h91zM378 586c-27 -62 -56 -126 -226 -498h448c-169 370 -194 434 -222 498z" />
    <glyph glyph-name="uni03A9" unicode="&#x3a9;" horiz-adv-x="824" 
d="M354 0h-291v90h214c-135 50 -212 145 -212 290c0 199 156 319 351 319c199 0 341 -119 341 -311c0 -145 -75 -241 -213 -298h217v-90h-291v135c115 42 183 123 183 237c0 154 -115 233 -240 233c-130 0 -240 -82 -240 -237c0 -112 61 -194 181 -233v-135z" />
    <glyph glyph-name="uni03BC" unicode="&#x3bc;" horiz-adv-x="680" 
d="M187 -211h-98v705h97v-260c0 -45 7 -81 16 -99c15 -28 62 -55 117 -55c70 0 136 29 174 79v335h98v-494h-94v73c-37 -54 -104 -85 -181 -85c-48 0 -103 15 -129 45v-244z" />
    <glyph glyph-name="uni2215" unicode="&#x2215;" horiz-adv-x="102" 
d="M-108 -12h-69l388 694h67z" />
    <glyph glyph-name="uni2219" unicode="&#x2219;" horiz-adv-x="256" 
d="M199 256c0 -40 -31 -67 -72 -67c-39 0 -70 25 -70 67c0 49 37 70 70 70c34 0 72 -21 72 -70z" />
    <glyph glyph-name="uogonek" unicode="&#x173;" horiz-adv-x="655" 
d="M573 0h-17c-83 -47 -109 -76 -109 -119c0 -35 27 -55 71 -55c21 0 44 3 66 14h4v-62c-26 -15 -63 -21 -95 -21c-69 0 -129 37 -129 108c0 55 34 99 114 135v80c-32 -50 -102 -92 -199 -92c-104 0 -169 41 -188 106c-9 29 -13 65 -13 113v288h97v-271c0 -44 8 -77 16 -93
c16 -32 57 -51 114 -51c65 0 139 34 171 85v330h97v-495z" />
    <glyph glyph-name="uring" unicode="&#x16f;" horiz-adv-x="655" 
d="M573 0h-95v80c-32 -50 -102 -92 -199 -92c-104 0 -169 41 -188 106c-9 29 -13 65 -13 113v288h97v-271c0 -44 8 -77 16 -93c16 -32 57 -51 114 -51c65 0 139 34 171 85v330h97v-495zM431 669c0 -56 -46 -100 -104 -100s-103 43 -103 100c0 59 46 100 105 100
c60 0 102 -41 102 -100zM388 670c0 36 -26 61 -61 61c-36 0 -60 -27 -60 -62c0 -33 22 -62 62 -62c36 0 59 29 59 63z" />
    <glyph glyph-name="utilde" unicode="&#x169;" horiz-adv-x="655" 
d="M573 0h-95v80c-32 -50 -102 -92 -199 -92c-104 0 -169 41 -188 106c-9 29 -13 65 -13 113v288h97v-271c0 -44 8 -77 16 -93c16 -32 57 -51 114 -51c65 0 139 34 171 85v330h97v-495zM227 589h-69c7 87 49 129 109 129c27 0 49 -7 83 -27c29 -16 48 -23 62 -23
c23 0 35 12 40 53h68c-8 -90 -52 -133 -104 -133c-30 0 -45 5 -85 24c-34 15 -52 26 -66 26c-20 0 -34 -12 -38 -49z" />
    <glyph glyph-name="v" unicode="v" horiz-adv-x="577" 
d="M330 0h-87l-238 495h118c105 -232 130 -290 165 -379c36 90 61 143 172 379h112z" />
    <glyph glyph-name="w" unicode="w" horiz-adv-x="879" 
d="M289 0h-87l-184 495h114c87 -251 102 -298 121 -364c25 66 45 122 144 364h88c104 -251 127 -305 150 -366c17 59 37 123 117 366h108l-183 -495h-85c-112 274 -135 324 -153 377c-20 -56 -39 -105 -150 -377z" />
    <glyph glyph-name="wacute" unicode="&#x1e83;" horiz-adv-x="879" 
d="M289 0h-87l-184 495h114c87 -251 102 -298 121 -364c25 66 45 122 144 364h88c104 -251 127 -305 150 -366c17 59 37 123 117 366h108l-183 -495h-85c-112 274 -135 324 -153 377c-20 -56 -39 -105 -150 -377zM461 575h-93v4l140 161h135v-4z" />
    <glyph glyph-name="wcircumflex" unicode="&#x175;" horiz-adv-x="879" 
d="M289 0h-87l-184 495h114c87 -251 102 -298 121 -364c25 66 45 122 144 364h88c104 -251 127 -305 150 -366c17 59 37 123 117 366h108l-183 -495h-85c-112 274 -135 324 -153 377c-20 -56 -39 -105 -150 -377zM345 575h-88v4l153 157h60l154 -157v-4h-92l-96 82z" />
    <glyph glyph-name="wdieresis" unicode="&#x1e85;" horiz-adv-x="879" 
d="M289 0h-87l-184 495h114c87 -251 102 -298 121 -364c25 66 45 122 144 364h88c104 -251 127 -305 150 -366c17 59 37 123 117 366h108l-183 -495h-85c-112 274 -135 324 -153 377c-20 -56 -39 -105 -150 -377zM399 655c0 -31 -22 -54 -55 -54c-30 0 -57 18 -57 54
c0 39 30 57 58 57c27 0 54 -18 54 -57zM589 655c0 -31 -22 -54 -55 -54c-30 0 -57 18 -57 54c0 39 30 57 58 57c27 0 54 -18 54 -57z" />
    <glyph glyph-name="wgrave" unicode="&#x1e81;" horiz-adv-x="879" 
d="M289 0h-87l-184 495h114c87 -251 102 -298 121 -364c25 66 45 122 144 364h88c104 -251 127 -305 150 -366c17 59 37 123 117 366h108l-183 -495h-85c-112 274 -135 324 -153 377c-20 -56 -39 -105 -150 -377zM522 575h-93l-182 161v4h135l140 -161v-4z" />
    <glyph glyph-name="x" unicode="x" horiz-adv-x="613" 
d="M142 0h-128l213 253l-202 242h136c95 -118 123 -156 146 -184c21 31 50 70 145 184h128l-202 -235l220 -260h-140c-107 132 -136 166 -161 198c-22 -28 -46 -61 -155 -198z" />
    <glyph glyph-name="y" unicode="y" horiz-adv-x="578" 
d="M29 -198v83h4c17 -12 52 -18 84 -18c37 0 62 10 79 31c14 17 29 47 39 75l9 26l-237 496h118c110 -236 140 -308 174 -395c36 89 66 163 163 395h113l-232 -521c-32 -72 -48 -103 -68 -127c-33 -42 -84 -63 -150 -63c-34 0 -74 6 -96 18z" />
    <glyph glyph-name="yacute" unicode="&#xfd;" horiz-adv-x="578" 
d="M29 -198v83h4c17 -12 52 -18 84 -18c37 0 62 10 79 31c14 17 29 47 39 75l9 26l-237 496h118c110 -236 140 -308 174 -395c36 89 66 163 163 395h113l-232 -521c-32 -72 -48 -103 -68 -127c-33 -42 -84 -63 -150 -63c-34 0 -74 6 -96 18zM311 575h-93v4l140 161h135v-4z
" />
    <glyph glyph-name="ycircumflex" unicode="&#x177;" horiz-adv-x="578" 
d="M29 -198v83h4c17 -12 52 -18 84 -18c37 0 62 10 79 31c14 17 29 47 39 75l9 26l-237 496h118c110 -236 140 -308 174 -395c36 89 66 163 163 395h113l-232 -521c-32 -72 -48 -103 -68 -127c-33 -42 -84 -63 -150 -63c-34 0 -74 6 -96 18zM205 575h-88v4l153 157h60
l154 -157v-4h-92l-96 82z" />
    <glyph glyph-name="ydieresis" unicode="&#xff;" horiz-adv-x="578" 
d="M29 -198v83h4c17 -12 52 -18 84 -18c37 0 62 10 79 31c14 17 29 47 39 75l9 26l-237 496h118c110 -236 140 -308 174 -395c36 89 66 163 163 395h113l-232 -521c-32 -72 -48 -103 -68 -127c-33 -42 -84 -63 -150 -63c-34 0 -74 6 -96 18zM261 655c0 -31 -22 -54 -55 -54
c-30 0 -57 18 -57 54c0 39 30 57 58 57c27 0 54 -18 54 -57zM451 655c0 -31 -22 -54 -55 -54c-30 0 -57 18 -57 54c0 39 30 57 58 57c27 0 54 -18 54 -57z" />
    <glyph glyph-name="yen" unicode="&#xa5;" horiz-adv-x="734" 
d="M414 0h-99v200h-212v58h212v7l-54 79h-158v58h117l-190 263h126c143 -203 177 -253 211 -308c38 55 72 106 215 308h122l-192 -263h117v-58h-159l-56 -79v-7h215v-58h-215v-200z" />
    <glyph glyph-name="yen.denominator" horiz-adv-x="487" 
d="M283 0h-80v120h-136v40h136v6l-31 43h-105v40h74l-125 163h98c85 -115 108 -148 130 -178c24 36 45 60 135 178h91l-126 -163h75v-40h-105l-31 -43v-6h136v-40h-136v-120z" />
    <glyph glyph-name="yen.inferior" horiz-adv-x="487" 
d="M283 -127h-80v120h-136v40h136v6l-31 43h-105v40h74l-125 163h98c85 -115 108 -148 130 -178c24 36 45 60 135 178h91l-126 -163h75v-40h-105l-31 -43v-6h136v-40h-136v-120z" />
    <glyph glyph-name="yen.numerator" horiz-adv-x="487" 
d="M283 253h-80v120h-136v40h136v6l-31 43h-105v40h74l-125 163h98c85 -115 108 -148 130 -178c24 36 45 60 135 178h91l-126 -163h75v-40h-105l-31 -43v-6h136v-40h-136v-120z" />
    <glyph glyph-name="yen.oldstyle" horiz-adv-x="692" 
d="M392 0h-96v177h-208v58h208v5l-54 71h-154v58h111l-180 235h124c138 -191 171 -234 203 -281c37 49 61 85 207 281h121l-185 -235h114v-58h-158l-53 -71v-5h211v-58h-211v-177z" />
    <glyph glyph-name="yen.superior" horiz-adv-x="487" 
d="M283 400h-80v120h-136v40h136v6l-31 43h-105v40h74l-125 163h98c85 -115 108 -148 130 -178c24 36 45 60 135 178h91l-126 -163h75v-40h-105l-31 -43v-6h136v-40h-136v-120z" />
    <glyph glyph-name="ygrave" unicode="&#x1ef3;" horiz-adv-x="578" 
d="M29 -198v83h4c17 -12 52 -18 84 -18c37 0 62 10 79 31c14 17 29 47 39 75l9 26l-237 496h118c110 -236 140 -308 174 -395c36 89 66 163 163 395h113l-232 -521c-32 -72 -48 -103 -68 -127c-33 -42 -84 -63 -150 -63c-34 0 -74 6 -96 18zM374 575h-93l-182 161v4h135
l140 -161v-4z" />
    <glyph glyph-name="z" unicode="z" horiz-adv-x="561" 
d="M524 0h-494v62c252 264 291 306 335 349h-313v84h464v-62c-232 -242 -285 -295 -341 -350h349v-83z" />
    <glyph glyph-name="zacute" unicode="&#x17a;" horiz-adv-x="561" 
d="M524 0h-494v62c252 264 291 306 335 349h-313v84h464v-62c-232 -242 -285 -295 -341 -350h349v-83zM306 575h-93v4l140 161h135v-4z" />
    <glyph glyph-name="zcaron" unicode="&#x17e;" horiz-adv-x="561" 
d="M524 0h-494v62c252 264 291 306 335 349h-313v84h464v-62c-232 -242 -285 -295 -341 -350h349v-83zM379 736h88v-4l-153 -157h-60l-154 157v4h90l97 -82z" />
    <glyph glyph-name="zdotaccent" unicode="&#x17c;" horiz-adv-x="561" 
d="M524 0h-494v62c252 264 291 306 335 349h-313v84h464v-62c-232 -242 -285 -295 -341 -350h349v-83zM341 655c0 -31 -22 -54 -55 -54c-30 0 -57 18 -57 54c0 39 30 57 58 57c27 0 54 -18 54 -57z" />
    <glyph glyph-name="zero" unicode="0" horiz-adv-x="648" 
d="M609 332c0 -211 -112 -346 -286 -346c-175 0 -284 135 -284 346s117 347 287 347c180 0 283 -136 283 -347zM508 333c0 160 -70 255 -183 255c-110 0 -185 -95 -185 -255s73 -255 185 -255c113 0 183 95 183 255z" />
    <glyph glyph-name="zero.denominator" 
d="M416 207c0 -136 -77 -216 -192 -216s-192 80 -192 214c0 136 84 216 194 216c118 0 190 -80 190 -214zM337 206c0 93 -42 145 -112 145c-68 0 -114 -52 -114 -145c0 -94 46 -144 113 -144c71 0 113 50 113 144z" />
    <glyph glyph-name="zero.fitted" horiz-adv-x="648" 
d="M609 332c0 -211 -112 -346 -286 -346c-175 0 -284 135 -284 346s117 347 287 347c180 0 283 -136 283 -347zM508 333c0 160 -70 255 -183 255c-110 0 -185 -95 -185 -255s73 -255 185 -255c113 0 183 95 183 255z" />
    <glyph glyph-name="zero.inferior" unicode="&#x2080;" 
d="M416 80c0 -136 -77 -216 -192 -216s-192 80 -192 214c0 136 84 216 194 216c118 0 190 -80 190 -214zM337 79c0 93 -42 145 -112 145c-68 0 -114 -52 -114 -145c0 -94 46 -144 113 -144c71 0 113 50 113 144z" />
    <glyph glyph-name="zero.numerator" 
d="M416 460c0 -136 -77 -216 -192 -216s-192 80 -192 214c0 136 84 216 194 216c118 0 190 -80 190 -214zM337 459c0 93 -42 145 -112 145c-68 0 -114 -52 -114 -145c0 -94 46 -144 113 -144c71 0 113 50 113 144z" />
    <glyph glyph-name="zero.oldstyle" horiz-adv-x="669" 
d="M625 274c0 -204 -152 -288 -292 -288s-289 86 -289 279c0 188 159 284 295 284c149 0 286 -89 286 -275zM526 267c0 124 -85 191 -190 191c-97 0 -194 -61 -194 -191c0 -142 108 -191 193 -191c100 0 191 54 191 191z" />
    <glyph glyph-name="zero.superior" unicode="&#x2070;" 
d="M416 607c0 -136 -77 -216 -192 -216s-192 80 -192 214c0 136 84 216 194 216c118 0 190 -80 190 -214zM337 606c0 93 -42 145 -112 145c-68 0 -114 -52 -114 -145c0 -94 46 -144 113 -144c71 0 113 50 113 144z" />
    <glyph glyph-name="zero.taboldstyle" horiz-adv-x="629" 
d="M588 272c0 -200 -135 -286 -275 -286c-141 0 -272 90 -272 279c0 190 144 284 279 284c147 0 268 -93 268 -277zM490 267c0 124 -79 191 -174 191c-89 0 -177 -66 -177 -191c0 -142 97 -191 176 -191c89 0 175 54 175 191z" />
    <glyph glyph-name="arrowleft" unicode="&#x2190;" horiz-adv-x="783" 
d="M747 388v-88c-397 0 -482 0 -570 1c24 -22 78 -69 258 -249l-57 -59l-353 351l355 353l55 -56c-174 -179 -235 -235 -257 -255c86 2 174 2 569 2z" />
    <glyph glyph-name="arrowup" unicode="&#x2191;" horiz-adv-x="783" 
d="M349 0c0 396 0 484 2 570c-20 -21 -76 -82 -255 -257l-56 54l354 355l350 -354l-59 -55c-179 181 -226 235 -248 257c2 -88 2 -172 2 -570h-90z" />
    <glyph glyph-name="arrowright" unicode="&#x2192;" horiz-adv-x="783" 
d="M36 300v88c394 0 483 0 569 -2c-23 20 -83 76 -257 255l58 56l352 -353l-354 -351l-55 59c179 180 233 227 256 249c-88 -1 -173 -1 -569 -1z" />
    <glyph glyph-name="arrowdown" unicode="&#x2193;" horiz-adv-x="783" 
d="M349 688h90c0 -396 0 -482 -2 -570c22 24 69 78 248 257l59 -55l-350 -354l-354 355l56 55c179 -174 235 -236 255 -257c-2 85 -2 175 -2 569z" />
    <glyph glyph-name="uni2196" unicode="&#x2196;" horiz-adv-x="783" 
d="M687 115l-61 -62c-281 283 -339 342 -400 404c1 -32 1 -104 1 -359h-81v497h499v-79c-249 -1 -340 -1 -361 -1c62 -60 124 -120 403 -400z" />
    <glyph glyph-name="uni2197" unicode="&#x2197;" horiz-adv-x="783" 
d="M160 53l-62 62c279 280 341 340 404 400c-31 1 -111 1 -362 1v79h499v-497h-81c0 255 1 326 2 358z" />
    <glyph glyph-name="uni2198" unicode="&#x2198;" horiz-adv-x="783" 
d="M98 567l62 62c281 -281 339 -340 400 -403c-1 32 -2 103 -2 357h81v-494h-499v77c251 1 331 1 362 1c-62 59 -125 121 -404 400z" />
    <glyph glyph-name="uni2199" unicode="&#x2199;" horiz-adv-x="783" 
d="M626 631l61 -61c-279 -280 -341 -342 -403 -401c30 0 112 0 361 -1v-78h-499v495h81c0 -252 0 -326 -1 -358c61 63 119 122 400 404z" />
    <glyph glyph-name="NULL" horiz-adv-x="0" 
 />
    <glyph glyph-name="NULL" horiz-adv-x="0" 
 />
    <glyph glyph-name="CR" unicode="&#xd;" horiz-adv-x="221" 
 />
    </font>
</defs>
</svg>
