<?xml version="1.0" standalone="no"?>
<!DOCTYPE svg PUBLIC "-//W3C//DTD SVG 1.1//EN" "http://www.w3.org/Graphics/SVG/1.1/DTD/svg11.dtd" >
<svg xmlns="http://www.w3.org/2000/svg" xmlns:xlink="http://www.w3.org/1999/xlink" version="1.1">
<metadata>
Created by FontForge 20170731 at Tue Jan 12 01:21:28 2021
 By Aleksey,,,
Copyright (c) 2013 by Dieter Hofrichter. Alle Rechte vorbehalten.
</metadata>
<defs>
<font id="Equip-Medium" horiz-adv-x="829" >
  <font-face 
    font-family="Equip Medium"
    font-weight="500"
    font-stretch="normal"
    units-per-em="2048"
    panose-1="2 0 6 3 0 0 0 2 0 4"
    ascent="1536"
    descent="-512"
    x-height="1016"
    cap-height="1411"
    bbox="-303 -610 2630 2011"
    underline-thickness="102"
    underline-position="-307"
    unicode-range="U+000D-FB04"
  />
<missing-glyph horiz-adv-x="446" 
 />
    <glyph glyph-name="f_f" unicode="ff" horiz-adv-x="1394" 
d="M434 0h-235v823h-154v195h154v55q0 203 94 297q105 105 301 105q50 0 102.5 -12.5t77.5 -30.5v-205h-8q-61 43 -154 43q-100 0 -141 -49q-37 -50 -37 -154v-49h230v-195h-230v-823zM1133 0h-236v823h-145v195h145v92q0 203 94 301q100 105 299 105q50 0 98.5 -13.5
t75.5 -32.5v-202h-8q-68 43 -145 43q-95 0 -140 -54q-38 -48 -38 -157v-82h241v-195h-241v-823z" />
    <glyph glyph-name="fi" unicode="fi" horiz-adv-x="1343" 
d="M426 0h-236v825h-153v193h153v94q0 200 95 299q105 105 297 105q45 0 93.5 -10t74.5 -25v-201h-9q-62 33 -139 33q-93 0 -137 -53q-39 -49 -39 -158v-84h264v-193h-264v-825zM1083 0h-237v1018h237v-1018zM1094 1337q0 -61 -37 -99t-94 -38q-56 0 -94 37t-38 100
q0 67 40 102.5t92 35.5t91.5 -35.5t39.5 -102.5z" />
    <glyph glyph-name="fl" unicode="fl" horiz-adv-x="1341" 
d="M426 0h-236v825h-153v193h153v94q0 200 95 299q105 105 288 105q46 0 94.5 -11t75.5 -26v-199h-8q-47 33 -141 33q-87 0 -129 -51q-39 -48 -39 -160v-84h236v-193h-236v-825zM1081 0h-235v1491h235v-1491z" />
    <glyph glyph-name="f_f_i" unicode="ffi" horiz-adv-x="2123" 
d="M426 0h-236v823h-153v195h153v55q0 202 95 297q105 105 301 105q50 0 102.5 -12.5t77.5 -30.5v-205h-8q-61 43 -154 43q-100 0 -141 -49q-37 -50 -37 -156v-47h229v-195h-229v-823zM1124 0h-235v823h-146v195h146v92q0 203 94 301q100 105 295 105q46 0 94 -10t74 -25
v-207h-8q-56 37 -140 37q-93 0 -135 -54q-39 -48 -39 -157v-82h262v-195h-262v-823zM1780 0h-238v1018h238v-1018zM1792 1337q0 -61 -37.5 -99t-95.5 -38q-55 0 -93 37.5t-38 99.5q0 67 40.5 102.5t90.5 35.5q52 0 92.5 -35.5t40.5 -102.5z" />
    <glyph glyph-name="f_f_l" unicode="ffl" horiz-adv-x="2121" 
d="M426 0h-236v823h-153v195h153v55q0 202 95 297q105 105 301 105q50 0 102.5 -12.5t77.5 -30.5v-205h-8q-61 43 -154 43q-100 0 -141 -49q-37 -50 -37 -156v-47h229v-195h-229v-823zM1124 0h-235v823h-152v195h152v94q0 201 94 299q100 105 287 105q46 0 94.5 -11
t77.5 -26v-203h-8q-53 35 -142 35t-131 -51q-37 -50 -37 -160v-82h234v-195h-234v-823zM1778 0h-236v1491h236v-1491z" />
    <glyph glyph-name="f_b" unicode="fb" horiz-adv-x="2015" 
d="M434 0h-235v823h-154v195h154v94q0 201 94 299q105 105 297 105q49 0 95.5 -12.5t74.5 -30.5v-203h-8q-62 41 -142 41q-95 0 -137 -51q-39 -48 -39 -160v-82h244v-195h-244v-823zM1075 0h-225v1491h235v-627q46 77 146 130t213 53q218 0 351.5 -143.5t133.5 -389.5
q0 -241 -144 -391t-358 -150q-116 0 -207.5 42t-144.5 118v-133zM1085 369q33 -86 117.5 -136.5t188.5 -50.5q140 0 219.5 91t79.5 239q0 150 -84 237t-220 87q-98 0 -183 -54t-118 -143v-270z" />
    <glyph glyph-name="f_f_b" unicode="ffb" horiz-adv-x="2715" 
d="M434 0h-235v823h-154v195h154v55q0 203 94 297q105 105 301 105q50 0 102.5 -12.5t77.5 -30.5v-205h-8q-61 43 -154 43q-100 0 -141 -49q-37 -50 -37 -156v-47h230v-195h-230v-823zM1776 0h-226v1491h236v-627q46 77 145 130t213 53q218 0 352 -143.5t134 -389.5
q0 -241 -144 -391t-358 -150q-116 0 -207.5 42t-144.5 118v-133zM1786 369q33 -86 117 -136.5t188 -50.5q140 0 219.5 91t79.5 239q0 150 -83 237t-220 87q-98 0 -183 -54t-118 -143v-270zM1133 0h-236v823h-149v195h149v92q0 203 94 301q100 105 287 105q46 0 94.5 -11
t77.5 -26v-203h-8q-53 35 -142 35t-131 -51q-36 -49 -36 -160v-82h233v-195h-233v-823z" />
    <glyph glyph-name="f_f_h" unicode="ffh" horiz-adv-x="2621" 
d="M434 0h-235v823h-154v195h154v55q0 203 94 297q105 105 301 105q50 0 102.5 -12.5t77.5 -30.5v-205h-8q-61 43 -154 43q-100 0 -141 -49q-37 -50 -37 -156v-47h230v-195h-230v-823zM1133 0h-236v823h-149v195h149v94q0 201 94 299q100 105 287 105q46 0 94.5 -11
t77.5 -26v-203h-8q-53 35 -142 35t-131 -51q-36 -49 -36 -160v-82h233v-195h-233v-823zM1784 0h-236v1491h236v-623q45 80 135 127t207 47q138 0 223.5 -57.5t110.5 -159.5q20 -74 20 -223v-602h-235v559q0 124 -23 172q-50 92 -174 92q-79 0 -153 -41t-111 -110v-672z" />
    <glyph glyph-name="f_f_j" unicode="ffj" horiz-adv-x="2125" 
d="M426 0h-236v823h-153v195h153v55q0 202 95 297q105 105 301 105q50 0 102.5 -12.5t77.5 -30.5v-205h-8q-61 43 -154 43q-100 0 -141 -49q-37 -50 -37 -156v-47h229v-195h-229v-823zM1124 0h-235v823h-146v195h146v92q0 203 94 301q100 105 295 105q46 0 94 -10t74 -25
v-207h-8q-56 37 -140 37q-93 0 -135 -54q-39 -48 -39 -157v-82h262v-195h-262v-823zM1257 -395v207h9q53 -39 135 -39q73 0 104 39q22 25 29.5 68.5t7.5 117.5v1020h236v-1020q0 -239 -66 -320q-91 -108 -274 -108q-112 0 -181 35zM1792 1337q0 -61 -37 -99t-94 -38
q-56 0 -93.5 37t-37.5 100q0 67 39.5 102.5t91.5 35.5t91.5 -35.5t39.5 -102.5z" />
    <glyph glyph-name="f_f_k" unicode="ffk" horiz-adv-x="2519" 
d="M2224 0l-291 502l-149 -144v-358h-236v1491h236v-854l387 381h301l-373 -356l406 -662h-281zM1133 0h-236v823h-149v195h149v92q0 203 94 301q100 105 287 105q46 0 94.5 -11t77.5 -26v-203h-8q-53 35 -142 35t-131 -51q-36 -49 -36 -160v-82h233v-195h-233v-823zM434 0
h-235v823h-154v195h154v55q0 203 94 297q105 105 301 105q50 0 102.5 -12.5t77.5 -30.5v-205h-8q-61 43 -154 43q-100 0 -141 -49q-37 -50 -37 -156v-47h230v-195h-230v-823z" />
    <glyph glyph-name="f_h" unicode="fh" horiz-adv-x="1925" 
d="M434 0h-235v823h-154v195h154v94q0 201 94 299q105 105 289 105q46 0 94.5 -11t75.5 -26v-203h-9q-50 35 -141 35q-87 0 -129 -51q-39 -48 -39 -160v-82h236v-195h-236v-823zM1090 0h-236v1491h236v-623q45 80 135 127t207 47q137 0 221.5 -57.5t109.5 -159.5
q21 -77 21 -223v-602h-236v559q0 126 -22 172q-47 92 -174 92q-79 0 -152.5 -41t-109.5 -110v-672z" />
    <glyph glyph-name="f_j" unicode="fj" horiz-adv-x="1343" 
d="M426 0h-236v823h-153v195h153v94q0 200 95 299q105 105 297 105q45 0 93.5 -10t74.5 -25v-205h-9q-59 37 -139 37q-93 0 -137 -53q-39 -49 -39 -158v-84h264v-195h-264v-823zM561 -395v207h8q53 -39 136 -39q68 0 104 39q22 25 29.5 68.5t7.5 117.5v1020h235v-1020
q0 -238 -67 -320q-91 -108 -273 -108q-111 0 -180 35zM1094 1337q0 -61 -37 -99t-94 -38q-55 0 -93.5 37.5t-38.5 99.5q0 67 40 102.5t92 35.5t91.5 -35.5t39.5 -102.5z" />
    <glyph glyph-name="f_k" unicode="fk" horiz-adv-x="1822" 
d="M1090 0h-236v1491h236v-854l387 381h299l-373 -356l405 -662h-280l-291 500l-147 -142v-358zM434 0h-235v823h-154v195h154v94q0 201 94 299q105 105 289 105q46 0 94.5 -11t75.5 -26v-201h-9q-50 35 -141 35q-87 0 -129 -51q-39 -48 -39 -160v-84h236v-195h-236v-823z
" />
    <glyph glyph-name=".notdef" horiz-adv-x="446" 
 />
    <glyph glyph-name=".null" horiz-adv-x="0" 
 />
    <glyph glyph-name="nonmarkingreturn" horiz-adv-x="682" 
 />
    <glyph glyph-name="NULL" horiz-adv-x="0" 
 />
    <glyph glyph-name="NULL" horiz-adv-x="0" 
 />
    <glyph glyph-name="CR" unicode="&#xd;" horiz-adv-x="450" 
 />
    <glyph glyph-name="space" unicode=" " horiz-adv-x="450" 
 />
    <glyph glyph-name="exclam" unicode="!" horiz-adv-x="616" 
d="M438 465h-186q-43 754 -43 946h270q0 -188 -41 -946zM498 127q0 -68 -43 -110t-109 -42q-65 0 -109 41.5t-44 110.5q0 77 46 117.5t107 40.5t106.5 -40.5t45.5 -117.5z" />
    <glyph glyph-name="quotedbl" unicode="&#x22;" horiz-adv-x="845" 
d="M279 879h-125l-45 571h217zM639 879h-125l-45 571h215z" />
    <glyph glyph-name="numbersign" unicode="#" horiz-adv-x="1267" 
d="M416 -29h-137l63 447h-256v168h279l30 211h-260v166h283l61 430h137l-61 -430h242l61 430h137l-61 -430h248v-166h-271l-30 -211h252v-168h-275l-63 -447h-138l64 447h-242zM532 797l-30 -211h241l31 211h-242z" />
    <glyph glyph-name="dollar" unicode="$" horiz-adv-x="1177" 
d="M662 -229h-115v213q-121 5 -241 44.5t-197 102.5v260h8q86 -81 203.5 -128.5t226.5 -55.5v354l-109 35q-313 96 -313 375q0 160 106.5 266t315.5 127v209h115v-203q94 -3 203 -39.5t159 -79.5v-252h-10q-65 63 -160.5 103t-191.5 49v-369l88 -26q193 -60 269.5 -144.5
t76.5 -222.5q0 -76 -24 -142t-73.5 -122t-135.5 -92t-201 -45v-217zM379 987q0 -26 5 -44t20.5 -41.5t51 -44.5t91.5 -40v334q-91 -12 -129.5 -58.5t-38.5 -105.5zM836 367q0 56 -39 90t-135 69v-319q88 9 131 48t43 112z" />
    <glyph glyph-name="percent" unicode="%" horiz-adv-x="1785" 
d="M764 944q0 -213 -96 -328.5t-254 -115.5q-157 0 -252.5 114.5t-95.5 323.5q0 208 100.5 325t253.5 117q159 0 251.5 -113.5t92.5 -322.5zM586 940q0 137 -45.5 211t-124.5 74q-78 0 -125 -75t-47 -210q0 -137 47 -210t123 -73q81 0 126.5 71.5t45.5 211.5zM621 -25h-134
l691 1422h131zM1718 426q0 -213 -95 -328.5t-253 -115.5t-254 114.5t-96 323.5q0 207 101 324.5t253 117.5q159 0 251.5 -113.5t92.5 -322.5zM1540 422q0 138 -45 211.5t-125 73.5q-78 0 -125 -75t-47 -210q0 -137 47 -210t123 -73q81 0 126.5 71.5t45.5 211.5z" />
    <glyph glyph-name="ampersand" unicode="&#x26;" horiz-adv-x="1470" 
d="M1466 0h-327q-103 81 -115 92q-165 -121 -401 -121q-233 0 -380 119.5t-147 302.5q0 268 266 391q-71 109 -71 244q0 70 27 133t79 113t135.5 80t188.5 30q171 0 262 -71v-232h-8q-98 88 -236 88q-96 0 -147 -45t-51 -116q0 -84 67 -172q57 -75 178 -192.5t232 -215.5
q24 34 42.5 93.5t18.5 119.5q0 93 -20 143h231q17 -55 17 -147q0 -116 -35 -213.5t-90 -165.5q69 -68 284 -250v-8zM856 250q-101 88 -208.5 191t-172.5 175q-139 -62 -139 -202q0 -105 81.5 -168.5t217.5 -63.5q138 0 221 68z" />
    <glyph glyph-name="quotesingle" unicode="'" horiz-adv-x="452" 
d="M279 879h-125l-45 571h217z" />
    <glyph glyph-name="parenleft" unicode="(" horiz-adv-x="845" 
d="M604 -346q-77 48 -146 107.5t-137 145.5t-117 183t-79.5 223.5t-30.5 264.5q0 175 40.5 326t113 265t160 198.5t194.5 148.5h193v-9q-488 -346 -488 -927q0 -527 488 -918v-8h-191z" />
    <glyph glyph-name="parenright" unicode=")" horiz-adv-x="845" 
d="M188 1516q77 -48 146 -107.5t137 -145.5t117 -183t79.5 -223.5t30.5 -264.5q0 -175 -40.5 -326t-113 -265t-160 -198.5t-194.5 -148.5h-192v8q487 340 487 928q0 527 -487 917v9h190z" />
    <glyph glyph-name="asterisk" unicode="*" horiz-adv-x="915" 
d="M281 709l-136 92q70 102 193 231q-207 49 -287 76l51 156q144 -47 275 -105q-19 181 -21 291h166q0 -70 -18 -295q173 74 278 109l49 -160q-41 -12 -89 -24.5t-108 -27t-93 -22.5q137 -148 190 -225l-131 -98q-106 150 -162 247q-93 -156 -157 -245z" />
    <glyph glyph-name="plus" unicode="+" horiz-adv-x="1433" 
d="M797 72h-156v454h-457v156h455v453h158v-453h452v-156h-452v-454z" />
    <glyph glyph-name="comma" unicode="," horiz-adv-x="534" 
d="M178 -330h-184v8q80 68 131 176.5t51 231.5q0 109 -33 184h234q24 -54 24 -168q0 -130 -66.5 -248t-156.5 -184z" />
    <glyph glyph-name="hyphen" unicode="-" horiz-adv-x="724" 
d="M586 465h-504v192h504v-192z" />
    <glyph glyph-name="period" unicode="." horiz-adv-x="489" 
d="M428 127q0 -68 -44 -110t-110 -42q-64 0 -108.5 42t-44.5 110q0 77 46 117.5t107 40.5t107.5 -40.5t46.5 -117.5z" />
    <glyph glyph-name="slash" unicode="/" horiz-adv-x="897" 
d="M137 -117h-162l699 1614h162z" />
    <glyph glyph-name="zero" unicode="0" horiz-adv-x="1204" 
d="M1130 684q0 -337 -144.5 -525t-385.5 -188t-383.5 187t-142.5 520q0 166 41 302t112.5 225t168.5 137.5t210 48.5q244 0 384 -187t140 -520zM883 682q0 233 -74.5 360t-206.5 127q-131 0 -208 -128t-77 -359q0 -233 77.5 -361t207.5 -128q131 0 206 127t75 362z" />
    <glyph glyph-name="one" unicode="1" horiz-adv-x="1204" 
d="M772 0h-244v1124l-288 -155v231l344 193h188v-1393z" />
    <glyph glyph-name="two" unicode="2" horiz-adv-x="1204" 
d="M1079 0h-983v143q36 32 121 107t130.5 115.5t112.5 104.5t122 122q174 183 174 354q0 101 -60.5 160t-169.5 59q-216 0 -387 -188h-8v244q75 77 191.5 123.5t234.5 46.5q220 0 336.5 -111.5t116.5 -298.5q0 -228 -191 -440q-61 -67 -168.5 -164t-191.5 -158q190 2 620 2
v-221z" />
    <glyph glyph-name="three" unicode="3" horiz-adv-x="1204" 
d="M147 82v256h9q76 -71 173 -107t199 -36q142 0 204.5 56t62.5 148q0 60 -34.5 103t-98.5 63q-102 29 -207 29h-56v207h62q138 0 205 37q48 26 69 64t21 95q0 77 -59.5 123.5t-155.5 46.5q-89 0 -189.5 -38.5t-169.5 -116.5h-8v237q70 63 179.5 102.5t221.5 39.5
q213 0 324 -99.5t111 -271.5q0 -104 -65.5 -188t-182.5 -123q143 -27 219 -107.5t76 -212.5q0 -193 -142 -305.5t-378 -112.5q-104 0 -210 27.5t-180 83.5z" />
    <glyph glyph-name="four" unicode="4" horiz-adv-x="1204" 
d="M936 0h-236v332h-628v155l663 904h201v-861h211v-198h-211v-332zM700 530q0 216 7 535q-155 -231 -383 -535h376z" />
    <glyph glyph-name="five" unicode="5" horiz-adv-x="1204" 
d="M143 84v246h9q169 -135 378 -135q139 0 212 65t73 184q0 220 -278 220q-176 0 -334 -91h-8l79 789h730v-221h-547l-39 -320q39 23 106.5 37t124.5 14q199 0 313.5 -104t114.5 -311q0 -120 -42.5 -213.5t-117 -151t-171.5 -87.5t-211 -30q-234 0 -392 109z" />
    <glyph glyph-name="six" unicode="6" horiz-adv-x="1204" 
d="M354 725q44 77 137.5 124.5t198.5 47.5q190 0 307 -116t117 -332q0 -148 -64.5 -258t-172 -165t-242.5 -55q-78 0 -150 20t-141.5 68t-120 121t-81.5 188t-31 259q0 163 35 294.5t94 217.5t139.5 144t167 83t180.5 25q220 0 328 -82v-250h-13q-108 110 -303 110
q-170 0 -271.5 -113t-113.5 -331zM369 514q0 -97 32 -178q25 -66 85.5 -107t136.5 -41q107 0 177 63.5t70 192.5q0 125 -66 187.5t-173 62.5q-97 0 -168.5 -53.5t-93.5 -126.5z" />
    <glyph glyph-name="seven" unicode="7" horiz-adv-x="1204" 
d="M565 0h-256q215 538 506 1141h-692v221h946v-158q-301 -675 -504 -1204z" />
    <glyph glyph-name="eight" unicode="8" horiz-adv-x="1204" 
d="M846 717q123 -38 189.5 -125t66.5 -211q0 -182 -138 -296t-364 -114q-144 0 -255.5 43.5t-178 134t-66.5 216.5q0 115 68 199.5t192 127.5q-98 41 -153 125t-55 193q0 169 132.5 275t323.5 106q204 0 328.5 -100t124.5 -279q0 -101 -57.5 -180.5t-157.5 -114.5zM614 788
q213 38 213 207q0 86 -59 136.5t-164 50.5q-98 0 -160.5 -52.5t-62.5 -132.5q0 -95 63 -145.5t170 -63.5zM594 606q-111 -12 -181.5 -69t-70.5 -144q0 -101 75.5 -156t186.5 -55q115 0 186.5 57t71.5 154q0 96 -72.5 150t-195.5 63z" />
    <glyph glyph-name="nine" unicode="9" horiz-adv-x="1204" 
d="M131 61v242h8q65 -55 159 -82.5t185 -27.5q181 0 271 116.5t98 329.5q-38 -75 -124 -122.5t-196 -47.5q-127 0 -226 47.5t-159.5 149.5t-60.5 247q0 142 67 252.5t177.5 168t244.5 57.5q253 0 386 -180t133 -504q0 -159 -32 -285.5t-87 -209.5t-131.5 -138.5t-162 -79
t-183.5 -23.5q-106 0 -207 24t-160 66zM829 858q0 62 -22 139q-25 82 -84 129.5t-143 47.5q-66 0 -120.5 -25.5t-92 -86t-37.5 -147.5q0 -118 69 -183.5t174 -65.5q101 0 166.5 55t89.5 137z" />
    <glyph glyph-name="colon" unicode=":" horiz-adv-x="559" 
d="M444 127q0 -68 -43.5 -110t-109.5 -42q-64 0 -109 42t-45 110q0 77 46.5 117.5t107.5 40.5t107 -40.5t46 -117.5zM444 868q0 -67 -44 -109t-109 -42q-64 0 -109 41.5t-45 109.5q0 77 46.5 117.5t107.5 40.5t107 -40.5t46 -117.5z" />
    <glyph glyph-name="semicolon" unicode=";" horiz-adv-x="559" 
d="M459 868q0 -67 -44 -109t-110 -42q-64 0 -108.5 41.5t-44.5 109.5q0 77 46 117.5t107 40.5t107.5 -40.5t46.5 -117.5zM221 -330h-186v8q80 68 131 176t51 232q0 113 -31 184h234q24 -54 24 -168q0 -130 -66.5 -248t-156.5 -184z" />
    <glyph glyph-name="less" unicode="&#x3c;" horiz-adv-x="1433" 
d="M1159 74l-928 444v164l928 455v-181l-760 -352l760 -346v-184z" />
    <glyph glyph-name="equal" unicode="=" horiz-adv-x="1433" 
d="M1249 322h-1065v153h1065v-153zM1249 723h-1065v158h1065v-158z" />
    <glyph glyph-name="greater" unicode="&#x3e;" horiz-adv-x="1433" 
d="M274 1137l928 -447v-162l-928 -454v180l762 354l-762 344v185z" />
    <glyph glyph-name="question" unicode="?" horiz-adv-x="905" 
d="M471 459h-188q0 60 3 94.5t14.5 79t39 80.5t72.5 71q98 77 141 137.5t43 127.5q0 172 -215 172q-70 0 -149.5 -32t-147.5 -93h-8v221q62 56 164 90.5t190 34.5q204 0 313 -87.5t109 -260.5q0 -107 -54.5 -195t-203.5 -190q-71 -50 -96 -107.5t-27 -142.5zM530 127
q0 -68 -43.5 -110t-109.5 -42q-64 0 -109 42t-45 110q0 77 46.5 117.5t107.5 40.5t107 -40.5t46 -117.5z" />
    <glyph glyph-name="at" unicode="@" horiz-adv-x="1783" 
d="M1440 -135q-237 -146 -559 -146q-341 0 -552.5 201t-211.5 526q0 178 66 337t180 274t275 182.5t343 67.5q300 0 476.5 -169.5t176.5 -451.5q0 -149 -57 -282t-157 -214t-216 -81q-103 0 -141 63q-16 32 -19 72q-114 -138 -286 -138q-126 0 -210.5 79t-84.5 227
q0 111 47.5 217t132.5 182q130 121 293 121q75 0 133 -32t82 -89l23 104h137l-99 -479q-16 -74 -16 -135q0 -70 57 -70t114.5 60.5t95.5 166.5t38 222q0 227 -140 367.5t-382 140.5q-144 0 -275.5 -56t-229 -152.5t-155 -236t-57.5 -297.5q0 -266 173 -435t456 -169
q329 0 565 172h8zM1061 420l49 239q-13 70 -61.5 106t-114.5 36q-46 0 -103.5 -24.5t-99.5 -67.5q-48 -51 -80.5 -129t-32.5 -150q0 -182 185 -182q68 0 141.5 45t116.5 127z" />
    <glyph glyph-name="A" unicode="A" horiz-adv-x="1372" 
d="M274 0h-266l559 1411h240l555 -1411h-275l-137 360h-536zM487 580h387q-77 197 -192 512q-49 -141 -195 -512z" />
    <glyph glyph-name="B" unicode="B" horiz-adv-x="1304" 
d="M164 0v1411h391q139 0 215 -8q166 -14 267.5 -99.5t101.5 -236.5q0 -127 -52.5 -200t-171.5 -124q142 -28 223 -110.5t81 -224.5q0 -129 -70.5 -228t-190.5 -139q-116 -41 -372 -41h-422zM410 213h180q169 0 246 25q133 48 133 184q0 64 -34 110t-97 66q-80 27 -228 27
h-200v-412zM410 836h153q176 0 223 22q111 51 111 166q0 123 -149 162q-69 16 -193 16h-145v-366z" />
    <glyph glyph-name="C" unicode="C" horiz-adv-x="1396" 
d="M1290 111q-66 -59 -193 -99.5t-257 -40.5q-211 0 -379.5 88.5t-266.5 257t-98 390.5q0 138 41.5 257t113.5 205.5t168.5 149t207.5 93t229 30.5q129 0 247.5 -34t180.5 -91v-260h-8q-70 72 -184 113.5t-226 41.5q-104 0 -196 -32.5t-163.5 -93t-113 -156.5t-41.5 -215
q0 -128 40 -227t110.5 -160.5t162 -93t199.5 -31.5q239 0 418 162h8v-254z" />
    <glyph glyph-name="D" unicode="D" horiz-adv-x="1503" 
d="M164 0v1411h393q255 0 420 -51q432 -134 432 -635q0 -506 -436 -659q-185 -66 -463 -66h-346zM414 227h141q125 0 227.5 21.5t163.5 56.5q209 122 209 414q0 139 -65.5 250t-186.5 161q-130 54 -323 54h-166v-957z" />
    <glyph glyph-name="E" unicode="E" horiz-adv-x="1159" 
d="M1083 0h-919v1411h887v-227h-635v-340h594v-226h-594v-391h667v-227z" />
    <glyph glyph-name="F" unicode="F" horiz-adv-x="1085" 
d="M416 0h-252v1411h858v-227h-606v-383h547v-228h-547v-573z" />
    <glyph glyph-name="G" unicode="G" horiz-adv-x="1503" 
d="M1370 109q-85 -57 -227.5 -97.5t-300.5 -40.5q-157 0 -292 49.5t-234.5 142t-156.5 232.5t-57 312q0 175 62.5 317t169 232t243 138t289.5 48q136 0 258.5 -34t188.5 -91v-258h-8q-67 71 -179.5 111t-240.5 40q-108 0 -200.5 -29.5t-165.5 -87.5t-115 -154t-42 -220
q0 -128 40 -228.5t111 -163t162.5 -94.5t198.5 -32q142 0 254 49v293h-319v225h561v-659z" />
    <glyph glyph-name="H" unicode="H" horiz-adv-x="1486" 
d="M416 0h-252v1411h252v-563h653v563h252v-1411h-252v618h-653v-618z" />
    <glyph glyph-name="I" unicode="I" horiz-adv-x="593" 
d="M414 0h-252v1411h252v-1411z" />
    <glyph glyph-name="J" unicode="J" horiz-adv-x="935" 
d="M31 20v234h8q79 -51 194 -51q136 0 183 82q20 36 26.5 92t6.5 155v879h253v-913q0 -247 -53 -348q-44 -86 -139.5 -132.5t-228.5 -46.5q-154 0 -250 49z" />
    <glyph glyph-name="K" unicode="K" horiz-adv-x="1331" 
d="M1034 0l-430 688l-188 -209v-479h-252v1411h252v-614l534 614h310l-486 -537l555 -874h-295z" />
    <glyph glyph-name="L" unicode="L" horiz-adv-x="1112" 
d="M1047 0h-883v1411h252v-1182h631v-229z" />
    <glyph glyph-name="M" unicode="M" horiz-adv-x="1736" 
d="M414 0h-250v1411h297q309 -599 413 -821q89 190 416 821h283v-1411h-250q0 877 6 1053q-127 -267 -377 -758h-166q-70 139 -380 758q8 -276 8 -1053z" />
    <glyph glyph-name="N" unicode="N" horiz-adv-x="1495" 
d="M410 0h-246v1411h270q367 -510 477.5 -669t184.5 -283q-9 340 -9 952h244v-1411h-229q-554 808 -699 1044q7 -326 7 -1044z" />
    <glyph glyph-name="O" unicode="O" horiz-adv-x="1652" 
d="M1556 707q0 -156 -55 -292.5t-151.5 -234t-233 -153.5t-293.5 -56q-156 0 -291.5 55.5t-231 152.5t-150 233.5t-54.5 294.5q0 206 97 374.5t265.5 264.5t372.5 96q214 0 379.5 -93t255.5 -260t90 -382zM1303 705q0 219 -130.5 363t-343.5 144q-206 0 -341.5 -144
t-135.5 -363q0 -227 136.5 -365.5t342.5 -138.5q211 0 341.5 143t130.5 361z" />
    <glyph glyph-name="P" unicode="P" horiz-adv-x="1280" 
d="M416 0h-252v1411h459q213 0 340 -43q119 -41 186.5 -143.5t67.5 -255.5q0 -328 -279 -430q-130 -50 -315 -50h-207v-489zM416 707h198q155 0 232 36q117 53 117 218q0 64 -33 115t-88 75q-76 35 -230 35h-196v-479z" />
    <glyph glyph-name="Q" unicode="Q" horiz-adv-x="1652" 
d="M1556 707q0 -192 -80.5 -350.5t-222.5 -256.5l303 -202l-141 -191l-418 283q-87 -19 -174 -19q-156 0 -291.5 55.5t-231 152.5t-150 233.5t-54.5 294.5q0 206 97 374.5t265.5 264.5t372.5 96q214 0 379.5 -93t255.5 -260t90 -382zM1303 705q0 219 -130.5 363t-343.5 144
q-206 0 -341.5 -144t-135.5 -363q0 -227 136.5 -365.5t342.5 -138.5q211 0 341.5 143t130.5 361z" />
    <glyph glyph-name="R" unicode="R" horiz-adv-x="1302" 
d="M1274 0h-285l-317 547q-31 -2 -97 -2h-159v-545h-252v1411h430q222 0 344 -43q115 -39 182.5 -136t67.5 -235q0 -150 -71.5 -250t-201.5 -149zM416 758h159q178 0 248 33q109 53 109 192q0 130 -125 178q-91 31 -229 31h-162v-434z" />
    <glyph glyph-name="S" unicode="S" horiz-adv-x="1191" 
d="M88 119v268h8q100 -94 235.5 -140t258.5 -46q134 0 203 41.5t69 138.5q0 70 -59 111t-203 83l-166 50q-330 100 -330 393q0 187 142.5 305.5t398.5 118.5q105 0 227.5 -32.5t174.5 -80.5v-262h-9q-75 71 -197 111.5t-229 40.5q-74 0 -126.5 -15.5t-79 -43t-37.5 -57.5
t-11 -65q0 -59 42.5 -102.5t162.5 -81.5l182 -57q201 -62 286 -154t85 -240q0 -87 -30 -162t-92 -137t-168.5 -97.5t-247.5 -35.5q-135 0 -272 39t-218 109z" />
    <glyph glyph-name="T" unicode="T" horiz-adv-x="1191" 
d="M715 0h-252v1182h-424v229h1116v-229h-440v-1182z" />
    <glyph glyph-name="U" unicode="U" horiz-adv-x="1492" 
d="M1339 1411v-799q0 -149 -18 -238t-59 -157q-66 -108 -203 -177t-316 -69q-180 0 -319.5 65t-204.5 183q-65 122 -65 389v803h252v-770q0 -73 2 -116t14 -98t35 -95q34 -63 112.5 -98t182.5 -35q195 0 284 129q60 86 60 303v780h243z" />
    <glyph glyph-name="V" unicode="V" horiz-adv-x="1351" 
d="M786 0h-225l-555 1411h281q287 -745 395 -1055q138 385 389 1055h275z" />
    <glyph glyph-name="W" unicode="W" horiz-adv-x="2021" 
d="M670 0h-226l-413 1411h276q144 -511 194.5 -697.5t82.5 -334.5q75 277 325 1032h211q170 -499 232.5 -693t101.5 -339q66 276 270 1032h267l-418 -1411h-225q-268 821 -340 1071q-66 -234 -338 -1071z" />
    <glyph glyph-name="X" unicode="X" horiz-adv-x="1452" 
d="M330 0h-307l528 745l-467 666h317q171 -240 338 -489q69 110 332 489h297l-473 -670l535 -741h-316q-105 145 -397 555q-272 -392 -387 -555z" />
    <glyph glyph-name="Y" unicode="Y" horiz-adv-x="1333" 
d="M788 0h-253v557l-529 854h291q280 -452 369 -625q135 237 381 625h280l-539 -854v-557z" />
    <glyph glyph-name="Z" unicode="Z" horiz-adv-x="1284" 
d="M1227 0h-1184v145q788 989 829 1039h-763v227h1114v-156q-205 -260 -363 -458t-225 -281t-141 -174.5t-93 -114.5h826v-227z" />
    <glyph glyph-name="bracketleft" unicode="[" horiz-adv-x="722" 
d="M629 -336h-459v1845h459v-141h-264v-1563h264v-141z" />
    <glyph glyph-name="backslash" unicode="\" horiz-adv-x="897" 
d="M137 1497l699 -1614h-162l-699 1614h162z" />
    <glyph glyph-name="bracketright" unicode="]" horiz-adv-x="634" 
d="M20 1511h459v-1847h-459v143h263v1563h-263v141z" />
    <glyph glyph-name="asciicircum" unicode="^" horiz-adv-x="1462" 
d="M1208 575h-180l-301 619l-297 -619h-178l389 807h178z" />
    <glyph glyph-name="underscore" unicode="_" horiz-adv-x="1073" 
d="M0 -160h1073v-123h-1073v123z" />
    <glyph glyph-name="grave" unicode="`" horiz-adv-x="430" 
d="M489 1178h-192l-354 333v9h284l262 -334v-8z" />
    <glyph glyph-name="a" unicode="a" horiz-adv-x="1116" 
d="M1108 12q-51 -28 -139 -28q-84 0 -138 34.5t-73 96.5q-99 -142 -314 -142q-163 0 -262.5 88t-99.5 228q0 58 17.5 106.5t48 82t65.5 56t76 37.5q75 26 143 34.5t170 8.5q70 0 125 -10v47q0 81 -41 125q-55 58 -172 58q-76 0 -174 -28t-172 -87h-8v207q82 62 190.5 91.5
t212.5 29.5q192 0 289 -84q55 -47 80.5 -120t25.5 -192q0 -38 -1 -135.5t-1 -136.5q0 -109 11 -141q16 -45 69 -45q43 0 72 14v-195zM729 272q-2 33 -2 156q-58 10 -121 10q-116 0 -180 -18q-107 -30 -107 -125q0 -61 49 -96t130 -35q68 0 129.5 27.5t101.5 80.5z" />
    <glyph glyph-name="b" unicode="b" horiz-adv-x="1318" 
d="M377 0h-225v1491h235v-627q46 77 146.5 130t214.5 53q218 0 351.5 -143.5t133.5 -389.5q0 -120 -39.5 -222.5t-107.5 -171.5t-160.5 -108t-196.5 -39q-115 0 -207 42.5t-145 117.5v-133zM387 369q35 -85 119 -136t186 -51q140 0 219.5 91t79.5 239q0 150 -83 237t-218 87
q-97 0 -183.5 -55t-119.5 -144v-268z" />
    <glyph glyph-name="c" unicode="c" horiz-adv-x="1042" 
d="M973 78q-139 -105 -344 -105q-110 0 -208 36t-172.5 102t-118.5 168t-44 225q0 237 158.5 390t400.5 153q99 0 190.5 -27t135.5 -74v-233h-8q-52 59 -136.5 91t-173.5 32q-88 0 -161 -36t-119.5 -111.5t-46.5 -178.5q0 -153 96 -240.5t235 -87.5q192 0 308 119h8v-223z
" />
    <glyph glyph-name="d" unicode="d" horiz-adv-x="1318" 
d="M1167 0h-227v156q-44 -82 -130 -132.5t-218 -50.5q-95 0 -183.5 33.5t-161.5 97t-117 167.5t-44 233q0 110 31.5 202t83 154t119.5 105t139.5 62.5t144.5 19.5q217 0 334 -140v582h229v-1489zM932 379v276q-23 61 -71.5 104.5t-102 62t-109.5 18.5q-64 0 -120 -18
t-102.5 -56t-73.5 -104t-27 -154q0 -83 26.5 -147t71.5 -100.5t98 -54.5t113 -18q95 0 176 46.5t121 144.5z" />
    <glyph glyph-name="e" unicode="e" horiz-adv-x="1146" 
d="M1036 90q-66 -54 -175.5 -85.5t-221.5 -31.5q-252 0 -402.5 146t-150.5 385q0 125 43 229.5t115 172t165.5 104.5t196.5 37q225 0 344.5 -129.5t122.5 -358.5q0 -88 -6 -127h-739q18 -113 105.5 -181.5t234.5 -68.5q215 0 360 125h8v-217zM846 610v13q0 104 -68 165.5
t-178 61.5q-42 0 -84 -13.5t-81 -40.5t-67.5 -75.5t-37.5 -110.5h516z" />
    <glyph glyph-name="f" unicode="f" horiz-adv-x="696" 
d="M434 0h-235v823h-154v195h154v94q0 201 94 299q105 105 301 105q50 0 98.5 -13.5t73.5 -32.5v-204h-8q-61 43 -144 43q-98 0 -141 -52q-39 -48 -39 -159v-80h244v-195h-244v-823z" />
    <glyph glyph-name="g" unicode="g" horiz-adv-x="1288" 
d="M201 -315v233h8q71 -61 174.5 -96t214.5 -35q184 0 260 92q53 63 53 219v80q-39 -70 -123.5 -119t-201.5 -49q-101 0 -189.5 31t-158 90.5t-110 156t-40.5 218.5q0 114 32.5 207.5t85 154t121 102t137 59.5t136.5 18q111 0 195.5 -41.5t117.5 -106.5v119h226v-901
q0 -218 -68 -328q-58 -99 -179 -155t-292 -56q-132 0 -236.5 30.5t-162.5 76.5zM903 387v285q-32 80 -102.5 124t-165.5 44q-59 0 -112.5 -18.5t-98 -56.5t-70.5 -103t-26 -150q0 -141 89 -215t214 -74q96 0 167 43.5t105 120.5z" />
    <glyph glyph-name="h" unicode="h" horiz-adv-x="1226" 
d="M389 0h-235v1491h235v-623q44 80 134 127t208 47q137 0 222 -57.5t110 -159.5q20 -74 20 -223v-602h-235v557q0 128 -23 172q-47 92 -172 92q-80 0 -154 -40t-110 -109v-672z" />
    <glyph glyph-name="i" unicode="i" horiz-adv-x="567" 
d="M391 0h-237v1018h237v-1018zM403 1337q0 -61 -37.5 -99t-95.5 -38q-55 0 -93 37.5t-38 99.5q0 67 39.5 102.5t91.5 35.5t92.5 -35.5t40.5 -102.5z" />
    <glyph glyph-name="j" unicode="j" horiz-adv-x="567" 
d="M-172 -395v209h8q55 -37 135 -37q75 0 105 37q22 25 29.5 68.5t7.5 119.5v1016h235v-1020q0 -241 -65 -320q-91 -108 -273 -108q-113 0 -182 35zM362 1337q0 -61 -37.5 -99t-93.5 -38t-94.5 37.5t-38.5 99.5q0 67 40.5 102.5t92.5 35.5q50 0 90.5 -35.5t40.5 -102.5z" />
    <glyph glyph-name="k" unicode="k" horiz-adv-x="1124" 
d="M391 0h-235v1491h235v-875l391 402h297l-377 -371l410 -647h-281l-292 485l-148 -145v-340z" />
    <glyph glyph-name="l" unicode="l" horiz-adv-x="565" 
d="M389 0h-235v1491h235v-1491z" />
    <glyph glyph-name="m" unicode="m" horiz-adv-x="1875" 
d="M387 0h-235v1018h229v-156q44 80 136 130t204 50q248 0 307 -180q48 79 141.5 129.5t221.5 50.5q133 0 214.5 -57t108.5 -160q19 -70 19 -223v-602h-236v559q0 120 -18 172q-36 90 -166 90q-83 0 -151 -38.5t-103 -106.5q2 -25 2 -90v-586h-236v559q0 120 -18 172
q-32 90 -166 90q-82 0 -149.5 -40t-104.5 -107v-674z" />
    <glyph glyph-name="n" unicode="n" horiz-adv-x="1226" 
d="M387 0h-235v1018h229v-158q44 82 137.5 132t212.5 50q137 0 222 -57.5t110 -159.5q20 -74 20 -223v-602h-235v557q0 128 -23 172q-50 92 -174 92q-80 0 -154 -40t-110 -109v-672z" />
    <glyph glyph-name="o" unicode="o" horiz-adv-x="1265" 
d="M1180 510q0 -231 -156 -384t-393 -153t-391 152.5t-154 384.5q0 230 159 383.5t392 153.5q241 0 392 -149.5t151 -387.5zM940 510q0 138 -84.5 232t-220.5 94q-133 0 -221 -93.5t-88 -232.5q0 -145 89 -234.5t220 -89.5q136 0 220.5 92.5t84.5 231.5z" />
    <glyph glyph-name="p" unicode="p" horiz-adv-x="1318" 
d="M387 -397h-235v1415h229v-166q43 81 145.5 138t221.5 57q100 0 187.5 -34t154 -98t105 -165.5t38.5 -227.5q0 -135 -44 -240.5t-118 -168t-162.5 -94t-185.5 -31.5q-102 0 -195 39t-141 108v-532zM387 381q30 -65 84.5 -108t109 -59.5t111.5 -16.5t107.5 17t95 52.5
t70.5 100.5t26 153q0 84 -27.5 148t-72.5 99t-95.5 52t-103.5 17q-41 0 -84 -11t-85.5 -33.5t-79 -62t-56.5 -90.5v-258z" />
    <glyph glyph-name="q" unicode="q" horiz-adv-x="1308" 
d="M1155 -397h-229v567q-38 -82 -131 -132t-207 -50q-77 0 -148.5 18t-136.5 59t-112.5 100t-76 146.5t-28.5 194.5q0 110 32 202.5t84 154t119.5 104.5t138.5 62.5t142 19.5q224 0 332 -152v121h221v-1415zM920 393v262q-34 97 -111 141t-172 44q-43 0 -85 -10.5
t-83.5 -35.5t-72.5 -62t-50.5 -94.5t-19.5 -129.5q0 -83 25 -144.5t69 -96.5t96 -51.5t113 -16.5q94 0 175 49t116 145z" />
    <glyph glyph-name="r" unicode="r" horiz-adv-x="804" 
d="M387 0h-235v1018h231v-158q23 72 95.5 128t180.5 56q78 0 121 -28v-240h-8q-56 33 -135 33q-99 0 -162.5 -41t-87.5 -113v-655z" />
    <glyph glyph-name="s" unicode="s" horiz-adv-x="937" 
d="M84 82v233h8q74 -66 181.5 -101.5t199.5 -35.5q96 0 135 22.5t39 69.5q0 46 -33.5 73t-132.5 54l-131 37q-136 38 -197 108.5t-61 184.5q0 144 111 232t311 88q83 0 182 -23.5t138 -58.5v-228h-9q-56 49 -150.5 77t-174.5 28q-87 0 -128.5 -27t-41.5 -72q0 -37 29.5 -64
t101.5 -46l145 -39q152 -41 216.5 -116t64.5 -187q0 -65 -23.5 -121t-71 -101t-130 -70.5t-191.5 -25.5q-106 0 -217 29.5t-170 79.5z" />
    <glyph glyph-name="t" unicode="t" horiz-adv-x="733" 
d="M727 27q-38 -25 -103.5 -37.5t-127.5 -12.5q-76 0 -142 27t-100 72q-61 81 -61 258v493h-152v191h154q0 18 10 291h225v-291h262v-191h-262v-458q0 -94 25 -136q29 -45 116 -45t148 37h8v-198z" />
    <glyph glyph-name="u" unicode="u" horiz-adv-x="1226" 
d="M1073 0h-227v127q-107 -154 -336 -154q-280 0 -344 217q-23 85 -23 244v582h236v-539q0 -125 22 -186q38 -94 174 -94q83 0 151.5 34t111.5 91v694h235v-1016z" />
    <glyph glyph-name="v" unicode="v" horiz-adv-x="1089" 
d="M637 0h-195l-434 1018h264q197 -495 273 -715q71 211 282 715h254z" />
    <glyph glyph-name="w" unicode="w" horiz-adv-x="1624" 
d="M557 0h-195l-329 1018h256q147 -501 194 -686q59 194 240 686h186q207 -562 248 -690q41 158 189 690h247l-333 -1018h-193q-241 670 -258 719q-55 -177 -252 -719z" />
    <glyph glyph-name="x" unicode="x" horiz-adv-x="1134" 
d="M297 0h-277l377 520l-356 498h295q67 -95 114 -164t79 -116.5t40 -59.5q65 107 236 340h278l-362 -479l391 -539h-297q-70 99 -129 181.5t-86.5 121t-46.5 66.5q-59 -93 -256 -369z" />
    <glyph glyph-name="y" unicode="y" horiz-adv-x="1093" 
d="M55 -401v208h8q52 -40 160 -40q94 0 137 61q34 43 64 137l14 47l-426 1006h267q211 -531 284 -746q23 66 268 746h256l-417 -1059q-44 -109 -68 -161.5t-51 -90.5q-100 -147 -309 -147q-48 0 -101.5 10.5t-85.5 28.5z" />
    <glyph glyph-name="z" unicode="z" horiz-adv-x="1032" 
d="M967 0h-914v139q36 42 584 672h-545v207h860v-152q-397 -460 -583 -659h598v-207z" />
    <glyph glyph-name="braceleft" unicode="{" horiz-adv-x="821" 
d="M715 -348h-94q-74 0 -128 8.5t-101 31.5t-76 61.5t-45.5 100t-16.5 146.5v219q0 116 -23.5 178.5t-65 85t-120.5 31.5v139q124 17 166.5 75t42.5 218v228q0 83 17.5 144.5t47.5 100t77 61.5t99.5 31.5t122.5 8.5h97v-138h-78q-43 0 -73.5 -8t-59.5 -30t-43.5 -67.5
t-14.5 -113.5v-219q0 -59 -4.5 -105t-11.5 -79.5t-22 -59t-27.5 -41.5t-37 -30.5t-43 -22.5t-52.5 -20q69 -16 110 -49.5t64.5 -110.5t23.5 -205v-217q0 -66 14.5 -110t42.5 -66t59 -30.5t73 -8.5h80v-137z" />
    <glyph glyph-name="bar" unicode="|" horiz-adv-x="546" 
d="M360 -377h-190v1944h190v-1944z" />
    <glyph glyph-name="braceright" unicode="}" horiz-adv-x="716" 
d="M20 1528h80q94 0 157.5 -14.5t112.5 -52.5t72 -107.5t23 -175.5v-224q0 -88 10.5 -143t37.5 -87t62 -45.5t95 -19.5v-139q-124 -17 -164.5 -74t-40.5 -219v-231q0 -70 -11.5 -124t-34.5 -91.5t-53.5 -63.5t-73 -40.5t-88.5 -20.5t-104 -6h-80v137h64q43 0 73.5 8t59 30
t43 67.5t14.5 113.5v223q0 83 9.5 141t22.5 92.5t42.5 60t53.5 37t71 28.5q-69 16 -110 49.5t-65 110t-24 204.5v222q0 66 -14.5 111t-43 67t-59.5 30.5t-73 8.5h-64v137z" />
    <glyph glyph-name="asciitilde" unicode="~" horiz-adv-x="1433" 
d="M276 451l-110 96q84 117 165.5 169t168.5 52q49 0 99.5 -17.5t141.5 -68.5q118 -66 193 -66q63 0 112 34.5t107 121.5l115 -88q-76 -116 -153 -173.5t-181 -57.5q-110 0 -238 73q-146 80 -200 80q-56 0 -108.5 -36.5t-111.5 -118.5z" />
    <glyph glyph-name="exclamdown" unicode="&#xa1;" horiz-adv-x="610" 
d="M178 565h187q43 -754 43 -946h-273q0 151 43 946zM117 903q0 68 43.5 110t109.5 42q65 0 109.5 -41.5t44.5 -110.5q0 -77 -46.5 -117.5t-107.5 -40.5t-107 40.5t-46 117.5z" />
    <glyph glyph-name="cent" unicode="&#xa2;" horiz-adv-x="1110" 
d="M707 -225h-113v217q-199 18 -330 154.5t-131 355.5q0 209 128.5 351t332.5 167v209h113v-207q86 -5 161 -30t113 -66v-224h-8q-44 49 -117 79.5t-149 35.5v-627q161 9 270 115h8v-215q-115 -87 -278 -100v-215zM369 508q0 -124 62 -203.5t163 -103.5v608
q-100 -23 -162.5 -101t-62.5 -200z" />
    <glyph glyph-name="sterling" unicode="&#xa3;" horiz-adv-x="1243" 
d="M1159 0h-1034v160q148 75 206 143t58 150q0 59 -22 110h-207v158h157q-29 83 -42 141t-13 123q0 183 132 294.5t364 111.5q101 0 196.5 -25.5t153.5 -71.5v-245h-8q-65 57 -150 88.5t-170 31.5q-127 0 -193.5 -53t-66.5 -155q0 -83 53 -240h392v-158h-353q15 -64 15 -108
q0 -134 -148 -234h680v-221z" />
    <glyph glyph-name="currency" unicode="&#xa4;" horiz-adv-x="1284" 
d="M367 659q0 -127 73.5 -201.5t192.5 -74.5q112 0 186 76t74 196q0 122 -73.5 198.5t-186.5 76.5q-116 0 -191 -76t-75 -195zM252 150l-113 116l135 137q-81 102 -81 250q0 141 79 250l-135 137l119 117l133 -137q102 74 244 74q137 0 241 -72l132 135l114 -115l-133 -139
q80 -100 80 -246q0 -144 -78 -249l135 -142l-120 -114l-130 139q-107 -74 -251 -74q-138 0 -236 64z" />
    <glyph glyph-name="yen" unicode="&#xa5;" horiz-adv-x="1343" 
d="M791 0h-244v408h-363v118h363v19l-86 139h-277v119h205l-344 559h291q253 -420 338 -586q73 130 350 586h276l-350 -559h207v-119h-278l-88 -139v-19h366v-118h-366v-408z" />
    <glyph glyph-name="brokenbar" unicode="&#xa6;" horiz-adv-x="546" 
d="M360 791h-190v673h190v-673zM360 -193h-190v674h190v-674z" />
    <glyph glyph-name="section" unicode="&#xa7;" horiz-adv-x="1060" 
d="M90 -135v231h8q89 -82 195 -119.5t201 -37.5q190 0 190 122q0 40 -22 69.5t-84 64.5q-32 18 -152 80t-184 102q-79 51 -115.5 111t-36.5 137q0 91 55.5 159.5t157.5 100.5q-74 54 -108.5 115t-34.5 147q0 62 23 117.5t70 102.5t128.5 75t187.5 28q103 0 196.5 -28.5
t149.5 -79.5v-223h-8q-70 67 -159.5 103t-174.5 36q-174 0 -174 -121q0 -41 23.5 -73.5t87.5 -65.5q29 -15 108 -53.5t135 -69.5t105 -66q69 -51 96 -105.5t27 -131.5q0 -85 -54 -156.5t-147 -103.5q86 -56 119 -115.5t33 -132.5q0 -164 -119 -254t-326 -90q-107 0 -213 31
t-184 94zM641 416q45 12 82 48.5t37 88.5q0 70 -76 121q-80 55 -248 125q-43 -2 -84 -41t-41 -90q0 -42 21.5 -71.5t70.5 -59.5q168 -96 238 -121z" />
    <glyph glyph-name="dieresis" unicode="&#xa8;" horiz-adv-x="430" 
d="M156 1346q0 -55 -34.5 -90t-88.5 -35q-52 0 -88.5 34.5t-36.5 90.5q0 62 38 95.5t87 33.5t86 -33.5t37 -95.5zM522 1346q0 -55 -35.5 -90t-89.5 -35q-52 0 -87.5 34.5t-35.5 90.5q0 62 37 95.5t86 33.5q48 0 86.5 -34t38.5 -95z" />
    <glyph glyph-name="copyright" unicode="&#xa9;" horiz-adv-x="1708" 
d="M1597 707q0 -206 -96 -374.5t-266.5 -265t-380.5 -96.5q-157 0 -295.5 57t-236.5 155t-154.5 234t-56.5 290t57 291t155 234.5t235.5 154.5t293.5 57q215 0 386 -96.5t265 -264.5t94 -376zM1513 707q0 139 -50 261.5t-136.5 210t-210 138.5t-264.5 51q-185 0 -335.5 -87
t-235 -238.5t-84.5 -335.5q0 -185 84 -335.5t235 -237.5t338 -87t338.5 86.5t236 237.5t84.5 336zM1163 344q-116 -90 -293 -90q-190 0 -321 125t-131 330q0 202 133.5 332t333.5 130q85 0 160.5 -23.5t113.5 -64.5v-180h-8q-44 51 -115.5 79t-146.5 28q-120 0 -206.5 -79
t-86.5 -218q0 -141 86.5 -220t210.5 -79q159 0 262 100h8v-170z" />
    <glyph glyph-name="ordfeminine" unicode="&#xaa;" horiz-adv-x="757" 
d="M741 604q-31 -16 -94 -16q-56 0 -95.5 21.5t-51.5 60.5q-69 -90 -201 -90q-104 0 -167.5 55.5t-63.5 144.5q0 73 36 119t89 66q77 26 206 26q47 0 82 -6v12q0 52 -18 76q-27 37 -107 37q-54 0 -117.5 -17t-109.5 -57h-8v156q105 76 266 76q123 0 191 -54q35 -27 51 -71
t16 -121q0 -24 -1 -80t-1 -82q0 -74 6 -90q12 -27 51 -27q23 0 41 9v-148zM483 780q-2 23 -2 78q-36 8 -78 8q-93 -4 -131 -22q-34 -18 -34 -62q0 -73 96 -73t149 71z" />
    <glyph glyph-name="guillemotleft" unicode="&#xab;" horiz-adv-x="989" 
d="M541 139h-211l-285 377l283 377h211l-279 -377zM932 139h-211l-285 377l283 377h211l-279 -377z" />
    <glyph glyph-name="logicalnot" unicode="&#xac;" horiz-adv-x="1433" 
d="M1233 72h-156v454h-909v156h1065v-610z" />
    <glyph glyph-name="uni00AD" unicode="&#xad;" horiz-adv-x="724" 
d="M586 465h-504v192h504v-192z" />
    <glyph glyph-name="registered" unicode="&#xae;" horiz-adv-x="1708" 
d="M1597 707q0 -206 -96 -374.5t-266.5 -265t-380.5 -96.5q-157 0 -295.5 57t-236.5 155t-154.5 234t-56.5 290t57 291t155 234.5t235.5 154.5t293.5 57q215 0 386 -96.5t265 -264.5t94 -376zM1513 707q0 139 -50 261.5t-136.5 210t-210 138.5t-264.5 51q-185 0 -335.5 -87
t-235 -238.5t-84.5 -335.5q0 -185 84 -335.5t235 -237.5t338 -87t338.5 86.5t236 237.5t84.5 336zM1276 254h-176l-209 362q-27 -4 -70 -4h-108v-358h-164v909h309q148 0 221 -30q69 -28 107.5 -89.5t38.5 -146.5q0 -90 -48 -153.5t-137 -96.5zM713 748h102q122 0 174 20
q72 31 72 119q0 45 -20 78.5t-60 46.5q-42 12 -147 12h-121v-276z" />
    <glyph glyph-name="macron" unicode="&#xaf;" horiz-adv-x="430" 
d="M520 1208h-612v164h612v-164z" />
    <glyph glyph-name="degree" unicode="&#xb0;" horiz-adv-x="661" 
d="M596 1178q0 -119 -81.5 -201t-199.5 -82t-197 80.5t-79 200.5q0 125 80 203.5t203 78.5q122 0 198 -77t76 -203zM487 1180q0 78 -48 127t-124 49q-77 0 -122.5 -50.5t-45.5 -129.5q0 -76 44 -128.5t126 -52.5q79 0 124.5 54t45.5 131z" />
    <glyph glyph-name="plusminus" unicode="&#xb1;" horiz-adv-x="1433" 
d="M797 291h-156v440h-457v156h455v436h158v-436h452v-156h-452v-440zM1249 0h-1065v154h1065v-154z" />
    <glyph glyph-name="twosuperior" unicode="&#xb2;" 
d="M715 819h-649v103q193 146 317 270q106 103 106 203q0 59 -37.5 94t-105.5 35q-142 0 -250 -117h-8v166q52 50 129 79t156 29q147 0 224 -70t77 -188q0 -138 -123 -268q-41 -41 -106 -96t-115 -88q117 2 385 2v-154z" />
    <glyph glyph-name="threesuperior" unicode="&#xb3;" 
d="M98 868v179h8q105 -89 242 -89q85 0 123.5 31.5t38.5 81.5q0 33 -21.5 58t-58.5 36q-62 15 -133 15h-35v141h39q88 0 129 20q55 25 55 91q0 43 -35.5 67.5t-93.5 24.5q-60 0 -122.5 -22.5t-108.5 -69.5h-8v161q47 39 119.5 63.5t146.5 24.5q145 0 217 -61t72 -168
q0 -65 -43 -116.5t-121 -75.5q194 -35 194 -199q0 -121 -94.5 -190.5t-253.5 -69.5q-65 0 -135 17t-121 50z" />
    <glyph glyph-name="acute" unicode="&#xb4;" horiz-adv-x="430" 
d="M135 1178h-192v8l260 334h272v-9z" />
    <glyph glyph-name="mu" unicode="&#xb5;" horiz-adv-x="1224" 
d="M385 -432h-238v1448h236v-547q0 -127 25 -182q19 -41 64 -65.5t108 -24.5q179 0 262 137v682h235v-1016h-227v141q-81 -155 -279 -155q-133 0 -186 69v-487z" />
    <glyph glyph-name="paragraph" unicode="&#xb6;" horiz-adv-x="1153" 
d="M688 -295h-96v750q-233 0 -368.5 130.5t-135.5 332.5q0 113 33.5 201.5t104.5 155t188.5 101.5t277.5 35h316v-1706h-97v1616h-223v-1616z" />
    <glyph glyph-name="periodcentered" unicode="&#xb7;" horiz-adv-x="489" 
d="M399 528q0 -68 -43 -110.5t-110 -42.5q-64 0 -108 41.5t-44 111.5q0 77 46 116.5t106 39.5q61 0 107 -39.5t46 -116.5z" />
    <glyph glyph-name="cedilla" unicode="&#xb8;" horiz-adv-x="430" 
d="M2 -487v133h8q59 -37 129 -37q113 0 113 80q0 37 -29 58.5t-82 21.5q-43 0 -78 -15l-6 4l76 262h129l-45 -139h8q91 0 145 -48t54 -136q0 -106 -71 -163.5t-201 -57.5q-38 0 -81.5 11t-68.5 26z" />
    <glyph glyph-name="onesuperior" unicode="&#xb9;" 
d="M524 819h-176v670l-186 -96v159l225 123h137v-856z" />
    <glyph glyph-name="ordmasculine" unicode="&#xba;" horiz-adv-x="811" 
d="M754 932q0 -70 -20.5 -128t-54.5 -98t-80 -68t-96.5 -41t-103.5 -13q-65 0 -125 20.5t-110.5 61t-80.5 108.5t-30 154q0 81 32 148t84 108t113.5 63.5t123.5 22.5q69 0 130 -20.5t110.5 -60.5t78.5 -106.5t29 -150.5zM584 930q0 94 -51.5 140t-131.5 46q-72 0 -124 -48.5
t-52 -139.5q0 -94 53 -141.5t125 -47.5q74 0 127.5 49t53.5 142z" />
    <glyph glyph-name="guillemotright" unicode="&#xbb;" horiz-adv-x="989" 
d="M449 893h210l285 -377l-282 -377h-211l278 377zM57 893h211l285 -377l-283 -377h-211l279 377z" />
    <glyph glyph-name="onequarter" unicode="&#xbc;" horiz-adv-x="1785" 
d="M567 -25h-133l690 1422h131zM516 518h-176v670l-186 -96v159l225 123h137v-856zM1475 0h-170v203h-404v106l428 553h146v-524h137v-135h-137v-203zM1305 338q0 152 6 305q-77 -109 -236 -305h230z" />
    <glyph glyph-name="onehalf" unicode="&#xbd;" horiz-adv-x="1785" 
d="M522 -25h-133l690 1422h131zM485 518h-176v670l-186 -96v159l225 123h137v-856zM1628 0h-649v102q189 143 317 271q107 104 107 202q0 60 -37.5 95t-105.5 35q-142 0 -250 -117h-9v166q52 50 129 79t156 29q147 0 224 -70t77 -188q0 -138 -123 -268q-41 -41 -106 -96
t-115 -88q117 2 385 2v-154z" />
    <glyph glyph-name="threequarters" unicode="&#xbe;" horiz-adv-x="1785" 
d="M641 -25h-133l690 1422h131zM111 567v178h8q104 -88 241 -88q85 0 123.5 31.5t38.5 81.5q0 33 -21.5 58t-58.5 36q-62 15 -133 15h-35v141h39q88 0 129 20q56 26 56 90q0 44 -35.5 68.5t-93.5 24.5q-60 0 -123 -22.5t-109 -70.5h-8v162q47 39 119.5 63.5t146.5 24.5
q145 0 217 -61t72 -168q0 -66 -43 -117.5t-121 -75.5q195 -35 195 -198q0 -121 -94.5 -190.5t-253.5 -69.5q-65 0 -135 17t-121 50zM1526 0h-170v203h-404v106l428 553h146v-524h137v-135h-137v-203zM1356 338q0 152 6 305q-77 -109 -236 -305h230z" />
    <glyph glyph-name="questiondown" unicode="&#xbf;" horiz-adv-x="884" 
d="M412 571h188q0 -60 -3 -94.5t-14.5 -79t-38.5 -80.5t-71 -71q-100 -77 -143 -137t-43 -127q0 -172 215 -172q72 0 151 30t146 90h8v-221q-62 -57 -163 -89t-189 -32q-205 0 -314.5 88t-109.5 261q0 107 54.5 195t203.5 190q71 50 96 107t27 142zM354 903q0 68 43 110
t109 42q65 0 109 -41.5t44 -110.5q0 -77 -46 -117.5t-107 -40.5t-106.5 40.5t-45.5 117.5z" />
    <glyph glyph-name="Agrave" unicode="&#xc0;" horiz-adv-x="1372" 
d="M274 0h-266l559 1411h240l555 -1411h-275l-137 360h-536zM487 580h387q-77 197 -192 512q-49 -141 -195 -512zM901 1536h-219l-397 268v8h311l305 -268v-8z" />
    <glyph glyph-name="Aacute" unicode="&#xc1;" horiz-adv-x="1372" 
d="M274 0h-266l559 1411h240l555 -1411h-275l-137 360h-536zM487 580h387q-77 197 -192 512q-49 -141 -195 -512zM696 1536h-221v8l305 268h312v-8z" />
    <glyph glyph-name="Acircumflex" unicode="&#xc2;" horiz-adv-x="1372" 
d="M274 0h-266l559 1411h240l555 -1411h-275l-137 360h-536zM487 580h387q-77 197 -192 512q-49 -141 -195 -512zM526 1536h-211v8l303 271h146l299 -271v-8h-207l-170 119z" />
    <glyph glyph-name="Atilde" unicode="&#xc3;" horiz-adv-x="1372" 
d="M274 0h-266l559 1411h240l555 -1411h-275l-137 360h-536zM487 580h387q-77 197 -192 512q-49 -141 -195 -512zM479 1536h-151q7 136 66.5 205t154.5 69q63 0 162 -57q72 -43 118 -43q32 0 48.5 22.5t23.5 82.5h150q-9 -137 -67 -208t-144 -71q-44 0 -78.5 10t-89.5 39
q-94 51 -125 51q-29 0 -45.5 -22.5t-22.5 -77.5z" />
    <glyph glyph-name="Adieresis" unicode="&#xc4;" horiz-adv-x="1372" 
d="M274 0h-266l559 1411h240l555 -1411h-275l-137 360h-536zM487 580h387q-77 197 -192 512q-49 -141 -195 -512zM616 1663q0 -55 -34 -89t-88 -34q-53 0 -89 34t-36 89q0 63 38 97t87 34t85.5 -34t36.5 -97zM999 1663q0 -55 -35 -89t-90 -34q-52 0 -87 33.5t-35 89.5
q0 63 36.5 97t85.5 34t87 -34t38 -97z" />
    <glyph glyph-name="Aring" unicode="&#xc5;" horiz-adv-x="1372" 
d="M274 0h-266l559 1411h240l555 -1411h-275l-137 360h-536zM487 580h387q-77 197 -192 512q-49 -141 -195 -512zM897 1673q0 -85 -60.5 -142.5t-148.5 -57.5t-148.5 57t-60.5 143q0 88 61 144.5t152 56.5t148 -56t57 -145zM803 1675q0 51 -32 83t-83 32q-53 0 -84 -33
t-31 -84q0 -49 31 -81.5t88 -32.5q51 0 81 33.5t30 82.5z" />
    <glyph glyph-name="AE" unicode="&#xc6;" horiz-adv-x="2025" 
d="M305 0h-305l911 1411h1006v-227h-635v-342h594v-224h-594v-391h668v-227h-920v375h-479zM664 592h366v577q-98 -165 -366 -577z" />
    <glyph glyph-name="Ccedilla" unicode="&#xc7;" horiz-adv-x="1396" 
d="M573 -502v137h9q61 -38 139 -38q106 0 106 84q0 37 -29.5 59t-82.5 22q-49 0 -80 -16l-6 4l67 234q-269 44 -434.5 237t-165.5 486q0 138 41.5 257t113.5 205.5t168.5 149t207.5 93t229 30.5q129 0 247.5 -34t180.5 -91v-260h-8q-70 72 -184 113.5t-226 41.5
q-104 0 -196 -32.5t-163.5 -93t-113 -156.5t-41.5 -215q0 -128 40 -227t110.5 -160.5t162 -93t199.5 -31.5q239 0 418 162h8v-254q-66 -59 -193 -99.5t-257 -40.5q-3 0 -9.5 1t-9.5 1l-30 -96h8q94 0 148 -53t54 -143q0 -104 -72 -162t-204 -58q-39 0 -83 11t-69 26z" />
    <glyph glyph-name="Egrave" unicode="&#xc8;" horiz-adv-x="1159" 
d="M1083 0h-919v1411h887v-227h-635v-340h594v-226h-594v-391h667v-227zM817 1536h-219l-397 268v8h311l305 -268v-8z" />
    <glyph glyph-name="Eacute" unicode="&#xc9;" horiz-adv-x="1159" 
d="M1083 0h-919v1411h887v-227h-635v-340h594v-226h-594v-391h667v-227zM653 1536h-221v8l305 268h312v-8z" />
    <glyph glyph-name="Ecircumflex" unicode="&#xca;" horiz-adv-x="1159" 
d="M1083 0h-919v1411h887v-227h-635v-340h594v-226h-594v-391h667v-227zM453 1536h-211v8l303 271h145l299 -271v-8h-207l-170 119z" />
    <glyph glyph-name="Edieresis" unicode="&#xcb;" horiz-adv-x="1159" 
d="M1083 0h-919v1411h887v-227h-635v-340h594v-226h-594v-391h667v-227zM557 1663q0 -55 -34.5 -89t-88.5 -34q-53 0 -89 34t-36 89q0 63 38 97t87 34t86 -34t37 -97zM940 1663q0 -55 -35 -89t-90 -34q-52 0 -87.5 33.5t-35.5 89.5q0 63 37 97t86 34t87 -34t38 -97z" />
    <glyph glyph-name="Igrave" unicode="&#xcc;" horiz-adv-x="593" 
d="M367 0h-252v1411h252v-1411zM469 1536h-219l-397 268v8h311l305 -268v-8z" />
    <glyph glyph-name="Iacute" unicode="&#xcd;" horiz-adv-x="593" 
d="M442 0h-252v1411h252v-1411zM328 1536h-222v8l306 268h311v-8z" />
    <glyph glyph-name="Icircumflex" unicode="&#xce;" horiz-adv-x="593" 
d="M393 0h-252v1411h252v-1411zM100 1536h-211v8l304 271h145l299 -271v-8h-207l-170 119z" />
    <glyph glyph-name="Idieresis" unicode="&#xcf;" horiz-adv-x="593" 
d="M408 0h-252v1411h252v-1411zM209 1663q0 -55 -34.5 -89t-88.5 -34q-53 0 -89 34t-36 89q0 63 38 97t87 34t86 -34t37 -97zM592 1663q0 -55 -35 -89t-90 -34q-52 0 -87.5 33.5t-35.5 89.5q0 63 37 97t86 34t87 -34t38 -97z" />
    <glyph glyph-name="Eth" unicode="&#xd0;" horiz-adv-x="1503" 
d="M164 0v637h-144v188h144v586h393q255 0 420 -51q432 -134 432 -635q0 -506 -436 -659q-185 -66 -463 -66h-346zM414 227h141q125 0 227.5 21.5t163.5 56.5q209 122 209 414q0 139 -65.5 250t-186.5 161q-130 54 -323 54h-166v-359h381v-188h-381v-410z" />
    <glyph glyph-name="Ntilde" unicode="&#xd1;" horiz-adv-x="1495" 
d="M410 0h-246v1411h270q367 -510 477.5 -669t184.5 -283q-9 340 -9 952h244v-1411h-229q-554 808 -699 1044q7 -326 7 -1044zM549 1536h-152q7 136 66.5 205t154.5 69q63 0 162 -57q72 -43 119 -43q32 0 48.5 22.5t23.5 82.5h149q-9 -137 -67 -208t-144 -71q-44 0 -78.5 10
t-89.5 39q-94 51 -125 51q-29 0 -45 -22.5t-22 -77.5z" />
    <glyph glyph-name="Ograve" unicode="&#xd2;" horiz-adv-x="1652" 
d="M1556 707q0 -156 -55 -292.5t-151.5 -234t-233 -153.5t-293.5 -56q-156 0 -291.5 55.5t-231 152.5t-150 233.5t-54.5 294.5q0 206 97 374.5t265.5 264.5t372.5 96q214 0 379.5 -93t255.5 -260t90 -382zM1303 705q0 219 -130.5 363t-343.5 144q-206 0 -341.5 -144
t-135.5 -363q0 -227 136.5 -365.5t342.5 -138.5q211 0 341.5 143t130.5 361zM1032 1536h-219l-397 268v8h311l305 -268v-8z" />
    <glyph glyph-name="Oacute" unicode="&#xd3;" horiz-adv-x="1652" 
d="M1556 707q0 -156 -55 -292.5t-151.5 -234t-233 -153.5t-293.5 -56q-156 0 -291.5 55.5t-231 152.5t-150 233.5t-54.5 294.5q0 206 97 374.5t265.5 264.5t372.5 96q214 0 379.5 -93t255.5 -260t90 -382zM1303 705q0 219 -130.5 363t-343.5 144q-206 0 -341.5 -144
t-135.5 -363q0 -227 136.5 -365.5t342.5 -138.5q211 0 341.5 143t130.5 361zM827 1536h-221v8l305 268h312v-8z" />
    <glyph glyph-name="Ocircumflex" unicode="&#xd4;" horiz-adv-x="1652" 
d="M1556 707q0 -156 -55 -292.5t-151.5 -234t-233 -153.5t-293.5 -56q-156 0 -291.5 55.5t-231 152.5t-150 233.5t-54.5 294.5q0 206 97 374.5t265.5 264.5t372.5 96q214 0 379.5 -93t255.5 -260t90 -382zM1303 705q0 219 -130.5 363t-343.5 144q-206 0 -341.5 -144
t-135.5 -363q0 -227 136.5 -365.5t342.5 -138.5q211 0 341.5 143t130.5 361zM678 1536h-211v8l303 271h145l299 -271v-8h-206l-170 119z" />
    <glyph glyph-name="Otilde" unicode="&#xd5;" horiz-adv-x="1652" 
d="M1556 707q0 -156 -55 -292.5t-151.5 -234t-233 -153.5t-293.5 -56q-156 0 -291.5 55.5t-231 152.5t-150 233.5t-54.5 294.5q0 206 97 374.5t265.5 264.5t372.5 96q214 0 379.5 -93t255.5 -260t90 -382zM1303 705q0 219 -130.5 363t-343.5 144q-206 0 -341.5 -144
t-135.5 -363q0 -227 136.5 -365.5t342.5 -138.5q211 0 341.5 143t130.5 361zM623 1536h-152q7 136 66.5 205t154.5 69q63 0 162 -57q72 -43 119 -43q32 0 48 22.5t23 82.5h150q-9 -137 -67 -208t-144 -71q-44 0 -78.5 10t-89.5 39q-94 51 -125 51q-29 0 -45 -22.5t-22 -77.5
z" />
    <glyph glyph-name="Odieresis" unicode="&#xd6;" horiz-adv-x="1652" 
d="M1556 707q0 -156 -55 -292.5t-151.5 -234t-233 -153.5t-293.5 -56q-156 0 -291.5 55.5t-231 152.5t-150 233.5t-54.5 294.5q0 206 97 374.5t265.5 264.5t372.5 96q214 0 379.5 -93t255.5 -260t90 -382zM1303 705q0 219 -130.5 363t-343.5 144q-206 0 -341.5 -144
t-135.5 -363q0 -227 136.5 -365.5t342.5 -138.5q211 0 341.5 143t130.5 361zM764 1663q0 -55 -34.5 -89t-88.5 -34q-53 0 -89 34t-36 89q0 63 38 97t87 34t86 -34t37 -97zM1147 1663q0 -55 -35 -89t-90 -34q-52 0 -87.5 33.5t-35.5 89.5q0 63 37 97t86 34t87 -34t38 -97z
" />
    <glyph glyph-name="multiply" unicode="&#xd7;" horiz-adv-x="1484" 
d="M383 152l-109 114l357 357l-361 356l117 121l356 -361l359 359l110 -115l-358 -356l354 -353l-112 -118l-357 352z" />
    <glyph glyph-name="Oslash" unicode="&#xd8;" horiz-adv-x="1652" 
d="M397 -86h-164l134 207q-128 100 -199.5 251.5t-71.5 334.5q0 206 97 374.5t265.5 264.5t372.5 96q184 0 338 -74l93 143h170l-142 -217q127 -98 196.5 -249t69.5 -338q0 -156 -55 -292.5t-151.5 -234t-233 -153.5t-293.5 -56q-188 0 -340 76zM1303 705q0 235 -148 380
l-543 -839q98 -49 219 -49q140 0 248 67t166 182.5t58 258.5zM352 705q0 -237 148 -379l540 843q-94 48 -211 48q-205 0 -341 -146t-136 -366z" />
    <glyph glyph-name="Ugrave" unicode="&#xd9;" horiz-adv-x="1492" 
d="M1339 1411v-799q0 -149 -18 -238t-59 -157q-66 -108 -203 -177t-316 -69q-180 0 -319.5 65t-204.5 183q-65 122 -65 389v803h252v-770q0 -73 2 -116t14 -98t35 -95q34 -63 112.5 -98t182.5 -35q195 0 284 129q60 86 60 303v780h243zM956 1536h-219l-397 268v8h311
l305 -268v-8z" />
    <glyph glyph-name="Uacute" unicode="&#xda;" horiz-adv-x="1492" 
d="M1339 1411v-799q0 -149 -18 -238t-59 -157q-66 -108 -203 -177t-316 -69q-180 0 -319.5 65t-204.5 183q-65 122 -65 389v803h252v-770q0 -73 2 -116t14 -98t35 -95q34 -63 112.5 -98t182.5 -35q195 0 284 129q60 86 60 303v780h243zM770 1536h-221v8l305 268h311v-8z" />
    <glyph glyph-name="Ucircumflex" unicode="&#xdb;" horiz-adv-x="1492" 
d="M1339 1411v-799q0 -149 -18 -238t-59 -157q-66 -108 -203 -177t-316 -69q-180 0 -319.5 65t-204.5 183q-65 122 -65 389v803h252v-770q0 -73 2 -116t14 -98t35 -95q34 -63 112.5 -98t182.5 -35q195 0 284 129q60 86 60 303v780h243zM590 1536h-211v8l303 271h145
l299 -271v-8h-206l-170 119z" />
    <glyph glyph-name="Udieresis" unicode="&#xdc;" horiz-adv-x="1492" 
d="M1339 1411v-799q0 -149 -18 -238t-59 -157q-66 -108 -203 -177t-316 -69q-180 0 -319.5 65t-204.5 183q-65 122 -65 389v803h252v-770q0 -73 2 -116t14 -98t35 -95q34 -63 112.5 -98t182.5 -35q195 0 284 129q60 86 60 303v780h243zM680 1663q0 -55 -34.5 -89t-88.5 -34
q-53 0 -89 34t-36 89q0 63 38 97t87 34t86 -34t37 -97zM1063 1663q0 -55 -35 -89t-90 -34q-52 0 -87.5 33.5t-35.5 89.5q0 63 37 97t86 34t87 -34t38 -97z" />
    <glyph glyph-name="Yacute" unicode="&#xdd;" horiz-adv-x="1333" 
d="M788 0h-253v557l-529 854h291q280 -452 369 -625q135 237 381 625h280l-539 -854v-557zM713 1536h-221v8l305 268h311v-8z" />
    <glyph glyph-name="Thorn" unicode="&#xde;" horiz-adv-x="1280" 
d="M416 0h-252v1411h252v-227h231q196 0 326 -49q115 -42 179.5 -145.5t64.5 -254.5q0 -154 -68.5 -266t-204.5 -158q-130 -45 -307 -45h-221v-266zM416 477h209q156 0 233 41q103 54 103 203q0 150 -105 201q-81 41 -223 41h-217v-486z" />
    <glyph glyph-name="germandbls" unicode="&#xdf;" horiz-adv-x="1271" 
d="M387 0h-235v940q0 251 73 371q60 96 168 150.5t248 54.5q114 0 200.5 -33.5t135 -89.5t71.5 -119.5t23 -132.5q0 -137 -58 -229t-194 -142q168 -9 266.5 -108.5t98.5 -280.5t-111.5 -294.5t-302.5 -113.5q-161 0 -270 64v217h8q97 -72 235 -72q97 0 149 55t52 156
q0 133 -85.5 190.5t-274.5 57.5h-31v209h29q120 0 186 66t66 188q0 93 -53.5 150t-147.5 57q-60 0 -112 -21.5t-83 -62.5q-29 -39 -40 -96t-11 -164v-967z" />
    <glyph glyph-name="agrave" unicode="&#xe0;" horiz-adv-x="1116" 
d="M1112 12q-51 -28 -139 -28q-84 0 -138 34.5t-73 96.5q-99 -142 -313 -142q-163 0 -263 88t-100 228q0 58 17.5 106.5t48 82t65.5 56t76 37.5q75 26 143 34.5t170 8.5q70 0 125 -10v47q0 81 -41 125q-55 58 -172 58q-76 0 -174 -28t-172 -87h-8v207q82 62 190.5 91.5
t212.5 29.5q192 0 289 -84q55 -47 81 -120t26 -192q0 -38 -1 -135.5t-1 -136.5q0 -112 10 -141q16 -45 69 -45q43 0 72 14v-195zM733 272q-2 33 -2 156q-58 10 -121 10q-116 0 -180 -18q-106 -30 -106 -125q0 -61 49 -96t129 -35q68 0 129.5 27.5t101.5 80.5zM719 1178h-193
l-354 333v9h285l262 -334v-8z" />
    <glyph glyph-name="aacute" unicode="&#xe1;" horiz-adv-x="1116" 
d="M1112 12q-51 -28 -139 -28q-84 0 -138 34.5t-73 96.5q-99 -142 -313 -142q-163 0 -263 88t-100 228q0 58 17.5 106.5t48 82t65.5 56t76 37.5q75 26 143 34.5t170 8.5q70 0 125 -10v47q0 81 -41 125q-55 58 -172 58q-76 0 -174 -28t-172 -87h-8v207q82 62 190.5 91.5
t212.5 29.5q192 0 289 -84q55 -47 81 -120t26 -192q0 -38 -1 -135.5t-1 -136.5q0 -112 10 -141q16 -45 69 -45q43 0 72 14v-195zM733 272q-2 33 -2 156q-58 10 -121 10q-116 0 -180 -18q-106 -30 -106 -125q0 -61 49 -96t129 -35q68 0 129.5 27.5t101.5 80.5zM590 1178h-193
v8l260 334h273v-9z" />
    <glyph glyph-name="acircumflex" unicode="&#xe2;" horiz-adv-x="1116" 
d="M1112 12q-51 -28 -139 -28q-84 0 -138 34.5t-73 96.5q-99 -142 -313 -142q-163 0 -263 88t-100 228q0 58 17.5 106.5t48 82t65.5 56t76 37.5q75 26 143 34.5t170 8.5q70 0 125 -10v47q0 81 -41 125q-55 58 -172 58q-76 0 -174 -28t-172 -87h-8v207q82 62 190.5 91.5
t212.5 29.5q192 0 289 -84q55 -47 81 -120t26 -192q0 -38 -1 -135.5t-1 -136.5q0 -112 10 -141q16 -45 69 -45q43 0 72 14v-195zM733 272q-2 33 -2 156q-58 10 -121 10q-116 0 -180 -18q-106 -30 -106 -125q0 -61 49 -96t129 -35q68 0 129.5 27.5t101.5 80.5zM399 1178h-186
v8l276 327h132l278 -327v-8h-192l-158 151z" />
    <glyph glyph-name="atilde" unicode="&#xe3;" horiz-adv-x="1116" 
d="M1112 12q-51 -28 -139 -28q-84 0 -138 34.5t-73 96.5q-99 -142 -313 -142q-163 0 -263 88t-100 228q0 58 17.5 106.5t48 82t65.5 56t76 37.5q75 26 143 34.5t170 8.5q70 0 125 -10v47q0 81 -41 125q-55 58 -172 58q-76 0 -174 -28t-172 -87h-8v207q82 62 190.5 91.5
t212.5 29.5q192 0 289 -84q55 -47 81 -120t26 -192q0 -38 -1 -135.5t-1 -136.5q0 -112 10 -141q16 -45 69 -45q43 0 72 14v-195zM733 272q-2 33 -2 156q-58 10 -121 10q-116 0 -180 -18q-106 -30 -106 -125q0 -61 49 -96t129 -35q68 0 129.5 27.5t101.5 80.5zM348 1206h-149
q9 137 66.5 209t146.5 72q65 0 157 -57q74 -46 111 -46q31 0 46.5 23t21.5 84h147q-9 -139 -65 -213t-138 -74q-42 0 -74 9.5t-88 39.5q-12 7 -31.5 17t-28.5 15t-21 10.5t-20 7.5t-15 2q-55 0 -66 -99z" />
    <glyph glyph-name="adieresis" unicode="&#xe4;" horiz-adv-x="1116" 
d="M1112 12q-51 -28 -139 -28q-84 0 -138 34.5t-73 96.5q-99 -142 -313 -142q-163 0 -263 88t-100 228q0 58 17.5 106.5t48 82t65.5 56t76 37.5q75 26 143 34.5t170 8.5q70 0 125 -10v47q0 81 -41 125q-55 58 -172 58q-76 0 -174 -28t-172 -87h-8v207q82 62 190.5 91.5
t212.5 29.5q192 0 289 -84q55 -47 81 -120t26 -192q0 -38 -1 -135.5t-1 -136.5q0 -112 10 -141q16 -45 69 -45q43 0 72 14v-195zM733 272q-2 33 -2 156q-58 10 -121 10q-116 0 -180 -18q-106 -30 -106 -125q0 -61 49 -96t129 -35q68 0 129.5 27.5t101.5 80.5zM500 1346
q0 -55 -34.5 -90t-88.5 -35q-52 0 -88.5 34.5t-36.5 90.5q0 62 38 95.5t87 33.5t86 -33.5t37 -95.5zM866 1346q0 -55 -35.5 -90t-89.5 -35q-52 0 -87.5 34.5t-35.5 90.5q0 62 37 95.5t86 33.5q48 0 86.5 -34t38.5 -95z" />
    <glyph glyph-name="aring" unicode="&#xe5;" horiz-adv-x="1116" 
d="M1112 12q-51 -28 -139 -28q-84 0 -138 34.5t-73 96.5q-99 -142 -313 -142q-163 0 -263 88t-100 228q0 58 17.5 106.5t48 82t65.5 56t76 37.5q75 26 143 34.5t170 8.5q70 0 125 -10v47q0 81 -41 125q-55 58 -172 58q-76 0 -174 -28t-172 -87h-8v207q82 62 190.5 91.5
t212.5 29.5q192 0 289 -84q55 -47 81 -120t26 -192q0 -38 -1 -135.5t-1 -136.5q0 -112 10 -141q16 -45 69 -45q43 0 72 14v-195zM733 272q-2 33 -2 156q-58 10 -121 10q-116 0 -180 -18q-106 -30 -106 -125q0 -61 49 -96t129 -35q68 0 129.5 27.5t101.5 80.5zM768 1370
q0 -86 -62 -145.5t-151 -59.5t-150 58.5t-61 146.5q0 91 61.5 149t153.5 58q94 0 151.5 -57.5t57.5 -149.5zM674 1372q0 55 -33 89t-86 34t-85 -35t-32 -90q0 -50 32 -85.5t89 -35.5q52 0 83.5 35.5t31.5 87.5z" />
    <glyph glyph-name="ae" unicode="&#xe6;" horiz-adv-x="1775" 
d="M1669 90q-67 -55 -176 -86t-223 -31q-136 0 -242 44.5t-176 123.5q-153 -168 -406 -168q-162 0 -261 88t-99 228q0 107 55 179.5t140 102.5q71 26 145.5 34.5t179.5 8.5q63 0 129 -12v45q0 83 -37 129q-49 58 -178 58q-80 0 -173.5 -27t-168.5 -88h-8v209
q167 119 391 119q250 0 330 -146q58 69 154 107.5t194 38.5q225 0 342.5 -126t122.5 -354q0 -71 -8 -123h-738q7 -119 103 -190.5t237 -71.5q205 0 363 123h8v-215zM961 614h514v15q0 109 -67 167t-177 58q-59 0 -115 -23.5t-101 -80t-54 -136.5zM766 283q-20 52 -27 145
q-41 10 -129 10q-122 0 -194 -22q-43 -14 -67.5 -44t-24.5 -73q0 -64 47 -99.5t127 -35.5q70 0 148.5 33.5t119.5 85.5z" />
    <glyph glyph-name="ccedilla" unicode="&#xe7;" horiz-adv-x="1042" 
d="M385 -487v133h8q59 -37 129 -37q113 0 113 80q0 37 -29 58.5t-82 21.5q-44 0 -78 -15l-6 4l66 228q-185 37 -302.5 173t-117.5 345q0 237 158.5 390t400.5 153q99 0 190.5 -27t135.5 -74v-233h-8q-52 59 -136.5 91t-173.5 32q-88 0 -161 -36t-119.5 -111.5t-46.5 -178.5
q0 -153 96 -240.5t235 -87.5q192 0 308 119h8v-223q-139 -105 -344 -105l-29 -92h8q91 0 145 -48t54 -136q0 -106 -71 -163.5t-201 -57.5q-38 0 -81.5 11t-68.5 26z" />
    <glyph glyph-name="egrave" unicode="&#xe8;" horiz-adv-x="1146" 
d="M1036 90q-66 -54 -175.5 -85.5t-221.5 -31.5q-252 0 -402.5 146t-150.5 385q0 125 43 229.5t115 172t165.5 104.5t196.5 37q225 0 344.5 -129.5t122.5 -358.5q0 -88 -6 -127h-739q18 -113 105.5 -181.5t234.5 -68.5q215 0 360 125h8v-217zM846 610v13q0 104 -68 165.5
t-178 61.5q-42 0 -84 -13.5t-81 -40.5t-67.5 -75.5t-37.5 -110.5h516zM780 1178h-192l-355 333v9h285l262 -334v-8z" />
    <glyph glyph-name="eacute" unicode="&#xe9;" horiz-adv-x="1146" 
d="M1036 90q-66 -54 -175.5 -85.5t-221.5 -31.5q-252 0 -402.5 146t-150.5 385q0 125 43 229.5t115 172t165.5 104.5t196.5 37q225 0 344.5 -129.5t122.5 -358.5q0 -88 -6 -127h-739q18 -113 105.5 -181.5t234.5 -68.5q215 0 360 125h8v-217zM846 610v13q0 104 -68 165.5
t-178 61.5q-42 0 -84 -13.5t-81 -40.5t-67.5 -75.5t-37.5 -110.5h516zM598 1178h-192v8l260 334h272v-9z" />
    <glyph glyph-name="ecircumflex" unicode="&#xea;" horiz-adv-x="1146" 
d="M1036 90q-66 -54 -175.5 -85.5t-221.5 -31.5q-252 0 -402.5 146t-150.5 385q0 125 43 229.5t115 172t165.5 104.5t196.5 37q225 0 344.5 -129.5t122.5 -358.5q0 -88 -6 -127h-739q18 -113 105.5 -181.5t234.5 -68.5q215 0 360 125h8v-217zM846 610v13q0 104 -68 165.5
t-178 61.5q-42 0 -84 -13.5t-81 -40.5t-67.5 -75.5t-37.5 -110.5h516zM457 1178h-187v8l277 327h131l278 -327v-8h-192l-158 151z" />
    <glyph glyph-name="edieresis" unicode="&#xeb;" horiz-adv-x="1146" 
d="M1036 90q-66 -54 -175.5 -85.5t-221.5 -31.5q-252 0 -402.5 146t-150.5 385q0 125 43 229.5t115 172t165.5 104.5t196.5 37q225 0 344.5 -129.5t122.5 -358.5q0 -88 -6 -127h-739q18 -113 105.5 -181.5t234.5 -68.5q215 0 360 125h8v-217zM846 610v13q0 104 -68 165.5
t-178 61.5q-42 0 -84 -13.5t-81 -40.5t-67.5 -75.5t-37.5 -110.5h516zM547 1346q0 -55 -34.5 -90t-88.5 -35q-52 0 -88.5 34.5t-36.5 90.5q0 62 38 95.5t87 33.5t86 -33.5t37 -95.5zM913 1346q0 -55 -35.5 -90t-89.5 -35q-52 0 -87 34.5t-35 90.5q0 62 36.5 95.5t85.5 33.5
q48 0 86.5 -34t38.5 -95z" />
    <glyph glyph-name="igrave" unicode="&#xec;" horiz-adv-x="567" 
d="M434 1178h-192l-355 333v9h285l262 -334v-8zM381 0h-238v1018h238v-1018z" />
    <glyph glyph-name="iacute" unicode="&#xed;" horiz-adv-x="567" 
d="M317 1178h-192v8l260 334h272v-9zM416 0h-238v1018h238v-1018z" />
    <glyph glyph-name="icircumflex" unicode="&#xee;" horiz-adv-x="567" 
d="M381 0h-238v1018h238v-1018zM106 1178h-186v8l277 327h131l278 -327v-8h-192l-158 151z" />
    <glyph glyph-name="idieresis" unicode="&#xef;" horiz-adv-x="567" 
d="M231 1346q0 -55 -34 -90t-88 -35q-52 0 -88.5 34.5t-36.5 90.5q0 62 38 95.5t87 33.5t85.5 -33.5t36.5 -95.5zM598 1346q0 -55 -35.5 -90t-89.5 -35q-52 0 -87.5 34.5t-35.5 90.5q0 62 37 95.5t86 33.5q48 0 86.5 -34t38.5 -95zM410 0h-238v1018h238v-1018z" />
    <glyph glyph-name="eth" unicode="&#xf0;" horiz-adv-x="1267" 
d="M1016 1346l-98 -58q262 -271 262 -721q0 -150 -46 -266.5t-124 -186.5t-175 -105.5t-206 -35.5q-81 0 -157 18.5t-147 60.5t-123.5 103.5t-84 153t-31.5 203.5q0 101 31.5 187t84.5 144.5t121.5 99.5t141.5 60t147 19q78 0 159 -29t126 -90q-12 58 -53 133t-109 144
l-225 -133v170l106 61q-93 62 -204 100l65 158q177 -43 324 -150l215 127v-167zM940 512q0 83 -26 145.5t-70.5 98.5t-98 53.5t-114.5 17.5q-125 0 -215 -83.5t-90 -235.5q0 -85 26 -150t70 -103t97.5 -56.5t113.5 -18.5q48 0 92 11.5t83.5 37.5t68.5 64t46 94t17 125z" />
    <glyph glyph-name="ntilde" unicode="&#xf1;" horiz-adv-x="1226" 
d="M387 0h-235v1018h229v-158q44 82 137.5 132t212.5 50q137 0 222 -57.5t110 -159.5q20 -74 20 -223v-602h-235v557q0 128 -23 172q-50 92 -174 92q-80 0 -154 -40t-110 -109v-672zM414 1206h-150q9 137 66.5 209t146.5 72q66 0 158 -57q74 -46 110 -46q31 0 46.5 23
t21.5 84h148q-9 -139 -65 -213t-138 -74q-42 0 -74 9.5t-88 39.5q-11 6 -31.5 17t-29 15t-21 10t-20.5 8t-15 2q-27 0 -43 -22.5t-22 -76.5z" />
    <glyph glyph-name="ograve" unicode="&#xf2;" horiz-adv-x="1265" 
d="M1180 510q0 -231 -156 -384t-393 -153t-391 152.5t-154 384.5q0 230 159 383.5t392 153.5q241 0 392 -149.5t151 -387.5zM940 510q0 138 -84.5 232t-220.5 94q-133 0 -221 -93.5t-88 -232.5q0 -145 89 -234.5t220 -89.5q136 0 220.5 92.5t84.5 231.5zM819 1178h-192
l-355 333v9h285l262 -334v-8z" />
    <glyph glyph-name="oacute" unicode="&#xf3;" horiz-adv-x="1265" 
d="M1180 510q0 -231 -156 -384t-393 -153t-391 152.5t-154 384.5q0 230 159 383.5t392 153.5q241 0 392 -149.5t151 -387.5zM940 510q0 138 -84.5 232t-220.5 94q-133 0 -221 -93.5t-88 -232.5q0 -145 89 -234.5t220 -89.5q136 0 220.5 92.5t84.5 231.5zM647 1178h-192v8
l260 334h272v-9z" />
    <glyph glyph-name="ocircumflex" unicode="&#xf4;" horiz-adv-x="1265" 
d="M1180 510q0 -231 -156 -384t-393 -153t-391 152.5t-154 384.5q0 230 159 383.5t392 153.5q241 0 392 -149.5t151 -387.5zM940 510q0 138 -84.5 232t-220.5 94q-133 0 -221 -93.5t-88 -232.5q0 -145 89 -234.5t220 -89.5q136 0 220.5 92.5t84.5 231.5zM477 1178h-186v8
l276 327h131l279 -327v-8h-193l-157 151z" />
    <glyph glyph-name="otilde" unicode="&#xf5;" horiz-adv-x="1265" 
d="M1180 510q0 -231 -156 -384t-393 -153t-391 152.5t-154 384.5q0 230 159 383.5t392 153.5q241 0 392 -149.5t151 -387.5zM940 510q0 138 -84.5 232t-220.5 94q-133 0 -221 -93.5t-88 -232.5q0 -145 89 -234.5t220 -89.5q136 0 220.5 92.5t84.5 231.5zM428 1206h-149
q9 137 66.5 209t146.5 72q65 0 157 -57q74 -46 111 -46q30 0 45.5 23t21.5 84h148q-9 -139 -65 -213t-138 -74q-42 0 -74 9.5t-88 39.5q-12 7 -31.5 17t-28.5 15t-21 10.5t-20 7.5t-15 2q-55 0 -66 -99z" />
    <glyph glyph-name="odieresis" unicode="&#xf6;" horiz-adv-x="1265" 
d="M1180 510q0 -231 -156 -384t-393 -153t-391 152.5t-154 384.5q0 230 159 383.5t392 153.5q241 0 392 -149.5t151 -387.5zM940 510q0 138 -84.5 232t-220.5 94q-133 0 -221 -93.5t-88 -232.5q0 -145 89 -234.5t220 -89.5q136 0 220.5 92.5t84.5 231.5zM571 1346
q0 -55 -34 -90t-88 -35q-52 0 -88.5 34.5t-36.5 90.5q0 62 38 95.5t87 33.5t85.5 -33.5t36.5 -95.5zM938 1346q0 -55 -35.5 -90t-89.5 -35q-52 0 -87.5 34.5t-35.5 90.5q0 62 37 95.5t86 33.5q48 0 86.5 -34t38.5 -95z" />
    <glyph glyph-name="divide" unicode="&#xf7;" horiz-adv-x="1433" 
d="M819 948q0 -52 -29 -79t-75 -27q-43 0 -72 26t-29 80t29.5 82.5t75.5 28.5q44 0 72 -27.5t28 -83.5zM1249 526h-1065v158h1065v-158zM819 248q0 -52 -29 -79.5t-75 -27.5q-43 0 -72 26.5t-29 80.5t29.5 82t75.5 28q45 0 72.5 -26.5t27.5 -83.5z" />
    <glyph glyph-name="oslash" unicode="&#xf8;" horiz-adv-x="1265" 
d="M315 -100h-147l119 184q-95 73 -148 183.5t-53 242.5q0 230 159 383.5t392 153.5q129 0 237 -48l82 127h148l-121 -190q94 -72 145.5 -181.5t51.5 -244.5q0 -231 -156 -384t-393 -153q-125 0 -238 47zM326 510q0 -147 84 -234l346 539q-55 25 -121 25
q-136 0 -222.5 -93.5t-86.5 -236.5zM940 510q0 138 -82 233l-346 -538q61 -23 123 -23q136 0 220.5 93t84.5 235z" />
    <glyph glyph-name="ugrave" unicode="&#xf9;" horiz-adv-x="1226" 
d="M1073 0h-227v127q-107 -154 -336 -154q-280 0 -344 217q-23 85 -23 244v582h236v-539q0 -125 22 -186q38 -94 174 -94q83 0 151.5 34t111.5 91v694h235v-1016zM788 1178h-192l-354 333v9h284l262 -334v-8z" />
    <glyph glyph-name="uacute" unicode="&#xfa;" horiz-adv-x="1226" 
d="M1073 0h-227v127q-107 -154 -336 -154q-280 0 -344 217q-23 85 -23 244v582h236v-539q0 -125 22 -186q38 -94 174 -94q83 0 151.5 34t111.5 91v694h235v-1016zM635 1178h-193v8l260 334h273v-9z" />
    <glyph glyph-name="ucircumflex" unicode="&#xfb;" horiz-adv-x="1226" 
d="M1073 0h-227v127q-107 -154 -336 -154q-280 0 -344 217q-23 85 -23 244v582h236v-539q0 -125 22 -186q38 -94 174 -94q83 0 151.5 34t111.5 91v694h235v-1016zM455 1178h-187v8l277 327h131l278 -327v-8h-192l-158 151z" />
    <glyph glyph-name="udieresis" unicode="&#xfc;" horiz-adv-x="1226" 
d="M1073 0h-227v127q-107 -154 -336 -154q-280 0 -344 217q-23 85 -23 244v582h236v-539q0 -125 22 -186q38 -94 174 -94q83 0 151.5 34t111.5 91v694h235v-1016zM553 1346q0 -55 -34.5 -90t-88.5 -35q-52 0 -88.5 34.5t-36.5 90.5q0 62 38 95.5t87 33.5t86 -33.5t37 -95.5z
M920 1346q0 -55 -35.5 -90t-89.5 -35q-52 0 -87.5 34.5t-35.5 90.5q0 62 37 95.5t86 33.5q48 0 86.5 -34t38.5 -95z" />
    <glyph glyph-name="yacute" unicode="&#xfd;" horiz-adv-x="1093" 
d="M55 -401v208h8q52 -40 160 -40q94 0 137 61q34 43 64 137l14 47l-426 1006h267q211 -531 284 -746q23 66 268 746h256l-417 -1059q-44 -109 -68 -161.5t-51 -90.5q-100 -147 -309 -147q-48 0 -101.5 10.5t-85.5 28.5zM582 1178h-193v8l260 334h273v-9z" />
    <glyph glyph-name="thorn" unicode="&#xfe;" horiz-adv-x="1318" 
d="M387 -397h-235v1888h235v-633q41 79 142.5 134t220.5 55q99 0 186 -34t153.5 -98t105 -165.5t38.5 -227.5q0 -135 -44 -240.5t-118 -168t-162.5 -94t-185.5 -31.5q-102 0 -195 39t-141 108v-532zM387 379q30 -65 84 -109t108.5 -60.5t110.5 -16.5q58 0 109 17.5t95.5 54
t70.5 102t26 153.5q0 68 -18.5 123.5t-48.5 91t-69.5 59.5t-80 34t-82.5 10q-41 0 -84 -11t-85.5 -33t-79 -61t-56.5 -90v-264z" />
    <glyph glyph-name="ydieresis" unicode="&#xff;" horiz-adv-x="1093" 
d="M55 -401v208h8q52 -40 160 -40q94 0 137 61q34 43 64 137l14 47l-426 1006h267q211 -531 284 -746q23 66 268 746h256l-417 -1059q-44 -109 -68 -161.5t-51 -90.5q-100 -147 -309 -147q-48 0 -101.5 10.5t-85.5 28.5zM496 1346q0 -55 -34.5 -90t-88.5 -35
q-52 0 -88.5 34.5t-36.5 90.5q0 62 38 95.5t87 33.5t86 -33.5t37 -95.5zM862 1346q0 -55 -35.5 -90t-89.5 -35q-52 0 -87.5 34.5t-35.5 90.5q0 62 37 95.5t86 33.5q48 0 86.5 -34t38.5 -95z" />
    <glyph glyph-name="Amacron" unicode="&#x100;" horiz-adv-x="1372" 
d="M274 0h-266l559 1411h240l555 -1411h-275l-137 360h-536zM487 580h387q-77 197 -192 512q-49 -141 -195 -512zM1001 1569h-634v164h634v-164z" />
    <glyph glyph-name="amacron" unicode="&#x101;" horiz-adv-x="1116" 
d="M1110 12q-51 -28 -139 -28q-84 0 -138 34.5t-73 96.5q-99 -142 -314 -142q-163 0 -262.5 88t-99.5 228q0 58 17.5 106.5t48 82t65.5 56t76 37.5q75 26 143 34.5t170 8.5q70 0 125 -10v47q0 81 -41 125q-55 58 -172 58q-76 0 -174 -28t-172 -87h-8v207q82 62 190.5 91.5
t212.5 29.5q192 0 289 -84q55 -47 81 -120t26 -192q0 -38 -1.5 -135.5t-1.5 -136.5q0 -109 11 -141q16 -45 69 -45q43 0 72 14v-195zM731 272q-2 33 -2 156q-58 10 -121 10q-116 0 -180 -18q-106 -30 -106 -125q0 -61 49 -96t129 -35q68 0 129.5 27.5t101.5 80.5zM877 1208
h-613v164h613v-164z" />
    <glyph glyph-name="Abreve" unicode="&#x102;" horiz-adv-x="1372" 
d="M274 0h-266l559 1411h240l555 -1411h-275l-137 360h-536zM487 580h387q-77 197 -192 512q-49 -141 -195 -512zM360 1821h156q8 -146 162 -146q158 0 166 146h160q-2 -133 -88.5 -220.5t-239.5 -87.5q-150 0 -233 84.5t-83 223.5z" />
    <glyph glyph-name="abreve" unicode="&#x103;" horiz-adv-x="1116" 
d="M1110 12q-51 -28 -139 -28q-84 0 -138 34.5t-73 96.5q-99 -142 -314 -142q-163 0 -262.5 88t-99.5 228q0 58 17.5 106.5t48 82t65.5 56t76 37.5q75 26 143 34.5t170 8.5q70 0 125 -10v47q0 81 -41 125q-55 58 -172 58q-76 0 -174 -28t-172 -87h-8v207q82 62 190.5 91.5
t212.5 29.5q192 0 289 -84q55 -47 81 -120t26 -192q0 -38 -1.5 -135.5t-1.5 -136.5q0 -109 11 -141q16 -45 69 -45q43 0 72 14v-195zM731 272q-2 33 -2 156q-58 10 -121 10q-116 0 -180 -18q-106 -30 -106 -125q0 -61 49 -96t129 -35q68 0 129.5 27.5t101.5 80.5zM248 1473
h153q8 -154 152 -154q74 0 114 36.5t44 117.5h155q-2 -136 -83 -226t-232 -90q-147 0 -225 87.5t-78 228.5z" />
    <glyph glyph-name="Aogonek" unicode="&#x104;" horiz-adv-x="1372" 
d="M274 0h-266l559 1411h240l555 -1411h-102q-116 -77 -161.5 -135.5t-45.5 -132.5q0 -51 33.5 -82t97.5 -31q62 0 119 31h8v-131q-74 -47 -183 -47q-113 0 -183.5 61.5t-70.5 173.5q0 175 222 293h-9l-137 360h-536zM487 580h387q-77 197 -192 512q-49 -141 -195 -512z" />
    <glyph glyph-name="aogonek" unicode="&#x105;" horiz-adv-x="1116" 
d="M1110 12q-48 -25 -129 -28q-94 -66 -131 -121t-37 -123q0 -47 32.5 -77t88.5 -30q73 0 121 31h8v-127q-64 -47 -178 -47q-109 0 -177.5 59t-68.5 168q0 173 217 287q-75 35 -96 111q-99 -142 -314 -142q-163 0 -262.5 88t-99.5 228q0 58 17.5 106.5t48 82t65.5 56
t76 37.5q75 26 143 34.5t170 8.5q70 0 125 -10v47q0 81 -41 125q-55 58 -172 58q-76 0 -174 -28t-172 -87h-8v207q82 62 190.5 91.5t212.5 29.5q192 0 289 -84q55 -47 81 -120t26 -192q0 -38 -1.5 -135.5t-1.5 -136.5q0 -109 11 -141q16 -45 69 -45q43 0 72 14v-195z
M731 272q-2 33 -2 156q-58 10 -121 10q-116 0 -180 -18q-106 -30 -106 -125q0 -61 49 -96t129 -35q68 0 129.5 27.5t101.5 80.5z" />
    <glyph glyph-name="Cacute" unicode="&#x106;" horiz-adv-x="1396" 
d="M1290 111q-66 -59 -193 -99.5t-257 -40.5q-211 0 -379.5 88.5t-266.5 257t-98 390.5q0 138 41.5 257t113.5 205.5t168.5 149t207.5 93t229 30.5q129 0 247.5 -34t180.5 -91v-260h-8q-70 72 -184 113.5t-226 41.5q-104 0 -196 -32.5t-163.5 -93t-113 -156.5t-41.5 -215
q0 -128 40 -227t110.5 -160.5t162 -93t199.5 -31.5q239 0 418 162h8v-254zM842 1534h-221v8l305 268h311v-8z" />
    <glyph glyph-name="cacute" unicode="&#x107;" horiz-adv-x="1042" 
d="M973 78q-139 -105 -344 -105q-110 0 -208 36t-172.5 102t-118.5 168t-44 225q0 237 158.5 390t400.5 153q99 0 190.5 -27t135.5 -74v-233h-8q-52 59 -136.5 91t-173.5 32q-88 0 -161 -36t-119.5 -111.5t-46.5 -178.5q0 -153 96 -240.5t235 -87.5q192 0 308 119h8v-223z
M623 1178h-193v8l260 334h273v-9z" />
    <glyph glyph-name="Ccircumflex" unicode="&#x108;" horiz-adv-x="1396" 
d="M1290 111q-66 -59 -193 -99.5t-257 -40.5q-211 0 -379.5 88.5t-266.5 257t-98 390.5q0 138 41.5 257t113.5 205.5t168.5 149t207.5 93t229 30.5q129 0 247.5 -34t180.5 -91v-260h-8q-70 72 -184 113.5t-226 41.5q-104 0 -196 -32.5t-163.5 -93t-113 -156.5t-41.5 -215
q0 -128 40 -227t110.5 -160.5t162 -93t199.5 -31.5q239 0 418 162h8v-254zM649 1536h-211v8l303 271h146l299 -271v-8h-207l-170 119z" />
    <glyph glyph-name="ccircumflex" unicode="&#x109;" horiz-adv-x="1042" 
d="M973 78q-139 -105 -344 -105q-110 0 -208 36t-172.5 102t-118.5 168t-44 225q0 237 158.5 390t400.5 153q99 0 190.5 -27t135.5 -74v-233h-8q-52 59 -136.5 91t-173.5 32q-88 0 -161 -36t-119.5 -111.5t-46.5 -178.5q0 -153 96 -240.5t235 -87.5q192 0 308 119h8v-223z
M467 1178h-186v8l276 327h131l279 -327v-8h-193l-158 151z" />
    <glyph glyph-name="Cdotaccent" unicode="&#x10a;" horiz-adv-x="1396" 
d="M1290 111q-66 -59 -193 -99.5t-257 -40.5q-211 0 -379.5 88.5t-266.5 257t-98 390.5q0 138 41.5 257t113.5 205.5t168.5 149t207.5 93t229 30.5q129 0 247.5 -34t180.5 -91v-260h-8q-70 72 -184 113.5t-226 41.5q-104 0 -196 -32.5t-163.5 -93t-113 -156.5t-41.5 -215
q0 -128 40 -227t110.5 -160.5t162 -93t199.5 -31.5q239 0 418 162h8v-254zM922 1663q0 -55 -34.5 -89t-88.5 -34q-52 0 -87.5 33.5t-35.5 89.5q0 63 37 97t86 34q48 0 85.5 -34t37.5 -97z" />
    <glyph glyph-name="cdotaccent" unicode="&#x10b;" horiz-adv-x="1042" 
d="M973 78q-139 -105 -344 -105q-110 0 -208 36t-172.5 102t-118.5 168t-44 225q0 237 158.5 390t400.5 153q99 0 190.5 -27t135.5 -74v-233h-8q-52 59 -136.5 91t-173.5 32q-88 0 -161 -36t-119.5 -111.5t-46.5 -178.5q0 -153 96 -240.5t235 -87.5q192 0 308 119h8v-223z
M729 1346q0 -55 -34.5 -90t-88.5 -35q-52 0 -87.5 34.5t-35.5 90.5q0 62 37 95.5t86 33.5q48 0 85.5 -34t37.5 -95z" />
    <glyph glyph-name="Ccaron" unicode="&#x10c;" horiz-adv-x="1396" 
d="M1290 111q-66 -59 -193 -99.5t-257 -40.5q-211 0 -379.5 88.5t-266.5 257t-98 390.5q0 138 41.5 257t113.5 205.5t168.5 149t207.5 93t229 30.5q129 0 247.5 -34t180.5 -91v-260h-8q-70 72 -184 113.5t-226 41.5q-104 0 -196 -32.5t-163.5 -93t-113 -156.5t-41.5 -215
q0 -128 40 -227t110.5 -160.5t162 -93t199.5 -31.5q239 0 418 162h8v-254zM958 1815h205v-9l-297 -270h-145l-299 270v9h207l170 -119z" />
    <glyph glyph-name="ccaron" unicode="&#x10d;" horiz-adv-x="1042" 
d="M973 78q-139 -105 -344 -105q-110 0 -208 36t-172.5 102t-118.5 168t-44 225q0 237 158.5 390t400.5 153q99 0 190.5 -27t135.5 -74v-233h-8q-52 59 -136.5 91t-173.5 32q-88 0 -161 -36t-119.5 -111.5t-46.5 -178.5q0 -153 96 -240.5t235 -87.5q192 0 308 119h8v-223z
M760 1513h186v-8l-276 -327h-131l-279 327v8h193l157 -151z" />
    <glyph glyph-name="Dcaron" unicode="&#x10e;" horiz-adv-x="1503" 
d="M164 0v1411h393q255 0 420 -51q432 -134 432 -635q0 -506 -436 -659q-185 -66 -463 -66h-346zM414 227h141q125 0 227.5 21.5t163.5 56.5q209 122 209 414q0 139 -65.5 250t-186.5 161q-130 54 -323 54h-166v-957zM831 1815h205v-9l-297 -270h-145l-299 270v9h207
l170 -119z" />
    <glyph glyph-name="dcaron" unicode="&#x10f;" horiz-adv-x="1318" 
d="M1167 0h-227v156q-44 -82 -130 -132.5t-218 -50.5q-95 0 -183.5 33.5t-161.5 97t-117 167.5t-44 233q0 110 31.5 202t83 154t119.5 105t139.5 62.5t144.5 19.5q217 0 334 -140v582h229v-1489zM932 379v276q-23 61 -71.5 104.5t-102 62t-109.5 18.5q-64 0 -120 -18
t-102.5 -56t-73.5 -104t-27 -154q0 -83 26.5 -147t71.5 -100.5t98 -54.5t113 -18q95 0 176 46.5t121 144.5zM1397 1014h-170v8q65 54 110 140.5t45 183.5q0 90 -28 147h205q22 -45 22 -135q0 -102 -54.5 -194t-129.5 -150z" />
    <glyph glyph-name="Dcroat" unicode="&#x110;" horiz-adv-x="1503" 
d="M164 0v637h-144v188h144v586h393q255 0 420 -51q432 -134 432 -635q0 -506 -436 -659q-185 -66 -463 -66h-346zM414 227h141q125 0 227.5 21.5t163.5 56.5q209 122 209 414q0 139 -65.5 250t-186.5 161q-130 54 -323 54h-166v-359h381v-188h-381v-410z" />
    <glyph glyph-name="dcroat" unicode="&#x111;" horiz-adv-x="1318" 
d="M1167 0h-227v156q-44 -82 -130 -132.5t-218 -50.5q-95 0 -183.5 33.5t-161.5 97t-117 167.5t-44 233q0 110 31.5 202t83 154t119.5 105t139.5 62.5t144.5 19.5q217 0 334 -140v219h-266v164h266v199h229v-199h133v-164h-133v-1126zM932 379v276q-23 61 -71.5 104.5
t-102 62t-109.5 18.5q-64 0 -120 -18t-102.5 -56t-73.5 -104t-27 -154q0 -83 26.5 -147t71.5 -100.5t98 -54.5t113 -18q95 0 176 46.5t121 144.5z" />
    <glyph glyph-name="Emacron" unicode="&#x112;" horiz-adv-x="1159" 
d="M1083 0h-919v1411h887v-227h-635v-340h594v-226h-594v-391h667v-227zM932 1569h-635v164h635v-164z" />
    <glyph glyph-name="emacron" unicode="&#x113;" horiz-adv-x="1146" 
d="M1036 90q-66 -54 -175.5 -85.5t-221.5 -31.5q-252 0 -402.5 146t-150.5 385q0 125 43 229.5t115 172t165.5 104.5t196.5 37q225 0 344.5 -129.5t122.5 -358.5q0 -88 -6 -127h-739q18 -113 105.5 -181.5t234.5 -68.5q215 0 360 125h8v-217zM846 610v13q0 104 -68 165.5
t-178 61.5q-42 0 -84 -13.5t-81 -40.5t-67.5 -75.5t-37.5 -110.5h516zM909 1208h-612v164h612v-164z" />
    <glyph glyph-name="Ebreve" unicode="&#x114;" horiz-adv-x="1159" 
d="M1083 0h-919v1411h887v-227h-635v-340h594v-226h-594v-391h667v-227zM289 1821h155q8 -146 162 -146q158 0 166 146h160q-2 -133 -88.5 -220.5t-239.5 -87.5q-150 0 -232.5 84.5t-82.5 223.5z" />
    <glyph glyph-name="ebreve" unicode="&#x115;" horiz-adv-x="1146" 
d="M1036 90q-66 -54 -175.5 -85.5t-221.5 -31.5q-252 0 -402.5 146t-150.5 385q0 125 43 229.5t115 172t165.5 104.5t196.5 37q225 0 344.5 -129.5t122.5 -358.5q0 -88 -6 -127h-739q18 -113 105.5 -181.5t234.5 -68.5q215 0 360 125h8v-217zM846 610v13q0 104 -68 165.5
t-178 61.5q-42 0 -84 -13.5t-81 -40.5t-67.5 -75.5t-37.5 -110.5h516zM299 1473h154q8 -154 151 -154q74 0 114 36.5t44 117.5h156q-2 -136 -83.5 -226t-232.5 -90q-147 0 -225 87.5t-78 228.5z" />
    <glyph glyph-name="Edotaccent" unicode="&#x116;" horiz-adv-x="1159" 
d="M1083 0h-919v1411h887v-227h-635v-340h594v-226h-594v-391h667v-227zM741 1663q0 -55 -34.5 -89t-88.5 -34q-52 0 -87 33.5t-35 89.5q0 63 36.5 97t85.5 34q48 0 85.5 -34t37.5 -97z" />
    <glyph glyph-name="edotaccent" unicode="&#x117;" horiz-adv-x="1146" 
d="M1036 90q-66 -54 -175.5 -85.5t-221.5 -31.5q-252 0 -402.5 146t-150.5 385q0 125 43 229.5t115 172t165.5 104.5t196.5 37q225 0 344.5 -129.5t122.5 -358.5q0 -88 -6 -127h-739q18 -113 105.5 -181.5t234.5 -68.5q215 0 360 125h8v-217zM846 610v13q0 104 -68 165.5
t-178 61.5q-42 0 -84 -13.5t-81 -40.5t-67.5 -75.5t-37.5 -110.5h516zM733 1346q0 -55 -34.5 -90t-88.5 -35q-52 0 -87.5 34.5t-35.5 90.5q0 62 37 95.5t86 33.5q48 0 85.5 -34t37.5 -95z" />
    <glyph glyph-name="Eogonek" unicode="&#x118;" horiz-adv-x="1159" 
d="M1083 0h-77q-116 -77 -161.5 -135.5t-45.5 -132.5q0 -51 33.5 -82t97.5 -31q62 0 119 31h8v-131q-74 -47 -183 -47q-113 0 -183 61.5t-70 173.5q0 176 221 293h-678v1411h887v-227h-635v-340h594v-226h-594v-391h667v-227z" />
    <glyph glyph-name="eogonek" unicode="&#x119;" horiz-adv-x="1146" 
d="M1036 90q-89 -74 -245 -100q-98 -69 -136.5 -125t-38.5 -125q0 -47 32.5 -77t88.5 -30q73 0 121 31h8v-127q-64 -47 -178 -47q-109 0 -177.5 59t-68.5 168q0 153 164 256q-238 10 -379 155t-141 376q0 125 43 229.5t115 172t165.5 104.5t196.5 37q225 0 344.5 -129.5
t122.5 -358.5q0 -88 -6 -127h-739q18 -113 105.5 -181.5t234.5 -68.5q215 0 360 125h8v-217zM846 610v13q0 104 -68 165.5t-178 61.5q-42 0 -84 -13.5t-81 -40.5t-67.5 -75.5t-37.5 -110.5h516z" />
    <glyph glyph-name="Ecaron" unicode="&#x11a;" horiz-adv-x="1159" 
d="M1083 0h-919v1411h887v-227h-635v-340h594v-226h-594v-391h667v-227zM786 1815h205v-9l-297 -270h-145l-299 270v9h207l170 -119z" />
    <glyph glyph-name="ecaron" unicode="&#x11b;" horiz-adv-x="1146" 
d="M1036 90q-66 -54 -175.5 -85.5t-221.5 -31.5q-252 0 -402.5 146t-150.5 385q0 125 43 229.5t115 172t165.5 104.5t196.5 37q225 0 344.5 -129.5t122.5 -358.5q0 -88 -6 -127h-739q18 -113 105.5 -181.5t234.5 -68.5q215 0 360 125h8v-217zM846 610v13q0 104 -68 165.5
t-178 61.5q-42 0 -84 -13.5t-81 -40.5t-67.5 -75.5t-37.5 -110.5h516zM760 1491h186v-8l-276 -328h-131l-279 328v8h193l157 -152z" />
    <glyph glyph-name="Gcircumflex" unicode="&#x11c;" horiz-adv-x="1503" 
d="M1370 109q-85 -57 -227.5 -97.5t-300.5 -40.5q-157 0 -292 49.5t-234.5 142t-156.5 232.5t-57 312q0 175 62.5 317t169 232t243 138t289.5 48q136 0 258.5 -34t188.5 -91v-258h-8q-67 71 -179.5 111t-240.5 40q-108 0 -200.5 -29.5t-165.5 -87.5t-115 -154t-42 -220
q0 -128 40 -228.5t111 -163t162.5 -94.5t198.5 -32q142 0 254 49v293h-319v225h561v-659zM662 1536h-211v8l303 271h145l299 -271v-8h-207l-170 119z" />
    <glyph glyph-name="gcircumflex" unicode="&#x11d;" horiz-adv-x="1288" 
d="M201 -315v233h8q71 -61 174.5 -96t214.5 -35q184 0 260 92q53 63 53 219v80q-39 -70 -123.5 -119t-201.5 -49q-101 0 -189.5 31t-158 90.5t-110 156t-40.5 218.5q0 114 32.5 207.5t85 154t121 102t137 59.5t136.5 18q111 0 195.5 -41.5t117.5 -106.5v119h226v-901
q0 -218 -68 -328q-58 -99 -179 -155t-292 -56q-132 0 -236.5 30.5t-162.5 76.5zM903 387v285q-32 80 -102.5 124t-165.5 44q-59 0 -112.5 -18.5t-98 -56.5t-70.5 -103t-26 -150q0 -141 89 -215t214 -74q96 0 167 43.5t105 120.5zM498 1178h-187v8l277 327h131l278 -327v-8
h-192l-158 151z" />
    <glyph glyph-name="Gbreve" unicode="&#x11e;" horiz-adv-x="1503" 
d="M1370 109q-85 -57 -227.5 -97.5t-300.5 -40.5q-157 0 -292 49.5t-234.5 142t-156.5 232.5t-57 312q0 175 62.5 317t169 232t243 138t289.5 48q136 0 258.5 -34t188.5 -91v-258h-8q-67 71 -179.5 111t-240.5 40q-108 0 -200.5 -29.5t-165.5 -87.5t-115 -154t-42 -220
q0 -128 40 -228.5t111 -163t162.5 -94.5t198.5 -32q142 0 254 49v293h-319v225h561v-659zM473 1821h156q8 -146 162 -146q157 0 165 146h160q-2 -133 -88.5 -220.5t-239.5 -87.5q-150 0 -232.5 84.5t-82.5 223.5z" />
    <glyph glyph-name="gbreve" unicode="&#x11f;" horiz-adv-x="1288" 
d="M201 -315v233h8q71 -61 174.5 -96t214.5 -35q184 0 260 92q53 63 53 219v80q-39 -70 -123.5 -119t-201.5 -49q-101 0 -189.5 31t-158 90.5t-110 156t-40.5 218.5q0 114 32.5 207.5t85 154t121 102t137 59.5t136.5 18q111 0 195.5 -41.5t117.5 -106.5v119h226v-901
q0 -218 -68 -328q-58 -99 -179 -155t-292 -56q-132 0 -236.5 30.5t-162.5 76.5zM903 387v285q-32 80 -102.5 124t-165.5 44q-59 0 -112.5 -18.5t-98 -56.5t-70.5 -103t-26 -150q0 -141 89 -215t214 -74q96 0 167 43.5t105 120.5zM346 1473h154q8 -154 151 -154
q74 0 114 36.5t44 117.5h156q-2 -136 -83.5 -226t-232.5 -90q-147 0 -225 87.5t-78 228.5z" />
    <glyph glyph-name="Gdotaccent" unicode="&#x120;" horiz-adv-x="1503" 
d="M1370 109q-85 -57 -227.5 -97.5t-300.5 -40.5q-157 0 -292 49.5t-234.5 142t-156.5 232.5t-57 312q0 175 62.5 317t169 232t243 138t289.5 48q136 0 258.5 -34t188.5 -91v-258h-8q-67 71 -179.5 111t-240.5 40q-108 0 -200.5 -29.5t-165.5 -87.5t-115 -154t-42 -220
q0 -128 40 -228.5t111 -163t162.5 -94.5t198.5 -32q142 0 254 49v293h-319v225h561v-659zM936 1663q0 -55 -34.5 -89t-88.5 -34q-52 0 -87.5 33.5t-35.5 89.5q0 63 37 97t86 34q48 0 85.5 -34t37.5 -97z" />
    <glyph glyph-name="gdotaccent" unicode="&#x121;" horiz-adv-x="1288" 
d="M201 -315v233h8q71 -61 174.5 -96t214.5 -35q184 0 260 92q53 63 53 219v80q-39 -70 -123.5 -119t-201.5 -49q-101 0 -189.5 31t-158 90.5t-110 156t-40.5 218.5q0 114 32.5 207.5t85 154t121 102t137 59.5t136.5 18q111 0 195.5 -41.5t117.5 -106.5v119h226v-901
q0 -218 -68 -328q-58 -99 -179 -155t-292 -56q-132 0 -236.5 30.5t-162.5 76.5zM903 387v285q-32 80 -102.5 124t-165.5 44q-59 0 -112.5 -18.5t-98 -56.5t-70.5 -103t-26 -150q0 -141 89 -215t214 -74q96 0 167 43.5t105 120.5zM758 1346q0 -55 -34.5 -90t-88.5 -35
q-52 0 -87.5 34.5t-35.5 90.5q0 62 37 95.5t86 33.5q48 0 85.5 -34t37.5 -95z" />
    <glyph glyph-name="Gcommaaccent" unicode="&#x122;" horiz-adv-x="1503" 
d="M1370 109q-85 -57 -227.5 -97.5t-300.5 -40.5q-157 0 -292 49.5t-234.5 142t-156.5 232.5t-57 312q0 175 62.5 317t169 232t243 138t289.5 48q136 0 258.5 -34t188.5 -91v-258h-8q-67 71 -179.5 111t-240.5 40q-108 0 -200.5 -29.5t-165.5 -87.5t-115 -154t-42 -220
q0 -128 40 -228.5t111 -163t162.5 -94.5t198.5 -32q142 0 254 49v293h-319v225h561v-659zM764 -610h-170v8q66 54 111 140.5t45 182.5q0 87 -29 146h205q22 -43 22 -133q0 -102 -55 -195t-129 -149z" />
    <glyph glyph-name="gcommaaccent" unicode="&#x123;" horiz-adv-x="1288" 
d="M201 -317v231h8q71 -60 176 -94.5t217 -34.5q178 0 256 94q53 63 53 219v80q-39 -70 -123.5 -119t-201.5 -49q-101 0 -189.5 31t-158 90.5t-110 156t-40.5 218.5q0 114 32.5 207.5t85 154t121 102t137 59.5t136.5 18q111 0 195.5 -41.5t117.5 -106.5v119h226v-901
q0 -218 -68 -328q-59 -100 -178 -155.5t-291 -55.5q-131 0 -237 29.5t-164 75.5zM903 385v289q-32 80 -102.5 124t-165.5 44q-59 0 -112.5 -19t-98 -57t-70.5 -103.5t-26 -150.5q0 -96 45 -164.5t112 -98.5t146 -30q96 0 167 44t105 122zM694 1659h170v-8
q-65 -54 -110 -140.5t-45 -183.5q0 -90 28 -147h-205q-22 45 -22 135q0 101 55 193t129 151z" />
    <glyph glyph-name="Hcircumflex" unicode="&#x124;" horiz-adv-x="1486" 
d="M459 0h-252v1411h252v-563h653v563h252v-1411h-252v618h-653v-618zM629 1536h-211v8l303 271h145l299 -271v-8h-207l-170 119z" />
    <glyph glyph-name="hcircumflex" unicode="&#x125;" horiz-adv-x="1226" 
d="M389 0h-235v1491h235v-623q44 80 134 127t208 47q137 0 222 -57.5t110 -159.5q20 -74 20 -223v-602h-235v557q0 128 -23 172q-47 92 -172 92q-80 0 -154 -40t-110 -109v-672zM137 1575h-211v8l303 270h146l299 -270v-8h-207l-170 119z" />
    <glyph glyph-name="Hbar" unicode="&#x126;" horiz-adv-x="1486" 
d="M416 0h-252v973h-144v188h144v250h252v-250h653v250h252v-250h143v-188h-143v-973h-252v618h-653v-618zM416 848h653v125h-653v-125z" />
    <glyph glyph-name="hbar" unicode="&#x127;" horiz-adv-x="1226" 
d="M389 0h-235v1126h-136v164h136v201h235v-201h258v-164h-258v-258q44 80 134 127t208 47q137 0 222 -57.5t110 -159.5q20 -74 20 -223v-602h-235v557q0 128 -23 172q-47 92 -172 92q-80 0 -154 -40t-110 -109v-672z" />
    <glyph glyph-name="Itilde" unicode="&#x128;" horiz-adv-x="593" 
d="M401 0h-251v1411h251v-1411zM63 1536h-151q7 136 66.5 205t154.5 69q63 0 162 -57q72 -43 119 -43q32 0 48 22.5t23 82.5h150q-9 -137 -67 -208t-144 -71q-44 0 -78.5 10t-89.5 39q-94 51 -125 51q-29 0 -45.5 -22.5t-22.5 -77.5z" />
    <glyph glyph-name="itilde" unicode="&#x129;" horiz-adv-x="567" 
d="M47 1206h-149q9 137 66.5 209t146.5 72q65 0 157 -57q74 -46 111 -46q30 0 45.5 23t21.5 84h148q-9 -139 -65 -213t-138 -74q-42 0 -74 9.5t-88 39.5q-12 7 -31.5 17t-28.5 15t-21 10.5t-20 7.5t-15 2q-55 0 -66 -99zM365 0h-238v1018h238v-1018z" />
    <glyph glyph-name="Imacron" unicode="&#x12a;" horiz-adv-x="593" 
d="M418 0h-252v1411h252v-1411zM606 1569h-635v164h635v-164z" />
    <glyph glyph-name="imacron" unicode="&#x12b;" horiz-adv-x="567" 
d="M592 1208h-612v164h612v-164zM406 0h-238v1018h238v-1018z" />
    <glyph glyph-name="Ibreve" unicode="&#x12c;" horiz-adv-x="593" 
d="M395 0h-252v1411h252v-1411zM-53 1821h155q8 -146 162 -146q158 0 166 146h160q-2 -133 -88.5 -220.5t-239.5 -87.5q-150 0 -232.5 84.5t-82.5 223.5z" />
    <glyph glyph-name="ibreve" unicode="&#x12d;" horiz-adv-x="567" 
d="M-59 1473h153q8 -154 152 -154q74 0 113.5 36.5t43.5 117.5h156q-2 -136 -83 -226t-232 -90q-147 0 -225 87.5t-78 228.5zM371 0h-238v1018h238v-1018z" />
    <glyph glyph-name="Iogonek" unicode="&#x12e;" horiz-adv-x="593" 
d="M385 0h-49q-116 -77 -161.5 -135.5t-45.5 -132.5q0 -51 33.5 -82t97.5 -31q62 0 119 31h8v-131q-74 -47 -182 -47q-113 0 -183.5 61.5t-70.5 173.5q0 176 221 293h-39v1411h252v-1411z" />
    <glyph glyph-name="iogonek" unicode="&#x12f;" horiz-adv-x="567" 
d="M371 0h-54q-108 -74 -149 -131t-41 -129q0 -47 32.5 -77t88.5 -30q73 0 121 31h8v-127q-64 -47 -178 -47q-109 0 -177.5 59t-68.5 168q0 170 207 283h-27v1018h238v-1018zM383 1337q0 -61 -37.5 -99t-95.5 -38q-55 0 -93 37.5t-38 99.5q0 67 39.5 102.5t91.5 35.5
t92.5 -35.5t40.5 -102.5z" />
    <glyph glyph-name="Idotaccent" unicode="&#x130;" horiz-adv-x="593" 
d="M414 0h-252v1411h252v-1411zM412 1663q0 -55 -34.5 -89t-88.5 -34q-52 0 -87.5 33.5t-35.5 89.5q0 63 37 97t86 34q48 0 85.5 -34t37.5 -97z" />
    <glyph glyph-name="dotlessi" unicode="&#x131;" horiz-adv-x="567" 
d="M391 0h-237v1018h237v-1018z" />
    <glyph glyph-name="IJ" unicode="&#x132;" horiz-adv-x="1529" 
d="M414 0h-252v1411h252v-1411zM602 20v234h8q79 -51 195 -51q135 0 182 82q20 36 26.5 92t6.5 155v879h254v-913q0 -247 -53 -348q-44 -86 -139.5 -132.5t-229.5 -46.5q-154 0 -250 49z" />
    <glyph glyph-name="ij" unicode="&#x133;" horiz-adv-x="1136" 
d="M391 0h-237v1018h237v-1018zM403 1337q0 -61 -37.5 -99t-95.5 -38q-55 0 -93 37.5t-38 99.5q0 67 39.5 102.5t91.5 35.5t92.5 -35.5t40.5 -102.5zM420 -395v209h8q55 -37 135 -37q75 0 105 37q22 25 29.5 68.5t7.5 119.5v1016h235v-1020q0 -239 -66 -320
q-91 -108 -272 -108q-113 0 -182 35zM954 1337q0 -61 -37.5 -99t-93.5 -38t-94.5 37.5t-38.5 99.5q0 67 40.5 102.5t92.5 35.5q50 0 90.5 -35.5t40.5 -102.5z" />
    <glyph glyph-name="Jcircumflex" unicode="&#x134;" horiz-adv-x="935" 
d="M31 20v234h8q79 -51 194 -51q136 0 183 82q20 36 26.5 92t6.5 155v879h253v-913q0 -247 -53 -348q-44 -86 -139.5 -132.5t-228.5 -46.5q-154 0 -250 49zM401 1536h-211v8l304 271h145l299 -271v-8h-207l-170 119z" />
    <glyph glyph-name="jcircumflex" unicode="&#x135;" horiz-adv-x="567" 
d="M-172 -395v207h8q53 -39 135 -39q74 0 105 39q22 25 29.5 68.5t7.5 117.5v1020h235v-1020q0 -241 -65 -320q-91 -108 -273 -108q-113 0 -182 35zM74 1178h-187v8l277 327h131l278 -327v-8h-192l-158 151z" />
    <glyph glyph-name="Kcommaaccent" unicode="&#x136;" horiz-adv-x="1331" 
d="M1034 0l-430 688l-188 -209v-479h-252v1411h252v-614l534 614h310l-486 -537l555 -874h-295zM631 -610h-170v8q66 54 110.5 140t44.5 183q0 89 -28 146h205q22 -43 22 -133q0 -102 -55 -195t-129 -149z" />
    <glyph glyph-name="kcommaaccent" unicode="&#x137;" horiz-adv-x="1124" 
d="M391 0h-235v1491h235v-875l391 402h297l-377 -371l410 -647h-281l-292 485l-148 -145v-340zM551 -610h-170v8q66 54 111 140.5t45 182.5q0 87 -29 146h205q22 -43 22 -133q0 -102 -55 -195t-129 -149z" />
    <glyph glyph-name="kgreenlandic" unicode="&#x138;" horiz-adv-x="1124" 
d="M391 0h-235v1018h235v-391l391 391h297l-374 -363l407 -655h-281l-290 496l-150 -144v-352z" />
    <glyph glyph-name="Lacute" unicode="&#x139;" horiz-adv-x="1112" 
d="M1047 0h-883v1411h252v-1182h631v-229zM326 1536h-222v8l306 268h311v-8z" />
    <glyph glyph-name="lacute" unicode="&#x13a;" horiz-adv-x="565" 
d="M414 0h-236v1491h236v-1491zM324 1577h-222v8l306 268h311v-8z" />
    <glyph glyph-name="Lcommaaccent" unicode="&#x13b;" horiz-adv-x="1112" 
d="M1047 0h-883v1411h252v-1182h631v-229zM553 -610h-170v8q66 54 111 140.5t45 182.5q0 87 -29 146h205q22 -43 22 -133q0 -102 -55 -195t-129 -149z" />
    <glyph glyph-name="lcommaaccent" unicode="&#x13c;" horiz-adv-x="565" 
d="M399 0h-235v1491h235v-1491zM221 -610h-170v8q66 54 111 140.5t45 182.5q0 87 -29 146h205q23 -45 23 -133q0 -102 -55 -195t-130 -149z" />
    <glyph glyph-name="Lcaron" unicode="&#x13d;" horiz-adv-x="1112" 
d="M1047 0h-883v1411h252v-1182h631v-229zM354 1536h-221v8l305 268h312v-8z" />
    <glyph glyph-name="lcaron" unicode="&#x13e;" horiz-adv-x="565" 
d="M389 0h-235v1491h235v-1491zM627 1012h-170v8q66 54 110.5 140t44.5 183q0 91 -28 148h204q23 -47 23 -135q0 -102 -54.5 -194t-129.5 -150z" />
    <glyph glyph-name="Ldot" unicode="&#x13f;" horiz-adv-x="1112" 
d="M1047 0h-883v1411h252v-1182h631v-229zM987 678q0 -68 -43 -110t-110 -42q-64 0 -108 41t-44 111q0 77 46 116.5t106 39.5q62 0 107.5 -39.5t45.5 -116.5z" />
    <glyph glyph-name="ldot" unicode="&#x140;" horiz-adv-x="792" 
d="M391 0h-235v1491h235v-1491zM815 666q0 -67 -40.5 -108.5t-102.5 -41.5t-104 41.5t-42 108.5q0 74 44 112.5t102 38.5q56 0 99.5 -38.5t43.5 -112.5z" />
    <glyph glyph-name="Lslash" unicode="&#x141;" horiz-adv-x="1112" 
d="M1047 0h-883v479l-141 -86v205l141 84v729h252v-575l278 168v-203l-278 -170v-402h631v-229z" />
    <glyph glyph-name="lslash" unicode="&#x142;" horiz-adv-x="565" 
d="M379 0h-236v541l-135 -80v176l135 80v774h236v-633l139 84v-176l-139 -84v-682z" />
    <glyph glyph-name="Nacute" unicode="&#x143;" horiz-adv-x="1495" 
d="M410 0h-246v1411h270q367 -510 477.5 -669t184.5 -283q-9 340 -9 952h244v-1411h-229q-554 808 -699 1044q7 -326 7 -1044zM776 1536h-221v8l305 268h311v-8z" />
    <glyph glyph-name="nacute" unicode="&#x144;" horiz-adv-x="1226" 
d="M387 0h-235v1018h229v-158q44 82 137.5 132t212.5 50q137 0 222 -57.5t110 -159.5q20 -74 20 -223v-602h-235v557q0 128 -23 172q-50 92 -174 92q-80 0 -154 -40t-110 -109v-672zM643 1178h-192v8l260 334h272v-9z" />
    <glyph glyph-name="Ncommaaccent" unicode="&#x145;" horiz-adv-x="1495" 
d="M410 0h-246v1411h270q367 -510 477.5 -669t184.5 -283q-9 340 -9 952h244v-1411h-229q-554 808 -699 1044q7 -326 7 -1044zM721 -610h-170v8q66 54 111 140.5t45 182.5q0 87 -29 146h205q22 -43 22 -133q0 -102 -55 -195t-129 -149z" />
    <glyph glyph-name="ncommaaccent" unicode="&#x146;" horiz-adv-x="1226" 
d="M387 0h-235v1018h229v-158q44 82 137.5 132t212.5 50q137 0 222 -57.5t110 -159.5q20 -74 20 -223v-602h-235v557q0 128 -23 172q-50 92 -174 92q-80 0 -154 -40t-110 -109v-672zM565 -610h-170v8q66 54 111 140.5t45 182.5q0 87 -29 146h205q23 -45 23 -133
q0 -102 -55 -195t-130 -149z" />
    <glyph glyph-name="Ncaron" unicode="&#x147;" horiz-adv-x="1495" 
d="M410 0h-246v1411h270q367 -510 477.5 -669t184.5 -283q-9 340 -9 952h244v-1411h-229q-554 808 -699 1044q7 -326 7 -1044zM788 1536h-221v8l305 268h312v-8z" />
    <glyph glyph-name="ncaron" unicode="&#x148;" horiz-adv-x="1226" 
d="M387 0h-235v1018h229v-158q44 82 137.5 132t212.5 50q137 0 222 -57.5t110 -159.5q20 -74 20 -223v-602h-235v557q0 128 -23 172q-50 92 -174 92q-80 0 -154 -40t-110 -109v-672zM764 1513h186v-8l-276 -327h-131l-279 327v8h193l157 -151z" />
    <glyph glyph-name="napostrophe" unicode="&#x149;" horiz-adv-x="1226" 
d="M387 0h-235v1018h229v-158q44 82 137.5 132t212.5 50q137 0 222 -57.5t110 -159.5q20 -74 20 -223v-602h-235v557q0 128 -23 172q-50 92 -174 92q-80 0 -154 -40t-110 -109v-672zM170 1130h-170v9q66 54 111 140.5t45 182.5q0 89 -29 148h205q22 -45 22 -135
q0 -102 -54.5 -194.5t-129.5 -150.5z" />
    <glyph glyph-name="Eng" unicode="&#x14a;" horiz-adv-x="1495" 
d="M410 0h-246v1411h270q504 -690 576 -795q44 -64 86 -131q-9 341 -9 926h244v-1454q0 -243 -65 -322q-93 -110 -273 -110q-109 0 -184 35v213h8q55 -37 137 -37q73 0 107 37q35 40 35 180v76q-103 163 -210.5 321t-259.5 374.5t-223 319.5q7 -326 7 -1044z" />
    <glyph glyph-name="eng" unicode="&#x14b;" horiz-adv-x="1226" 
d="M387 0h-235v1018h229v-158q44 82 137.5 132t212.5 50q137 0 222 -57.5t110 -159.5q20 -74 20 -223v-604q0 -238 -67 -320q-91 -108 -273 -108q-109 0 -178 35v205h8q55 -37 136 -37q66 0 102 39q22 25 29.5 68.5t7.5 117.5v563q0 124 -23 172q-50 92 -174 92
q-80 0 -154 -41t-110 -110v-674z" />
    <glyph glyph-name="Omacron" unicode="&#x14c;" horiz-adv-x="1652" 
d="M1556 707q0 -156 -55 -292.5t-151.5 -234t-233 -153.5t-293.5 -56q-156 0 -291.5 55.5t-231 152.5t-150 233.5t-54.5 294.5q0 206 97 374.5t265.5 264.5t372.5 96q214 0 379.5 -93t255.5 -260t90 -382zM1303 705q0 219 -130.5 363t-343.5 144q-206 0 -341.5 -144
t-135.5 -363q0 -227 136.5 -365.5t342.5 -138.5q211 0 341.5 143t130.5 361zM1141 1569h-635v164h635v-164z" />
    <glyph glyph-name="omacron" unicode="&#x14d;" horiz-adv-x="1265" 
d="M1180 510q0 -231 -156 -384t-393 -153t-391 152.5t-154 384.5q0 230 159 383.5t392 153.5q241 0 392 -149.5t151 -387.5zM940 510q0 138 -84.5 232t-220.5 94q-133 0 -221 -93.5t-88 -232.5q0 -145 89 -234.5t220 -89.5q136 0 220.5 92.5t84.5 231.5zM938 1208h-612v164
h612v-164z" />
    <glyph glyph-name="Obreve" unicode="&#x14e;" horiz-adv-x="1652" 
d="M1556 707q0 -156 -55 -292.5t-151.5 -234t-233 -153.5t-293.5 -56q-156 0 -291.5 55.5t-231 152.5t-150 233.5t-54.5 294.5q0 206 97 374.5t265.5 264.5t372.5 96q214 0 379.5 -93t255.5 -260t90 -382zM1303 705q0 219 -130.5 363t-343.5 144q-206 0 -341.5 -144
t-135.5 -363q0 -227 136.5 -365.5t342.5 -138.5q211 0 341.5 143t130.5 361zM510 1821h156q8 -146 161 -146q158 0 166 146h160q-2 -133 -88.5 -220.5t-239.5 -87.5q-150 0 -232.5 84.5t-82.5 223.5z" />
    <glyph glyph-name="obreve" unicode="&#x14f;" horiz-adv-x="1265" 
d="M1180 510q0 -231 -156 -384t-393 -153t-391 152.5t-154 384.5q0 230 159 383.5t392 153.5q241 0 392 -149.5t151 -387.5zM940 510q0 138 -84.5 232t-220.5 94q-133 0 -221 -93.5t-88 -232.5q0 -145 89 -234.5t220 -89.5q136 0 220.5 92.5t84.5 231.5zM324 1473h153
q8 -154 152 -154q74 0 113.5 36.5t43.5 117.5h156q-2 -136 -83 -226t-232 -90q-147 0 -225 87.5t-78 228.5z" />
    <glyph glyph-name="Ohungarumlaut" unicode="&#x150;" horiz-adv-x="1652" 
d="M1556 707q0 -156 -55 -292.5t-151.5 -234t-233 -153.5t-293.5 -56q-156 0 -291.5 55.5t-231 152.5t-150 233.5t-54.5 294.5q0 206 97 374.5t265.5 264.5t372.5 96q214 0 379.5 -93t255.5 -260t90 -382zM1303 705q0 219 -130.5 363t-343.5 144q-206 0 -341.5 -144
t-135.5 -363q0 -227 136.5 -365.5t342.5 -138.5q211 0 341.5 143t130.5 361zM657 1536h-182v8l275 271h262v-9zM1044 1536h-182v8l275 271h262v-9z" />
    <glyph glyph-name="ohungarumlaut" unicode="&#x151;" horiz-adv-x="1265" 
d="M1180 510q0 -231 -156 -384t-393 -153t-391 152.5t-154 384.5q0 230 159 383.5t392 153.5q241 0 392 -149.5t151 -387.5zM940 510q0 138 -84.5 232t-220.5 94q-133 0 -221 -93.5t-88 -232.5q0 -145 89 -234.5t220 -89.5q136 0 220.5 92.5t84.5 231.5zM492 1178h-177v8
l238 334h252v-9zM864 1178h-176v8l238 334h252v-9z" />
    <glyph glyph-name="OE" unicode="&#x152;" horiz-adv-x="2250" 
d="M2173 0h-918v152q-158 -181 -444 -181q-148 0 -278 52t-226.5 145.5t-152.5 231t-56 300.5q0 169 58.5 310t158 234t230 144.5t276.5 51.5q135 0 249.5 -43.5t184.5 -128.5v143h885v-227h-635v-340h596v-226h-596v-391h668v-227zM1255 432v545q-55 111 -162.5 173
t-258.5 62q-214 0 -348 -143t-134 -358q0 -228 134.5 -368t347.5 -140q291 0 421 229z" />
    <glyph glyph-name="oe" unicode="&#x153;" horiz-adv-x="1978" 
d="M1868 88q-74 -55 -178.5 -85t-214.5 -30q-145 0 -259 52.5t-180 142.5q-147 -195 -411 -195q-80 0 -157.5 21.5t-146.5 66t-121.5 107t-83 151.5t-30.5 193q0 102 33 190.5t88 150.5t125.5 106.5t146.5 66t150 21.5q284 0 409 -191q64 89 177 140t221 51
q229 0 347.5 -128t123.5 -358q0 -79 -6 -125h-742q17 -119 106.5 -186.5t235.5 -67.5q212 0 359 125h8v-219zM926 514q0 82 -25.5 146t-68 102.5t-95 58t-110.5 19.5q-121 0 -211 -87.5t-90 -238.5q0 -82 26.5 -147t70.5 -104.5t97 -60t109 -20.5q126 0 211.5 85t85.5 247z
M1161 614h518v11q0 114 -68 171.5t-181 57.5q-86 0 -169.5 -61.5t-99.5 -178.5z" />
    <glyph glyph-name="Racute" unicode="&#x154;" horiz-adv-x="1302" 
d="M1274 0h-285l-317 547q-31 -2 -97 -2h-159v-545h-252v1411h430q222 0 344 -43q115 -39 182.5 -136t67.5 -235q0 -150 -71.5 -250t-201.5 -149zM416 758h159q178 0 248 33q109 53 109 192q0 130 -125 178q-91 31 -229 31h-162v-434zM664 1534h-222v8l306 268h311v-8z" />
    <glyph glyph-name="racute" unicode="&#x155;" horiz-adv-x="804" 
d="M387 0h-235v1018h231v-158q23 72 95.5 128t180.5 56q78 0 121 -28v-240h-8q-56 33 -135 33q-99 0 -162.5 -41t-87.5 -113v-655zM502 1178h-193v8l260 334h273v-9z" />
    <glyph glyph-name="Rcommaaccent" unicode="&#x156;" horiz-adv-x="1302" 
d="M1274 0h-285l-317 547q-31 -2 -97 -2h-159v-545h-252v1411h430q222 0 344 -43q115 -39 182.5 -136t67.5 -235q0 -150 -71.5 -250t-201.5 -149zM416 758h159q178 0 248 33q109 53 109 192q0 130 -125 178q-91 31 -229 31h-162v-434zM614 -610h-170v8q66 54 111 140.5
t45 182.5q0 87 -29 146h205q23 -45 23 -133q0 -102 -55 -195t-130 -149z" />
    <glyph glyph-name="rcommaaccent" unicode="&#x157;" horiz-adv-x="804" 
d="M387 0h-235v1018h231v-158q23 72 95.5 128t180.5 56q78 0 121 -28v-240h-8q-56 33 -135 33q-99 0 -162.5 -41t-87.5 -113v-655zM205 -610h-170v8q66 54 110.5 140t44.5 183q0 89 -28 146h205q22 -43 22 -133q0 -102 -55 -195t-129 -149z" />
    <glyph glyph-name="Rcaron" unicode="&#x158;" horiz-adv-x="1302" 
d="M1274 0h-285l-317 547q-31 -2 -97 -2h-159v-545h-252v1411h430q222 0 344 -43q115 -39 182.5 -136t67.5 -235q0 -150 -71.5 -250t-201.5 -149zM416 758h159q178 0 248 33q109 53 109 192q0 130 -125 178q-91 31 -229 31h-162v-434zM748 1815h204v-9l-297 -270h-145
l-299 270v9h207l170 -119z" />
    <glyph glyph-name="rcaron" unicode="&#x159;" horiz-adv-x="804" 
d="M387 0h-235v1018h231v-158q23 72 95.5 128t180.5 56q78 0 121 -28v-240h-8q-56 33 -135 33q-99 0 -162.5 -41t-87.5 -113v-655zM580 1513h186v-8l-277 -327h-131l-278 327v8h192l158 -151z" />
    <glyph glyph-name="Sacute" unicode="&#x15a;" horiz-adv-x="1191" 
d="M88 119v268h8q100 -94 235.5 -140t258.5 -46q134 0 203 41.5t69 138.5q0 70 -59 111t-203 83l-166 50q-330 100 -330 393q0 187 142.5 305.5t398.5 118.5q105 0 227.5 -32.5t174.5 -80.5v-262h-9q-75 71 -197 111.5t-229 40.5q-74 0 -126.5 -15.5t-79 -43t-37.5 -57.5
t-11 -65q0 -59 42.5 -102.5t162.5 -81.5l182 -57q201 -62 286 -154t85 -240q0 -87 -30 -162t-92 -137t-168.5 -97.5t-247.5 -35.5q-135 0 -272 39t-218 109zM639 1536h-221v8l305 268h311v-8z" />
    <glyph glyph-name="sacute" unicode="&#x15b;" horiz-adv-x="937" 
d="M84 82v233h8q74 -66 181.5 -101.5t199.5 -35.5q96 0 135 22.5t39 69.5q0 46 -33.5 73t-132.5 54l-131 37q-136 38 -197 108.5t-61 184.5q0 144 111 232t311 88q83 0 182 -23.5t138 -58.5v-228h-9q-56 49 -150.5 77t-174.5 28q-87 0 -128.5 -27t-41.5 -72q0 -37 29.5 -64
t101.5 -46l145 -39q152 -41 216.5 -116t64.5 -187q0 -65 -23.5 -121t-71 -101t-130 -70.5t-191.5 -25.5q-106 0 -217 29.5t-170 79.5zM492 1178h-193v8l260 334h272v-9z" />
    <glyph glyph-name="Scircumflex" unicode="&#x15c;" horiz-adv-x="1191" 
d="M88 119v268h8q100 -94 235.5 -140t258.5 -46q134 0 203 41.5t69 138.5q0 70 -59 111t-203 83l-166 50q-330 100 -330 393q0 187 142.5 305.5t398.5 118.5q105 0 227.5 -32.5t174.5 -80.5v-262h-9q-75 71 -197 111.5t-229 40.5q-74 0 -126.5 -15.5t-79 -43t-37.5 -57.5
t-11 -65q0 -59 42.5 -102.5t162.5 -81.5l182 -57q201 -62 286 -154t85 -240q0 -87 -30 -162t-92 -137t-168.5 -97.5t-247.5 -35.5q-135 0 -272 39t-218 109zM455 1536h-211v8l303 271h145l299 -271v-8h-207l-170 119z" />
    <glyph glyph-name="scircumflex" unicode="&#x15d;" horiz-adv-x="937" 
d="M84 82v233h8q74 -66 181.5 -101.5t199.5 -35.5q96 0 135 22.5t39 69.5q0 46 -33.5 73t-132.5 54l-131 37q-136 38 -197 108.5t-61 184.5q0 144 111 232t311 88q83 0 182 -23.5t138 -58.5v-228h-9q-56 49 -150.5 77t-174.5 28q-87 0 -128.5 -27t-41.5 -72q0 -37 29.5 -64
t101.5 -46l145 -39q152 -41 216.5 -116t64.5 -187q0 -65 -23.5 -121t-71 -101t-130 -70.5t-191.5 -25.5q-106 0 -217 29.5t-170 79.5zM342 1178h-186v8l276 327h131l279 -327v-8h-193l-157 151z" />
    <glyph glyph-name="Scedilla" unicode="&#x15e;" horiz-adv-x="1191" 
d="M371 -502v137h8q61 -38 139 -38q107 0 107 84q0 37 -30 59t-83 22q-49 0 -80 -16l-6 4l63 225q-119 11 -226 48t-175 96v268h8q100 -94 235.5 -140t258.5 -46q134 0 203 41.5t69 138.5q0 70 -59 111t-203 83l-166 50q-330 100 -330 393q0 187 142.5 305.5t398.5 118.5
q105 0 227.5 -32.5t174.5 -80.5v-262h-9q-75 71 -197 111.5t-229 40.5q-74 0 -126.5 -15.5t-79 -43t-37.5 -57.5t-11 -65q0 -59 42.5 -102.5t162.5 -81.5l182 -57q201 -62 286 -154t85 -240q0 -84 -28 -156.5t-85.5 -133t-156 -98t-228.5 -42.5l-30 -96h8q95 0 149 -53
t54 -143q0 -104 -72.5 -162t-204.5 -58q-39 0 -82.5 11t-68.5 26z" />
    <glyph glyph-name="scedilla" unicode="&#x15f;" horiz-adv-x="937" 
d="M268 -487v133h8q59 -37 130 -37q112 0 112 80q0 37 -28.5 58.5t-81.5 21.5q-44 0 -78 -15l-6 4l63 219q-90 9 -172.5 37t-130.5 68v233h8q74 -66 181.5 -101.5t199.5 -35.5q96 0 135 22.5t39 69.5q0 46 -33.5 73t-132.5 54l-131 37q-136 38 -197 108.5t-61 184.5
q0 144 111 232t311 88q83 0 182 -23.5t138 -58.5v-228h-9q-56 49 -150.5 77t-174.5 28q-87 0 -128.5 -27t-41.5 -72q0 -37 29.5 -64t101.5 -46l145 -39q152 -41 216.5 -116t64.5 -187q0 -62 -21 -115.5t-64.5 -97.5t-117.5 -71.5t-172 -31.5l-29 -94h9q91 0 144.5 -48
t53.5 -136q0 -106 -71 -163.5t-201 -57.5q-38 0 -81.5 11t-68.5 26z" />
    <glyph glyph-name="Scaron" unicode="&#x160;" horiz-adv-x="1191" 
d="M88 119v268h8q100 -94 235.5 -140t258.5 -46q134 0 203 41.5t69 138.5q0 70 -59 111t-203 83l-166 50q-330 100 -330 393q0 187 142.5 305.5t398.5 118.5q105 0 227.5 -32.5t174.5 -80.5v-262h-9q-75 71 -197 111.5t-229 40.5q-74 0 -126.5 -15.5t-79 -43t-37.5 -57.5
t-11 -65q0 -59 42.5 -102.5t162.5 -81.5l182 -57q201 -62 286 -154t85 -240q0 -87 -30 -162t-92 -137t-168.5 -97.5t-247.5 -35.5q-135 0 -272 39t-218 109zM770 1815h205v-9l-297 -270h-146l-299 270v9h207l170 -119z" />
    <glyph glyph-name="scaron" unicode="&#x161;" horiz-adv-x="937" 
d="M84 82v233h8q74 -66 181.5 -101.5t199.5 -35.5q96 0 135 22.5t39 69.5q0 46 -33.5 73t-132.5 54l-131 37q-136 38 -197 108.5t-61 184.5q0 144 111 232t311 88q83 0 182 -23.5t138 -58.5v-228h-9q-56 49 -150.5 77t-174.5 28q-87 0 -128.5 -27t-41.5 -72q0 -37 29.5 -64
t101.5 -46l145 -39q152 -41 216.5 -116t64.5 -187q0 -65 -23.5 -121t-71 -101t-130 -70.5t-191.5 -25.5q-106 0 -217 29.5t-170 79.5zM649 1513h187v-8l-277 -327h-131l-278 327v8h192l158 -151z" />
    <glyph glyph-name="uni0162" unicode="&#x162;" horiz-adv-x="1191" 
d="M391 -502v137h8q61 -38 140 -38q106 0 106 84q0 37 -30 59t-83 22q-48 0 -79 -16l-7 4l72 250h-55v1182h-424v229h1116v-229h-440v-1182h-68l-39 -123h8q95 0 149 -53t54 -143q0 -104 -72 -162t-204 -58q-39 0 -83 11t-69 26z" />
    <glyph glyph-name="uni0163" unicode="&#x163;" horiz-adv-x="733" 
d="M223 -487v133h8q59 -37 129 -37q113 0 113 80q0 37 -29 58.5t-82 21.5q-42 0 -77 -15l-6 4l71 246q-66 29 -96 72q-61 81 -61 258v493h-152v191h154q0 18 10 291h225v-291h262v-191h-262v-458q0 -94 25 -136q29 -45 116 -45t148 37h8v-198q-38 -25 -103.5 -37.5
t-127.5 -12.5q-15 0 -27 3l-31 -99h8q91 0 145 -48t54 -136q0 -106 -71 -163.5t-201 -57.5q-38 0 -81.5 11t-68.5 26z" />
    <glyph glyph-name="Tcaron" unicode="&#x164;" horiz-adv-x="1191" 
d="M715 0h-252v1182h-424v229h1116v-229h-440v-1182zM756 1815h205v-9l-297 -270h-146l-299 270v9h207l170 -119z" />
    <glyph glyph-name="tcaron" unicode="&#x165;" horiz-adv-x="733" 
d="M727 27q-38 -25 -103.5 -37.5t-127.5 -12.5q-76 0 -142 27t-100 72q-61 81 -61 258v493h-152v191h154q0 18 10 291h225v-291h262v-191h-262v-458q0 -94 25 -136q29 -45 116 -45t148 37h8v-198zM672 1120h-170v8q65 54 110 140.5t45 183.5q0 90 -28 147h205
q22 -45 22 -135q0 -102 -54.5 -194t-129.5 -150z" />
    <glyph glyph-name="Tbar" unicode="&#x166;" horiz-adv-x="1191" 
d="M715 0h-252v651h-287v191h287v340h-424v229h1116v-229h-440v-340h286v-191h-286v-651z" />
    <glyph glyph-name="tbar" unicode="&#x167;" horiz-adv-x="733" 
d="M727 27q-38 -25 -103.5 -37.5t-127.5 -12.5q-76 0 -142 27t-100 72q-61 81 -61 258v164h-140v164h140v165h-152v191h154q0 18 10 291h225v-291h262v-191h-262v-165h240v-164h-240v-129q0 -94 25 -136q29 -45 116 -45t148 37h8v-198z" />
    <glyph glyph-name="Utilde" unicode="&#x168;" horiz-adv-x="1492" 
d="M1339 1411v-799q0 -149 -18 -238t-59 -157q-66 -108 -203 -177t-316 -69q-180 0 -319.5 65t-204.5 183q-65 122 -65 389v803h252v-770q0 -73 2 -116t14 -98t35 -95q34 -63 112.5 -98t182.5 -35q195 0 284 129q60 86 60 303v780h243zM528 1536h-151q7 136 66.5 205
t154.5 69q63 0 162 -57q72 -43 119 -43q32 0 48 22.5t23 82.5h150q-9 -137 -67 -208t-144 -71q-44 0 -78.5 10t-89.5 39q-94 51 -125 51q-29 0 -45.5 -22.5t-22.5 -77.5z" />
    <glyph glyph-name="utilde" unicode="&#x169;" horiz-adv-x="1226" 
d="M1073 0h-227v127q-107 -154 -336 -154q-280 0 -344 217q-23 85 -23 244v582h236v-539q0 -125 22 -186q38 -94 174 -94q83 0 151.5 34t111.5 91v694h235v-1016zM408 1206h-150q9 137 66.5 209t146.5 72q66 0 158 -57q74 -46 110 -46q31 0 46.5 23t21.5 84h147
q-9 -139 -64.5 -213t-137.5 -74q-42 0 -74 9.5t-88 39.5q-11 6 -31.5 17t-29 15t-21 10t-20.5 8t-15 2q-27 0 -43 -22.5t-22 -76.5z" />
    <glyph glyph-name="Umacron" unicode="&#x16a;" horiz-adv-x="1492" 
d="M1339 1411v-799q0 -149 -18 -238t-59 -157q-66 -108 -203 -177t-316 -69q-180 0 -319.5 65t-204.5 183q-65 122 -65 389v803h252v-770q0 -73 2 -116t14 -98t35 -95q34 -63 112.5 -98t182.5 -35q195 0 284 129q60 86 60 303v780h243zM1065 1569h-635v164h635v-164z" />
    <glyph glyph-name="umacron" unicode="&#x16b;" horiz-adv-x="1226" 
d="M1073 0h-227v127q-107 -154 -336 -154q-280 0 -344 217q-23 85 -23 244v582h236v-539q0 -125 22 -186q38 -94 174 -94q83 0 151.5 34t111.5 91v694h235v-1016zM909 1208h-612v164h612v-164z" />
    <glyph glyph-name="Ubreve" unicode="&#x16c;" horiz-adv-x="1492" 
d="M1339 1411v-799q0 -149 -18 -238t-59 -157q-66 -108 -203 -177t-316 -69q-180 0 -319.5 65t-204.5 183q-65 122 -65 389v803h252v-770q0 -73 2 -116t14 -98t35 -95q34 -63 112.5 -98t182.5 -35q195 0 284 129q60 86 60 303v780h243zM432 1821h156q8 -146 162 -146
q157 0 165 146h160q-2 -133 -88 -220.5t-239 -87.5q-150 0 -233 84.5t-83 223.5z" />
    <glyph glyph-name="ubreve" unicode="&#x16d;" horiz-adv-x="1226" 
d="M1073 0h-227v127q-107 -154 -336 -154q-280 0 -344 217q-23 85 -23 244v582h236v-539q0 -125 22 -186q38 -94 174 -94q83 0 151.5 34t111.5 91v694h235v-1016zM297 1473h154q8 -154 151 -154q74 0 114 36.5t44 117.5h155q-2 -136 -83 -226t-232 -90q-147 0 -225 87.5
t-78 228.5z" />
    <glyph glyph-name="Uring" unicode="&#x16e;" horiz-adv-x="1492" 
d="M1339 1411v-799q0 -149 -18 -238t-59 -157q-66 -108 -203 -177t-316 -69q-180 0 -319.5 65t-204.5 183q-65 122 -65 389v803h252v-770q0 -73 2 -116t14 -98t35 -95q34 -63 112.5 -98t182.5 -35q195 0 284 129q60 86 60 303v780h243zM956 1673q0 -85 -60 -142.5
t-148 -57.5t-148.5 57t-60.5 143q0 88 61 144.5t152 56.5t147.5 -56t56.5 -145zM862 1675q0 51 -31.5 83t-82.5 32q-53 0 -84 -33t-31 -84q0 -49 31 -81.5t88 -32.5q51 0 80.5 33.5t29.5 82.5z" />
    <glyph glyph-name="uring" unicode="&#x16f;" horiz-adv-x="1226" 
d="M1073 0h-227v127q-107 -154 -336 -154q-280 0 -344 217q-23 85 -23 244v582h236v-539q0 -125 22 -186q38 -94 174 -94q83 0 151.5 34t111.5 91v694h235v-1016zM821 1370q0 -86 -62 -145.5t-151 -59.5t-150 58.5t-61 146.5q0 91 61.5 149t153.5 58q94 0 151.5 -57.5
t57.5 -149.5zM727 1372q0 55 -33 89t-86 34t-84.5 -35t-31.5 -90q0 -51 31.5 -86t88.5 -35q52 0 83.5 35.5t31.5 87.5z" />
    <glyph glyph-name="Uhungarumlaut" unicode="&#x170;" horiz-adv-x="1492" 
d="M1339 1411v-799q0 -149 -18 -238t-59 -157q-66 -108 -203 -177t-316 -69q-180 0 -319.5 65t-204.5 183q-65 122 -65 389v803h252v-770q0 -73 2 -116t14 -98t35 -95q34 -63 112.5 -98t182.5 -35q195 0 284 129q60 86 60 303v780h243zM586 1536h-183v8l275 271h262v-9z
M973 1536h-182v8l274 271h262v-9z" />
    <glyph glyph-name="uhungarumlaut" unicode="&#x171;" horiz-adv-x="1226" 
d="M1073 0h-227v127q-107 -154 -336 -154q-280 0 -344 217q-23 85 -23 244v582h236v-539q0 -125 22 -186q38 -94 174 -94q83 0 151.5 34t111.5 91v694h235v-1016zM467 1178h-176v8l237 334h252v-9zM840 1178h-176v8l237 334h252v-9z" />
    <glyph glyph-name="Uogonek" unicode="&#x172;" horiz-adv-x="1492" 
d="M1339 1411v-799q0 -149 -18 -238t-59 -157q-56 -91 -164 -155t-250 -82q-97 -69 -135.5 -124t-38.5 -124q0 -51 33.5 -82t97.5 -31q62 0 119 31h8v-131q-74 -47 -182 -47q-113 0 -183.5 61.5t-70.5 173.5q0 157 176 268q-156 12 -275.5 75t-177.5 169q-65 122 -65 389
v803h252v-770q0 -73 2 -116t14 -98t35 -95q34 -63 112.5 -98t182.5 -35q195 0 284 129q60 86 60 303v780h243z" />
    <glyph glyph-name="uogonek" unicode="&#x173;" horiz-adv-x="1226" 
d="M1073 0h-74q-108 -74 -149 -131t-41 -129q0 -47 32.5 -77t88.5 -30q73 0 121 31h8v-127q-64 -47 -178 -47q-109 0 -177.5 59t-68.5 168q0 173 211 285v125q-107 -154 -336 -154q-280 0 -344 217q-23 85 -23 244v582h236v-539q0 -125 22 -186q38 -94 174 -94
q83 0 151.5 34t111.5 91v694h235v-1016z" />
    <glyph glyph-name="Wcircumflex" unicode="&#x174;" horiz-adv-x="2021" 
d="M670 0h-226l-413 1411h276q144 -511 194.5 -697.5t82.5 -334.5q75 277 325 1032h211q276 -817 334 -1032q73 320 270 1032h267l-418 -1411h-225q-268 821 -340 1071q-80 -283 -338 -1071zM844 1536h-211v8l303 271h145l299 -271v-8h-206l-170 119z" />
    <glyph glyph-name="wcircumflex" unicode="&#x175;" horiz-adv-x="1624" 
d="M557 0h-195l-329 1018h256q147 -501 194 -686q59 194 240 686h186q207 -562 248 -690q41 158 189 690h247l-333 -1018h-193q-241 670 -258 719q-55 -177 -252 -719zM653 1178h-186v8l276 327h131l279 -327v-8h-192l-158 151z" />
    <glyph glyph-name="Ycircumflex" unicode="&#x176;" horiz-adv-x="1333" 
d="M788 0h-253v557l-529 854h291q280 -452 369 -625q135 237 381 625h280l-539 -854v-557zM500 1536h-211v8l303 271h145l299 -271v-8h-207l-170 119z" />
    <glyph glyph-name="ycircumflex" unicode="&#x177;" horiz-adv-x="1093" 
d="M55 -401v208h8q52 -40 160 -40q94 0 137 61q34 43 64 137l14 47l-426 1006h267q211 -531 284 -746q23 66 268 746h256l-417 -1059q-44 -109 -68 -161.5t-51 -90.5q-100 -147 -309 -147q-48 0 -101.5 10.5t-85.5 28.5zM401 1178h-186v8l277 327h131l278 -327v-8h-192
l-158 151z" />
    <glyph glyph-name="Ydieresis" unicode="&#x178;" horiz-adv-x="1333" 
d="M788 0h-253v557l-529 854h291q280 -452 369 -625q135 237 381 625h280l-539 -854v-557zM596 1663q0 -55 -34.5 -89t-88.5 -34q-53 0 -89 34t-36 89q0 63 38 97t87 34t86 -34t37 -97zM979 1663q0 -55 -35 -89t-90 -34q-52 0 -87.5 33.5t-35.5 89.5q0 63 37 97t86 34
t87 -34t38 -97z" />
    <glyph glyph-name="Zacute" unicode="&#x179;" horiz-adv-x="1284" 
d="M1227 0h-1184v145q788 989 829 1039h-763v227h1114v-156q-205 -260 -363 -458t-225 -281t-141 -174.5t-93 -114.5h826v-227zM711 1536h-222v8l306 268h311v-8z" />
    <glyph glyph-name="zacute" unicode="&#x17a;" horiz-adv-x="1032" 
d="M967 0h-914v139q36 42 584 672h-545v207h860v-152q-397 -460 -583 -659h598v-207zM565 1178h-192v8l260 334h272v-9z" />
    <glyph glyph-name="Zdotaccent" unicode="&#x17b;" horiz-adv-x="1284" 
d="M1227 0h-1184v145q788 989 829 1039h-763v227h1114v-156q-205 -260 -363 -458t-225 -281t-141 -174.5t-93 -114.5h826v-227zM809 1663q0 -55 -34.5 -89t-88.5 -34q-52 0 -87.5 33.5t-35.5 89.5q0 63 37 97t86 34q48 0 85.5 -34t37.5 -97z" />
    <glyph glyph-name="zdotaccent" unicode="&#x17c;" horiz-adv-x="1032" 
d="M967 0h-914v139q36 42 584 672h-545v207h860v-152q-397 -460 -583 -659h598v-207zM655 1346q0 -55 -34.5 -90t-88.5 -35q-52 0 -87 34.5t-35 90.5q0 62 36.5 95.5t85.5 33.5q48 0 85.5 -34t37.5 -95z" />
    <glyph glyph-name="Zcaron" unicode="&#x17d;" horiz-adv-x="1284" 
d="M1227 0h-1184v145q788 989 829 1039h-763v227h1114v-156q-205 -260 -363 -458t-225 -281t-141 -174.5t-93 -114.5h826v-227zM836 1815h204v-9l-297 -270h-145l-299 270v9h207l170 -119z" />
    <glyph glyph-name="zcaron" unicode="&#x17e;" horiz-adv-x="1032" 
d="M967 0h-914v139q36 42 584 672h-545v207h860v-152q-397 -460 -583 -659h598v-207zM676 1513h186v-8l-276 -327h-131l-279 327v8h193l157 -151z" />
    <glyph glyph-name="longs" unicode="&#x17f;" horiz-adv-x="557" 
d="M387 0h-235v1110q0 203 94 301q105 105 291 105q97 0 165 -35v-201h-8q-57 33 -141 33q-82 0 -127 -51q-39 -45 -39 -164v-1098z" />
    <glyph glyph-name="florin" unicode="&#x192;" horiz-adv-x="1028" 
d="M10 -240v222h8q22 -18 61 -28.5t71 -10.5q58 0 91.5 15.5t53.5 55.5q23 52 29 129l51 566h-187v157h199l19 162q17 159 88 242q99 121 286 121q61 0 121 -15.5t88 -38.5v-221h-8q-65 51 -168 51q-81 0 -123 -45q-38 -41 -49 -133l-12 -123h233v-157h-246l-57 -611
q-12 -130 -47 -202q-80 -175 -330 -175q-44 0 -93.5 11.5t-78.5 27.5z" />
    <glyph glyph-name="Aringacute" unicode="&#x1fa;" horiz-adv-x="1372" 
d="M881 1518q0 -81 -62 -140l543 -1378h-275l-137 360h-536l-140 -360h-266l547 1380q-57 54 -57 138q0 81 55 134.5t139 53.5q85 0 137 -52.5t52 -135.5zM485 575h389q-97 252 -192 517q-51 -141 -197 -517zM741 1761h-176v8l271 242h270v-8zM788 1520q0 45 -28.5 72.5
t-71.5 27.5t-69.5 -28t-26.5 -74t26 -74.5t74 -28.5q44 0 70 29.5t26 75.5z" />
    <glyph glyph-name="aringacute" unicode="&#x1fb;" horiz-adv-x="1116" 
d="M1108 12q-51 -28 -139 -28q-84 0 -138 34.5t-73 96.5q-99 -142 -314 -142q-163 0 -262.5 88t-99.5 228q0 58 17.5 106.5t48 82t65.5 56t76 37.5q75 26 143 34.5t170 8.5q70 0 125 -10v41q0 85 -41 129q-54 60 -172 60q-81 0 -178 -27t-168 -90h-8v213q81 61 189 89
t214 28q94 0 170 -22.5t121 -61.5q55 -46 79.5 -119t24.5 -193q0 -38 -1 -135.5t-1 -136.5q0 -109 11 -141q16 -45 69 -45q43 0 72 14v-195zM729 272q-2 33 -2 156q-58 10 -121 10q-116 0 -180 -18q-107 -30 -107 -125q0 -61 49 -96t130 -35q68 0 129.5 27.5t101.5 80.5z
M772 1370q0 -87 -61.5 -146t-151.5 -59q-91 0 -151 58.5t-60 146.5q0 91 61 149t154 58q94 0 151.5 -57.5t57.5 -149.5zM678 1372q0 55 -33 89t-86 34t-85 -35t-32 -90q0 -50 32.5 -85.5t88.5 -35.5q52 0 83.5 35.5t31.5 87.5zM612 1649h-190v8l256 313h270v-8z" />
    <glyph glyph-name="AEacute" unicode="&#x1fc;" horiz-adv-x="2025" 
d="M305 0h-305l911 1411h1006v-227h-635v-342h594v-224h-594v-391h668v-227h-920v375h-479zM664 592h366v577q-98 -165 -366 -577zM1411 1536h-221v8l305 268h311v-8z" />
    <glyph glyph-name="aeacute" unicode="&#x1fd;" horiz-adv-x="1775" 
d="M1669 90q-67 -55 -176 -86t-223 -31q-136 0 -242 44.5t-176 123.5q-153 -168 -406 -168q-162 0 -261 88t-99 228q0 107 55 179.5t140 102.5q71 26 145.5 34.5t179.5 8.5q63 0 129 -12v45q0 83 -37 129q-49 58 -178 58q-80 0 -173.5 -27t-168.5 -88h-8v209
q167 119 391 119q250 0 330 -146q58 69 154 107.5t194 38.5q225 0 342.5 -126t122.5 -354q0 -71 -8 -123h-738q7 -119 103 -190.5t237 -71.5q205 0 363 123h8v-215zM961 614h514v15q0 109 -67 167t-177 58q-59 0 -115 -23.5t-101 -80t-54 -136.5zM766 283q-20 52 -27 145
q-41 10 -129 10q-122 0 -194 -22q-43 -14 -67.5 -44t-24.5 -73q0 -64 47 -99.5t127 -35.5q70 0 148.5 33.5t119.5 85.5zM942 1178h-192v8l260 334h272v-9z" />
    <glyph glyph-name="Oslashacute" unicode="&#x1fe;" horiz-adv-x="1652" 
d="M397 -86h-164l134 207q-128 100 -199.5 251.5t-71.5 334.5q0 206 97 374.5t265.5 264.5t372.5 96q184 0 338 -74l93 143h170l-142 -217q127 -98 196.5 -249t69.5 -338q0 -156 -55 -292.5t-151.5 -234t-233 -153.5t-293.5 -56q-188 0 -340 76zM1303 705q0 235 -148 380
l-543 -839q98 -49 219 -49q140 0 248 67t166 182.5t58 258.5zM352 705q0 -237 148 -379l540 843q-94 48 -211 48q-205 0 -341 -146t-136 -366zM889 1536h-221v8l305 268h311v-8z" />
    <glyph glyph-name="oslashacute" unicode="&#x1ff;" horiz-adv-x="1265" 
d="M315 -100h-147l119 184q-95 73 -148 183.5t-53 242.5q0 230 159 383.5t392 153.5q129 0 237 -48l82 127h148l-121 -190q94 -72 145.5 -181.5t51.5 -244.5q0 -231 -156 -384t-393 -153q-125 0 -238 47zM326 510q0 -147 84 -234l346 539q-55 25 -121 25
q-136 0 -222.5 -93.5t-86.5 -236.5zM940 510q0 138 -82 233l-346 -538q61 -23 123 -23q136 0 220.5 93t84.5 235zM672 1178h-193v8l260 334h273v-9z" />
    <glyph glyph-name="uni0218" unicode="&#x218;" horiz-adv-x="1191" 
d="M88 119v268h8q100 -94 235.5 -140t258.5 -46q134 0 203 41.5t69 138.5q0 70 -59 111t-203 83l-166 50q-330 100 -330 393q0 187 142.5 305.5t398.5 118.5q105 0 227.5 -32.5t174.5 -80.5v-262h-9q-75 71 -197 111.5t-229 40.5q-74 0 -126.5 -15.5t-79 -43t-37.5 -57.5
t-11 -65q0 -59 42.5 -102.5t162.5 -81.5l182 -57q201 -62 286 -154t85 -240q0 -87 -30 -162t-92 -137t-168.5 -97.5t-247.5 -35.5q-135 0 -272 39t-218 109zM510 -610h-170v8q66 54 111 140.5t45 182.5q0 87 -29 146h205q22 -43 22 -133q0 -102 -55 -195t-129 -149z" />
    <glyph glyph-name="uni0219" unicode="&#x219;" horiz-adv-x="937" 
d="M84 82v233h8q74 -66 181.5 -101.5t199.5 -35.5q96 0 135 22.5t39 69.5q0 46 -33.5 73t-132.5 54l-131 37q-136 38 -197 108.5t-61 184.5q0 144 111 232t311 88q83 0 182 -23.5t138 -58.5v-228h-9q-56 49 -150.5 77t-174.5 28q-87 0 -128.5 -27t-41.5 -72q0 -37 29.5 -64
t101.5 -46l145 -39q152 -41 216.5 -116t64.5 -187q0 -65 -23.5 -121t-71 -101t-130 -70.5t-191.5 -25.5q-106 0 -217 29.5t-170 79.5zM403 -610h-170v8q66 54 111 140.5t45 182.5q0 87 -29 146h205q23 -45 23 -133q0 -102 -55 -195t-130 -149z" />
    <glyph glyph-name="uni021A" unicode="&#x21a;" horiz-adv-x="1191" 
d="M715 0h-252v1182h-424v229h1116v-229h-440v-1182zM535 -610h-170v8q66 54 110.5 140t44.5 183q0 89 -28 146h204q23 -45 23 -133q0 -102 -55 -195t-129 -149z" />
    <glyph glyph-name="uni021B" unicode="&#x21b;" horiz-adv-x="733" 
d="M727 27q-38 -25 -103.5 -37.5t-127.5 -12.5q-76 0 -142 27t-100 72q-61 81 -61 258v493h-152v191h154q0 18 10 291h225v-291h262v-191h-262v-458q0 -94 25 -136q29 -45 116 -45t148 37h8v-198zM352 -610h-170v8q66 54 111 140.5t45 182.5q0 87 -29 146h205
q23 -45 23 -133q0 -102 -55 -195t-130 -149z" />
    <glyph glyph-name="circumflex" unicode="&#x2c6;" horiz-adv-x="430" 
d="M59 1178h-186v8l277 327h131l278 -327v-8h-192l-158 151z" />
    <glyph glyph-name="caron" unicode="&#x2c7;" horiz-adv-x="430" 
d="M373 1513h186v-8l-276 -327h-131l-279 327v8h193l157 -151z" />
    <glyph glyph-name="breve" unicode="&#x2d8;" horiz-adv-x="430" 
d="M-94 1473h153q8 -154 152 -154q74 0 114 36.5t44 117.5h155q-2 -136 -83 -226t-232 -90q-147 0 -225 87.5t-78 228.5z" />
    <glyph glyph-name="dotaccent" unicode="&#x2d9;" horiz-adv-x="430" 
d="M338 1346q0 -55 -34.5 -90t-88.5 -35q-52 0 -87.5 34.5t-35.5 90.5q0 62 37 95.5t86 33.5q48 0 85.5 -34t37.5 -95z" />
    <glyph glyph-name="ring" unicode="&#x2da;" horiz-adv-x="430" 
d="M426 1370q0 -86 -62 -145.5t-151 -59.5t-150 58.5t-61 146.5q0 91 61.5 149t153.5 58q94 0 151.5 -57.5t57.5 -149.5zM332 1372q0 55 -33 89t-86 34t-85 -35t-32 -90q0 -50 32 -85.5t89 -35.5q52 0 83.5 35.5t31.5 87.5z" />
    <glyph glyph-name="ogonek" unicode="&#x2db;" horiz-adv-x="430" 
d="M412 31q-138 -88 -189 -151t-51 -140q0 -47 32.5 -77t88.5 -30q73 0 121 31h8v-127q-64 -47 -178 -47q-109 0 -177.5 59t-68.5 168q0 192 270 314h144z" />
    <glyph glyph-name="tilde" unicode="&#x2dc;" horiz-adv-x="430" 
d="M16 1206h-149q9 137 66.5 209t146.5 72q66 0 158 -57q74 -46 110 -46q31 0 46.5 23t21.5 84h147q-9 -139 -65 -213t-138 -74q-42 0 -73.5 9.5t-87.5 39.5q-11 6 -31.5 17t-29 15t-21 10t-20.5 8t-15 2q-55 0 -66 -99z" />
    <glyph glyph-name="hungarumlaut" unicode="&#x2dd;" horiz-adv-x="430" 
d="M-41 1178h-176v8l237 334h252v-9zM332 1178h-176v8l237 334h252v-9z" />
    <glyph glyph-name="uni0394" unicode="&#x394;" horiz-adv-x="1456" 
d="M1444 0h-1434l617 1411h221zM731 1151q-62 -174 -389 -940h768q-287 676 -379 940z" />
    <glyph glyph-name="uni03A9" unicode="&#x3a9;" horiz-adv-x="1536" 
d="M670 0h-564v205h394q-185 74 -286 225t-101 361q0 149 52.5 271.5t142.5 202.5t210 123.5t256 43.5q286 0 464.5 -170.5t178.5 -460.5q0 -210 -100 -361.5t-287 -234.5h397v-205h-561v303q308 125 308 463q0 205 -118 329t-286 124q-172 0 -290 -125t-118 -332
q0 -171 79 -288t229 -171v-303z" />
    <glyph glyph-name="uni03BC" unicode="&#x3bc;" horiz-adv-x="1224" 
d="M385 -432h-238v1448h236v-547q0 -127 25 -182q19 -41 64 -65.5t108 -24.5q179 0 262 137v682h235v-1016h-227v141q-81 -155 -279 -155q-133 0 -186 69v-487z" />
    <glyph glyph-name="pi" unicode="&#x3c0;" horiz-adv-x="1259" 
d="M1186 821h-127v-440q0 -237 43 -381h-225q-37 151 -37 377v444h-385v-821h-217v821h-125v195h1073v-195z" />
    <glyph glyph-name="Wgrave" unicode="&#x1e80;" horiz-adv-x="2021" 
d="M670 0h-226l-413 1411h276q144 -511 194.5 -697.5t82.5 -334.5q75 277 325 1032h211q276 -817 334 -1032q73 320 270 1032h267l-418 -1411h-225q-268 821 -340 1071q-80 -283 -338 -1071zM1196 1536h-219l-397 268v8h311l305 -268v-8z" />
    <glyph glyph-name="wgrave" unicode="&#x1e81;" horiz-adv-x="1624" 
d="M557 0h-195l-329 1018h256q147 -501 194 -686q59 194 240 686h186q207 -562 248 -690q41 158 189 690h247l-333 -1018h-193q-241 670 -258 719q-55 -177 -252 -719zM989 1178h-192l-355 333v9h285l262 -334v-8z" />
    <glyph glyph-name="Wacute" unicode="&#x1e82;" horiz-adv-x="2021" 
d="M670 0h-226l-413 1411h276q144 -511 194.5 -697.5t82.5 -334.5q75 277 325 1032h211q276 -817 334 -1032q73 320 270 1032h267l-418 -1411h-225q-268 821 -340 1071q-80 -283 -338 -1071zM1063 1536h-221v8l305 268h311v-8z" />
    <glyph glyph-name="wacute" unicode="&#x1e83;" horiz-adv-x="1624" 
d="M557 0h-195l-329 1018h256q147 -501 194 -686q59 194 240 686h186q207 -562 248 -690q41 158 189 690h247l-333 -1018h-193q-241 670 -258 719q-55 -177 -252 -719zM860 1178h-192v8l260 334h272v-9z" />
    <glyph glyph-name="Wdieresis" unicode="&#x1e84;" horiz-adv-x="2021" 
d="M670 0h-226l-413 1411h276q144 -511 194.5 -697.5t82.5 -334.5q75 277 325 1032h211q276 -817 334 -1032q73 320 270 1032h267l-418 -1411h-225q-268 821 -340 1071q-80 -283 -338 -1071zM940 1663q0 -55 -34.5 -89t-88.5 -34q-53 0 -89 34t-36 89q0 63 38 97t87 34
t86 -34t37 -97zM1323 1663q0 -55 -35 -89t-90 -34q-52 0 -87.5 33.5t-35.5 89.5q0 63 37 97t86 34t87 -34t38 -97z" />
    <glyph glyph-name="wdieresis" unicode="&#x1e85;" horiz-adv-x="1624" 
d="M557 0h-195l-329 1018h256q147 -501 194 -686q59 194 240 686h186q207 -562 248 -690q41 158 189 690h247l-333 -1018h-193q-241 670 -258 719q-55 -177 -252 -719zM756 1346q0 -55 -34.5 -90t-88.5 -35q-52 0 -88.5 34.5t-36.5 90.5q0 62 38 95.5t87 33.5t86 -33.5
t37 -95.5zM1122 1346q0 -55 -35.5 -90t-89.5 -35q-52 0 -87.5 34.5t-35.5 90.5q0 62 37 95.5t86 33.5q48 0 86.5 -34t38.5 -95z" />
    <glyph glyph-name="Ygrave" unicode="&#x1ef2;" horiz-adv-x="1333" 
d="M788 0h-253v557l-529 854h291q280 -452 369 -625q135 237 381 625h280l-539 -854v-557zM854 1536h-219l-397 268v8h311l305 -268v-8z" />
    <glyph glyph-name="ygrave" unicode="&#x1ef3;" horiz-adv-x="1093" 
d="M55 -401v208h8q52 -40 160 -40q94 0 137 61q34 43 64 137l14 47l-426 1006h267q211 -531 284 -746q23 66 268 746h256l-417 -1059q-44 -109 -68 -161.5t-51 -90.5q-100 -147 -309 -147q-48 0 -101.5 10.5t-85.5 28.5zM696 1178h-192l-354 333v9h284l262 -334v-8z" />
    <glyph glyph-name="endash" unicode="&#x2013;" horiz-adv-x="1101" 
d="M1026 471h-948v174h948v-174z" />
    <glyph glyph-name="emdash" unicode="&#x2014;" horiz-adv-x="1722" 
d="M1642 471h-1564v174h1564v-174z" />
    <glyph glyph-name="quoteleft" unicode="&#x2018;" horiz-adv-x="438" 
d="M252 1473h172v-9q-72 -64 -120 -163.5t-48 -213.5q0 -105 31 -176h-219q-23 62 -23 158q0 122 61.5 230.5t145.5 173.5z" />
    <glyph glyph-name="quoteright" unicode="&#x2019;" horiz-adv-x="438" 
d="M160 911h-170v9q72 64 120 164t48 214q0 106 -29 175h217q23 -62 23 -156q0 -123 -62 -233t-147 -173z" />
    <glyph glyph-name="quotesinglbase" unicode="&#x201a;" horiz-adv-x="436" 
d="M160 -289h-170v8q72 64 120 163.5t48 213.5q0 105 -29 174h217q23 -59 23 -155q0 -123 -62 -231.5t-147 -172.5z" />
    <glyph glyph-name="quotedblleft" unicode="&#x201c;" horiz-adv-x="851" 
d="M631 1473h170v-9q-71 -64 -118.5 -163.5t-47.5 -213.5q0 -104 29 -176h-218q-22 59 -22 158q0 123 61.5 231.5t145.5 172.5zM252 1473h172v-9q-72 -64 -120 -163.5t-48 -213.5q0 -105 31 -176h-219q-23 62 -23 158q0 122 61.5 230.5t145.5 173.5z" />
    <glyph glyph-name="quotedblright" unicode="&#x201d;" horiz-adv-x="849" 
d="M160 911h-170v9q72 64 120 164t48 214q0 106 -29 175h217q23 -62 23 -156q0 -123 -62 -233t-147 -173zM539 911h-170v9q71 64 118.5 164t47.5 214q0 106 -29 175h219q23 -62 23 -156q0 -123 -62.5 -232.5t-146.5 -173.5z" />
    <glyph glyph-name="quotedblbase" unicode="&#x201e;" horiz-adv-x="849" 
d="M160 -289h-170v8q72 64 120 163.5t48 213.5q0 105 -29 174h217q23 -59 23 -155q0 -123 -62 -231.5t-147 -172.5zM539 -289h-170v8q71 64 118.5 163.5t47.5 213.5q0 105 -29 174h219q23 -59 23 -155q0 -122 -62 -231t-147 -173z" />
    <glyph glyph-name="dagger" unicode="&#x2020;" horiz-adv-x="983" 
d="M588 -182h-193v1050h-352v185h352v417h193v-419h352v-183h-352v-1050z" />
    <glyph glyph-name="daggerdbl" unicode="&#x2021;" horiz-adv-x="976" 
d="M932 254h-346v-436h-197v436h-346v188h346v437h-346v184h346v407h197v-409h346v-182h-346v-437h346v-188z" />
    <glyph glyph-name="bullet" unicode="&#x2022;" horiz-adv-x="798" 
d="M639 522q0 -121 -76 -195.5t-192 -74.5t-193.5 73t-77.5 197q0 69 24 123.5t64 86.5t86.5 48.5t96.5 16.5q48 0 94 -16.5t85.5 -48t64 -86.5t24.5 -124z" />
    <glyph glyph-name="ellipsis" unicode="&#x2026;" horiz-adv-x="2064" 
d="M520 127q0 -68 -43.5 -110t-109.5 -42q-65 0 -109.5 41.5t-44.5 110.5q0 77 46.5 117.5t107.5 40.5t107 -40.5t46 -117.5zM1128 127q0 -68 -43 -110t-108 -42t-109.5 41.5t-44.5 110.5q0 77 46.5 117.5t107.5 40.5q59 0 105 -40.5t46 -117.5zM1737 127q0 -68 -43.5 -110
t-110.5 -42q-64 0 -107.5 41.5t-43.5 110.5q0 77 45 117.5t106 40.5t107.5 -40.5t46.5 -117.5z" />
    <glyph glyph-name="perthousand" unicode="&#x2030;" horiz-adv-x="2582" 
d="M764 944q0 -213 -96 -328.5t-254 -115.5q-157 0 -252.5 114.5t-95.5 323.5q0 208 100.5 325t253.5 117q159 0 251.5 -113.5t92.5 -322.5zM586 940q0 137 -45.5 211t-124.5 74q-78 0 -125 -75t-47 -210q0 -137 47 -210t123 -73q81 0 126.5 71.5t45.5 211.5zM621 -25h-134
l691 1422h131zM1718 426q0 -213 -95 -328.5t-253 -115.5t-254 114.5t-96 323.5q0 207 101 324.5t253 117.5q159 0 251.5 -113.5t92.5 -322.5zM1540 422q0 138 -45 211.5t-125 73.5q-78 0 -125 -75t-47 -210q0 -137 47 -210t123 -73q81 0 126.5 71.5t45.5 211.5zM2517 426
q0 -213 -96 -328.5t-254 -115.5q-157 0 -252.5 114.5t-95.5 323.5q0 208 100.5 325t253.5 117q159 0 251.5 -113.5t92.5 -322.5zM2339 422q0 137 -45.5 211t-124.5 74q-78 0 -126 -75t-48 -210q0 -136 47.5 -209.5t124.5 -73.5q81 0 126.5 71.5t45.5 211.5z" />
    <glyph glyph-name="guilsinglleft" unicode="&#x2039;" horiz-adv-x="595" 
d="M541 139h-211l-285 377l283 377h211l-279 -377z" />
    <glyph glyph-name="guilsinglright" unicode="&#x203a;" horiz-adv-x="595" 
d="M57 893h211l285 -377l-283 -377h-211l279 377z" />
    <glyph glyph-name="fraction" unicode="&#x2044;" horiz-adv-x="182" 
d="M-170 -25h-133l690 1422h131z" />
    <glyph glyph-name="zero.superior" unicode="&#x2070;" 
d="M764 1245q0 -213 -96 -328.5t-254 -115.5q-157 0 -252.5 114.5t-95.5 323.5q0 208 100.5 325t253.5 117q159 0 251.5 -113.5t92.5 -322.5zM586 1241q0 137 -45.5 211t-124.5 74q-78 0 -125 -75t-47 -210q0 -137 47 -210t123 -73q81 0 126.5 71.5t45.5 211.5z" />
    <glyph glyph-name="four.superior" unicode="&#x2074;" 
d="M623 819h-170v203h-404v106l428 553h146v-524h137v-135h-137v-203zM453 1157q0 152 6 305q-77 -109 -236 -305h230z" />
    <glyph glyph-name="five.superior" unicode="&#x2075;" 
d="M96 870v168h8q108 -80 242 -80q87 0 131.5 36.5t44.5 103.5q0 121 -170 121q-114 0 -215 -56h-8l51 500h486v-154h-357l-22 -178q56 29 149 29q127 0 202 -64.5t75 -189.5q0 -147 -99.5 -223t-259.5 -76q-159 0 -258 63z" />
    <glyph glyph-name="six.superior" unicode="&#x2076;" 
d="M252 1266q31 48 86 75t123 27q126 0 202 -68.5t76 -201.5q0 -136 -91 -216.5t-228 -80.5q-67 0 -126.5 22.5t-109.5 69t-79 127.5t-29 188q0 100 22.5 181t61 134.5t91 89.5t110 52t120.5 16q143 0 213 -51v-170h-8q-76 68 -194 68q-110 0 -173 -68t-67 -194zM262 1124
q0 -39 12 -75q14 -44 51.5 -70.5t88.5 -26.5q63 0 104 37t41 109q0 70 -38.5 105.5t-102.5 35.5q-57 0 -99.5 -32t-56.5 -83z" />
    <glyph glyph-name="seven.superior" unicode="&#x2077;" 
d="M383 819h-182q128 309 323 690h-444v154h629v-107q-195 -420 -326 -737z" />
    <glyph glyph-name="eight.superior" unicode="&#x2078;" 
d="M567 1262q78 -22 121 -75.5t43 -127.5q0 -116 -92.5 -187t-243.5 -71q-144 0 -236.5 64t-92.5 182q0 142 161 200q-62 26 -94.5 78t-32.5 119q0 107 88 172t215 65q135 0 218.5 -61.5t83.5 -173.5q0 -64 -36 -111.5t-102 -72.5zM401 1309q62 6 100 38t38 83t-37.5 79.5
t-102.5 28.5q-60 0 -98.5 -31t-38.5 -77q0 -53 39.5 -84t99.5 -37zM391 1192q-70 -11 -110.5 -43t-40.5 -84q0 -54 47.5 -86.5t111.5 -32.5q68 0 113 32.5t45 88.5q0 109 -166 125z" />
    <glyph glyph-name="nine.superior" unicode="&#x2079;" 
d="M94 856v166h8q83 -66 217 -66q220 0 232 246q-29 -41 -84.5 -64.5t-118.5 -23.5q-126 0 -206.5 70t-80.5 202t93.5 213.5t230.5 81.5q71 0 130.5 -22t107.5 -68.5t75 -127.5t27 -189q0 -126 -30 -219.5t-85 -147.5t-124.5 -80t-155.5 -26q-69 0 -134 14.5t-102 40.5z
M539 1358q0 57 -27 106q-39 66 -125 66q-61 0 -105 -36t-44 -105t41 -107.5t106 -38.5q120 0 154 115z" />
    <glyph glyph-name="parenleft.superior" unicode="&#x207d;" horiz-adv-x="571" 
d="M399 604q-63 37 -118.5 88t-105.5 121t-79.5 164.5t-29.5 200.5q0 108 26.5 202t73.5 164.5t104 122.5t127 92h133v-8q-313 -211 -313 -573q0 -327 313 -566v-8h-131z" />
    <glyph glyph-name="parenright.superior" unicode="&#x207e;" horiz-adv-x="571" 
d="M125 1759q64 -37 119 -87.5t105.5 -120.5t80 -164.5t29.5 -200.5q0 -108 -27 -202t-75 -164.5t-105 -123t-127 -92.5h-133v8q317 212 317 574q0 322 -317 565v8h133z" />
    <glyph glyph-name="zero.inferior" unicode="&#x2080;" 
d="M764 166q0 -213 -96 -329t-254 -116q-156 0 -252 115t-96 324q0 208 100.5 325t253.5 117q159 0 251.5 -113.5t92.5 -322.5zM586 162q0 137 -45.5 210.5t-124.5 73.5q-78 0 -125 -74.5t-47 -209.5q0 -137 47 -210t123 -73q81 0 126.5 71.5t45.5 211.5z" />
    <glyph glyph-name="one.inferior" unicode="&#x2081;" 
d="M524 -260h-176v670l-186 -97v160l225 123h137v-856z" />
    <glyph glyph-name="two.inferior" unicode="&#x2082;" 
d="M715 -260h-649v102q189 143 317 271q106 103 106 202q0 59 -37.5 94t-105.5 35q-142 0 -250 -116h-8v166q52 50 129 79t156 29q147 0 224 -70t77 -188q0 -138 -123 -268q-42 -42 -107 -97t-114 -88q175 3 385 3v-154z" />
    <glyph glyph-name="three.inferior" unicode="&#x2083;" 
d="M98 -211v178h8q104 -88 242 -88q85 0 123.5 31.5t38.5 81.5q0 33 -21.5 58t-58.5 36q-58 14 -133 14h-35v142h39q88 0 129 20q55 25 55 90q0 43 -35.5 67.5t-93.5 24.5q-60 0 -122.5 -22.5t-108.5 -69.5h-8v162q47 39 119.5 63.5t146.5 24.5q145 0 217 -61t72 -168
q0 -66 -43 -117.5t-121 -75.5q194 -35 194 -198q0 -121 -94.5 -191t-253.5 -70q-65 0 -135 17.5t-121 50.5z" />
    <glyph glyph-name="four.inferior" unicode="&#x2084;" 
d="M623 -260h-170v203h-404v106l428 553h146v-524h137v-135h-137v-203zM453 78q0 152 6 305q-77 -109 -236 -305h230z" />
    <glyph glyph-name="five.inferior" unicode="&#x2085;" 
d="M96 -209v168h8q108 -80 242 -80q87 0 131.5 36t44.5 103q0 121 -170 121q-116 0 -215 -55h-8l51 500h486v-154h-357l-22 -178q56 29 149 29q127 0 202 -64.5t75 -189.5q0 -147 -99.5 -223t-259.5 -76q-159 0 -258 63z" />
    <glyph glyph-name="six.inferior" unicode="&#x2086;" 
d="M252 186q31 48 86 75.5t123 27.5q125 0 201.5 -69t76.5 -202q0 -136 -91 -216.5t-228 -80.5q-67 0 -126.5 22.5t-109.5 69t-79 128t-29 188.5q0 100 22.5 181t61 134.5t91 89.5t110 52t120.5 16q143 0 213 -51v-170h-8q-76 68 -194 68q-110 0 -173 -68.5t-67 -194.5z
M262 45q0 -40 12 -76q14 -44 51 -70t89 -26q63 0 104 36.5t41 108.5q0 70 -38.5 106t-102.5 36q-57 0 -99.5 -32t-56.5 -83z" />
    <glyph glyph-name="seven.inferior" unicode="&#x2087;" 
d="M383 -260h-182q128 309 323 690h-444v154h629v-107q-195 -420 -326 -737z" />
    <glyph glyph-name="eight.inferior" unicode="&#x2088;" 
d="M567 182q78 -22 121 -75t43 -127q0 -116 -92.5 -187.5t-243.5 -71.5q-144 0 -236.5 64t-92.5 182q0 143 161 201q-62 26 -94.5 78t-32.5 119q0 107 88 172t215 65q135 0 218.5 -61.5t83.5 -173.5q0 -64 -36 -112t-102 -73zM401 229q62 6 100 38t38 83t-37.5 80t-102.5 29
q-59 0 -98 -31.5t-39 -77.5q0 -53 39.5 -84t99.5 -37zM391 113q-70 -11 -110.5 -43t-40.5 -84q0 -54 47.5 -86.5t111.5 -32.5q68 0 113 32.5t45 88.5q0 109 -166 125z" />
    <glyph glyph-name="nine.inferior" unicode="&#x2089;" 
d="M94 -223v166h8q83 -66 217 -66q220 0 232 246q-29 -41 -84.5 -64.5t-118.5 -23.5q-126 0 -206.5 70t-80.5 202t93.5 213.5t230.5 81.5q71 0 130.5 -22t107.5 -68.5t75 -127.5t27 -189q0 -126 -30 -219.5t-85 -148t-124.5 -80.5t-155.5 -26q-69 0 -133.5 15t-102.5 41z
M539 279q0 57 -27 106q-39 66 -125 66q-61 0 -105 -36.5t-44 -105.5t41 -107t106 -38q120 0 154 115z" />
    <glyph glyph-name="parenleft.inferior" unicode="&#x208d;" horiz-adv-x="571" 
d="M399 -475q-63 37 -118.5 87.5t-105.5 120.5t-79.5 164.5t-29.5 200.5q0 108 26.5 202t73.5 164.5t104 123.5t127 92h133v-8q-313 -211 -313 -574q0 -326 313 -565v-8h-131z" />
    <glyph glyph-name="parenright.inferior" unicode="&#x208e;" horiz-adv-x="571" 
d="M125 680q50 -29 95 -66t89.5 -90.5t77 -113.5t52.5 -139t20 -165q0 -108 -27 -202t-75 -164.5t-105 -122.5t-127 -92h-133v8q317 212 317 573q0 323 -317 566v8h133z" />
    <glyph glyph-name="Euro" unicode="&#x20ac;" horiz-adv-x="1353" 
d="M1012 477h-486q80 -280 396 -280q206 0 360 133h8v-236q-66 -55 -174.5 -89t-230.5 -34q-250 0 -410 130.5t-207 375.5h-162v117h146q-2 29 -2 90q0 47 2 70h-146v116h160q50 251 221 386t414 135q120 0 223 -29.5t162 -83.5v-244h-8q-61 62 -159.5 98.5t-198.5 36.5
q-328 0 -402 -299h494v-116h-510q-2 -20 -2 -64q0 -34 4 -96h508v-117z" />
    <glyph glyph-name="afii61289" unicode="&#x2113;" horiz-adv-x="958" 
d="M911 274v-206q-103 -97 -262 -97q-160 0 -256.5 80.5t-132.5 257.5q-35 -26 -149 -102v213q106 70 120 80q-14 158 -14 219q0 256 51 401q43 125 136 197t214 72q142 0 218.5 -86t76.5 -232q0 -81 -28 -158.5t-68.5 -138t-106.5 -125.5t-121.5 -109.5t-133.5 -101.5
q11 -137 63.5 -199.5t159.5 -62.5q113 0 225 98h8zM432 649q126 99 205.5 213.5t79.5 206.5q0 129 -111 129q-43 0 -79 -28.5t-56 -79.5q-45 -105 -45 -312q0 -74 6 -129z" />
    <glyph glyph-name="trademark" unicode="&#x2122;" horiz-adv-x="1980" 
d="M492 674h-160v602h-228v135h621v-135h-233v-602zM997 674h-151v737h229q122 -298 162 -414q37 109 162 414h225v-737h-158q0 490 2 586q-24 -72 -180 -457h-112q-52 131 -89.5 224t-62.5 153.5t-33 81.5q6 -163 6 -588z" />
    <glyph glyph-name="Omega" unicode="&#x2126;" horiz-adv-x="1536" 
d="M670 0h-564v205h394q-185 74 -286 225t-101 361q0 149 52.5 271.5t142.5 202.5t210 123.5t256 43.5q286 0 464.5 -170.5t178.5 -460.5q0 -210 -100 -361.5t-287 -234.5h397v-205h-561v303q308 125 308 463q0 205 -118 329t-286 124q-172 0 -290 -125t-118 -332
q0 -171 79 -288t229 -171v-303z" />
    <glyph glyph-name="estimated" unicode="&#x212e;" horiz-adv-x="1841" 
d="M1749 688h-1341q-13 0 -13 -8v-399q0 -20 21 -45q97 -102 229.5 -160t278.5 -58q156 0 294.5 64.5t237.5 177.5h123q-116 -132 -288.5 -208.5t-368.5 -76.5q-168 0 -322 58t-265 156t-177 234.5t-66 285.5q0 199 111.5 367.5t302.5 266t416 97.5q168 0 321.5 -57.5
t264 -155t176 -233t65.5 -285.5v-21zM1448 741v400q0 26 -23 49q-100 97 -228.5 152t-272.5 55q-146 0 -276.5 -57t-229.5 -158q-23 -19 -23 -49v-392q0 -10 13 -10h1028q12 0 12 10z" />
    <glyph glyph-name="onethird" unicode="&#x2153;" horiz-adv-x="1785" 
d="M545 -25h-133l690 1422h131zM518 518h-176v670l-186 -96v159l225 123h137v-856zM1044 49v178h9q104 -88 241 -88q85 0 123.5 31.5t38.5 81.5q0 33 -21.5 58t-58.5 36q-58 14 -133 14h-35v142h39q88 0 129 20q56 26 56 90q0 44 -35.5 68.5t-93.5 24.5q-60 0 -123 -22.5
t-109 -70.5h-8v162q47 39 119.5 63.5t146.5 24.5q145 0 217 -61t72 -168q0 -66 -43 -117.5t-121 -75.5q195 -35 195 -198q0 -121 -95 -190.5t-254 -69.5q-65 0 -135 17t-121 50z" />
    <glyph glyph-name="twothirds" unicode="&#x2154;" horiz-adv-x="1785" 
d="M674 -25h-133l690 1422h131zM725 518h-649v103q193 146 317 270q107 104 107 203q0 59 -38 94t-106 35q-142 0 -250 -117h-8v166q52 50 129 79t156 29q147 0 224 -70t77 -188q0 -138 -123 -268q-41 -41 -106 -96t-115 -88q117 2 385 2v-154zM1139 49v178h8
q104 -88 242 -88q85 0 123 31t38 82q0 33 -21.5 58t-58.5 36q-58 14 -133 14h-34v142h38q88 0 129 20q56 26 56 90q0 44 -35.5 68.5t-93.5 24.5q-60 0 -123 -22.5t-109 -70.5h-8v162q47 39 119.5 63.5t146.5 24.5q145 0 217 -61t72 -168q0 -66 -43 -117.5t-121 -75.5
q195 -35 195 -198q0 -121 -94.5 -190.5t-253.5 -69.5q-65 0 -135 17t-121 50z" />
    <glyph glyph-name="oneeighth" unicode="&#x215b;" horiz-adv-x="1785" 
d="M524 -25h-133l690 1422h131zM483 518h-176v670l-186 -96v159l225 123h137v-856zM1470 442q78 -22 121 -75t43 -127q0 -116 -92.5 -187t-243.5 -71q-144 0 -236.5 63.5t-92.5 181.5q0 143 161 201q-62 26 -94 77.5t-32 119.5q0 107 88 172t215 65q135 0 218 -61.5
t83 -173.5q0 -64 -36 -112t-102 -73zM1305 489q62 6 99.5 38t37.5 83t-37 80t-102 29q-60 0 -99 -31.5t-39 -77.5q0 -52 40 -83.5t100 -37.5zM1294 373q-70 -11 -110.5 -43t-40.5 -84q0 -54 48 -86.5t112 -32.5q68 0 112.5 32.5t44.5 88.5q0 109 -166 125z" />
    <glyph glyph-name="threeeighths" unicode="&#x215c;" horiz-adv-x="1785" 
d="M633 -25h-133l690 1422h131zM117 567v178h8q104 -88 242 -88q85 0 123 31t38 82q0 34 -21 58.5t-58 35.5q-62 15 -134 15h-34v141h38q89 0 130 20q55 25 55 90q0 44 -35.5 68.5t-93.5 24.5q-60 0 -123 -22.5t-109 -70.5h-8v162q47 39 119.5 63.5t146.5 24.5
q145 0 217 -61t72 -168q0 -66 -43 -117.5t-121 -75.5q195 -35 195 -198q0 -121 -94.5 -190.5t-253.5 -69.5q-65 0 -135 17t-121 50zM1563 442q78 -22 120.5 -75t42.5 -127q0 -116 -92 -187t-243 -71q-144 0 -237 63.5t-93 181.5q0 142 162 201q-62 26 -94.5 78t-32.5 119
q0 107 88 172t215 65q135 0 218 -61.5t83 -173.5q0 -64 -35.5 -112t-101.5 -73zM1397 489q62 6 99.5 38t37.5 83t-37 80t-102 29q-60 0 -99 -31.5t-39 -77.5q0 -52 40 -83.5t100 -37.5zM1386 373q-70 -11 -110.5 -43t-40.5 -84q0 -54 48 -86.5t112 -32.5q68 0 112.5 32.5
t44.5 88.5q0 109 -166 125z" />
    <glyph glyph-name="fiveeighths" unicode="&#x215d;" horiz-adv-x="1785" 
d="M602 -25h-133l690 1422h131zM82 569v168h8q108 -80 242 -80q87 0 131.5 36.5t44.5 103.5q0 123 -170 123q-108 0 -215 -56h-8l51 498h485v-154h-356l-23 -180q60 31 150 31q127 0 201.5 -64.5t74.5 -189.5q0 -148 -99 -223.5t-259 -75.5q-159 0 -258 63zM1528 442
q78 -22 121 -75t43 -127q0 -116 -92.5 -187t-243.5 -71q-144 0 -237 63.5t-93 181.5q0 142 162 201q-62 26 -94.5 78t-32.5 119q0 107 88 172t215 65q135 0 218 -61.5t83 -173.5q0 -64 -35.5 -112t-101.5 -73zM1362 489q62 6 99.5 38t37.5 83t-37 80t-102 29
q-59 0 -98 -31.5t-39 -77.5q0 -53 39.5 -84t99.5 -37zM1352 373q-71 -11 -111.5 -43t-40.5 -84q0 -54 48 -86.5t112 -32.5q68 0 113 32.5t45 88.5q0 109 -166 125z" />
    <glyph glyph-name="seveneighths" unicode="&#x215e;" horiz-adv-x="1785" 
d="M530 -25h-133l690 1422h132zM418 518h-182q128 309 323 690h-444v154h628v-107q-185 -400 -325 -737zM1464 442q78 -22 121 -75t43 -127q0 -116 -92.5 -187t-243.5 -71q-144 0 -236.5 63.5t-92.5 181.5q0 143 161 201q-62 26 -94.5 78t-32.5 119q0 107 88 172t215 65
q135 0 218.5 -61.5t83.5 -173.5q0 -64 -36 -112t-102 -73zM1298 489q62 6 100 38t38 83t-37.5 80t-102.5 29q-59 0 -98 -31.5t-39 -77.5q0 -53 39.5 -84t99.5 -37zM1288 373q-70 -11 -110.5 -43t-40.5 -84q0 -54 47.5 -86.5t111.5 -32.5q68 0 113 32.5t45 88.5
q0 109 -166 125z" />
    <glyph glyph-name="arrowleft" unicode="&#x2190;" horiz-adv-x="1603" 
d="M692 1409h230q0 -924 -4 -1096q4 4 59 64t156 166t245 252l152 -144l-723 -729l-731 733l143 142q143 -139 250 -247t165 -169.5t62 -65.5q-4 170 -4 1094z" />
    <glyph glyph-name="arrowup" unicode="&#x2191;" horiz-adv-x="1603" 
d="M1532 817v-225q-924 0 -1096 2q196 -180 479 -463l-145 -151l-727 725l733 729l142 -146q-309 -320 -480 -475q170 4 1094 4z" />
    <glyph glyph-name="arrowright" unicode="&#x2192;" horiz-adv-x="1603" 
d="M74 592v225q923 0 1091 -4q-146 132 -479 475l150 146l725 -729l-730 -725l-141 151q144 144 251.5 248t161 154t64.5 61q-170 -2 -1093 -2z" />
    <glyph glyph-name="arrowdown" unicode="&#x2193;" horiz-adv-x="1603" 
d="M692 0q0 928 4 1096q-3 -3 -62 -64.5t-165.5 -169t-249.5 -246.5l-143 138l731 733l723 -729l-152 -142q-142 145 -247 254.5t-152.5 161t-60.5 64.5q4 -170 4 -1096h-230z" />
    <glyph glyph-name="uni2196" unicode="&#x2196;" horiz-adv-x="1603" 
d="M1425 254l-159 -158q-668 673 -766 776q4 -126 4 -669h-211v1026h1032v-203q-200 -1 -349.5 -1t-238 0.5t-90.5 0.5q185 -179 778 -772z" />
    <glyph glyph-name="uni2197" unicode="&#x2197;" horiz-adv-x="1603" 
d="M342 96l-158 158q579 584 774 772h-675v203h1032v-1026h-209q0 541 4 667q-33 -34 -768 -774z" />
    <glyph glyph-name="uni2198" unicode="&#x2198;" horiz-adv-x="1603" 
d="M184 1147l158 158q444 -446 768 -775q-4 132 -4 668h209v-1022h-1032v201q449 2 675 2q-169 161 -774 768z" />
    <glyph glyph-name="uni2199" unicode="&#x2199;" horiz-adv-x="1603" 
d="M1266 1311l159 -160q-665 -662 -778 -770q2 0 90.5 0.5t238 0.5t349.5 -1v-203h-1032v1022h211q0 -536 -4 -668q194 201 766 779z" />
    <glyph glyph-name="partialdiff" unicode="&#x2202;" horiz-adv-x="1187" 
d="M158 1108v207q75 62 180 93.5t203 31.5q135 0 232 -40.5t166.5 -132t103.5 -245t34 -373.5q0 -115 -18 -215t-58 -186.5t-99.5 -147.5t-148.5 -96t-200 -35q-200 0 -325.5 122t-125.5 337q0 151 62 259t165.5 160t235.5 52q177 0 262 -98q-1 230 -86 331t-245 101
q-91 0 -184.5 -36t-145.5 -89h-8zM836 578q-45 66 -106 96.5t-152 30.5q-100 0 -173 -71t-73 -200q0 -126 66.5 -192t162.5 -66q185 0 244 180q28 90 31 222z" />
    <glyph glyph-name="Delta" unicode="&#x2206;" horiz-adv-x="1456" 
d="M1444 0h-1434l617 1411h221zM731 1151q-62 -174 -389 -940h768q-287 676 -379 940z" />
    <glyph glyph-name="product" unicode="&#x220f;" horiz-adv-x="1427" 
d="M1278 -246h-238v1442h-655v-1442h-235v1657h1128v-1657z" />
    <glyph glyph-name="summation" unicode="&#x2211;" horiz-adv-x="1185" 
d="M1135 -246h-1063v203l483 664l-465 602v188h1030v-215h-735l449 -573l-488 -652h789v-217z" />
    <glyph glyph-name="minus" unicode="&#x2212;" horiz-adv-x="1433" 
d="M1249 526h-1065v158h1065v-158z" />
    <glyph glyph-name="uni2215" unicode="&#x2215;" horiz-adv-x="182" 
d="M-170 -25h-133l690 1422h131z" />
    <glyph glyph-name="uni2219" unicode="&#x2219;" horiz-adv-x="489" 
d="M399 528q0 -68 -43 -110.5t-110 -42.5q-64 0 -108 41.5t-44 111.5q0 77 46 116.5t106 39.5q61 0 107 -39.5t46 -116.5z" />
    <glyph glyph-name="radical" unicode="&#x221a;" horiz-adv-x="1327" 
d="M717 -379h-154l-272 545l-131 -60l-62 125l289 136l250 -517l453 1561h165z" />
    <glyph glyph-name="infinity" unicode="&#x221e;" horiz-adv-x="1495" 
d="M748 711q90 104 171.5 153t182.5 49q128 0 206 -87.5t78 -223.5q0 -140 -82.5 -229.5t-218.5 -89.5q-96 0 -169.5 47t-167.5 155q-95 -108 -171.5 -155t-177.5 -47q-130 0 -210 81t-80 224q0 146 84 235.5t219 89.5q96 0 169 -46t167 -156zM657 596q-77 96 -127 135
t-120 39t-117 -49t-47 -125q0 -73 46 -121.5t114 -48.5q70 0 125.5 41t125.5 129zM838 600q84 -99 134 -136.5t115 -37.5q70 0 115 47t45 121q0 81 -42 127.5t-113 46.5q-120 0 -254 -168z" />
    <glyph glyph-name="integral" unicode="&#x222b;" horiz-adv-x="677" 
d="M57 -352v155h9q21 -14 55.5 -22t58.5 -8q54 0 79.5 26t25.5 103q0 23 -6 170l-39 942q-2 49 -2 157q0 131 65 206t199 75q90 0 133 -27v-153h-8q-38 26 -105 26q-52 0 -84 -36t-32 -115q0 -43 4 -129l39 -944q6 -159 6 -183q0 -145 -63.5 -208.5t-198.5 -63.5
q-76 0 -136 29z" />
    <glyph glyph-name="approxequal" unicode="&#x2248;" horiz-adv-x="1462" 
d="M281 252l-107 94q85 118 167 170.5t171 52.5q50 0 103 -18t143 -68q118 -69 198 -69q63 0 112.5 35t109.5 124l108 -94q-76 -118 -151 -173.5t-181 -55.5q-105 0 -245 78q-141 75 -199 75q-61 0 -116 -35t-113 -116zM281 659l-107 97q86 118 168 170.5t170 52.5
q50 0 103 -18t143 -70q118 -66 198 -66q64 0 113.5 35t108.5 123l108 -94q-76 -119 -151 -175.5t-181 -56.5q-102 0 -245 80q-139 74 -199 74t-115.5 -35.5t-113.5 -116.5z" />
    <glyph glyph-name="notequal" unicode="&#x2260;" horiz-adv-x="1433" 
d="M500 12h-135l153 310h-334v153h408l123 248h-531v158h607l141 284h135l-143 -284h325v-158h-401l-123 -248h524v-153h-598z" />
    <glyph glyph-name="lessequal" unicode="&#x2264;" horiz-adv-x="1433" 
d="M1167 309l-927 412v162l927 422v-183l-747 -317l747 -311v-185zM1167 0h-927v154h927v-154z" />
    <glyph glyph-name="greaterequal" unicode="&#x2265;" horiz-adv-x="1433" 
d="M1194 723l-928 -414v180l750 318l-750 313v185l928 -418v-164zM1194 0h-928v154h928v-154z" />
    <glyph glyph-name="lozenge" unicode="&#x25ca;" horiz-adv-x="1495" 
d="M657 1444h189l362 -717l-362 -727h-189l-372 725zM479 725l277 -543l262 545l-266 543z" />
    <glyph glyph-name="Dotlessi" horiz-adv-x="593" 
d="M414 0h-252v1411h252v-1411z" />
    <glyph glyph-name="Euro.denominator" horiz-adv-x="897" 
d="M666 295h-304q54 -156 246 -156q125 0 230 82h8v-162q-42 -35 -114 -56t-154 -21q-162 0 -266.5 81t-135.5 232h-104v76h94q-2 16 -2 53v41h-92v76h102q33 154 144.5 237.5t267.5 83.5q82 0 151.5 -18.5t106.5 -52.5v-166h-8q-40 38 -102.5 61t-125.5 23
q-203 0 -250 -168h308v-76h-320q-2 -12 -2 -37q0 -41 2 -57h320v-76z" />
    <glyph glyph-name="Euro.numerator" horiz-adv-x="897" 
d="M666 813h-304q54 -156 246 -156q125 0 230 82h8v-161q-42 -35 -114.5 -56.5t-153.5 -21.5q-162 0 -266.5 81t-135.5 232h-104v76h94q-2 16 -2 53v41h-92v76h102q33 154 144.5 237.5t267.5 83.5q82 0 151.5 -18.5t106.5 -52.5v-166h-8q-40 38 -102.5 61t-125.5 23
q-203 0 -250 -168h308v-76h-320q-2 -12 -2 -37q0 -41 2 -57h320v-76z" />
    <glyph glyph-name="Euro.oldstyle" horiz-adv-x="1292" 
d="M981 434h-446q71 -252 362 -252q195 0 338 125h8v-221q-63 -52 -164.5 -83.5t-214.5 -31.5q-231 0 -380 119.5t-193 343.5h-150v109h135q-2 27 -2 82q0 41 2 61h-135v107h148q45 229 204.5 354t385.5 125q113 0 209.5 -28t150.5 -79v-225h-8q-57 57 -149.5 90t-184.5 33
q-303 0 -371 -270h455v-107h-469q-2 -18 -2 -55q0 -61 4 -88h467v-109z" />
    <glyph glyph-name="Kgreenlandic" horiz-adv-x="1331" 
d="M1034 0l-428 705l-190 -205v-500h-252v1411h252v-594l534 594h310l-484 -522l553 -889h-295zM1460 1473h170v-9q-72 -63 -119 -162.5t-47 -214.5q0 -104 29 -176h-219q-23 62 -23 158q0 122 62 231t147 173z" />
    <glyph glyph-name="S_S" horiz-adv-x="2385" 
d="M88 119v268h8q100 -94 235.5 -140t258.5 -46q134 0 203 41.5t69 138.5q0 70 -59 111t-203 83l-166 50q-330 100 -330 393q0 187 142.5 305.5t398.5 118.5q105 0 227.5 -32.5t174.5 -80.5v-262h-9q-75 71 -197 111.5t-229 40.5q-74 0 -126.5 -15.5t-79 -43t-37.5 -57.5
t-11 -65q0 -59 42.5 -102.5t162.5 -81.5l182 -57q201 -62 286 -154t85 -240q0 -87 -30 -162t-92 -137t-168.5 -97.5t-247.5 -35.5q-135 0 -272 39t-218 109zM1282 119v268h8q100 -94 235.5 -140t258.5 -46q134 0 203 41.5t69 138.5q0 70 -59 111t-203 83l-166 50
q-330 100 -330 393q0 187 142.5 305.5t398.5 118.5q105 0 227.5 -32.5t174.5 -80.5v-262h-9q-75 71 -197 111.5t-229 40.5q-74 0 -126.5 -15.5t-79 -43t-37.5 -57.5t-11 -65q0 -59 42.5 -102.5t162.5 -81.5l182 -57q201 -62 286 -154t85 -240q0 -87 -30 -162t-92 -137
t-168.5 -97.5t-247.5 -35.5q-135 0 -272 39t-218 109z" />
    <glyph glyph-name="acute.cap" horiz-adv-x="430" 
d="M133 1536h-221v8l305 268h311v-8z" />
    <glyph glyph-name="ampersand.alt" horiz-adv-x="1466" 
d="M1452 0h-309l-119 102q-164 -129 -422 -129q-234 0 -376 113.5t-142 298.5q0 135 75 231t234 158q-112 134 -112 281q0 138 104.5 233.5t290.5 95.5q157 0 256.5 -72.5t99.5 -221.5q0 -232 -307 -377q159 -167 291 -285q29 36 50 102t21 148q0 49 -6 76h224q8 -50 8 -101
q0 -117 -38 -218.5t-95 -168.5q38 -39 79.5 -78.5t105.5 -98.5t87 -81v-8zM864 262q-193 178 -348 346q-186 -62 -186 -215q0 -91 81.5 -151t209.5 -60q150 0 243 80zM596 860q111 50 165 100.5t54 122.5q0 59 -40.5 91t-102.5 32q-79 0 -122.5 -42t-43.5 -103
q0 -97 90 -201z" />
    <glyph glyph-name="braceleft.cap" horiz-adv-x="716" 
d="M696 -186h-80q-93 0 -156.5 14.5t-113 51.5t-73 106.5t-23.5 175.5v145q0 71 -7.5 120t-21.5 81t-39.5 51t-56.5 28.5t-78 14.5v139q124 17 163.5 74t39.5 219v152q0 83 17.5 144.5t47.5 100t77 61.5t99.5 31.5t122.5 8.5h82v-137h-63q-43 0 -73.5 -8t-59.5 -29.5
t-43.5 -66.5t-14.5 -113v-146q0 -59 -4.5 -105t-11.5 -79.5t-22 -59t-27.5 -41.5t-37 -30.5t-43 -22.5t-52.5 -20q69 -16 110 -49.5t64.5 -110.5t23.5 -205v-141q0 -66 14.5 -111t42.5 -67t59 -30.5t73 -8.5h65v-137z" />
    <glyph glyph-name="braceright.cap" horiz-adv-x="716" 
d="M20 1532h80q94 0 157.5 -14.5t112.5 -52t72 -106.5t23 -175v-146q0 -88 10.5 -143t37.5 -86.5t62 -45t95 -20.5v-137q-85 -13 -127 -40.5t-60 -85t-18 -167.5v-153q0 -70 -11.5 -124t-34.5 -91.5t-53.5 -63.5t-73 -40.5t-88.5 -20.5t-104 -6h-80v137h64q43 0 73.5 8
t59 30t43 67.5t14.5 113.5v143q0 83 9.5 141t22.5 92.5t42.5 60t53.5 37t71 28.5q-69 16 -110 49.5t-65 110.5t-24 206v142q0 66 -14.5 110t-42.5 66t-59.5 30.5t-73.5 8.5h-64v137z" />
    <glyph glyph-name="bracketleft.cap" horiz-adv-x="634" 
d="M614 -172h-458v1683h458v-139h-264v-1403h264v-141z" />
    <glyph glyph-name="bracketright.cap" horiz-adv-x="634" 
d="M20 1511h459v-1683h-459v143h263v1399h-263v141z" />
    <glyph glyph-name="breve.cap" horiz-adv-x="468" 
d="M-115 1821h156q8 -146 162 -146q158 0 166 146h159q-2 -133 -88 -220.5t-239 -87.5q-150 0 -233 84.5t-83 223.5z" />
    <glyph glyph-name="bullet.cap" horiz-adv-x="798" 
d="M639 674q0 -120 -76 -194t-192 -74t-193.5 72.5t-77.5 195.5q0 70 24 125t64 87t86.5 48t96.5 16q38 0 75 -9.5t72.5 -31.5t62 -53.5t42.5 -78.5t16 -103z" />
    <glyph glyph-name="caron.alt" horiz-adv-x="409" 
d="M197 1130h-170v9q66 54 110.5 140t44.5 183q0 91 -28 148h204q23 -47 23 -135q0 -102 -54.5 -194.5t-129.5 -150.5z" />
    <glyph glyph-name="caron.cap" horiz-adv-x="468" 
d="M367 1815h204v-9l-297 -270h-145l-299 270v9h207l170 -119z" />
    <glyph glyph-name="cedilla.cap" horiz-adv-x="468" 
d="M0 -502v137h8q61 -38 139 -38q107 0 107 84q0 37 -30 59t-83 22q-49 0 -80 -16l-6 4l78 270h131l-47 -143h8q95 0 149 -53t54 -143q0 -104 -72 -162t-204 -58q-39 0 -83 11t-69 26z" />
    <glyph glyph-name="cent.denominator" horiz-adv-x="720" 
d="M463 -139h-74v133q-134 9 -220.5 92.5t-86.5 224.5q0 130 85.5 219t221.5 103v129h74v-129q125 -7 176 -58v-149h-8q-63 63 -168 70v-365q100 3 170 70h8v-146q-68 -52 -178 -61v-133zM252 315q0 -71 37 -116.5t100 -61.5v352q-62 -14 -99.5 -58.5t-37.5 -115.5z" />
    <glyph glyph-name="cent.numerator" horiz-adv-x="720" 
d="M463 379h-74v133q-134 9 -220.5 92.5t-86.5 224.5q0 130 85.5 219t221.5 103v129h74v-129q126 -7 176 -57v-150h-8q-63 63 -168 70v-365q100 3 170 70h8v-146q-71 -55 -178 -63v-131zM252 834q0 -71 37.5 -117t99.5 -62v353q-62 -14 -99.5 -58.5t-37.5 -115.5z" />
    <glyph glyph-name="cent.oldstyle" horiz-adv-x="1046" 
d="M692 -213h-108v205q-186 18 -308 141.5t-122 323.5q0 189 119.5 317.5t310.5 151.5v198h108v-194q79 -5 150 -28t106 -60v-217h-8q-42 44 -109.5 71.5t-138.5 32.5v-543q157 6 250 99h8v-203q-106 -81 -258 -92v-203zM377 463q0 -111 56 -179t151 -89v528
q-95 -20 -151 -85t-56 -175z" />
    <glyph glyph-name="circumflex.cap" horiz-adv-x="468" 
d="M39 1536h-211v8l303 271h145l299 -271v-8h-206l-170 119z" />
    <glyph glyph-name="comma.denominator" horiz-adv-x="327" 
d="M129 -211h-129v8q54 44 87.5 112t33.5 148q0 69 -23 119h166q17 -44 17 -110q0 -83 -45.5 -159t-106.5 -118z" />
    <glyph glyph-name="comma.numerator" horiz-adv-x="327" 
d="M129 307h-129v8q54 44 87.5 112t33.5 148q0 69 -23 119h166q17 -44 17 -110q0 -83 -45.5 -159t-106.5 -118z" />
    <glyph glyph-name="commaaccent" horiz-adv-x="403" 
d="M197 -610h-170v8q66 54 110.5 140t44.5 183q0 89 -28 146h204q23 -45 23 -133q0 -102 -55 -195t-129 -149z" />
    <glyph glyph-name="dieresis.cap" horiz-adv-x="430" 
d="M147 1663q0 -55 -34 -89t-88 -34q-53 0 -89 34t-36 89q0 63 38 97t87 34t85.5 -34t36.5 -97zM530 1663q0 -55 -35 -89t-89 -34q-52 0 -87.5 33.5t-35.5 89.5q0 63 37 97t86 34t86.5 -34t37.5 -97z" />
    <glyph glyph-name="dollar.denominator" horiz-adv-x="776" 
d="M434 -141h-72v131q-82 3 -161 27.5t-131 64.5v176h8q57 -51 133.5 -79.5t150.5 -33.5v199l-71 21q-110 30 -159.5 87.5t-49.5 145.5q0 103 70.5 169.5t209.5 78.5v129h72v-125q63 -2 137 -24t105 -50v-170h-8q-41 38 -105.5 62.5t-128.5 29.5v-204l58 -17
q129 -37 180 -90.5t51 -140.5q0 -101 -70.5 -172t-218.5 -82v-133zM264 608q0 -31 18.5 -53.5t79.5 -40.5v184q-98 -13 -98 -90zM535 231q0 32 -23 52t-78 39v-175q52 5 76.5 25t24.5 59z" />
    <glyph glyph-name="dollar.numerator" horiz-adv-x="776" 
d="M434 377h-72v131q-82 3 -161 27.5t-131 64.5v176h8q56 -51 133 -79t151 -33v198l-71 21q-110 30 -159.5 87.5t-49.5 145.5q0 103 70.5 169.5t209.5 78.5v129h72v-125q63 -2 137 -24t105 -50v-170h-8q-42 39 -106 63.5t-128 29.5v-205l58 -17q129 -37 180 -90.5t51 -140.5
q0 -101 -70.5 -172t-218.5 -82v-133zM264 1126q0 -31 18.5 -53.5t79.5 -40.5v185q-98 -13 -98 -91zM535 750q0 32 -23 51.5t-78 38.5v-174q52 5 76.5 25t24.5 59z" />
    <glyph glyph-name="dollar.oldstyle" horiz-adv-x="1161" 
d="M657 -221h-108v205q-115 5 -230.5 41.5t-187.5 95.5v239h8q83 -72 193.5 -113.5t216.5 -49.5v311l-105 31q-299 86 -299 344q0 147 102 243.5t302 116.5v203h108v-199q92 -3 197 -35t150 -71v-234h-9q-64 57 -155.5 92t-182.5 43v-327l82 -23q184 -54 258 -133.5
t74 -206.5q0 -69 -22.5 -128.5t-70 -110.5t-129.5 -84t-192 -41v-209zM387 901q0 -25 4 -41.5t18.5 -38t49.5 -40t90 -33.5v292q-162 -17 -162 -139zM823 332q0 51 -37 82t-129 61v-276q86 6 126 36.5t40 96.5z" />
    <glyph glyph-name="dotaccent.cap" horiz-adv-x="430" 
d="M338 1663q0 -55 -34.5 -89t-88.5 -34q-52 0 -87.5 33.5t-35.5 89.5q0 63 37 97t86 34q48 0 85.5 -34t37.5 -97z" />
    <glyph glyph-name="eight.denominator" 
d="M567 442q78 -22 121 -75t43 -127q0 -116 -92.5 -187t-243.5 -71q-144 0 -236.5 63.5t-92.5 181.5q0 143 161 201q-62 26 -94.5 78t-32.5 119q0 107 88 172t215 65q135 0 218.5 -61.5t83.5 -173.5q0 -64 -36 -112t-102 -73zM401 489q62 6 100 38t38 83t-37.5 80t-102.5 29
q-59 0 -98 -31.5t-39 -77.5q0 -53 39.5 -84t99.5 -37zM391 373q-70 -11 -110.5 -43t-40.5 -84q0 -54 47.5 -86.5t111.5 -32.5q68 0 113 32.5t45 88.5q0 109 -166 125z" />
    <glyph glyph-name="eight.fitted" horiz-adv-x="1204" 
d="M846 717q123 -38 189.5 -125t66.5 -211q0 -182 -138 -296t-364 -114q-144 0 -255.5 43.5t-178 134t-66.5 216.5q0 115 68 199.5t192 127.5q-98 41 -153 125t-55 193q0 169 132.5 275t323.5 106q204 0 328.5 -100t124.5 -279q0 -101 -57.5 -180.5t-157.5 -114.5zM614 788
q213 38 213 207q0 86 -59 136.5t-164 50.5q-98 0 -160.5 -52.5t-62.5 -132.5q0 -95 63 -145.5t170 -63.5zM594 606q-111 -12 -181.5 -69t-70.5 -144q0 -101 75.5 -156t186.5 -55q115 0 186.5 57t71.5 154q0 96 -72.5 150t-195.5 63z" />
    <glyph glyph-name="eight.numerator" 
d="M567 961q78 -22 121 -75.5t43 -127.5q0 -116 -92.5 -187t-243.5 -71q-144 0 -236.5 63.5t-92.5 181.5q0 143 161 201q-62 26 -94.5 78t-32.5 119q0 107 88 172t215 65q135 0 218.5 -61.5t83.5 -173.5q0 -64 -36 -111.5t-102 -72.5zM401 1008q62 6 100 37.5t38 82.5
t-37.5 80t-102.5 29q-59 0 -98 -31.5t-39 -77.5q0 -52 39.5 -82.5t99.5 -37.5zM391 889q-70 -9 -110.5 -41t-40.5 -84q0 -54 47.5 -86.5t111.5 -32.5q68 0 113 32.5t45 88.5q0 107 -166 123z" />
    <glyph glyph-name="eight.oldstyle" horiz-adv-x="1171" 
d="M825 702q121 -42 185.5 -125.5t64.5 -205.5q0 -177 -135.5 -288.5t-353.5 -111.5q-138 0 -247 42.5t-176 131t-67 211.5q0 114 66 197t190 123q-97 41 -151 122.5t-54 188.5q0 109 63.5 195t165 131t218.5 45q195 0 318.5 -97t123.5 -270q0 -97 -58 -176t-153 -113z
M600 770q207 38 207 203q0 83 -59.5 131.5t-157.5 48.5q-92 0 -154.5 -50.5t-62.5 -127.5q0 -177 227 -205zM580 594q-110 -14 -180 -70t-70 -141q0 -96 78.5 -151.5t181.5 -55.5q109 0 180.5 56.5t71.5 152.5q0 94 -70.5 146t-191.5 63z" />
    <glyph glyph-name="eight.taboldstyle" horiz-adv-x="1171" 
d="M825 702q121 -42 185.5 -125.5t64.5 -205.5q0 -177 -135.5 -288.5t-353.5 -111.5q-138 0 -247 42.5t-176 131t-67 211.5q0 114 66 197t190 123q-97 41 -151 122.5t-54 188.5q0 109 63.5 195t165 131t218.5 45q195 0 318.5 -97t123.5 -270q0 -97 -58 -176t-153 -113z
M600 770q207 38 207 203q0 83 -59.5 131.5t-157.5 48.5q-92 0 -154.5 -50.5t-62.5 -127.5q0 -177 227 -205zM580 594q-110 -14 -180 -70t-70 -141q0 -96 78.5 -151.5t181.5 -55.5q109 0 180.5 56.5t71.5 152.5q0 94 -70.5 146t-191.5 63z" />
    <glyph glyph-name="emdash.cap" horiz-adv-x="1722" 
d="M1642 590h-1564v174h1564v-174z" />
    <glyph glyph-name="endash.cap" horiz-adv-x="1101" 
d="M1026 590h-948v174h948v-174z" />
    <glyph glyph-name="estimated.alt" horiz-adv-x="1759" 
d="M1466 133q-92 -73 -244.5 -116.5t-312.5 -43.5q-246 0 -426 88t-273 245.5t-93 365.5q0 167 58.5 304.5t159 227t232.5 138.5t281 49q319 0 494 -168t178 -465q0 -75 -11 -154h-1151q12 -189 159 -301.5t413 -112.5q318 0 528 172h8v-229zM1274 793v20q0 177 -113 276
t-330 99q-82 0 -158.5 -24t-142 -71t-110 -124.5t-55.5 -175.5h909z" />
    <glyph glyph-name="five.denominator" 
d="M96 51v168h8q108 -80 242 -80q87 0 131.5 36.5t44.5 103.5q0 120 -170 120q-116 0 -215 -55h-8l51 500h486v-154h-357l-22 -178q56 29 149 29q127 0 202 -64.5t75 -189.5q0 -147 -99.5 -223t-259.5 -76q-159 0 -258 63z" />
    <glyph glyph-name="five.fitted" horiz-adv-x="1150" 
d="M106 84v246h9q169 -135 379 -135q139 0 212.5 65t73.5 184q0 220 -278 220q-185 0 -334 -99h-10l82 797h729v-221h-549l-37 -320q38 23 105 37t126 14q198 0 312 -104t114 -311q0 -96 -27.5 -175.5t-76.5 -136t-117 -95t-148 -57t-171 -18.5q-233 0 -394 109z" />
    <glyph glyph-name="five.numerator" 
d="M96 569v168h8q108 -80 242 -80q87 0 131.5 36.5t44.5 103.5q0 123 -170 123q-108 0 -215 -56h-8l51 498h486v-154h-357l-22 -180q60 31 149 31q127 0 202 -64.5t75 -189.5q0 -147 -99.5 -223t-259.5 -76q-159 0 -258 63z" />
    <glyph glyph-name="five.oldstyle" horiz-adv-x="1126" 
d="M111 -145v239h8q159 -127 368 -127q139 0 212 61.5t73 174.5q0 60 -22 103t-62 66t-86.5 33.5t-103.5 10.5q-181 0 -328 -94h-8l78 776h714v-217h-538l-33 -308q39 23 102.5 37.5t120.5 14.5q195 0 307.5 -102.5t112.5 -305.5q0 -116 -41.5 -207t-115 -147t-168.5 -84.5
t-207 -28.5q-229 0 -383 105z" />
    <glyph glyph-name="five.taboldstyle" horiz-adv-x="1171" 
d="M147 -145v239h9q159 -127 368 -127q139 0 212 61.5t73 174.5q0 60 -22 103t-62 66t-86.5 33.5t-103.5 10.5q-177 0 -328 -90h-8l77 772h715v-217h-538l-35 -308q41 23 105 37.5t120 14.5q195 0 307.5 -102.5t112.5 -305.5q0 -93 -27.5 -170.5t-76 -132t-115.5 -92
t-146 -55t-168 -17.5q-229 0 -383 105z" />
    <glyph glyph-name="florin.denominator" horiz-adv-x="679" 
d="M10 -150v156h8q30 -24 84 -24q73 0 93 47q10 24 16 80l33 323h-123v100h129l12 97q10 95 55 149q70 84 199 84q40 0 81 -10t60 -25v-151h-8q-39 31 -104 31q-53 0 -82 -29q-24 -27 -29 -78l-6 -68h152v-100h-162l-35 -352q-8 -83 -31 -133q-54 -119 -227 -119
q-69 0 -115 22z" />
    <glyph glyph-name="florin.numerator" horiz-adv-x="679" 
d="M10 369v155h8q30 -24 84 -24q73 0 93 47q10 24 16 80l33 323h-123v101h129l12 96q10 95 55 149q70 84 199 84q41 0 82 -9.5t59 -24.5v-152h-8q-39 31 -104 31q-53 0 -82 -29q-24 -27 -29 -78l-6 -67h152v-101h-162l-35 -352q-8 -83 -31 -133q-54 -119 -227 -119
q-67 0 -115 23z" />
    <glyph glyph-name="florin.oldstyle" horiz-adv-x="1001" 
d="M35 -147v202h8q22 -16 59.5 -26.5t65.5 -10.5q56 0 88 16t51 54q23 45 29 119l43 471h-180v147h190l12 105q17 143 88 227q100 111 273 111q62 0 119 -13.5t82 -37.5v-203h-9q-60 49 -161 49q-79 0 -117 -41q-39 -39 -47 -129l-6 -68h223v-147h-238l-45 -512
q-12 -123 -47 -189q-77 -161 -315 -161q-42 0 -90 11.5t-76 25.5z" />
    <glyph glyph-name="four.denominator" 
d="M623 0h-170v203h-404v106l428 553h146v-524h137v-135h-137v-203zM453 338q0 152 6 305q-77 -109 -236 -305h230z" />
    <glyph glyph-name="four.fitted" horiz-adv-x="1255" 
d="M975 0h-236v332h-657v153l692 906h201v-861h213v-198h-213v-332zM739 530q0 146 9 555q-92 -137 -416 -555h407z" />
    <glyph glyph-name="four.numerator" 
d="M623 518h-170v203h-404v106l428 553h146v-524h137v-135h-137v-203zM453 856q0 152 6 305q-77 -109 -236 -305h230z" />
    <glyph glyph-name="four.oldstyle" horiz-adv-x="1208" 
d="M969 -242h-230v324h-663v156l696 884h197v-846h211v-194h-211v-324zM739 276q0 430 6 549q-57 -82 -133.5 -181.5t-289.5 -367.5h417z" />
    <glyph glyph-name="four.taboldstyle" horiz-adv-x="1171" 
d="M934 -242h-229v324h-629v156l661 884h197v-846h211v-194h-211v-324zM705 276q0 259 6 529q-30 -44 -67 -94.5t-71.5 -96.5t-108.5 -144t-145 -194h386z" />
    <glyph glyph-name="fourfifths" horiz-adv-x="1785" 
d="M664 -25h-134l691 1422h131zM631 518h-170v203h-404v106l428 553h146v-524h137v-135h-137v-203zM461 856q0 152 6 305q-77 -109 -236 -305h230zM1098 51v168h8q108 -80 242 -80q87 0 131.5 36.5t44.5 103.5q0 120 -170 120q-116 0 -215 -55h-9l52 500h485v-154h-356
l-23 -178q56 29 150 29q127 0 201.5 -64.5t74.5 -189.5q0 -148 -99 -223.5t-259 -75.5q-159 0 -258 63z" />
    <glyph glyph-name="grave.cap" horiz-adv-x="430" 
d="M528 1536h-219l-397 268v8h311l305 -268v-8z" />
    <glyph glyph-name="guillemotleft.cap" horiz-adv-x="987" 
d="M541 295h-211l-285 377l283 377h211l-279 -377zM932 295h-211l-285 377l283 377h211l-279 -377z" />
    <glyph glyph-name="guillemotright.cap" horiz-adv-x="987" 
d="M446 1049h211l285 -377l-283 -377h-210l278 377zM55 1049h211l285 -377l-283 -377h-211l279 377z" />
    <glyph glyph-name="guilsinglleft.cap" horiz-adv-x="595" 
d="M541 295h-211l-285 377l283 377h211l-279 -377z" />
    <glyph glyph-name="guilsinglright.cap" horiz-adv-x="595" 
d="M57 1049h211l285 -377l-283 -377h-211l279 377z" />
    <glyph glyph-name="hungarumlaut.cap" horiz-adv-x="468" 
d="M-88 1536h-182v8l274 271h262v-9zM299 1536h-182v8l274 271h262v-9z" />
    <glyph glyph-name="hyphen.cap" horiz-adv-x="724" 
d="M586 582h-504v192h504v-192z" />
    <glyph glyph-name="hyphen.denominator" horiz-adv-x="428" 
d="M379 285h-328v127h328v-127z" />
    <glyph glyph-name="hyphen.numerator" horiz-adv-x="428" 
d="M379 803h-328v127h328v-127z" />
    <glyph glyph-name="idotaccent" horiz-adv-x="567" 
d="M391 0h-237v1018h237v-1018zM403 1337q0 -61 -37.5 -99t-95.5 -38q-55 0 -93 37.5t-38 99.5q0 67 39.5 102.5t91.5 35.5t92.5 -35.5t40.5 -102.5z" />
    <glyph glyph-name="macron.cap" horiz-adv-x="430" 
d="M532 1569h-634v164h634v-164z" />
    <glyph glyph-name="nine.denominator" 
d="M94 37v166h8q83 -66 217 -66q220 0 232 246q-29 -41 -84.5 -64.5t-118.5 -23.5q-126 0 -206.5 70t-80.5 202t93.5 213.5t230.5 81.5q71 0 130.5 -22t107.5 -68.5t75 -127.5t27 -189q0 -126 -30 -219.5t-85 -147.5t-124.5 -80t-155.5 -26q-69 0 -134 14.5t-102 40.5z
M539 539q0 57 -27 106q-39 66 -125 66q-61 0 -105 -36.5t-44 -105.5t41 -107t106 -38q120 0 154 115z" />
    <glyph glyph-name="nine.numerator" 
d="M94 555v166h8q86 -66 217 -66q220 0 232 246q-27 -40 -83.5 -64t-119.5 -24q-125 0 -206 70t-81 202t94 213.5t230 81.5q71 0 130.5 -22t108 -68.5t76 -127.5t27.5 -189q0 -126 -30.5 -219.5t-85.5 -147.5t-124.5 -80t-154.5 -26q-69 0 -134 14.5t-104 40.5zM539 1057
q0 62 -25 104q-38 68 -125 68q-61 0 -106 -36.5t-45 -105.5t41 -107t106 -38q62 0 101 31t53 84z" />
    <glyph glyph-name="numbersign.oldstyle" horiz-adv-x="1202" 
d="M399 -29h-131l56 394h-244v153h266l27 189h-244v155h266l56 377h131l-56 -377h226l55 377h129l-55 -377h241v-155h-264l-27 -189h244v-153h-266l-57 -394h-129l57 394h-225zM504 707l-27 -189h225l27 189h-225z" />
    <glyph glyph-name="ogonek.cap" horiz-adv-x="430" 
d="M428 31q-145 -92 -199.5 -155.5t-54.5 -143.5q0 -51 33.5 -82t97.5 -31q62 0 119 31h8v-131q-74 -47 -182 -47q-113 0 -183.5 61.5t-70.5 173.5q0 197 285 324h147z" />
    <glyph glyph-name="one.denominator" 
d="M524 0h-176v670l-186 -97v160l225 123h137v-856z" />
    <glyph glyph-name="one.fitted" horiz-adv-x="1062" 
d="M682 0h-244v1124l-288 -155v231l346 193h186v-1393z" />
    <glyph glyph-name="one.numerator" 
d="M524 518h-176v670l-186 -96v159l225 123h137v-856z" />
    <glyph glyph-name="one.oldstyle" horiz-adv-x="878" 
d="M645 0h-242v862l-288 -153v225l346 192h184v-1126z" />
    <glyph glyph-name="one.taboldstyle" horiz-adv-x="1171" 
d="M780 0h-239v862l-289 -153v225l344 192h184v-1126z" />
    <glyph glyph-name="onefifth" horiz-adv-x="1785" 
d="M532 -25h-133l691 1422h131zM510 518h-176v670l-187 -96v159l226 123h137v-856zM981 51v168h8q108 -80 242 -80q87 0 131.5 36.5t44.5 103.5q0 120 -170 120q-116 0 -215 -55h-8l51 500h485v-154h-356l-23 -178q56 29 150 29q127 0 201.5 -64.5t74.5 -189.5
q0 -148 -99 -223.5t-259 -75.5q-159 0 -258 63z" />
    <glyph glyph-name="parenleft.cap" horiz-adv-x="837" 
d="M584 -190q-75 43 -143 101t-132 138.5t-110.5 172.5t-74.5 208t-28 240q0 158 37.5 297t105 246.5t153 189.5t190.5 141h192v-8q-467 -307 -467 -864q0 -258 123.5 -474t343.5 -380v-8h-190z" />
    <glyph glyph-name="parenleft.denominator" horiz-adv-x="571" 
d="M399 -215q-63 37 -118.5 87.5t-105.5 120.5t-79.5 164.5t-29.5 200.5q0 108 26.5 202t73.5 164.5t104 123.5t127 92h133v-8q-313 -211 -313 -574q0 -326 313 -565v-8h-131z" />
    <glyph glyph-name="parenleft.numerator" horiz-adv-x="520" 
d="M389 303q-50 29 -95 66t-89.5 90.5t-77 113.5t-52.5 139t-20 165q0 108 26.5 202t74 164.5t104.5 122.5t127 92h133v-8q-313 -211 -313 -573q0 -327 313 -566v-8h-131z" />
    <glyph glyph-name="parenright.cap" horiz-adv-x="837" 
d="M-4 1544h190q75 -43 143 -101t132 -138.5t110.5 -172.5t74.5 -208t28 -240q0 -158 -37.5 -297t-105 -246.5t-153 -189.5t-190.5 -141h-192v8q233 152 350 364t117 500q0 507 -467 854v8z" />
    <glyph glyph-name="parenright.denominator" horiz-adv-x="571" 
d="M125 940q64 -37 119 -87.5t105.5 -120.5t80 -164.5t29.5 -200.5q0 -108 -27 -202t-75 -164.5t-105 -123t-127 -92.5h-133v8q317 212 317 574q0 322 -317 565v8h133z" />
    <glyph glyph-name="parenright.numerator" horiz-adv-x="520" 
d="M131 1458q64 -37 119 -87.5t105.5 -120.5t80 -164.5t29.5 -200.5q0 -108 -27 -202t-75 -164.5t-105 -123t-127 -92.5h-133v8q317 212 317 574q0 322 -317 565v8h133z" />
    <glyph glyph-name="percent.oldstyle" horiz-adv-x="1773" 
d="M745 858q0 -196 -93.5 -302.5t-248.5 -106.5q-153 0 -246.5 106t-93.5 297t99 299.5t248 108.5q155 0 245 -105t90 -297zM571 854q0 124 -43.5 190t-121.5 66q-77 0 -123.5 -67t-46.5 -189q0 -123 46 -189.5t121 -66.5q80 0 124 64.5t44 191.5zM629 -25h-131l651 1289
h127zM1710 389q0 -195 -93 -302t-247 -107q-153 0 -246.5 106t-93.5 297q0 192 98 300t246 108q156 0 246 -105t90 -297zM1538 385q0 124 -44 190t-122 66q-77 0 -123.5 -67t-46.5 -189q0 -124 46 -189t122 -65q78 0 123 64.5t45 189.5z" />
    <glyph glyph-name="period.denominator" horiz-adv-x="329" 
d="M289 86q0 -45 -30.5 -73.5t-74.5 -28.5q-45 0 -75.5 28t-30.5 74q0 52 31.5 79.5t74.5 27.5q40 0 72.5 -28t32.5 -79z" />
    <glyph glyph-name="period.numerator" horiz-adv-x="329" 
d="M289 604q0 -45 -30.5 -73.5t-74.5 -28.5q-45 0 -75.5 28t-30.5 74q0 52 31.5 79.5t74.5 27.5q40 0 72.5 -28t32.5 -79z" />
    <glyph glyph-name="periodcentered.cap" horiz-adv-x="491" 
d="M399 680q0 -70 -43 -112t-110 -42q-64 0 -108 42t-44 112q0 76 46.5 116t105.5 40q61 0 107 -40t46 -116z" />
    <glyph glyph-name="perthousand.oldstyle" horiz-adv-x="2562" 
d="M745 858q0 -196 -93.5 -302.5t-248.5 -106.5q-153 0 -246.5 106t-93.5 297t99 299.5t248 108.5q155 0 245 -105t90 -297zM571 854q0 124 -43.5 190t-121.5 66q-77 0 -123.5 -67t-46.5 -189q0 -123 46 -189.5t121 -66.5q80 0 124 64.5t44 191.5zM629 -25h-131l651 1289
h127zM1710 389q0 -195 -93 -302t-247 -107q-153 0 -246.5 106t-93.5 297q0 192 98 300t246 108q156 0 246 -105t90 -297zM1538 385q0 124 -44 190t-122 66q-77 0 -123.5 -67t-46.5 -189q0 -124 46 -189t122 -65q78 0 123 64.5t45 189.5zM2499 389q0 -195 -93.5 -302
t-246.5 -107q-154 0 -248 106t-94 297q0 192 99 300t247 108q156 0 246 -105t90 -297zM2327 385q0 124 -44 190t-122 66t-124 -67t-46 -189q0 -124 46 -189t122 -65q78 0 123 64.5t45 189.5z" />
    <glyph glyph-name="ring.cap" horiz-adv-x="430" 
d="M424 1673q0 -85 -60.5 -142.5t-148.5 -57.5t-148.5 57t-60.5 143q0 88 61 144.5t152 56.5t148 -56t57 -145zM330 1675q0 51 -32 83t-83 32q-53 0 -84 -33t-31 -84q0 -49 31 -81.5t88 -32.5q51 0 81 33.5t30 82.5z" />
    <glyph glyph-name="seven.denominator" 
d="M383 0h-182q128 309 323 690h-444v154h629v-107q-195 -420 -326 -737z" />
    <glyph glyph-name="seven.fitted" horiz-adv-x="1048" 
d="M475 0h-256q200 494 506 1141h-692v221h946v-158q-301 -675 -504 -1204z" />
    <glyph glyph-name="seven.numerator" 
d="M383 518h-182q128 309 323 690h-444v154h629v-107q-195 -420 -326 -737z" />
    <glyph glyph-name="seven.oldstyle" horiz-adv-x="1024" 
d="M471 -233h-252q219 554 488 1105h-656v222h905v-156q-265 -599 -485 -1171z" />
    <glyph glyph-name="seven.taboldstyle" horiz-adv-x="1171" 
d="M557 -233h-252q209 529 494 1105h-682v222h932v-156q-299 -671 -492 -1171z" />
    <glyph glyph-name="six.denominator" 
d="M252 446q31 48 86 75.5t123 27.5q126 0 202 -68.5t76 -201.5q0 -136 -91 -216.5t-228 -80.5q-67 0 -126.5 22.5t-109.5 69t-79 127.5t-29 188q0 100 22.5 181t61 134.5t91 89.5t110 52t120.5 16q143 0 213 -51v-170h-8q-76 68 -194 68q-110 0 -173 -68.5t-67 -194.5z
M262 305q0 -40 12 -76q14 -44 51 -70t89 -26q63 0 104 37t41 109q0 70 -38.5 105.5t-102.5 35.5q-57 0 -99.5 -32t-56.5 -83z" />
    <glyph glyph-name="six.numerator" 
d="M252 965q31 48 86 75t123 27q126 0 202 -68.5t76 -201.5q0 -136 -91 -216.5t-228 -80.5q-67 0 -126.5 22.5t-109.5 69t-79 127.5t-29 188q0 100 22.5 181t61 134.5t91 89.5t110 52t120.5 16q143 0 213 -51v-170h-8q-76 68 -194 68q-110 0 -173 -68t-67 -194zM262 823
q0 -39 12 -75q14 -44 51.5 -70.5t88.5 -26.5q63 0 104 37t41 109q0 70 -38.5 105.5t-102.5 35.5q-57 0 -99.5 -32t-56.5 -83z" />
    <glyph glyph-name="sterling.denominator" horiz-adv-x="817" 
d="M762 0h-680v106q96 48 133 88t37 89q0 44 -14 67h-134v101h101q-35 90 -35 159q0 114 87 183t239 69q67 0 131.5 -15.5t101.5 -43.5v-172h-8q-87 78 -203 78q-78 0 -120 -31.5t-42 -91.5q0 -38 33 -135h248v-101h-223q10 -38 10 -63q0 -77 -88 -133h426v-154z" />
    <glyph glyph-name="sterling.numerator" horiz-adv-x="817" 
d="M762 518h-680v107q97 48 133.5 87.5t36.5 88.5q0 44 -14 67h-134v101h101q-35 90 -35 159q0 114 87 183t239 69q67 0 131.5 -15.5t101.5 -43.5v-172h-8q-87 78 -203 78q-78 0 -120 -31.5t-42 -91.5q0 -38 33 -135h248v-101h-223q10 -38 10 -63q0 -77 -88 -133h426v-154z
" />
    <glyph glyph-name="sterling.oldstyle" horiz-adv-x="1187" 
d="M1133 -2h-971v147q140 71 194 131.5t54 133.5q0 52 -21 102h-194v147h147q-27 77 -39 127t-12 109q0 166 122 267.5t339 101.5q95 0 186 -25t145 -68v-235h-8q-59 56 -140 85.5t-161 29.5q-239 0 -239 -183q0 -70 49 -209h366v-147h-332q15 -73 15 -100q0 -55 -31 -104
t-108 -99h639v-211z" />
    <glyph glyph-name="three.denominator" 
d="M98 49v178h8q104 -88 242 -88q85 0 123.5 31.5t38.5 81.5q0 33 -21.5 58t-58.5 36q-58 14 -133 14h-35v142h39q88 0 129 20q55 25 55 90q0 44 -35.5 68.5t-93.5 24.5q-60 0 -122.5 -22.5t-108.5 -70.5h-8v162q47 39 119.5 63.5t146.5 24.5q145 0 217 -61t72 -168
q0 -66 -43 -117.5t-121 -75.5q194 -35 194 -198q0 -121 -94.5 -190.5t-253.5 -69.5q-65 0 -135 17t-121 50z" />
    <glyph glyph-name="three.fitted" horiz-adv-x="1132" 
d="M94 82v256h8q74 -71 172 -107t199 -36q142 0 205 56t63 148q0 60 -36 103.5t-99 62.5q-89 29 -205 29h-55v207h62q134 0 204 37q48 25 68 63t20 96q0 78 -58.5 124t-154.5 46q-86 0 -185.5 -38.5t-172.5 -112.5h-8v237q71 62 179.5 100t221.5 38q213 0 323.5 -99.5
t110.5 -271.5q0 -104 -65 -188t-182 -123q142 -27 217 -107.5t75 -212.5q0 -193 -141.5 -305.5t-376.5 -112.5q-103 0 -209 27.5t-180 83.5z" />
    <glyph glyph-name="three.numerator" 
d="M98 567v178h8q104 -88 242 -88q85 0 123.5 31.5t38.5 81.5q0 33 -21.5 58t-58.5 36q-62 15 -133 15h-35v141h39q88 0 129 20q55 25 55 90q0 44 -35.5 68.5t-93.5 24.5q-60 0 -122.5 -22.5t-108.5 -70.5h-8v162q47 39 119.5 63.5t146.5 24.5q145 0 217 -61t72 -168
q0 -66 -43 -117.5t-121 -75.5q194 -35 194 -198q0 -121 -94.5 -190.5t-253.5 -69.5q-65 0 -135 17t-121 50z" />
    <glyph glyph-name="three.oldstyle" horiz-adv-x="1105" 
d="M111 -145v247h8q71 -68 167.5 -102.5t196.5 -34.5q136 0 196 55t60 144q0 57 -34.5 102t-94.5 64q-84 24 -196 24h-54v203h60q129 0 196 33q84 41 84 155q0 75 -55 117.5t-149 42.5q-87 0 -185.5 -37t-165.5 -110h-8v231q65 59 174 97t217 38q208 0 314 -95t106 -261
q0 -104 -62 -185.5t-175 -115.5q137 -22 209.5 -102.5t72.5 -210.5q0 -188 -136 -297t-365 -109q-102 0 -206 26.5t-175 80.5z" />
    <glyph glyph-name="three.taboldstyle" horiz-adv-x="1171" 
d="M154 -145v247h8q71 -68 167.5 -102.5t196.5 -34.5q136 0 196 55t60 144q0 58 -34 103t-95 63q-81 24 -196 24h-56v203h62q129 0 194 33q86 40 86 155q0 75 -55 117.5t-149 42.5q-87 0 -185.5 -37t-165.5 -110h-8v231q65 59 173.5 97t217.5 38q209 0 314.5 -94.5
t105.5 -261.5q0 -104 -61.5 -185t-173.5 -116q135 -22 207.5 -103t72.5 -210q0 -188 -136.5 -297t-364.5 -109q-102 0 -206 26.5t-175 80.5z" />
    <glyph glyph-name="threefifths" horiz-adv-x="1785" 
d="M639 -25h-133l690 1422h131zM121 567v178h8q104 -88 242 -88q85 0 123 31t38 82q0 34 -21 58.5t-58 35.5q-62 15 -134 15h-34v141h39q88 0 129 20q55 25 55 90q0 44 -35.5 68.5t-93.5 24.5q-60 0 -123 -22.5t-109 -70.5h-8v162q46 39 119.5 63.5t147.5 24.5
q144 0 216 -61t72 -168q0 -66 -43 -117.5t-121 -75.5q195 -35 195 -198q0 -121 -94.5 -190.5t-253.5 -69.5q-65 0 -135 17t-121 50zM1069 51v168h8q108 -80 242 -80q87 0 131.5 36.5t44.5 103.5q0 120 -170 120q-116 0 -215 -55h-8l51 500h485v-154h-356l-22 -178
q56 29 149 29q127 0 202 -64.5t75 -189.5q0 -147 -99.5 -223t-259.5 -76q-159 0 -258 63z" />
    <glyph glyph-name="tilde.cap" horiz-adv-x="458" 
d="M-4 1536h-152q7 136 67 205t155 69q62 0 161 -57q72 -43 119 -43q32 0 48.5 22.5t23.5 82.5h149q-9 -137 -67 -208t-144 -71q-44 0 -78.5 10t-89.5 39q-94 51 -125 51q-29 0 -45 -22.5t-22 -77.5z" />
    <glyph glyph-name="two.denominator" 
d="M715 0h-649v102q189 143 317 271q106 103 106 202q0 60 -37.5 95t-105.5 35q-142 0 -250 -117h-8v166q52 50 129 79t156 29q147 0 224 -70t77 -188q0 -138 -123 -268q-41 -41 -106 -96t-115 -88q117 2 385 2v-154z" />
    <glyph glyph-name="two.fitted" horiz-adv-x="1159" 
d="M1065 0h-983v143q26 23 97.5 85.5t105.5 93t90 81.5t102 96.5t90 92.5q176 185 176 354q0 101 -60 160t-171 59q-216 0 -385 -184h-8v244q81 79 193 122.5t233 43.5q220 0 336 -111.5t116 -298.5q0 -226 -190 -440q-59 -66 -168.5 -163t-194.5 -159q193 2 621 2v-221z
" />
    <glyph glyph-name="two.numerator" 
d="M715 518h-649v103q193 146 317 270q106 103 106 203q0 59 -37.5 94t-105.5 35q-142 0 -250 -117h-8v166q52 50 129 79t156 29q147 0 224 -70t77 -188q0 -138 -123 -268q-41 -41 -106 -96t-115 -88q117 2 385 2v-154z" />
    <glyph glyph-name="two.oldstyle" horiz-adv-x="1136" 
d="M1059 0h-963v137q51 34 155 100t180.5 118.5t143.5 109.5q88 73 126 135t38 127q0 178 -215 178q-93 0 -201.5 -50.5t-185.5 -129.5h-8v236q80 74 194 118.5t234 44.5q112 0 195.5 -28t133 -78t73.5 -113.5t24 -140.5q0 -204 -166 -348q-96 -87 -295 -203q188 2 537 2
v-215z" />
    <glyph glyph-name="two.taboldstyle" horiz-adv-x="1171" 
d="M1069 0h-963v137q52 35 155.5 100.5t180 118t144.5 109.5q88 73 125 135t37 127q0 178 -213 178q-94 0 -203 -51.5t-185 -132.5h-8v235q74 74 191 121t237 47q112 0 195.5 -28t133 -78t73.5 -113.5t24 -140.5q0 -202 -166 -348q-96 -87 -295 -203q188 2 537 2v-215z" />
    <glyph glyph-name="twofifths" horiz-adv-x="1785" 
d="M674 -25h-133l690 1422h131zM727 518h-649v103q193 146 317 270q107 104 107 203q0 59 -38 94t-106 35q-141 0 -249 -117h-9v166q52 50 129 79t156 29q147 0 224 -70t77 -188q0 -138 -123 -268q-41 -41 -106 -96t-115 -88q117 2 385 2v-154zM1106 51v168h8
q108 -80 242 -80q87 0 131.5 36.5t44.5 103.5q0 120 -170 120q-116 0 -215 -55h-8l51 500h485v-154h-356l-23 -178q56 29 150 29q127 0 201.5 -64.5t74.5 -189.5q0 -148 -99 -223.5t-259 -75.5q-159 0 -258 63z" />
    <glyph glyph-name="yen.denominator" horiz-adv-x="888" 
d="M532 0h-178v248h-235v76h235v10l-55 84h-180v78h133l-225 348h211q151 -241 206 -348q33 55 220 348h196l-227 -348h133v-78h-180l-54 -84v-10h234v-76h-234v-248z" />
    <glyph glyph-name="yen.numerator" horiz-adv-x="888" 
d="M532 518h-178v248h-235v76h235v10l-55 84h-180v78h133l-225 348h211q151 -241 206 -348q33 55 220 348h196l-227 -348h133v-78h-180l-54 -84v-10h234v-76h-234v-248z" />
    <glyph glyph-name="yen.oldstyle" horiz-adv-x="1286" 
d="M760 0h-238v365h-356v110h356v19l-84 124h-272v111h205l-334 508h280q24 -38 66 -104q139 -219 183.5 -292.5t78.5 -140.5q71 117 338 537h268l-338 -508h205v-111h-274l-84 -124v-19h358v-110h-358v-365z" />
    <glyph glyph-name="zero.denominator" 
d="M764 426q0 -213 -96 -328.5t-254 -115.5q-157 0 -252.5 114.5t-95.5 323.5q0 208 100.5 325t253.5 117q159 0 251.5 -113.5t92.5 -322.5zM586 422q0 137 -45.5 211t-124.5 74q-78 0 -125 -75t-47 -210q0 -137 47 -210t123 -73q81 0 126.5 71.5t45.5 211.5z" />
    <glyph glyph-name="zero.fitted" horiz-adv-x="1204" 
d="M1130 684q0 -337 -144.5 -525t-385.5 -188t-383.5 187t-142.5 520q0 166 41 302t112.5 225t168.5 137.5t210 48.5q244 0 384 -187t140 -520zM883 682q0 233 -74.5 360t-206.5 127q-131 0 -208 -128t-77 -359q0 -233 77.5 -361t207.5 -128q131 0 206 127t75 362z" />
    <glyph glyph-name="zero.numerator" 
d="M764 944q0 -213 -96 -328.5t-254 -115.5q-157 0 -252.5 114.5t-95.5 323.5q0 208 100.5 325t253.5 117q159 0 251.5 -113.5t92.5 -322.5zM586 940q0 137 -45.5 211t-124.5 74q-78 0 -125 -75t-47 -210q0 -137 47 -210t123 -73q81 0 126.5 71.5t45.5 211.5z" />
    <glyph glyph-name="zero.oldstyle" horiz-adv-x="1232" 
d="M1145 561q0 -150 -46 -266.5t-123 -185.5t-169 -103.5t-193 -34.5q-79 0 -153.5 21t-142 67t-118 111.5t-80.5 161.5t-30 211q0 113 32.5 210t86.5 164t124 114.5t144.5 70t149.5 22.5q82 0 157.5 -21.5t141.5 -67t114.5 -110.5t76.5 -158.5t28 -205.5zM901 547
q0 168 -79.5 262t-200.5 94q-117 0 -202 -92t-85 -264q0 -94 26 -166t68.5 -112t90 -59.5t97.5 -19.5q123 0 204 87.5t81 269.5z" />
    <glyph glyph-name="zero.taboldstyle" horiz-adv-x="1171" 
d="M1104 561q0 -150 -43.5 -266t-118 -185t-165.5 -104t-193 -35t-193 35t-163.5 103t-115 180t-42.5 254q0 113 31 210t83 164t120.5 114.5t142.5 70t149 22.5q104 0 195 -35.5t161.5 -103.5t111 -177t40.5 -247zM860 547q0 170 -75.5 263t-196.5 93q-113 0 -194 -94
t-81 -262q0 -95 24.5 -166.5t65.5 -111.5t87 -59.5t96 -19.5q119 0 196.5 87.5t77.5 269.5z" />
    <glyph glyph-name="period.superior" horiz-adv-x="329" 
d="M289 905q0 -45 -30.5 -73.5t-74.5 -28.5q-45 0 -75.5 28t-30.5 74q0 52 31.5 79.5t74.5 27.5q40 0 72.5 -28t32.5 -79z" />
    <glyph glyph-name="comma.superior" horiz-adv-x="327" 
d="M129 608h-129v8q54 43 87.5 112t33.5 149q0 68 -23 118h166q17 -44 17 -110q0 -83 -45.5 -159t-106.5 -118z" />
    <glyph glyph-name="hyphen.superior" horiz-adv-x="428" 
d="M379 1104h-328v127h328v-127z" />
    <glyph glyph-name="dollar.superior" horiz-adv-x="776" 
d="M434 678h-72v131q-82 3 -161 27.5t-131 64.5v176h8q56 -51 133 -79t151 -33v198l-71 21q-110 30 -159.5 87.5t-49.5 145.5q0 103 70.5 169.5t209.5 78.5v129h72v-125q63 -2 137 -24t105 -50v-170h-8q-42 39 -106 63.5t-128 29.5v-205l58 -17q129 -37 180 -90.5t51 -140.5
q0 -101 -70.5 -172t-218.5 -82v-133zM264 1427q0 -31 18.5 -53.5t79.5 -40.5v185q-98 -13 -98 -91zM535 1051q0 32 -23 51.5t-78 38.5v-174q52 5 76.5 25t24.5 59z" />
    <glyph glyph-name="cent.superior" horiz-adv-x="720" 
d="M463 680h-74v133q-134 9 -220.5 92.5t-86.5 224.5q0 130 85.5 219t221.5 103v129h74v-129q126 -7 176 -57v-150h-8q-63 63 -168 70v-365q100 3 170 70h8v-146q-71 -55 -178 -63v-131zM252 1135q0 -71 37.5 -117t99.5 -62v353q-62 -14 -99.5 -58.5t-37.5 -115.5z" />
    <glyph glyph-name="sterling.superior" horiz-adv-x="817" 
d="M762 819h-680v107q97 48 133.5 87.5t36.5 88.5q0 44 -14 67h-134v101h101q-35 90 -35 160q0 114 87 182.5t239 68.5q67 0 131.5 -15.5t101.5 -43.5v-172h-8q-87 78 -203 78q-78 0 -120 -31.5t-42 -91.5q0 -38 33 -135h248v-101h-223q10 -38 10 -63q0 -77 -88 -133h426
v-154z" />
    <glyph glyph-name="yen.superior" horiz-adv-x="888" 
d="M532 819h-178v248h-235v76h235v10l-55 84h-180v78h133l-225 348h211q151 -241 206 -348q33 55 220 348h196l-227 -348h133v-78h-180l-54 -84v-10h234v-76h-234v-248z" />
    <glyph glyph-name="Euro.superior" horiz-adv-x="897" 
d="M666 1114h-304q54 -156 246 -156q125 0 230 82h8v-161q-42 -35 -114.5 -56.5t-153.5 -21.5q-162 0 -266.5 81t-135.5 232h-104v76h94q-2 16 -2 53v41h-92v76h102q33 154 144.5 237.5t267.5 83.5q82 0 151.5 -18.5t106.5 -52.5v-166h-8q-40 38 -102.5 61t-125.5 23
q-203 0 -250 -168h308v-76h-320q-2 -12 -2 -37q0 -41 2 -57h320v-76z" />
    <glyph glyph-name="florin.superior" horiz-adv-x="679" 
d="M10 670v155h8q30 -24 84 -24q73 0 93 47q10 24 16 80l33 323h-123v101h129l12 96q10 95 55 149q70 84 199 84q41 0 82 -9.5t59 -24.5v-152h-8q-39 31 -104 31q-53 0 -82 -29q-24 -27 -29 -78l-6 -67h152v-101h-162l-35 -352q-8 -83 -31 -133q-54 -119 -227 -119
q-67 0 -115 23z" />
    <glyph glyph-name="period.inferior" horiz-adv-x="329" 
d="M289 -174q0 -45 -30.5 -73.5t-74.5 -28.5q-45 0 -75.5 28t-30.5 74q0 52 31.5 79t74.5 27q40 0 72.5 -27.5t32.5 -78.5z" />
    <glyph glyph-name="comma.inferior" horiz-adv-x="327" 
d="M129 -471h-129v8q54 44 87.5 112t33.5 148q0 69 -23 119h166q17 -44 17 -111q0 -83 -45 -158.5t-107 -117.5z" />
    <glyph glyph-name="hyphen.inferior" horiz-adv-x="428" 
d="M379 25h-328v127h328v-127z" />
    <glyph glyph-name="dollar.inferior" horiz-adv-x="776" 
d="M434 -401h-72v131q-81 3 -160 28t-132 64v176h8q57 -50 134 -78t150 -33v197l-71 20q-110 30 -159.5 87.5t-49.5 146.5q0 103 70.5 169.5t209.5 78.5v129h72v-125q63 -2 137 -24t105 -50v-170h-8q-41 38 -105.5 62.5t-128.5 29.5v-205l58 -16q129 -37 180 -90.5
t51 -140.5q0 -101 -70.5 -172t-218.5 -82v-133zM264 348q0 -31 18.5 -53.5t79.5 -40.5v184q-98 -13 -98 -90zM535 -29q0 32 -23 51.5t-78 38.5v-174q52 6 76.5 25.5t24.5 58.5z" />
    <glyph glyph-name="cent.inferior" horiz-adv-x="720" 
d="M463 -399h-74v133q-134 11 -220.5 94.5t-86.5 222.5q0 130 85.5 219t221.5 103v129h74v-129q125 -7 176 -58v-149h-8q-63 63 -168 70v-365q100 6 170 70h8v-146q-73 -53 -178 -61v-133zM252 55q0 -70 37.5 -116t99.5 -60v350q-62 -14 -99.5 -58.5t-37.5 -115.5z" />
    <glyph glyph-name="sterling.inferior" horiz-adv-x="817" 
d="M762 -260h-680v106q96 48 133 88t37 89q0 44 -14 67h-134v100h101q-35 90 -35 160q0 114 87 183t239 69q67 0 131.5 -15.5t101.5 -43.5v-172h-8q-87 78 -203 78q-78 0 -120 -31.5t-42 -91.5q0 -39 33 -136h248v-100h-223q10 -38 10 -63q0 -77 -88 -133h426v-154z" />
    <glyph glyph-name="yen.inferior" horiz-adv-x="888" 
d="M532 -260h-178v248h-235v75h235v11l-55 84h-180v78h133l-225 348h211q151 -241 206 -348q33 55 220 348h196l-227 -348h133v-78h-180l-54 -84v-11h234v-75h-234v-248z" />
    <glyph glyph-name="Euro.inferior" horiz-adv-x="897" 
d="M666 35h-304q54 -156 246 -156q125 0 230 82h8v-162q-42 -35 -114.5 -56.5t-153.5 -21.5q-161 0 -266 81.5t-136 232.5h-104v76h94q-2 16 -2 53v41h-92v76h102q33 154 144.5 237.5t267.5 83.5q82 0 151.5 -19t106.5 -53v-165h-8q-40 38 -102.5 61t-125.5 23
q-203 0 -250 -168h308v-76h-320q-2 -12 -2 -37q0 -41 2 -57h320v-76z" />
    <glyph glyph-name="florin.inferior" horiz-adv-x="679" 
d="M10 -410v156h8q31 -25 84 -25q72 0 93 48q10 24 16 79l33 324h-123v100h129l12 97q10 95 55 149q70 84 199 84q40 0 81 -10t60 -25v-151h-8q-38 30 -104 30q-54 0 -82 -28q-24 -27 -29 -78l-6 -68h152v-100h-162l-35 -352q-8 -83 -31 -133q-54 -119 -227 -119
q-69 0 -115 22z" />
    <glyph glyph-name="six.oldstyle" horiz-adv-x="1181" 
d="M352 715q46 81 137 127.5t195 46.5q90 0 165 -27.5t131.5 -81.5t88 -140.5t31.5 -197.5q0 -147 -64 -255.5t-170 -162t-239 -53.5q-76 0 -146.5 19.5t-138.5 67.5t-118 120t-80.5 186t-30.5 257q0 135 24 248t67 194t99.5 142t125.5 97.5t141 54t149 17.5q210 0 319 -80
v-250h-12q-108 111 -295 111q-172 0 -271 -114.5t-108 -325.5zM365 508q0 -96 32 -174q27 -67 85.5 -107.5t131.5 -40.5q107 0 176.5 63.5t69.5 190.5q0 122 -66 185t-171 63q-95 0 -165.5 -54t-92.5 -126z" />
    <glyph glyph-name="nine.oldstyle" horiz-adv-x="1181" 
d="M125 -164v234h8q65 -54 154.5 -80.5t177.5 -26.5q185 0 273.5 109.5t101.5 322.5q-35 -75 -125 -125.5t-201 -50.5q-119 0 -215 49t-155.5 151t-59.5 243q0 140 66.5 247t175 161t239.5 54q246 0 375 -171t129 -480q0 -156 -32 -281t-86.5 -207t-131 -136t-161 -77.5
t-181.5 -23.5q-101 0 -197.5 23.5t-154.5 64.5zM817 608q0 76 -16 133q-24 82 -86 127t-148 45q-102 0 -172.5 -63t-70.5 -186q0 -115 66.5 -179.5t168.5 -64.5q99 0 166 54t92 134z" />
    <glyph glyph-name="six.fitted" horiz-adv-x="1200" 
d="M354 725q44 77 137.5 124.5t198.5 47.5q190 0 307 -116t117 -332q0 -148 -64.5 -258t-172 -165t-242.5 -55q-78 0 -150 20t-141.5 68t-120 121t-81.5 188t-31 259q0 163 35 294.5t94 217.5t139.5 144t167 83t180.5 25q220 0 328 -82v-250h-13q-108 110 -303 110
q-170 0 -271.5 -113t-113.5 -331zM369 514q0 -97 32 -178q25 -66 85.5 -107t136.5 -41q107 0 177 63.5t70 192.5q0 125 -66 187.5t-173 62.5q-97 0 -168.5 -53.5t-93.5 -126.5z" />
    <glyph glyph-name="nine.fitted" horiz-adv-x="1204" 
d="M131 61v242h8q65 -55 159 -82.5t185 -27.5q181 0 271 116.5t98 329.5q-38 -76 -125 -124t-197 -48q-127 0 -225.5 48t-158.5 150.5t-60 247.5q0 142 67 252.5t177.5 168t244.5 57.5q253 0 386 -180t133 -504q0 -159 -32 -285.5t-87 -209.5t-131.5 -138.5t-162 -79
t-183.5 -23.5q-106 0 -207 24t-160 66zM829 858q0 62 -22 139q-25 82 -84 129.5t-143 47.5q-66 0 -120.5 -25.5t-92 -86t-37.5 -147.5q0 -118 69 -183.5t174 -65.5q101 0 166.5 55t89.5 137z" />
    <glyph glyph-name="six.taboldstyle" horiz-adv-x="1171" 
d="M350 715q46 81 137 127.5t195 46.5q90 0 165 -27.5t131.5 -81.5t88 -140.5t31.5 -197.5q0 -147 -64 -255.5t-170 -162t-239 -53.5q-76 0 -146.5 19.5t-138.5 67.5t-118 120t-80.5 186t-30.5 257q0 135 24 248t67 194t99.5 142t125.5 97.5t141 54t149 17.5q210 0 319 -80
v-250h-12q-108 111 -295 111q-172 0 -271 -114.5t-108 -325.5zM362 508q0 -93 33 -174q27 -67 85.5 -107.5t131.5 -40.5q107 0 176.5 63.5t69.5 190.5q0 122 -66 185t-171 63q-95 0 -166 -54t-93 -126z" />
    <glyph glyph-name="nine.taboldstyle" horiz-adv-x="1171" 
d="M121 -164v234h8q65 -54 154.5 -80.5t177.5 -26.5q185 0 273.5 109.5t101.5 322.5q-35 -75 -125 -125.5t-201 -50.5q-119 0 -215 49t-155.5 151t-59.5 243q0 140 66.5 247t175 161t239.5 54q246 0 375 -171t129 -480q0 -156 -32 -281t-86.5 -207t-131 -136t-161 -77.5
t-181.5 -23.5q-101 0 -197.5 23.5t-154.5 64.5zM813 608q0 76 -16 133q-24 82 -86 127t-148 45q-102 0 -173 -63t-71 -186q0 -115 67 -179.5t169 -64.5q99 0 166 54t92 134z" />
    </font>
</defs>
</svg>
